<?xml version="1.0" encoding="UTF-8" standalone="no"?>
<!DOCTYPE svg PUBLIC "-//W3C//DTD SVG 1.1//EN"
 "http://www.w3.org/Graphics/SVG/1.1/DTD/svg11.dtd">
<!-- Generated by graphviz version 2.43.0 (0)
 -->
<!-- Title: G Pages: 1 -->
<svg width="440pt" height="574pt"
 viewBox="0.00 0.00 440.00 574.00" xmlns="http://www.w3.org/2000/svg" xmlns:xlink="http://www.w3.org/1999/xlink">
<g id="graph0" class="graph" transform="scale(1 1) rotate(0) translate(4 570)">
<title>G</title>
<polygon fill="white" stroke="transparent" points="-4,4 -4,-570 436,-570 436,4 -4,4"/>
<text text-anchor="middle" x="216" y="-549.2" font-family="Arial" font-size="16.00">Manual Flow Operasional Aplikasi Sakumi.md &#45; diagram 1</text>
<!-- A -->
<g id="node1" class="node">
<title>A</title>
<path fill="#f8fafc" stroke="#334155" d="M331.5,-540C331.5,-540 179.5,-540 179.5,-540 173.5,-540 167.5,-534 167.5,-528 167.5,-528 167.5,-516 167.5,-516 167.5,-510 173.5,-504 179.5,-504 179.5,-504 331.5,-504 331.5,-504 337.5,-504 343.5,-510 343.5,-516 343.5,-516 343.5,-528 343.5,-528 343.5,-534 337.5,-540 331.5,-540"/>
<text text-anchor="middle" x="255.5" y="-519.5" font-family="Arial" font-size="10.00">Setup User, Role, Unit, Master Data</text>
</g>
<!-- B -->
<g id="node2" class="node">
<title>B</title>
<path fill="#f8fafc" stroke="#334155" d="M265,-468C265,-468 146,-468 146,-468 140,-468 134,-462 134,-456 134,-456 134,-444 134,-444 134,-438 140,-432 146,-432 146,-432 265,-432 265,-432 271,-432 277,-438 277,-444 277,-444 277,-456 277,-456 277,-462 271,-468 265,-468"/>
<text text-anchor="middle" x="205.5" y="-447.5" font-family="Arial" font-size="10.00">Generate Kewajiban Bulanan</text>
</g>
<!-- A&#45;&gt;B -->
<g id="edge1" class="edge">
<title>A&#45;&gt;B</title>
<path fill="none" stroke="#475569" d="M243.14,-503.7C237.27,-495.47 230.13,-485.48 223.66,-476.42"/>
<polygon fill="#475569" stroke="#475569" points="226.38,-474.21 217.72,-468.1 220.68,-478.28 226.38,-474.21"/>
</g>
<!-- E -->
<g id="node5" class="node">
<title>E</title>
<path fill="#f8fafc" stroke="#334155" d="M398.5,-324C398.5,-324 260.5,-324 260.5,-324 254.5,-324 248.5,-318 248.5,-312 248.5,-312 248.5,-300 248.5,-300 248.5,-294 254.5,-288 260.5,-288 260.5,-288 398.5,-288 398.5,-288 404.5,-288 410.5,-294 410.5,-300 410.5,-300 410.5,-312 410.5,-312 410.5,-318 404.5,-324 398.5,-324"/>
<text text-anchor="middle" x="329.5" y="-303.5" font-family="Arial" font-size="10.00">Transaksi Langsung Non&#45;Tagihan</text>
</g>
<!-- A&#45;&gt;E -->
<g id="edge4" class="edge">
<title>A&#45;&gt;E</title>
<path fill="none" stroke="#475569" d="M266.63,-503.88C272.84,-493.76 280.34,-480.51 285.5,-468 304.15,-422.75 317.34,-367.12 324.16,-334.51"/>
<polygon fill="#475569" stroke="#475569" points="327.66,-334.88 326.23,-324.38 320.8,-333.48 327.66,-334.88"/>
</g>
<!-- C -->
<g id="node3" class="node">
<title>C</title>
<path fill="#f8fafc" stroke="#334155" d="M229.5,-396C229.5,-396 133.5,-396 133.5,-396 127.5,-396 121.5,-390 121.5,-384 121.5,-384 121.5,-372 121.5,-372 121.5,-366 127.5,-360 133.5,-360 133.5,-360 229.5,-360 229.5,-360 235.5,-360 241.5,-366 241.5,-372 241.5,-372 241.5,-384 241.5,-384 241.5,-390 235.5,-396 229.5,-396"/>
<text text-anchor="middle" x="181.5" y="-375.5" font-family="Arial" font-size="10.00">Generate / Buat Invoice</text>
</g>
<!-- B&#45;&gt;C -->
<g id="edge2" class="edge">
<title>B&#45;&gt;C</title>
<path fill="none" stroke="#475569" d="M199.57,-431.7C196.89,-423.9 193.67,-414.51 190.7,-405.83"/>
<polygon fill="#475569" stroke="#475569" points="193.92,-404.43 187.36,-396.1 187.3,-406.7 193.92,-404.43"/>
</g>
<!-- D -->
<g id="node4" class="node">
<title>D</title>
<path fill="#f8fafc" stroke="#334155" d="M218.5,-324C218.5,-324 50.5,-324 50.5,-324 44.5,-324 38.5,-318 38.5,-312 38.5,-312 38.5,-300 38.5,-300 38.5,-294 44.5,-288 50.5,-288 50.5,-288 218.5,-288 218.5,-288 224.5,-288 230.5,-294 230.5,-300 230.5,-300 230.5,-312 230.5,-312 230.5,-318 224.5,-324 218.5,-324"/>
<text text-anchor="middle" x="134.5" y="-303.5" font-family="Arial" font-size="10.00">Penerimaan Pembayaran via Settlement</text>
</g>
<!-- C&#45;&gt;D -->
<g id="edge3" class="edge">
<title>C&#45;&gt;D</title>
<path fill="none" stroke="#475569" d="M169.88,-359.7C164.36,-351.47 157.65,-341.48 151.57,-332.42"/>
<polygon fill="#475569" stroke="#475569" points="154.46,-330.46 145.98,-324.1 148.65,-334.36 154.46,-330.46"/>
</g>
<!-- F -->
<g id="node6" class="node">
<title>F</title>
<path fill="#f8fafc" stroke="#334155" d="M169.5,-252C169.5,-252 33.5,-252 33.5,-252 27.5,-252 21.5,-246 21.5,-240 21.5,-240 21.5,-228 21.5,-228 21.5,-222 27.5,-216 33.5,-216 33.5,-216 169.5,-216 169.5,-216 175.5,-216 181.5,-222 181.5,-228 181.5,-228 181.5,-240 181.5,-240 181.5,-246 175.5,-252 169.5,-252"/>
<text text-anchor="middle" x="101.5" y="-231.5" font-family="Arial" font-size="10.00">Update Status Invoice &amp; Piutang</text>
</g>
<!-- D&#45;&gt;F -->
<g id="edge5" class="edge">
<title>D&#45;&gt;F</title>
<path fill="none" stroke="#475569" d="M126.34,-287.7C122.59,-279.73 118.05,-270.1 113.88,-261.26"/>
<polygon fill="#475569" stroke="#475569" points="116.99,-259.66 109.56,-252.1 110.66,-262.64 116.99,-259.66"/>
</g>
<!-- G -->
<g id="node7" class="node">
<title>G</title>
<path fill="#f8fafc" stroke="#334155" d="M323,-252C323,-252 212,-252 212,-252 206,-252 200,-246 200,-240 200,-240 200,-228 200,-228 200,-222 206,-216 212,-216 212,-216 323,-216 323,-216 329,-216 335,-222 335,-228 335,-228 335,-240 335,-240 335,-246 329,-252 323,-252"/>
<text text-anchor="middle" x="267.5" y="-231.5" font-family="Arial" font-size="10.00">Cetak Kwitansi + Verifikasi</text>
</g>
<!-- D&#45;&gt;G -->
<g id="edge7" class="edge">
<title>D&#45;&gt;G</title>
<path fill="none" stroke="#475569" d="M167.04,-287.88C184.75,-278.55 206.85,-266.92 225.82,-256.94"/>
<polygon fill="#475569" stroke="#475569" points="227.62,-259.94 234.84,-252.19 224.36,-253.75 227.62,-259.94"/>
</g>
<!-- E&#45;&gt;G -->
<g id="edge6" class="edge">
<title>E&#45;&gt;G</title>
<path fill="none" stroke="#475569" d="M314.17,-287.7C306.74,-279.3 297.68,-269.07 289.52,-259.86"/>
<polygon fill="#475569" stroke="#475569" points="291.9,-257.27 282.65,-252.1 286.66,-261.91 291.9,-257.27"/>
</g>
<!-- H -->
<g id="node8" class="node">
<title>H</title>
<path fill="#f8fafc" stroke="#334155" d="M373.5,-180C373.5,-180 161.5,-180 161.5,-180 155.5,-180 149.5,-174 149.5,-168 149.5,-168 149.5,-156 149.5,-156 149.5,-150 155.5,-144 161.5,-144 161.5,-144 373.5,-144 373.5,-144 379.5,-144 385.5,-150 385.5,-156 385.5,-156 385.5,-168 385.5,-168 385.5,-174 379.5,-180 373.5,-180"/>
<text text-anchor="middle" x="267.5" y="-159.5" font-family="Arial" font-size="10.00">Laporan Harian/Bulanan/AR/Collection/Cash Book</text>
</g>
<!-- E&#45;&gt;H -->
<g id="edge9" class="edge">
<title>E&#45;&gt;H</title>
<path fill="none" stroke="#475569" d="M338.4,-287.93C346.82,-269.24 356.53,-238.88 344.5,-216 337.94,-203.52 326.96,-193.4 315.31,-185.48"/>
<polygon fill="#475569" stroke="#475569" points="317.1,-182.47 306.77,-180.1 313.37,-188.4 317.1,-182.47"/>
</g>
<!-- F&#45;&gt;H -->
<g id="edge8" class="edge">
<title>F&#45;&gt;H</title>
<path fill="none" stroke="#475569" d="M142.11,-215.88C164.9,-206.26 193.53,-194.19 217.67,-184.01"/>
<polygon fill="#475569" stroke="#475569" points="219.17,-187.18 227.02,-180.07 216.45,-180.73 219.17,-187.18"/>
</g>
<!-- G&#45;&gt;H -->
<g id="edge10" class="edge">
<title>G&#45;&gt;H</title>
<path fill="none" stroke="#475569" d="M267.5,-215.7C267.5,-207.98 267.5,-198.71 267.5,-190.11"/>
<polygon fill="#475569" stroke="#475569" points="271,-190.1 267.5,-180.1 264,-190.1 271,-190.1"/>
</g>
<!-- I -->
<g id="node9" class="node">
<title>I</title>
<path fill="#f8fafc" stroke="#334155" d="M351.5,-108C351.5,-108 183.5,-108 183.5,-108 177.5,-108 171.5,-102 171.5,-96 171.5,-96 171.5,-84 171.5,-84 171.5,-78 177.5,-72 183.5,-72 183.5,-72 351.5,-72 351.5,-72 357.5,-72 363.5,-78 363.5,-84 363.5,-84 363.5,-96 363.5,-96 363.5,-102 357.5,-108 351.5,-108"/>
<text text-anchor="middle" x="267.5" y="-87.5" font-family="Arial" font-size="10.00">Evaluasi KPI &amp; Pengambilan Keputusan</text>
</g>
<!-- H&#45;&gt;I -->
<g id="edge11" class="edge">
<title>H&#45;&gt;I</title>
<path fill="none" stroke="#475569" d="M267.5,-143.7C267.5,-135.98 267.5,-126.71 267.5,-118.11"/>
<polygon fill="#475569" stroke="#475569" points="271,-118.1 267.5,-108.1 264,-118.1 271,-118.1"/>
</g>
<!-- J -->
<g id="node10" class="node">
<title>J</title>
<path fill="#f8fafc" stroke="#334155" d="M392.5,-36C392.5,-36 142.5,-36 142.5,-36 136.5,-36 130.5,-30 130.5,-24 130.5,-24 130.5,-12 130.5,-12 130.5,-6 136.5,0 142.5,0 142.5,0 392.5,0 392.5,0 398.5,0 404.5,-6 404.5,-12 404.5,-12 404.5,-24 404.5,-24 404.5,-30 398.5,-36 392.5,-36"/>
<text text-anchor="middle" x="267.5" y="-15.5" font-family="Arial" font-size="10.00">Tindak Lanjut: Penagihan, Koreksi, Rekonsiliasi, Kebijakan</text>
</g>
<!-- I&#45;&gt;J -->
<g id="edge12" class="edge">
<title>I&#45;&gt;J</title>
<path fill="none" stroke="#475569" d="M267.5,-71.7C267.5,-63.98 267.5,-54.71 267.5,-46.11"/>
<polygon fill="#475569" stroke="#475569" points="271,-46.1 267.5,-36.1 264,-46.1 271,-46.1"/>
</g>
</g>
</svg>
