<?xml version="1.0" encoding="UTF-8" standalone="no"?>
<!DOCTYPE svg PUBLIC "-//W3C//DTD SVG 1.1//EN"
 "http://www.w3.org/Graphics/SVG/1.1/DTD/svg11.dtd">
<!-- Generated by graphviz version 2.43.0 (0)
 -->
<!-- Title: G Pages: 1 -->
<svg width="545pt" height="809pt"
 viewBox="0.00 0.00 544.50 809.00" xmlns="http://www.w3.org/2000/svg" xmlns:xlink="http://www.w3.org/1999/xlink">
<g id="graph0" class="graph" transform="scale(1 1) rotate(0) translate(4 805)">
<title>G</title>
<polygon fill="white" stroke="transparent" points="-4,4 -4,-805 540.5,-805 540.5,4 -4,4"/>
<text text-anchor="middle" x="268.25" y="-784.2" font-family="Arial" font-size="16.00">OPERATIONAL_HANDBOOK_ID.md &#45; diagram 7</text>
<!-- A -->
<g id="node1" class="node">
<title>A</title>
<path fill="#f8fafc" stroke="#334155" d="M272,-775C272,-775 179,-775 179,-775 173,-775 167,-769 167,-763 167,-763 167,-751 167,-751 167,-745 173,-739 179,-739 179,-739 272,-739 272,-739 278,-739 284,-745 284,-751 284,-751 284,-763 284,-763 284,-769 278,-775 272,-775"/>
<text text-anchor="middle" x="225.5" y="-754.5" font-family="Arial" font-size="10.00">Buat Entri Pengeluaran</text>
</g>
<!-- B -->
<g id="node2" class="node">
<title>B</title>
<path fill="#f8fafc" stroke="#334155" d="M300,-702C300,-702 151,-702 151,-702 145,-702 139,-696 139,-690 139,-690 139,-678 139,-678 139,-672 145,-666 151,-666 151,-666 300,-666 300,-666 306,-666 312,-672 312,-678 312,-678 312,-690 312,-690 312,-696 306,-702 300,-702"/>
<text text-anchor="middle" x="225.5" y="-681.5" font-family="Arial" font-size="10.00">Pilih jenis biaya dengan subkategori</text>
</g>
<!-- A&#45;&gt;B -->
<g id="edge1" class="edge">
<title>A&#45;&gt;B</title>
<path fill="none" stroke="#475569" d="M225.5,-738.81C225.5,-730.79 225.5,-721.05 225.5,-712.07"/>
<polygon fill="#475569" stroke="#475569" points="229,-712.03 225.5,-702.03 222,-712.03 229,-712.03"/>
</g>
<!-- C -->
<g id="node3" class="node">
<title>C</title>
<path fill="#f8fafc" stroke="#334155" d="M322.5,-629C322.5,-629 128.5,-629 128.5,-629 122.5,-629 116.5,-623 116.5,-617 116.5,-617 116.5,-605 116.5,-605 116.5,-599 122.5,-593 128.5,-593 128.5,-593 322.5,-593 322.5,-593 328.5,-593 334.5,-599 334.5,-605 334.5,-605 334.5,-617 334.5,-617 334.5,-623 328.5,-629 322.5,-629"/>
<text text-anchor="middle" x="225.5" y="-608.5" font-family="Arial" font-size="10.00">Isi: tanggal, metode, vendor, jumlah, deskripsi</text>
</g>
<!-- B&#45;&gt;C -->
<g id="edge2" class="edge">
<title>B&#45;&gt;C</title>
<path fill="none" stroke="#475569" d="M225.5,-665.81C225.5,-657.79 225.5,-648.05 225.5,-639.07"/>
<polygon fill="#475569" stroke="#475569" points="229,-639.03 225.5,-629.03 222,-639.03 229,-639.03"/>
</g>
<!-- D -->
<g id="node4" class="node">
<title>D</title>
<path fill="#f8fafc" stroke="#334155" d="M249,-556C249,-556 202,-556 202,-556 196,-556 190,-550 190,-544 190,-544 190,-532 190,-532 190,-526 196,-520 202,-520 202,-520 249,-520 249,-520 255,-520 261,-526 261,-532 261,-532 261,-544 261,-544 261,-550 255,-556 249,-556"/>
<text text-anchor="middle" x="225.5" y="-535.5" font-family="Arial" font-size="10.00">Status: draft</text>
</g>
<!-- C&#45;&gt;D -->
<g id="edge3" class="edge">
<title>C&#45;&gt;D</title>
<path fill="none" stroke="#475569" d="M225.5,-592.81C225.5,-584.79 225.5,-575.05 225.5,-566.07"/>
<polygon fill="#475569" stroke="#475569" points="229,-566.03 225.5,-556.03 222,-566.03 229,-566.03"/>
</g>
<!-- E -->
<g id="node5" class="node">
<title>E</title>
<path fill="#f8fafc" stroke="#334155" d="M214.43,-478.37C214.43,-478.37 193.49,-469.63 193.49,-469.63 187.96,-467.31 187.96,-462.69 193.49,-460.37 193.49,-460.37 214.43,-451.63 214.43,-451.63 219.96,-449.31 231.04,-449.31 236.57,-451.63 236.57,-451.63 257.51,-460.37 257.51,-460.37 263.04,-462.69 263.04,-467.31 257.51,-469.63 257.51,-469.63 236.57,-478.37 236.57,-478.37 231.04,-480.69 219.96,-480.69 214.43,-478.37"/>
<text text-anchor="middle" x="225.5" y="-462.5" font-family="Arial" font-size="10.00">Setujui?</text>
</g>
<!-- D&#45;&gt;E -->
<g id="edge4" class="edge">
<title>D&#45;&gt;E</title>
<path fill="none" stroke="#475569" d="M225.5,-519.81C225.5,-511.79 225.5,-502.05 225.5,-493.07"/>
<polygon fill="#475569" stroke="#475569" points="229,-493.03 225.5,-483.03 222,-493.03 229,-493.03"/>
</g>
<!-- F -->
<g id="node6" class="node">
<title>F</title>
<path fill="#f8fafc" stroke="#334155" d="M236.5,-401C236.5,-401 38.5,-401 38.5,-401 32.5,-401 26.5,-395 26.5,-389 26.5,-389 26.5,-377 26.5,-377 26.5,-371 32.5,-365 38.5,-365 38.5,-365 236.5,-365 236.5,-365 242.5,-365 248.5,-371 248.5,-377 248.5,-377 248.5,-389 248.5,-389 248.5,-395 242.5,-401 236.5,-401"/>
<text text-anchor="middle" x="137.5" y="-380.5" font-family="Arial" font-size="10.00">ExpenseManagementService::approveAndPost</text>
</g>
<!-- E&#45;&gt;F -->
<g id="edge5" class="edge">
<title>E&#45;&gt;F</title>
<path fill="none" stroke="#475569" d="M212.52,-452.2C199.78,-440.62 179.99,-422.62 163.93,-408.03"/>
<polygon fill="#475569" stroke="#475569" points="166.15,-405.31 156.4,-401.18 161.44,-410.49 166.15,-405.31"/>
<text text-anchor="middle" x="193" y="-421.8" font-family="Arial" font-size="9.00">Ya</text>
</g>
<!-- L -->
<g id="node12" class="node">
<title>L</title>
<path fill="#f8fafc" stroke="#334155" d="M346.5,-401C346.5,-401 278.5,-401 278.5,-401 272.5,-401 266.5,-395 266.5,-389 266.5,-389 266.5,-377 266.5,-377 266.5,-371 272.5,-365 278.5,-365 278.5,-365 346.5,-365 346.5,-365 352.5,-365 358.5,-371 358.5,-377 358.5,-377 358.5,-389 358.5,-389 358.5,-395 352.5,-401 346.5,-401"/>
<text text-anchor="middle" x="312.5" y="-380.5" font-family="Arial" font-size="10.00">Status: cancelled</text>
</g>
<!-- E&#45;&gt;L -->
<g id="edge11" class="edge">
<title>E&#45;&gt;L</title>
<path fill="none" stroke="#475569" d="M238.34,-452.2C250.93,-440.62 270.5,-422.62 286.37,-408.03"/>
<polygon fill="#475569" stroke="#475569" points="288.83,-410.52 293.82,-401.18 284.09,-405.37 288.83,-410.52"/>
<text text-anchor="middle" x="285.5" y="-421.8" font-family="Arial" font-size="9.00">Batal</text>
</g>
<!-- G -->
<g id="node7" class="node">
<title>G</title>
<path fill="#f8fafc" stroke="#334155" d="M168,-328C168,-328 107,-328 107,-328 101,-328 95,-322 95,-316 95,-316 95,-304 95,-304 95,-298 101,-292 107,-292 107,-292 168,-292 168,-292 174,-292 180,-298 180,-304 180,-304 180,-316 180,-316 180,-322 174,-328 168,-328"/>
<text text-anchor="middle" x="137.5" y="-307.5" font-family="Arial" font-size="10.00">DB::transaction</text>
</g>
<!-- F&#45;&gt;G -->
<g id="edge6" class="edge">
<title>F&#45;&gt;G</title>
<path fill="none" stroke="#475569" d="M137.5,-364.81C137.5,-356.79 137.5,-347.05 137.5,-338.07"/>
<polygon fill="#475569" stroke="#475569" points="141,-338.03 137.5,-328.03 134,-338.03 141,-338.03"/>
</g>
<!-- H -->
<g id="node8" class="node">
<title>H</title>
<path fill="#f8fafc" stroke="#334155" d="M211.5,-255C211.5,-255 63.5,-255 63.5,-255 57.5,-255 51.5,-249 51.5,-243 51.5,-243 51.5,-231 51.5,-231 51.5,-225 57.5,-219 63.5,-219 63.5,-219 211.5,-219 211.5,-219 217.5,-219 223.5,-225 223.5,-231 223.5,-231 223.5,-243 223.5,-243 223.5,-249 217.5,-255 211.5,-255"/>
<text text-anchor="middle" x="137.5" y="-234.5" font-family="Arial" font-size="10.00">TransactionService::createExpense</text>
</g>
<!-- G&#45;&gt;H -->
<g id="edge7" class="edge">
<title>G&#45;&gt;H</title>
<path fill="none" stroke="#475569" d="M137.5,-291.81C137.5,-283.79 137.5,-274.05 137.5,-265.07"/>
<polygon fill="#475569" stroke="#475569" points="141,-265.03 137.5,-255.03 134,-265.03 141,-265.03"/>
</g>
<!-- I -->
<g id="node9" class="node">
<title>I</title>
<path fill="#f8fafc" stroke="#334155" d="M263,-182C263,-182 12,-182 12,-182 6,-182 0,-176 0,-170 0,-170 0,-158 0,-158 0,-152 6,-146 12,-146 12,-146 263,-146 263,-146 269,-146 275,-152 275,-158 275,-158 275,-170 275,-170 275,-176 269,-182 263,-182"/>
<text text-anchor="middle" x="137.5" y="-161.5" font-family="Arial" font-size="10.00">Buat Transaksi: type=expense, nomor=NK&#45;YYYY&#45;XXXXXX</text>
</g>
<!-- H&#45;&gt;I -->
<g id="edge8" class="edge">
<title>H&#45;&gt;I</title>
<path fill="none" stroke="#475569" d="M137.5,-218.81C137.5,-210.79 137.5,-201.05 137.5,-192.07"/>
<polygon fill="#475569" stroke="#475569" points="141,-192.03 137.5,-182.03 134,-192.03 141,-192.03"/>
</g>
<!-- J -->
<g id="node10" class="node">
<title>J</title>
<path fill="#f8fafc" stroke="#334155" d="M262,-109C262,-109 13,-109 13,-109 7,-109 1,-103 1,-97 1,-97 1,-85 1,-85 1,-79 7,-73 13,-73 13,-73 262,-73 262,-73 268,-73 274,-79 274,-85 274,-85 274,-97 274,-97 274,-103 268,-109 262,-109"/>
<text text-anchor="middle" x="137.5" y="-88.5" font-family="Arial" font-size="10.00">Update pengeluaran: status=posted, posted_transaction_id</text>
</g>
<!-- I&#45;&gt;J -->
<g id="edge9" class="edge">
<title>I&#45;&gt;J</title>
<path fill="none" stroke="#475569" d="M137.5,-145.81C137.5,-137.79 137.5,-128.05 137.5,-119.07"/>
<polygon fill="#475569" stroke="#475569" points="141,-119.03 137.5,-109.03 134,-119.03 141,-119.03"/>
</g>
<!-- K -->
<g id="node11" class="node">
<title>K</title>
<path fill="#f8fafc" stroke="#334155" d="M204.5,-36C204.5,-36 70.5,-36 70.5,-36 64.5,-36 58.5,-30 58.5,-24 58.5,-24 58.5,-12 58.5,-12 58.5,-6 64.5,0 70.5,0 70.5,0 204.5,0 204.5,0 210.5,0 216.5,-6 216.5,-12 216.5,-12 216.5,-24 216.5,-24 216.5,-30 210.5,-36 204.5,-36"/>
<text text-anchor="middle" x="137.5" y="-15.5" font-family="Arial" font-size="10.00">Catat approved_by, approved_at</text>
</g>
<!-- J&#45;&gt;K -->
<g id="edge10" class="edge">
<title>J&#45;&gt;K</title>
<path fill="none" stroke="#475569" d="M137.5,-72.81C137.5,-64.79 137.5,-55.05 137.5,-46.07"/>
<polygon fill="#475569" stroke="#475569" points="141,-46.03 137.5,-36.03 134,-46.03 141,-46.03"/>
</g>
<!-- M -->
<g id="node13" class="node">
<title>M</title>
<path fill="#f8fafc" stroke="#334155" d="M476.5,-775C476.5,-775 390.5,-775 390.5,-775 384.5,-775 378.5,-769 378.5,-763 378.5,-763 378.5,-751 378.5,-751 378.5,-745 384.5,-739 390.5,-739 390.5,-739 476.5,-739 476.5,-739 482.5,-739 488.5,-745 488.5,-751 488.5,-751 488.5,-763 488.5,-763 488.5,-769 482.5,-775 476.5,-775"/>
<text text-anchor="middle" x="433.5" y="-754.5" font-family="Arial" font-size="10.00">Manajemen Anggaran</text>
</g>
<!-- N -->
<g id="node14" class="node">
<title>N</title>
<path fill="#f8fafc" stroke="#334155" d="M524.5,-702C524.5,-702 342.5,-702 342.5,-702 336.5,-702 330.5,-696 330.5,-690 330.5,-690 330.5,-678 330.5,-678 330.5,-672 336.5,-666 342.5,-666 342.5,-666 524.5,-666 524.5,-666 530.5,-666 536.5,-672 536.5,-678 536.5,-678 536.5,-690 536.5,-690 536.5,-696 530.5,-702 524.5,-702"/>
<text text-anchor="middle" x="433.5" y="-681.5" font-family="Arial" font-size="10.00">Tetapkan anggaran bulanan per subkategori</text>
</g>
<!-- M&#45;&gt;N -->
<g id="edge12" class="edge">
<title>M&#45;&gt;N</title>
<path fill="none" stroke="#475569" d="M433.5,-738.81C433.5,-730.79 433.5,-721.05 433.5,-712.07"/>
<polygon fill="#475569" stroke="#475569" points="437,-712.03 433.5,-702.03 430,-712.03 437,-712.03"/>
</g>
<!-- O -->
<g id="node15" class="node">
<title>O</title>
<path fill="#f8fafc" stroke="#334155" d="M497.5,-629C497.5,-629 369.5,-629 369.5,-629 363.5,-629 357.5,-623 357.5,-617 357.5,-617 357.5,-605 357.5,-605 357.5,-599 363.5,-593 369.5,-593 369.5,-593 497.5,-593 497.5,-593 503.5,-593 509.5,-599 509.5,-605 509.5,-605 509.5,-617 509.5,-617 509.5,-623 503.5,-629 497.5,-629"/>
<text text-anchor="middle" x="433.5" y="-608.5" font-family="Arial" font-size="10.00">Laporan Anggaran vs Realisasi</text>
</g>
<!-- N&#45;&gt;O -->
<g id="edge13" class="edge">
<title>N&#45;&gt;O</title>
<path fill="none" stroke="#475569" d="M433.5,-665.81C433.5,-657.79 433.5,-648.05 433.5,-639.07"/>
<polygon fill="#475569" stroke="#475569" points="437,-639.03 433.5,-629.03 430,-639.03 437,-639.03"/>
</g>
<!-- P -->
<g id="node16" class="node">
<title>P</title>
<path fill="#f8fafc" stroke="#334155" d="M512.5,-556C512.5,-556 354.5,-556 354.5,-556 348.5,-556 342.5,-550 342.5,-544 342.5,-544 342.5,-532 342.5,-532 342.5,-526 348.5,-520 354.5,-520 354.5,-520 512.5,-520 512.5,-520 518.5,-520 524.5,-526 524.5,-532 524.5,-532 524.5,-544 524.5,-544 524.5,-550 518.5,-556 512.5,-556"/>
<text text-anchor="middle" x="433.5" y="-535.5" font-family="Arial" font-size="10.00">Rencana vs SUM pengeluaran posted</text>
</g>
<!-- O&#45;&gt;P -->
<g id="edge14" class="edge">
<title>O&#45;&gt;P</title>
<path fill="none" stroke="#475569" d="M433.5,-592.81C433.5,-584.79 433.5,-575.05 433.5,-566.07"/>
<polygon fill="#475569" stroke="#475569" points="437,-566.03 433.5,-556.03 430,-566.03 437,-566.03"/>
</g>
<!-- Q -->
<g id="node17" class="node">
<title>Q</title>
<path fill="#f8fafc" stroke="#334155" d="M490,-483C490,-483 377,-483 377,-483 371,-483 365,-477 365,-471 365,-471 365,-459 365,-459 365,-453 371,-447 377,-447 377,-447 490,-447 490,-447 496,-447 502,-453 502,-459 502,-459 502,-471 502,-471 502,-477 496,-483 490,-483"/>
<text text-anchor="middle" x="433.5" y="-462.5" font-family="Arial" font-size="10.00">Selisih = rencana &#45; realisasi</text>
</g>
<!-- P&#45;&gt;Q -->
<g id="edge15" class="edge">
<title>P&#45;&gt;Q</title>
<path fill="none" stroke="#475569" d="M433.5,-519.81C433.5,-511.79 433.5,-502.05 433.5,-493.07"/>
<polygon fill="#475569" stroke="#475569" points="437,-493.03 433.5,-483.03 430,-493.03 437,-493.03"/>
</g>
</g>
</svg>
