<?xml version="1.0" encoding="UTF-8" standalone="no"?>
<!DOCTYPE svg PUBLIC "-//W3C//DTD SVG 1.1//EN"
 "http://www.w3.org/Graphics/SVG/1.1/DTD/svg11.dtd">
<!-- Generated by graphviz version 2.43.0 (0)
 -->
<!-- Title: G Pages: 1 -->
<svg width="655pt" height="1520pt"
 viewBox="0.00 0.00 654.50 1520.00" xmlns="http://www.w3.org/2000/svg" xmlns:xlink="http://www.w3.org/1999/xlink">
<g id="graph0" class="graph" transform="scale(1 1) rotate(0) translate(4 1516)">
<title>G</title>
<polygon fill="white" stroke="transparent" points="-4,4 -4,-1516 650.5,-1516 650.5,4 -4,4"/>
<text text-anchor="middle" x="323.25" y="-1495.2" font-family="Arial" font-size="16.00">OPERATIONAL_HANDBOOK_EN.md &#45; diagram 2</text>
<!-- A -->
<g id="node1" class="node">
<title>A</title>
<path fill="#f8fafc" stroke="#334155" d="M275,-1486C275,-1486 175,-1486 175,-1486 169,-1486 163,-1480 163,-1474 163,-1474 163,-1462 163,-1462 163,-1456 169,-1450 175,-1450 175,-1450 275,-1450 275,-1450 281,-1450 287,-1456 287,-1462 287,-1462 287,-1474 287,-1474 287,-1480 281,-1486 275,-1486"/>
<text text-anchor="middle" x="225" y="-1465.5" font-family="Arial" font-size="10.00">Fee Matrix Configuration</text>
</g>
<!-- B -->
<g id="node4" class="node">
<title>B</title>
<path fill="#f8fafc" stroke="#334155" d="M315.5,-1404C315.5,-1404 134.5,-1404 134.5,-1404 128.5,-1404 122.5,-1398 122.5,-1392 122.5,-1392 122.5,-1380 122.5,-1380 122.5,-1374 128.5,-1368 134.5,-1368 134.5,-1368 315.5,-1368 315.5,-1368 321.5,-1368 327.5,-1374 327.5,-1380 327.5,-1380 327.5,-1392 327.5,-1392 327.5,-1398 321.5,-1404 315.5,-1404"/>
<text text-anchor="middle" x="225" y="-1383.5" font-family="Arial" font-size="10.00">ArrearsService.generateMonthlyObligations</text>
</g>
<!-- A&#45;&gt;B -->
<g id="edge1" class="edge">
<title>A&#45;&gt;B</title>
<path fill="none" stroke="#475569" d="M225,-1449.64C225,-1439.3 225,-1425.94 225,-1414.22"/>
<polygon fill="#475569" stroke="#475569" points="228.5,-1414.05 225,-1404.05 221.5,-1414.05 228.5,-1414.05"/>
<text text-anchor="middle" x="252.5" y="-1424.8" font-family="Arial" font-size="9.00">resolves fees</text>
</g>
<!-- AA -->
<g id="node2" class="node">
<title>AA</title>
<path fill="#f8fafc" stroke="#334155" d="M511.5,-36C511.5,-36 394.5,-36 394.5,-36 388.5,-36 382.5,-30 382.5,-24 382.5,-24 382.5,-12 382.5,-12 382.5,-6 388.5,0 394.5,0 394.5,0 511.5,0 511.5,0 517.5,0 523.5,-6 523.5,-12 523.5,-12 523.5,-24 523.5,-24 523.5,-30 517.5,-36 511.5,-36"/>
<text text-anchor="middle" x="453" y="-15.5" font-family="Arial" font-size="10.00">Receipt: COPY &#45; Reprint #N</text>
</g>
<!-- AB -->
<g id="node3" class="node">
<title>AB</title>
<path fill="#f8fafc" stroke="#334155" d="M634.5,-36C634.5,-36 553.5,-36 553.5,-36 547.5,-36 541.5,-30 541.5,-24 541.5,-24 541.5,-12 541.5,-12 541.5,-6 547.5,0 553.5,0 553.5,0 634.5,0 634.5,0 640.5,0 646.5,-6 646.5,-12 646.5,-12 646.5,-24 646.5,-24 646.5,-30 640.5,-36 634.5,-36"/>
<text text-anchor="middle" x="594" y="-15.5" font-family="Arial" font-size="10.00">Error: 403 Forbidden</text>
</g>
<!-- C -->
<g id="node5" class="node">
<title>C</title>
<path fill="#f8fafc" stroke="#334155" d="M213.17,-1329C213.17,-1329 130.21,-1315 130.21,-1315 124.3,-1314 124.3,-1312 130.21,-1311 130.21,-1311 213.17,-1297 213.17,-1297 219.08,-1296 230.92,-1296 236.83,-1297 236.83,-1297 319.79,-1311 319.79,-1311 325.7,-1312 325.7,-1314 319.79,-1315 319.79,-1315 236.83,-1329 236.83,-1329 230.92,-1330 219.08,-1330 213.17,-1329"/>
<text text-anchor="middle" x="225" y="-1310.5" font-family="Arial" font-size="10.00">StudentObligation exists?</text>
</g>
<!-- B&#45;&gt;C -->
<g id="edge2" class="edge">
<title>B&#45;&gt;C</title>
<path fill="none" stroke="#475569" d="M225,-1367.81C225,-1359.79 225,-1350.05 225,-1341.07"/>
<polygon fill="#475569" stroke="#475569" points="228.5,-1341.03 225,-1331.03 221.5,-1341.03 228.5,-1341.03"/>
</g>
<!-- D -->
<g id="node6" class="node">
<title>D</title>
<path fill="#f8fafc" stroke="#334155" d="M161,-1249C161,-1249 59,-1249 59,-1249 53,-1249 47,-1243 47,-1237 47,-1237 47,-1225 47,-1225 47,-1219 53,-1213 59,-1213 59,-1213 161,-1213 161,-1213 167,-1213 173,-1219 173,-1225 173,-1225 173,-1237 173,-1237 173,-1243 167,-1249 161,-1249"/>
<text text-anchor="middle" x="110" y="-1228.5" font-family="Arial" font-size="10.00">Create StudentObligation</text>
</g>
<!-- C&#45;&gt;D -->
<g id="edge3" class="edge">
<title>C&#45;&gt;D</title>
<path fill="none" stroke="#475569" d="M205.23,-1298.25C188.15,-1286.36 163.11,-1268.95 143,-1254.95"/>
<polygon fill="#475569" stroke="#475569" points="144.92,-1252.03 134.71,-1249.19 140.92,-1257.78 144.92,-1252.03"/>
<text text-anchor="middle" x="181.5" y="-1269.8" font-family="Arial" font-size="9.00">No</text>
</g>
<!-- E -->
<g id="node7" class="node">
<title>E</title>
<path fill="#f8fafc" stroke="#334155" d="M262.5,-1249C262.5,-1249 203.5,-1249 203.5,-1249 197.5,-1249 191.5,-1243 191.5,-1237 191.5,-1237 191.5,-1225 191.5,-1225 191.5,-1219 197.5,-1213 203.5,-1213 203.5,-1213 262.5,-1213 262.5,-1213 268.5,-1213 274.5,-1219 274.5,-1225 274.5,-1225 274.5,-1237 274.5,-1237 274.5,-1243 268.5,-1249 262.5,-1249"/>
<text text-anchor="middle" x="233" y="-1228.5" font-family="Arial" font-size="10.00">Update amount</text>
</g>
<!-- C&#45;&gt;E -->
<g id="edge4" class="edge">
<title>C&#45;&gt;E</title>
<path fill="none" stroke="#475569" d="M224.68,-1294.86C224.7,-1286.44 224.99,-1276.17 226,-1267 226.28,-1264.47 226.65,-1261.84 227.07,-1259.23"/>
<polygon fill="#475569" stroke="#475569" points="230.52,-1259.82 228.91,-1249.35 223.64,-1258.55 230.52,-1259.82"/>
<text text-anchor="middle" x="271" y="-1269.8" font-family="Arial" font-size="9.00">Yes, not invoiced/paid</text>
</g>
<!-- F -->
<g id="node8" class="node">
<title>F</title>
<path fill="#f8fafc" stroke="#334155" d="M363,-1249C363,-1249 313,-1249 313,-1249 307,-1249 301,-1243 301,-1237 301,-1237 301,-1225 301,-1225 301,-1219 307,-1213 313,-1213 313,-1213 363,-1213 363,-1213 369,-1213 375,-1219 375,-1225 375,-1225 375,-1237 375,-1237 375,-1243 369,-1249 363,-1249"/>
<text text-anchor="middle" x="338" y="-1228.5" font-family="Arial" font-size="10.00">Skip &#45; locked</text>
</g>
<!-- C&#45;&gt;F -->
<g id="edge5" class="edge">
<title>C&#45;&gt;F</title>
<path fill="none" stroke="#475569" d="M268.95,-1302.36C285.23,-1297.05 302.89,-1289.01 316,-1277 321.43,-1272.03 325.67,-1265.42 328.92,-1258.81"/>
<polygon fill="#475569" stroke="#475569" points="332.27,-1259.87 332.99,-1249.3 325.84,-1257.12 332.27,-1259.87"/>
<text text-anchor="middle" x="365.5" y="-1269.8" font-family="Arial" font-size="9.00">Yes, invoiced or paid</text>
</g>
<!-- G -->
<g id="node9" class="node">
<title>G</title>
<path fill="#f8fafc" stroke="#334155" d="M238,-1176C238,-1176 104,-1176 104,-1176 98,-1176 92,-1170 92,-1164 92,-1164 92,-1152 92,-1152 92,-1146 98,-1140 104,-1140 104,-1140 238,-1140 238,-1140 244,-1140 250,-1146 250,-1152 250,-1152 250,-1164 250,-1164 250,-1170 244,-1176 238,-1176"/>
<text text-anchor="middle" x="171" y="-1155.5" font-family="Arial" font-size="10.00">InvoiceService.generateInvoices</text>
</g>
<!-- D&#45;&gt;G -->
<g id="edge6" class="edge">
<title>D&#45;&gt;G</title>
<path fill="none" stroke="#475569" d="M124.77,-1212.81C132.26,-1204.09 141.5,-1193.34 149.74,-1183.75"/>
<polygon fill="#475569" stroke="#475569" points="152.51,-1185.89 156.37,-1176.03 147.2,-1181.33 152.51,-1185.89"/>
</g>
<!-- E&#45;&gt;G -->
<g id="edge7" class="edge">
<title>E&#45;&gt;G</title>
<path fill="none" stroke="#475569" d="M217.99,-1212.81C210.38,-1204.09 200.99,-1193.34 192.61,-1183.75"/>
<polygon fill="#475569" stroke="#475569" points="195.08,-1181.26 185.87,-1176.03 189.81,-1185.86 195.08,-1181.26"/>
</g>
<!-- H -->
<g id="node10" class="node">
<title>H</title>
<path fill="#f8fafc" stroke="#334155" d="M159.12,-1101.34C159.12,-1101.34 53.81,-1086.66 53.81,-1086.66 47.87,-1085.83 47.87,-1084.17 53.81,-1083.34 53.81,-1083.34 159.12,-1068.66 159.12,-1068.66 165.06,-1067.83 176.94,-1067.83 182.88,-1068.66 182.88,-1068.66 288.19,-1083.34 288.19,-1083.34 294.13,-1084.17 294.13,-1085.83 288.19,-1086.66 288.19,-1086.66 182.88,-1101.34 182.88,-1101.34 176.94,-1102.17 165.06,-1102.17 159.12,-1101.34"/>
<text text-anchor="middle" x="171" y="-1082.5" font-family="Arial" font-size="10.00">Unpaid un&#45;invoiced obligations?</text>
</g>
<!-- G&#45;&gt;H -->
<g id="edge8" class="edge">
<title>G&#45;&gt;H</title>
<path fill="none" stroke="#475569" d="M171,-1139.81C171,-1131.79 171,-1122.05 171,-1113.07"/>
<polygon fill="#475569" stroke="#475569" points="174.5,-1113.03 171,-1103.03 167.5,-1113.03 174.5,-1113.03"/>
</g>
<!-- I -->
<g id="node11" class="node">
<title>I</title>
<path fill="#f8fafc" stroke="#334155" d="M169.5,-1021C169.5,-1021 44.5,-1021 44.5,-1021 38.5,-1021 32.5,-1015 32.5,-1009 32.5,-1009 32.5,-997 32.5,-997 32.5,-991 38.5,-985 44.5,-985 44.5,-985 169.5,-985 169.5,-985 175.5,-985 181.5,-991 181.5,-997 181.5,-997 181.5,-1009 181.5,-1009 181.5,-1015 175.5,-1021 169.5,-1021"/>
<text text-anchor="middle" x="107" y="-1000.5" font-family="Arial" font-size="10.00">Create Invoice + InvoiceItems</text>
</g>
<!-- H&#45;&gt;I -->
<g id="edge9" class="edge">
<title>H&#45;&gt;I</title>
<path fill="none" stroke="#475569" d="M158.66,-1068.58C149.72,-1057.4 137.44,-1042.05 127.1,-1029.12"/>
<polygon fill="#475569" stroke="#475569" points="129.61,-1026.66 120.63,-1021.04 124.15,-1031.03 129.61,-1026.66"/>
<text text-anchor="middle" x="151" y="-1041.8" font-family="Arial" font-size="9.00">Yes</text>
</g>
<!-- J -->
<g id="node12" class="node">
<title>J</title>
<path fill="#f8fafc" stroke="#334155" d="M258.5,-1021C258.5,-1021 211.5,-1021 211.5,-1021 205.5,-1021 199.5,-1015 199.5,-1009 199.5,-1009 199.5,-997 199.5,-997 199.5,-991 205.5,-985 211.5,-985 211.5,-985 258.5,-985 258.5,-985 264.5,-985 270.5,-991 270.5,-997 270.5,-997 270.5,-1009 270.5,-1009 270.5,-1015 264.5,-1021 258.5,-1021"/>
<text text-anchor="middle" x="235" y="-1000.5" font-family="Arial" font-size="10.00">Skip student</text>
</g>
<!-- H&#45;&gt;J -->
<g id="edge10" class="edge">
<title>H&#45;&gt;J</title>
<path fill="none" stroke="#475569" d="M183.34,-1068.58C192.28,-1057.4 204.56,-1042.05 214.9,-1029.12"/>
<polygon fill="#475569" stroke="#475569" points="217.85,-1031.03 221.37,-1021.04 212.39,-1026.66 217.85,-1031.03"/>
<text text-anchor="middle" x="213.5" y="-1041.8" font-family="Arial" font-size="9.00">No</text>
</g>
<!-- K -->
<g id="node13" class="node">
<title>K</title>
<path fill="#f8fafc" stroke="#334155" d="M157,-948C157,-948 57,-948 57,-948 51,-948 45,-942 45,-936 45,-936 45,-924 45,-924 45,-918 51,-912 57,-912 57,-912 157,-912 157,-912 163,-912 169,-918 169,-924 169,-924 169,-936 169,-936 169,-942 163,-948 157,-948"/>
<text text-anchor="middle" x="107" y="-927.5" font-family="Arial" font-size="10.00">Invoice Status: UNPAID</text>
</g>
<!-- I&#45;&gt;K -->
<g id="edge11" class="edge">
<title>I&#45;&gt;K</title>
<path fill="none" stroke="#475569" d="M107,-984.81C107,-976.79 107,-967.05 107,-958.07"/>
<polygon fill="#475569" stroke="#475569" points="110.5,-958.03 107,-948.03 103.5,-958.03 110.5,-958.03"/>
</g>
<!-- L -->
<g id="node14" class="node">
<title>L</title>
<path fill="#f8fafc" stroke="#334155" d="M182,-875C182,-875 32,-875 32,-875 26,-875 20,-869 20,-863 20,-863 20,-851 20,-851 20,-845 26,-839 32,-839 32,-839 182,-839 182,-839 188,-839 194,-845 194,-851 194,-851 194,-863 194,-863 194,-869 188,-875 182,-875"/>
<text text-anchor="middle" x="107" y="-854.5" font-family="Arial" font-size="10.00">SettlementService.createSettlement</text>
</g>
<!-- K&#45;&gt;L -->
<g id="edge12" class="edge">
<title>K&#45;&gt;L</title>
<path fill="none" stroke="#475569" d="M107,-911.81C107,-903.79 107,-894.05 107,-885.07"/>
<polygon fill="#475569" stroke="#475569" points="110.5,-885.03 107,-875.03 103.5,-885.03 110.5,-885.03"/>
</g>
<!-- M -->
<g id="node15" class="node">
<title>M</title>
<path fill="#f8fafc" stroke="#334155" d="M159,-802C159,-802 55,-802 55,-802 49,-802 43,-796 43,-790 43,-790 43,-778 43,-778 43,-772 49,-766 55,-766 55,-766 159,-766 159,-766 165,-766 171,-772 171,-778 171,-778 171,-790 171,-790 171,-796 165,-802 159,-802"/>
<text text-anchor="middle" x="107" y="-781.5" font-family="Arial" font-size="10.00">lockForUpdate on Invoice</text>
</g>
<!-- L&#45;&gt;M -->
<g id="edge13" class="edge">
<title>L&#45;&gt;M</title>
<path fill="none" stroke="#475569" d="M107,-838.81C107,-830.79 107,-821.05 107,-812.07"/>
<polygon fill="#475569" stroke="#475569" points="110.5,-812.03 107,-802.03 103.5,-812.03 110.5,-812.03"/>
</g>
<!-- N -->
<g id="node16" class="node">
<title>N</title>
<path fill="#f8fafc" stroke="#334155" d="M95.18,-726.91C95.18,-726.91 17.19,-713.09 17.19,-713.09 11.28,-712.05 11.28,-709.95 17.19,-708.91 17.19,-708.91 95.18,-695.09 95.18,-695.09 101.09,-694.05 112.91,-694.05 118.82,-695.09 118.82,-695.09 196.81,-708.91 196.81,-708.91 202.72,-709.95 202.72,-712.05 196.81,-713.09 196.81,-713.09 118.82,-726.91 118.82,-726.91 112.91,-727.95 101.09,-727.95 95.18,-726.91"/>
<text text-anchor="middle" x="107" y="-708.5" font-family="Arial" font-size="10.00">amount &lt;= outstanding?</text>
</g>
<!-- M&#45;&gt;N -->
<g id="edge14" class="edge">
<title>M&#45;&gt;N</title>
<path fill="none" stroke="#475569" d="M107,-765.81C107,-757.79 107,-748.05 107,-739.07"/>
<polygon fill="#475569" stroke="#475569" points="110.5,-739.03 107,-729.03 103.5,-739.03 110.5,-739.03"/>
</g>
<!-- O -->
<g id="node17" class="node">
<title>O</title>
<path fill="#f8fafc" stroke="#334155" d="M166,-647C166,-647 12,-647 12,-647 6,-647 0,-641 0,-635 0,-635 0,-623 0,-623 0,-617 6,-611 12,-611 12,-611 166,-611 166,-611 172,-611 178,-617 178,-623 178,-623 178,-635 178,-635 178,-641 172,-647 166,-647"/>
<text text-anchor="middle" x="89" y="-626.5" font-family="Arial" font-size="10.00">Error: allocation exceeds outstanding</text>
</g>
<!-- N&#45;&gt;O -->
<g id="edge15" class="edge">
<title>N&#45;&gt;O</title>
<path fill="none" stroke="#475569" d="M103.27,-693.42C100.91,-682.95 97.81,-669.16 95.1,-657.11"/>
<polygon fill="#475569" stroke="#475569" points="98.46,-656.09 92.85,-647.11 91.63,-657.63 98.46,-656.09"/>
<text text-anchor="middle" x="106.5" y="-667.8" font-family="Arial" font-size="9.00">No</text>
</g>
<!-- P -->
<g id="node18" class="node">
<title>P</title>
<path fill="#f8fafc" stroke="#334155" d="M334,-647C334,-647 208,-647 208,-647 202,-647 196,-641 196,-635 196,-635 196,-623 196,-623 196,-617 202,-611 208,-611 208,-611 334,-611 334,-611 340,-611 346,-617 346,-623 346,-623 346,-635 346,-635 346,-641 340,-647 334,-647"/>
<text text-anchor="middle" x="271" y="-626.5" font-family="Arial" font-size="10.00">Create Settlement + Allocation</text>
</g>
<!-- N&#45;&gt;P -->
<g id="edge16" class="edge">
<title>N&#45;&gt;P</title>
<path fill="none" stroke="#475569" d="M132.62,-697.5C157.85,-685.19 196.88,-666.16 227.06,-651.43"/>
<polygon fill="#475569" stroke="#475569" points="228.67,-654.54 236.12,-647.01 225.6,-648.25 228.67,-654.54"/>
<text text-anchor="middle" x="207" y="-667.8" font-family="Arial" font-size="9.00">Yes</text>
</g>
<!-- Q -->
<g id="node19" class="node">
<title>Q</title>
<path fill="#f8fafc" stroke="#334155" d="M343,-574C343,-574 199,-574 199,-574 193,-574 187,-568 187,-562 187,-562 187,-550 187,-550 187,-544 193,-538 199,-538 199,-538 343,-538 343,-538 349,-538 355,-544 355,-550 355,-550 355,-562 355,-562 355,-568 349,-574 343,-574"/>
<text text-anchor="middle" x="271" y="-553.5" font-family="Arial" font-size="10.00">invoice.recalculateFromAllocations</text>
</g>
<!-- P&#45;&gt;Q -->
<g id="edge17" class="edge">
<title>P&#45;&gt;Q</title>
<path fill="none" stroke="#475569" d="M271,-610.81C271,-602.79 271,-593.05 271,-584.07"/>
<polygon fill="#475569" stroke="#475569" points="274.5,-584.03 271,-574.03 267.5,-584.03 274.5,-584.03"/>
</g>
<!-- R -->
<g id="node20" class="node">
<title>R</title>
<path fill="#f8fafc" stroke="#334155" d="M259.13,-499.23C259.13,-499.23 161.95,-484.77 161.95,-484.77 156.01,-483.88 156.01,-482.12 161.95,-481.23 161.95,-481.23 259.13,-466.77 259.13,-466.77 265.07,-465.88 276.93,-465.88 282.87,-466.77 282.87,-466.77 380.05,-481.23 380.05,-481.23 385.99,-482.12 385.99,-483.88 380.05,-484.77 380.05,-484.77 282.87,-499.23 282.87,-499.23 276.93,-500.12 265.07,-500.12 259.13,-499.23"/>
<text text-anchor="middle" x="271" y="-480.5" font-family="Arial" font-size="10.00">paid_amount vs total_amount</text>
</g>
<!-- Q&#45;&gt;R -->
<g id="edge18" class="edge">
<title>Q&#45;&gt;R</title>
<path fill="none" stroke="#475569" d="M271,-537.81C271,-529.79 271,-520.05 271,-511.07"/>
<polygon fill="#475569" stroke="#475569" points="274.5,-511.03 271,-501.03 267.5,-511.03 274.5,-511.03"/>
</g>
<!-- S -->
<g id="node21" class="node">
<title>S</title>
<path fill="#f8fafc" stroke="#334155" d="M175.5,-419C175.5,-419 110.5,-419 110.5,-419 104.5,-419 98.5,-413 98.5,-407 98.5,-407 98.5,-395 98.5,-395 98.5,-389 104.5,-383 110.5,-383 110.5,-383 175.5,-383 175.5,-383 181.5,-383 187.5,-389 187.5,-395 187.5,-395 187.5,-407 187.5,-407 187.5,-413 181.5,-419 175.5,-419"/>
<text text-anchor="middle" x="143" y="-398.5" font-family="Arial" font-size="10.00">Status: UNPAID</text>
</g>
<!-- R&#45;&gt;S -->
<g id="edge19" class="edge">
<title>R&#45;&gt;S</title>
<path fill="none" stroke="#475569" d="M249,-468.25C229.81,-456.26 201.62,-438.64 179.13,-424.58"/>
<polygon fill="#475569" stroke="#475569" points="180.84,-421.52 170.51,-419.19 177.13,-427.46 180.84,-421.52"/>
<text text-anchor="middle" x="232" y="-439.8" font-family="Arial" font-size="9.00">paid = 0</text>
</g>
<!-- T -->
<g id="node22" class="node">
<title>T</title>
<path fill="#f8fafc" stroke="#334155" d="M324.5,-419C324.5,-419 217.5,-419 217.5,-419 211.5,-419 205.5,-413 205.5,-407 205.5,-407 205.5,-395 205.5,-395 205.5,-389 211.5,-383 217.5,-383 217.5,-383 324.5,-383 324.5,-383 330.5,-383 336.5,-389 336.5,-395 336.5,-395 336.5,-407 336.5,-407 336.5,-413 330.5,-419 324.5,-419"/>
<text text-anchor="middle" x="271" y="-398.5" font-family="Arial" font-size="10.00">Status: PARTIALLY_PAID</text>
</g>
<!-- R&#45;&gt;T -->
<g id="edge20" class="edge">
<title>R&#45;&gt;T</title>
<path fill="none" stroke="#475569" d="M271,-464.64C271,-454.3 271,-440.94 271,-429.22"/>
<polygon fill="#475569" stroke="#475569" points="274.5,-429.05 271,-419.05 267.5,-429.05 274.5,-429.05"/>
<text text-anchor="middle" x="301.5" y="-439.8" font-family="Arial" font-size="9.00">0 &lt; paid &lt; total</text>
</g>
<!-- U -->
<g id="node23" class="node">
<title>U</title>
<path fill="#f8fafc" stroke="#334155" d="M417,-419C417,-419 367,-419 367,-419 361,-419 355,-413 355,-407 355,-407 355,-395 355,-395 355,-389 361,-383 367,-383 367,-383 417,-383 417,-383 423,-383 429,-389 429,-395 429,-395 429,-407 429,-407 429,-413 423,-419 417,-419"/>
<text text-anchor="middle" x="392" y="-398.5" font-family="Arial" font-size="10.00">Status: PAID</text>
</g>
<!-- R&#45;&gt;U -->
<g id="edge21" class="edge">
<title>R&#45;&gt;U</title>
<path fill="none" stroke="#475569" d="M297.89,-468.93C309.85,-462.76 323.93,-455 336,-447 345.71,-440.56 355.79,-432.83 364.68,-425.61"/>
<polygon fill="#475569" stroke="#475569" points="366.98,-428.24 372.46,-419.17 362.52,-422.85 366.98,-428.24"/>
<text text-anchor="middle" x="373.5" y="-439.8" font-family="Arial" font-size="9.00">paid &gt;= total</text>
</g>
<!-- V -->
<g id="node24" class="node">
<title>V</title>
<path fill="#f8fafc" stroke="#334155" d="M455,-346C455,-346 329,-346 329,-346 323,-346 317,-340 317,-334 317,-334 317,-322 317,-322 317,-316 323,-310 329,-310 329,-310 455,-310 455,-310 461,-310 467,-316 467,-322 467,-322 467,-334 467,-334 467,-340 461,-346 455,-346"/>
<text text-anchor="middle" x="392" y="-325.5" font-family="Arial" font-size="10.00">Mark obligations is_paid = true</text>
</g>
<!-- U&#45;&gt;V -->
<g id="edge22" class="edge">
<title>U&#45;&gt;V</title>
<path fill="none" stroke="#475569" d="M392,-382.81C392,-374.79 392,-365.05 392,-356.07"/>
<polygon fill="#475569" stroke="#475569" points="395.5,-356.03 392,-346.03 388.5,-356.03 395.5,-356.03"/>
</g>
<!-- W -->
<g id="node25" class="node">
<title>W</title>
<path fill="#f8fafc" stroke="#334155" d="M457,-273C457,-273 327,-273 327,-273 321,-273 315,-267 315,-261 315,-261 315,-249 315,-249 315,-243 321,-237 327,-237 327,-237 457,-237 457,-237 463,-237 469,-243 469,-249 469,-249 469,-261 469,-261 469,-267 463,-273 457,-273"/>
<text text-anchor="middle" x="392" y="-252.5" font-family="Arial" font-size="10.00">ControlledReceiptService.issue</text>
</g>
<!-- V&#45;&gt;W -->
<g id="edge23" class="edge">
<title>V&#45;&gt;W</title>
<path fill="none" stroke="#475569" d="M392,-309.81C392,-301.79 392,-292.05 392,-283.07"/>
<polygon fill="#475569" stroke="#475569" points="395.5,-283.03 392,-273.03 388.5,-283.03 395.5,-283.03"/>
</g>
<!-- X -->
<g id="node26" class="node">
<title>X</title>
<path fill="#f8fafc" stroke="#334155" d="M380.65,-196.1C380.65,-196.1 350.95,-185.9 350.95,-185.9 345.28,-183.95 345.28,-180.05 350.95,-178.1 350.95,-178.1 380.65,-167.9 380.65,-167.9 386.33,-165.95 397.67,-165.95 403.35,-167.9 403.35,-167.9 433.05,-178.1 433.05,-178.1 438.72,-180.05 438.72,-183.95 433.05,-185.9 433.05,-185.9 403.35,-196.1 403.35,-196.1 397.67,-198.05 386.33,-198.05 380.65,-196.1"/>
<text text-anchor="middle" x="392" y="-179.5" font-family="Arial" font-size="10.00">First print?</text>
</g>
<!-- W&#45;&gt;X -->
<g id="edge24" class="edge">
<title>W&#45;&gt;X</title>
<path fill="none" stroke="#475569" d="M392,-236.81C392,-228.79 392,-219.05 392,-210.07"/>
<polygon fill="#475569" stroke="#475569" points="395.5,-210.03 392,-200.03 388.5,-210.03 395.5,-210.03"/>
</g>
<!-- Y -->
<g id="node27" class="node">
<title>Y</title>
<path fill="#f8fafc" stroke="#334155" d="M413,-118C413,-118 333,-118 333,-118 327,-118 321,-112 321,-106 321,-106 321,-94 321,-94 321,-88 327,-82 333,-82 333,-82 413,-82 413,-82 419,-82 425,-88 425,-94 425,-94 425,-106 425,-106 425,-112 419,-118 413,-118"/>
<text text-anchor="middle" x="373" y="-97.5" font-family="Arial" font-size="10.00">Receipt: ORIGINAL</text>
</g>
<!-- X&#45;&gt;Y -->
<g id="edge25" class="edge">
<title>X&#45;&gt;Y</title>
<path fill="none" stroke="#475569" d="M388.25,-165.19C385.73,-154.59 382.35,-140.36 379.41,-127.99"/>
<polygon fill="#475569" stroke="#475569" points="382.79,-127.08 377.07,-118.16 375.98,-128.7 382.79,-127.08"/>
<text text-anchor="middle" x="391" y="-138.8" font-family="Arial" font-size="9.00">Yes</text>
</g>
<!-- Z -->
<g id="node28" class="node">
<title>Z</title>
<path fill="#f8fafc" stroke="#334155" d="M511.29,-115.36C511.29,-115.36 454.87,-102.64 454.87,-102.64 449.01,-101.32 449.01,-98.68 454.87,-97.36 454.87,-97.36 511.29,-84.64 511.29,-84.64 517.15,-83.32 528.85,-83.32 534.71,-84.64 534.71,-84.64 591.13,-97.36 591.13,-97.36 596.99,-98.68 596.99,-101.32 591.13,-102.64 591.13,-102.64 534.71,-115.36 534.71,-115.36 528.85,-116.68 517.15,-116.68 511.29,-115.36"/>
<text text-anchor="middle" x="523" y="-97.5" font-family="Arial" font-size="10.00">bendahara/admin?</text>
</g>
<!-- X&#45;&gt;Z -->
<g id="edge26" class="edge">
<title>X&#45;&gt;Z</title>
<path fill="none" stroke="#475569" d="M409.94,-170.04C431.5,-156.88 467.99,-134.6 493.67,-118.91"/>
<polygon fill="#475569" stroke="#475569" points="495.55,-121.87 502.26,-113.67 491.9,-115.89 495.55,-121.87"/>
<text text-anchor="middle" x="471.5" y="-138.8" font-family="Arial" font-size="9.00">No</text>
</g>
<!-- Z&#45;&gt;AA -->
<g id="edge27" class="edge">
<title>Z&#45;&gt;AA</title>
<path fill="none" stroke="#475569" d="M510.49,-84.7C500.56,-73.35 486.44,-57.22 474.69,-43.78"/>
<polygon fill="#475569" stroke="#475569" points="477.3,-41.46 468.09,-36.24 472.04,-46.07 477.3,-41.46"/>
<text text-anchor="middle" x="519" y="-56.8" font-family="Arial" font-size="9.00">Yes + reason</text>
</g>
<!-- Z&#45;&gt;AB -->
<g id="edge28" class="edge">
<title>Z&#45;&gt;AB</title>
<path fill="none" stroke="#475569" d="M535.69,-84.7C545.76,-73.35 560.08,-57.22 572,-43.78"/>
<polygon fill="#475569" stroke="#475569" points="574.68,-46.04 578.7,-36.24 569.44,-41.4 574.68,-46.04"/>
<text text-anchor="middle" x="568.5" y="-56.8" font-family="Arial" font-size="9.00">No</text>
</g>
</g>
</svg>
