<?xml version="1.0" encoding="UTF-8" standalone="no"?>
<!DOCTYPE svg PUBLIC "-//W3C//DTD SVG 1.1//EN"
 "http://www.w3.org/Graphics/SVG/1.1/DTD/svg11.dtd">
<!-- Generated by graphviz version 2.43.0 (0)
 -->
<!-- Title: G Pages: 1 -->
<svg width="477pt" height="1520pt"
 viewBox="0.00 0.00 477.00 1520.00" xmlns="http://www.w3.org/2000/svg" xmlns:xlink="http://www.w3.org/1999/xlink">
<g id="graph0" class="graph" transform="scale(1 1) rotate(0) translate(4 1516)">
<title>G</title>
<polygon fill="white" stroke="transparent" points="-4,4 -4,-1516 473,-1516 473,4 -4,4"/>
<text text-anchor="middle" x="234.5" y="-1495.2" font-family="Arial" font-size="16.00">OPERATIONAL_HANDBOOK_EN.md &#45; diagram 3</text>
<!-- A -->
<g id="node1" class="node">
<title>A</title>
<path fill="#f8fafc" stroke="#334155" d="M410.5,-1486C410.5,-1486 309.5,-1486 309.5,-1486 303.5,-1486 297.5,-1480 297.5,-1474 297.5,-1474 297.5,-1462 297.5,-1462 297.5,-1456 303.5,-1450 309.5,-1450 309.5,-1450 410.5,-1450 410.5,-1450 416.5,-1450 422.5,-1456 422.5,-1462 422.5,-1462 422.5,-1474 422.5,-1474 422.5,-1480 416.5,-1486 410.5,-1486"/>
<text text-anchor="middle" x="360" y="-1465.5" font-family="Arial" font-size="10.00">Create Admission Period</text>
</g>
<!-- B -->
<g id="node2" class="node">
<title>B</title>
<path fill="#f8fafc" stroke="#334155" d="M395.5,-1404C395.5,-1404 324.5,-1404 324.5,-1404 318.5,-1404 312.5,-1398 312.5,-1392 312.5,-1392 312.5,-1380 312.5,-1380 312.5,-1374 318.5,-1368 324.5,-1368 324.5,-1368 395.5,-1368 395.5,-1368 401.5,-1368 407.5,-1374 407.5,-1380 407.5,-1380 407.5,-1392 407.5,-1392 407.5,-1398 401.5,-1404 395.5,-1404"/>
<text text-anchor="middle" x="360" y="-1383.5" font-family="Arial" font-size="10.00">Set Class Quotas</text>
</g>
<!-- A&#45;&gt;B -->
<g id="edge1" class="edge">
<title>A&#45;&gt;B</title>
<path fill="none" stroke="#475569" d="M360,-1449.64C360,-1439.3 360,-1425.94 360,-1414.22"/>
<polygon fill="#475569" stroke="#475569" points="363.5,-1414.05 360,-1404.05 356.5,-1414.05 363.5,-1414.05"/>
<text text-anchor="middle" x="383.5" y="-1424.8" font-family="Arial" font-size="9.00">status: draft</text>
</g>
<!-- C -->
<g id="node3" class="node">
<title>C</title>
<path fill="#f8fafc" stroke="#334155" d="M383.5,-1331C383.5,-1331 336.5,-1331 336.5,-1331 330.5,-1331 324.5,-1325 324.5,-1319 324.5,-1319 324.5,-1307 324.5,-1307 324.5,-1301 330.5,-1295 336.5,-1295 336.5,-1295 383.5,-1295 383.5,-1295 389.5,-1295 395.5,-1301 395.5,-1307 395.5,-1307 395.5,-1319 395.5,-1319 395.5,-1325 389.5,-1331 383.5,-1331"/>
<text text-anchor="middle" x="360" y="-1310.5" font-family="Arial" font-size="10.00">Open Period</text>
</g>
<!-- B&#45;&gt;C -->
<g id="edge2" class="edge">
<title>B&#45;&gt;C</title>
<path fill="none" stroke="#475569" d="M360,-1367.81C360,-1359.79 360,-1350.05 360,-1341.07"/>
<polygon fill="#475569" stroke="#475569" points="363.5,-1341.03 360,-1331.03 356.5,-1341.03 363.5,-1341.03"/>
</g>
<!-- D -->
<g id="node4" class="node">
<title>D</title>
<path fill="#f8fafc" stroke="#334155" d="M346.5,-1249C346.5,-1249 269.5,-1249 269.5,-1249 263.5,-1249 257.5,-1243 257.5,-1237 257.5,-1237 257.5,-1225 257.5,-1225 257.5,-1219 263.5,-1213 269.5,-1213 269.5,-1213 346.5,-1213 346.5,-1213 352.5,-1213 358.5,-1219 358.5,-1225 358.5,-1225 358.5,-1237 358.5,-1237 358.5,-1243 352.5,-1249 346.5,-1249"/>
<text text-anchor="middle" x="308" y="-1228.5" font-family="Arial" font-size="10.00">Register Applicants</text>
</g>
<!-- C&#45;&gt;D -->
<g id="edge3" class="edge">
<title>C&#45;&gt;D</title>
<path fill="none" stroke="#475569" d="M348.72,-1294.64C341.65,-1283.77 332.42,-1269.57 324.54,-1257.44"/>
<polygon fill="#475569" stroke="#475569" points="327.47,-1255.53 319.08,-1249.05 321.6,-1259.34 327.47,-1255.53"/>
<text text-anchor="middle" x="363" y="-1269.8" font-family="Arial" font-size="9.00">status: open</text>
</g>
<!-- Y -->
<g id="node25" class="node">
<title>Y</title>
<path fill="#f8fafc" stroke="#334155" d="M437.5,-1249C437.5,-1249 388.5,-1249 388.5,-1249 382.5,-1249 376.5,-1243 376.5,-1237 376.5,-1237 376.5,-1225 376.5,-1225 376.5,-1219 382.5,-1213 388.5,-1213 388.5,-1213 437.5,-1213 437.5,-1213 443.5,-1213 449.5,-1219 449.5,-1225 449.5,-1225 449.5,-1237 449.5,-1237 449.5,-1243 443.5,-1249 437.5,-1249"/>
<text text-anchor="middle" x="413" y="-1228.5" font-family="Arial" font-size="10.00">Close Period</text>
</g>
<!-- C&#45;&gt;Y -->
<g id="edge25" class="edge">
<title>C&#45;&gt;Y</title>
<path fill="none" stroke="#475569" d="M375.48,-1294.73C380.07,-1289.24 384.96,-1283.03 389,-1277 392.98,-1271.07 396.83,-1264.41 400.24,-1258.07"/>
<polygon fill="#475569" stroke="#475569" points="403.38,-1259.62 404.89,-1249.14 397.17,-1256.39 403.38,-1259.62"/>
</g>
<!-- E -->
<g id="node5" class="node">
<title>E</title>
<path fill="#f8fafc" stroke="#334155" d="M340,-1167C340,-1167 276,-1167 276,-1167 270,-1167 264,-1161 264,-1155 264,-1155 264,-1143 264,-1143 264,-1137 270,-1131 276,-1131 276,-1131 340,-1131 340,-1131 346,-1131 352,-1137 352,-1143 352,-1143 352,-1155 352,-1155 352,-1161 346,-1167 340,-1167"/>
<text text-anchor="middle" x="308" y="-1146.5" font-family="Arial" font-size="10.00">Move to Review</text>
</g>
<!-- D&#45;&gt;E -->
<g id="edge4" class="edge">
<title>D&#45;&gt;E</title>
<path fill="none" stroke="#475569" d="M308,-1212.64C308,-1202.3 308,-1188.94 308,-1177.22"/>
<polygon fill="#475569" stroke="#475569" points="311.5,-1177.05 308,-1167.05 304.5,-1177.05 311.5,-1177.05"/>
<text text-anchor="middle" x="343" y="-1187.8" font-family="Arial" font-size="9.00">status: registered</text>
</g>
<!-- F -->
<g id="node6" class="node">
<title>F</title>
<path fill="#f8fafc" stroke="#334155" d="M296.84,-1080.59C296.84,-1080.59 273.59,-1071.41 273.59,-1071.41 268.01,-1069.2 268.01,-1064.8 273.59,-1062.59 273.59,-1062.59 296.84,-1053.41 296.84,-1053.41 302.42,-1051.2 313.58,-1051.2 319.16,-1053.41 319.16,-1053.41 342.41,-1062.59 342.41,-1062.59 347.99,-1064.8 347.99,-1069.2 342.41,-1071.41 342.41,-1071.41 319.16,-1080.59 319.16,-1080.59 313.58,-1082.8 302.42,-1082.8 296.84,-1080.59"/>
<text text-anchor="middle" x="308" y="-1064.5" font-family="Arial" font-size="10.00">Decision</text>
</g>
<!-- E&#45;&gt;F -->
<g id="edge5" class="edge">
<title>E&#45;&gt;F</title>
<path fill="none" stroke="#475569" d="M308,-1130.64C308,-1120.3 308,-1106.94 308,-1095.22"/>
<polygon fill="#475569" stroke="#475569" points="311.5,-1095.05 308,-1085.05 304.5,-1095.05 311.5,-1095.05"/>
<text text-anchor="middle" x="350.5" y="-1105.8" font-family="Arial" font-size="9.00">status: under_review</text>
</g>
<!-- G -->
<g id="node7" class="node">
<title>G</title>
<path fill="#f8fafc" stroke="#334155" d="M236.51,-999.55C236.51,-999.55 199.61,-988.45 199.61,-988.45 193.87,-986.73 193.87,-983.27 199.61,-981.55 199.61,-981.55 236.51,-970.45 236.51,-970.45 242.25,-968.73 253.75,-968.73 259.49,-970.45 259.49,-970.45 296.39,-981.55 296.39,-981.55 302.13,-983.27 302.13,-986.73 296.39,-988.45 296.39,-988.45 259.49,-999.55 259.49,-999.55 253.75,-1001.27 242.25,-1001.27 236.51,-999.55"/>
<text text-anchor="middle" x="248" y="-982.5" font-family="Arial" font-size="10.00">Quota check</text>
</g>
<!-- F&#45;&gt;G -->
<g id="edge6" class="edge">
<title>F&#45;&gt;G</title>
<path fill="none" stroke="#475569" d="M298.09,-1052.79C289.05,-1040.74 275.5,-1022.67 264.78,-1008.37"/>
<polygon fill="#475569" stroke="#475569" points="267.33,-1005.94 258.53,-1000.04 261.73,-1010.14 267.33,-1005.94"/>
<text text-anchor="middle" x="296" y="-1023.8" font-family="Arial" font-size="9.00">Accept</text>
</g>
<!-- J -->
<g id="node10" class="node">
<title>J</title>
<path fill="#f8fafc" stroke="#334155" d="M407,-1003C407,-1003 345,-1003 345,-1003 339,-1003 333,-997 333,-991 333,-991 333,-979 333,-979 333,-973 339,-967 345,-967 345,-967 407,-967 407,-967 413,-967 419,-973 419,-979 419,-979 419,-991 419,-991 419,-997 413,-1003 407,-1003"/>
<text text-anchor="middle" x="376" y="-982.5" font-family="Arial" font-size="10.00">Status: rejected</text>
</g>
<!-- F&#45;&gt;J -->
<g id="edge9" class="edge">
<title>F&#45;&gt;J</title>
<path fill="none" stroke="#475569" d="M318.93,-1053.15C328.59,-1041.77 342.97,-1024.86 354.87,-1010.85"/>
<polygon fill="#475569" stroke="#475569" points="357.74,-1012.89 361.55,-1003.01 352.4,-1008.36 357.74,-1012.89"/>
<text text-anchor="middle" x="360.5" y="-1023.8" font-family="Arial" font-size="9.00">Reject</text>
</g>
<!-- H -->
<g id="node8" class="node">
<title>H</title>
<path fill="#f8fafc" stroke="#334155" d="M161.5,-921C161.5,-921 94.5,-921 94.5,-921 88.5,-921 82.5,-915 82.5,-909 82.5,-909 82.5,-897 82.5,-897 82.5,-891 88.5,-885 94.5,-885 94.5,-885 161.5,-885 161.5,-885 167.5,-885 173.5,-891 173.5,-897 173.5,-897 173.5,-909 173.5,-909 173.5,-915 167.5,-921 161.5,-921"/>
<text text-anchor="middle" x="128" y="-900.5" font-family="Arial" font-size="10.00">Status: accepted</text>
</g>
<!-- G&#45;&gt;H -->
<g id="edge7" class="edge">
<title>G&#45;&gt;H</title>
<path fill="none" stroke="#475569" d="M229.17,-972.58C218.23,-965.86 204.23,-957.11 192,-949 181.48,-942.02 170.16,-934.17 160.01,-927.01"/>
<polygon fill="#475569" stroke="#475569" points="161.98,-924.12 151.8,-921.19 157.93,-929.83 161.98,-924.12"/>
<text text-anchor="middle" x="218" y="-941.8" font-family="Arial" font-size="9.00">Within quota</text>
</g>
<!-- I -->
<g id="node9" class="node">
<title>I</title>
<path fill="#f8fafc" stroke="#334155" d="M292.5,-921C292.5,-921 203.5,-921 203.5,-921 197.5,-921 191.5,-915 191.5,-909 191.5,-909 191.5,-897 191.5,-897 191.5,-891 197.5,-885 203.5,-885 203.5,-885 292.5,-885 292.5,-885 298.5,-885 304.5,-891 304.5,-897 304.5,-897 304.5,-909 304.5,-909 304.5,-915 298.5,-921 292.5,-921"/>
<text text-anchor="middle" x="248" y="-900.5" font-family="Arial" font-size="10.00">Error: quota exceeded</text>
</g>
<!-- G&#45;&gt;I -->
<g id="edge8" class="edge">
<title>G&#45;&gt;I</title>
<path fill="none" stroke="#475569" d="M248,-966.64C248,-956.3 248,-942.94 248,-931.22"/>
<polygon fill="#475569" stroke="#475569" points="251.5,-931.05 248,-921.05 244.5,-931.05 251.5,-931.05"/>
<text text-anchor="middle" x="282" y="-941.8" font-family="Arial" font-size="9.00">Quota exceeded</text>
</g>
<!-- L -->
<g id="node12" class="node">
<title>L</title>
<path fill="#f8fafc" stroke="#334155" d="M143,-848C143,-848 113,-848 113,-848 107,-848 101,-842 101,-836 101,-836 101,-824 101,-824 101,-818 107,-812 113,-812 113,-812 143,-812 143,-812 149,-812 155,-818 155,-824 155,-824 155,-836 155,-836 155,-842 149,-848 143,-848"/>
<text text-anchor="middle" x="128" y="-827.5" font-family="Arial" font-size="10.00">Enroll</text>
</g>
<!-- H&#45;&gt;L -->
<g id="edge11" class="edge">
<title>H&#45;&gt;L</title>
<path fill="none" stroke="#475569" d="M128,-884.81C128,-876.79 128,-867.05 128,-858.07"/>
<polygon fill="#475569" stroke="#475569" points="131.5,-858.03 128,-848.03 124.5,-858.03 131.5,-858.03"/>
</g>
<!-- K -->
<g id="node11" class="node">
<title>K</title>
<path fill="#f8fafc" stroke="#334155" d="M431,-921C431,-921 335,-921 335,-921 329,-921 323,-915 323,-909 323,-909 323,-897 323,-897 323,-891 329,-885 335,-885 335,-885 431,-885 431,-885 437,-885 443,-891 443,-897 443,-897 443,-909 443,-909 443,-915 437,-921 431,-921"/>
<text text-anchor="middle" x="383" y="-900.5" font-family="Arial" font-size="10.00">Record rejection reason</text>
</g>
<!-- J&#45;&gt;K -->
<g id="edge10" class="edge">
<title>J&#45;&gt;K</title>
<path fill="none" stroke="#475569" d="M377.52,-966.64C378.42,-956.3 379.59,-942.94 380.62,-931.22"/>
<polygon fill="#475569" stroke="#475569" points="384.12,-931.32 381.51,-921.05 377.15,-930.71 384.12,-931.32"/>
</g>
<!-- M -->
<g id="node13" class="node">
<title>M</title>
<path fill="#f8fafc" stroke="#334155" d="M158.5,-775C158.5,-775 97.5,-775 97.5,-775 91.5,-775 85.5,-769 85.5,-763 85.5,-763 85.5,-751 85.5,-751 85.5,-745 91.5,-739 97.5,-739 97.5,-739 158.5,-739 158.5,-739 164.5,-739 170.5,-745 170.5,-751 170.5,-751 170.5,-763 170.5,-763 170.5,-769 164.5,-775 158.5,-775"/>
<text text-anchor="middle" x="128" y="-754.5" font-family="Arial" font-size="10.00">DB::transaction</text>
</g>
<!-- L&#45;&gt;M -->
<g id="edge12" class="edge">
<title>L&#45;&gt;M</title>
<path fill="none" stroke="#475569" d="M128,-811.81C128,-803.79 128,-794.05 128,-785.07"/>
<polygon fill="#475569" stroke="#475569" points="131.5,-785.03 128,-775.03 124.5,-785.03 131.5,-785.03"/>
</g>
<!-- N -->
<g id="node14" class="node">
<title>N</title>
<path fill="#f8fafc" stroke="#334155" d="M172.5,-702C172.5,-702 83.5,-702 83.5,-702 77.5,-702 71.5,-696 71.5,-690 71.5,-690 71.5,-678 71.5,-678 71.5,-672 77.5,-666 83.5,-666 83.5,-666 172.5,-666 172.5,-666 178.5,-666 184.5,-672 184.5,-678 184.5,-678 184.5,-690 184.5,-690 184.5,-696 178.5,-702 172.5,-702"/>
<text text-anchor="middle" x="128" y="-681.5" font-family="Arial" font-size="10.00">Create Student record</text>
</g>
<!-- M&#45;&gt;N -->
<g id="edge13" class="edge">
<title>M&#45;&gt;N</title>
<path fill="none" stroke="#475569" d="M128,-738.81C128,-730.79 128,-721.05 128,-712.07"/>
<polygon fill="#475569" stroke="#475569" points="131.5,-712.03 128,-702.03 124.5,-712.03 131.5,-712.03"/>
</g>
<!-- O -->
<g id="node15" class="node">
<title>O</title>
<path fill="#f8fafc" stroke="#334155" d="M154.5,-629C154.5,-629 101.5,-629 101.5,-629 95.5,-629 89.5,-623 89.5,-617 89.5,-617 89.5,-605 89.5,-605 89.5,-599 95.5,-593 101.5,-593 101.5,-593 154.5,-593 154.5,-593 160.5,-593 166.5,-599 166.5,-605 166.5,-605 166.5,-617 166.5,-617 166.5,-623 160.5,-629 154.5,-629"/>
<text text-anchor="middle" x="128" y="-608.5" font-family="Arial" font-size="10.00">Generate NIS</text>
</g>
<!-- N&#45;&gt;O -->
<g id="edge14" class="edge">
<title>N&#45;&gt;O</title>
<path fill="none" stroke="#475569" d="M128,-665.81C128,-657.79 128,-648.05 128,-639.07"/>
<polygon fill="#475569" stroke="#475569" points="131.5,-639.03 128,-629.03 124.5,-639.03 131.5,-639.03"/>
</g>
<!-- P -->
<g id="node16" class="node">
<title>P</title>
<path fill="#f8fafc" stroke="#334155" d="M192,-556C192,-556 64,-556 64,-556 58,-556 52,-550 52,-544 52,-544 52,-532 52,-532 52,-526 58,-520 64,-520 64,-520 192,-520 192,-520 198,-520 204,-526 204,-532 204,-532 204,-544 204,-544 204,-550 198,-556 192,-556"/>
<text text-anchor="middle" x="128" y="-535.5" font-family="Arial" font-size="10.00">Query FeeMatrix: monthly fees</text>
</g>
<!-- O&#45;&gt;P -->
<g id="edge15" class="edge">
<title>O&#45;&gt;P</title>
<path fill="none" stroke="#475569" d="M128,-592.81C128,-584.79 128,-575.05 128,-566.07"/>
<polygon fill="#475569" stroke="#475569" points="131.5,-566.03 128,-556.03 124.5,-566.03 131.5,-566.03"/>
</g>
<!-- Q -->
<g id="node17" class="node">
<title>Q</title>
<path fill="#f8fafc" stroke="#334155" d="M200.5,-483C200.5,-483 55.5,-483 55.5,-483 49.5,-483 43.5,-477 43.5,-471 43.5,-471 43.5,-459 43.5,-459 43.5,-453 49.5,-447 55.5,-447 55.5,-447 200.5,-447 200.5,-447 206.5,-447 212.5,-453 212.5,-459 212.5,-459 212.5,-471 212.5,-471 212.5,-477 206.5,-483 200.5,-483"/>
<text text-anchor="middle" x="128" y="-462.5" font-family="Arial" font-size="10.00">Create StudentFeeMapping per fee</text>
</g>
<!-- P&#45;&gt;Q -->
<g id="edge16" class="edge">
<title>P&#45;&gt;Q</title>
<path fill="none" stroke="#475569" d="M128,-519.81C128,-511.79 128,-502.05 128,-493.07"/>
<polygon fill="#475569" stroke="#475569" points="131.5,-493.03 128,-483.03 124.5,-493.03 131.5,-493.03"/>
</g>
<!-- R -->
<g id="node18" class="node">
<title>R</title>
<path fill="#f8fafc" stroke="#334155" d="M193.5,-410C193.5,-410 62.5,-410 62.5,-410 56.5,-410 50.5,-404 50.5,-398 50.5,-398 50.5,-386 50.5,-386 50.5,-380 56.5,-374 62.5,-374 62.5,-374 193.5,-374 193.5,-374 199.5,-374 205.5,-380 205.5,-386 205.5,-386 205.5,-398 205.5,-398 205.5,-404 199.5,-410 193.5,-410"/>
<text text-anchor="middle" x="128" y="-389.5" font-family="Arial" font-size="10.00">Query FeeMatrix: one&#45;time fees</text>
</g>
<!-- Q&#45;&gt;R -->
<g id="edge17" class="edge">
<title>Q&#45;&gt;R</title>
<path fill="none" stroke="#475569" d="M128,-446.81C128,-438.79 128,-429.05 128,-420.07"/>
<polygon fill="#475569" stroke="#475569" points="131.5,-420.03 128,-410.03 124.5,-420.03 131.5,-420.03"/>
</g>
<!-- S -->
<g id="node19" class="node">
<title>S</title>
<path fill="#f8fafc" stroke="#334155" d="M195.5,-337C195.5,-337 60.5,-337 60.5,-337 54.5,-337 48.5,-331 48.5,-325 48.5,-325 48.5,-313 48.5,-313 48.5,-307 54.5,-301 60.5,-301 60.5,-301 195.5,-301 195.5,-301 201.5,-301 207.5,-307 207.5,-313 207.5,-313 207.5,-325 207.5,-325 207.5,-331 201.5,-337 195.5,-337"/>
<text text-anchor="middle" x="128" y="-316.5" font-family="Arial" font-size="10.00">Create StudentObligation per fee</text>
</g>
<!-- R&#45;&gt;S -->
<g id="edge18" class="edge">
<title>R&#45;&gt;S</title>
<path fill="none" stroke="#475569" d="M128,-373.81C128,-365.79 128,-356.05 128,-347.07"/>
<polygon fill="#475569" stroke="#475569" points="131.5,-347.03 128,-337.03 124.5,-347.03 131.5,-347.03"/>
</g>
<!-- T -->
<g id="node20" class="node">
<title>T</title>
<path fill="#f8fafc" stroke="#334155" d="M116.15,-262.1C116.15,-262.1 27.57,-247.9 27.57,-247.9 21.65,-246.95 21.65,-245.05 27.57,-244.1 27.57,-244.1 116.15,-229.9 116.15,-229.9 122.08,-228.95 133.92,-228.95 139.85,-229.9 139.85,-229.9 228.43,-244.1 228.43,-244.1 234.35,-245.05 234.35,-246.95 228.43,-247.9 228.43,-247.9 139.85,-262.1 139.85,-262.1 133.92,-263.05 122.08,-263.05 116.15,-262.1"/>
<text text-anchor="middle" x="128" y="-243.5" font-family="Arial" font-size="10.00">One&#45;time obligations exist?</text>
</g>
<!-- S&#45;&gt;T -->
<g id="edge19" class="edge">
<title>S&#45;&gt;T</title>
<path fill="none" stroke="#475569" d="M128,-300.81C128,-292.79 128,-283.05 128,-274.07"/>
<polygon fill="#475569" stroke="#475569" points="131.5,-274.03 128,-264.03 124.5,-274.03 131.5,-274.03"/>
</g>
<!-- U -->
<g id="node21" class="node">
<title>U</title>
<path fill="#f8fafc" stroke="#334155" d="M124,-182C124,-182 12,-182 12,-182 6,-182 0,-176 0,-170 0,-170 0,-158 0,-158 0,-152 6,-146 12,-146 12,-146 124,-146 124,-146 130,-146 136,-152 136,-158 136,-158 136,-170 136,-170 136,-176 130,-182 124,-182"/>
<text text-anchor="middle" x="68" y="-161.5" font-family="Arial" font-size="10.00">Create Registration Invoice</text>
</g>
<!-- T&#45;&gt;U -->
<g id="edge20" class="edge">
<title>T&#45;&gt;U</title>
<path fill="none" stroke="#475569" d="M116.43,-229.58C108.05,-218.4 96.54,-203.05 86.84,-190.12"/>
<polygon fill="#475569" stroke="#475569" points="89.58,-187.94 80.78,-182.04 83.98,-192.14 89.58,-187.94"/>
<text text-anchor="middle" x="110" y="-202.8" font-family="Arial" font-size="9.00">Yes</text>
</g>
<!-- V -->
<g id="node22" class="node">
<title>V</title>
<path fill="#f8fafc" stroke="#334155" d="M212,-182C212,-182 166,-182 166,-182 160,-182 154,-176 154,-170 154,-170 154,-158 154,-158 154,-152 160,-146 166,-146 166,-146 212,-146 212,-146 218,-146 224,-152 224,-158 224,-158 224,-170 224,-170 224,-176 218,-182 212,-182"/>
<text text-anchor="middle" x="189" y="-161.5" font-family="Arial" font-size="10.00">Skip invoice</text>
</g>
<!-- T&#45;&gt;V -->
<g id="edge21" class="edge">
<title>T&#45;&gt;V</title>
<path fill="none" stroke="#475569" d="M139.76,-229.58C148.28,-218.4 159.99,-203.05 169.85,-190.12"/>
<polygon fill="#475569" stroke="#475569" points="172.73,-192.11 176.01,-182.04 167.16,-187.87 172.73,-192.11"/>
<text text-anchor="middle" x="169.5" y="-202.8" font-family="Arial" font-size="9.00">No</text>
</g>
<!-- W -->
<g id="node23" class="node">
<title>W</title>
<path fill="#f8fafc" stroke="#334155" d="M179.5,-109C179.5,-109 76.5,-109 76.5,-109 70.5,-109 64.5,-103 64.5,-97 64.5,-97 64.5,-85 64.5,-85 64.5,-79 70.5,-73 76.5,-73 76.5,-73 179.5,-73 179.5,-73 185.5,-73 191.5,-79 191.5,-85 191.5,-85 191.5,-97 191.5,-97 191.5,-103 185.5,-109 179.5,-109"/>
<text text-anchor="middle" x="128" y="-88.5" font-family="Arial" font-size="10.00">Applicant status: enrolled</text>
</g>
<!-- U&#45;&gt;W -->
<g id="edge22" class="edge">
<title>U&#45;&gt;W</title>
<path fill="none" stroke="#475569" d="M82.52,-145.81C89.89,-137.09 98.98,-126.34 107.09,-116.75"/>
<polygon fill="#475569" stroke="#475569" points="109.83,-118.93 113.61,-109.03 104.48,-114.41 109.83,-118.93"/>
</g>
<!-- V&#45;&gt;W -->
<g id="edge23" class="edge">
<title>V&#45;&gt;W</title>
<path fill="none" stroke="#475569" d="M174.23,-145.81C166.74,-137.09 157.5,-126.34 149.26,-116.75"/>
<polygon fill="#475569" stroke="#475569" points="151.8,-114.33 142.63,-109.03 146.49,-118.89 151.8,-114.33"/>
</g>
<!-- X -->
<g id="node24" class="node">
<title>X</title>
<path fill="#f8fafc" stroke="#334155" d="M178.5,-36C178.5,-36 77.5,-36 77.5,-36 71.5,-36 65.5,-30 65.5,-24 65.5,-24 65.5,-12 65.5,-12 65.5,-6 71.5,0 77.5,0 77.5,0 178.5,0 178.5,0 184.5,0 190.5,-6 190.5,-12 190.5,-12 190.5,-24 190.5,-24 190.5,-30 184.5,-36 178.5,-36"/>
<text text-anchor="middle" x="128" y="-15.5" font-family="Arial" font-size="10.00">Link applicant.student_id</text>
</g>
<!-- W&#45;&gt;X -->
<g id="edge24" class="edge">
<title>W&#45;&gt;X</title>
<path fill="none" stroke="#475569" d="M128,-72.81C128,-64.79 128,-55.05 128,-46.07"/>
<polygon fill="#475569" stroke="#475569" points="131.5,-46.03 128,-36.03 124.5,-46.03 131.5,-46.03"/>
</g>
<!-- Z -->
<g id="node26" class="node">
<title>Z</title>
<path fill="#f8fafc" stroke="#334155" d="M443,-1167C443,-1167 383,-1167 383,-1167 377,-1167 371,-1161 371,-1155 371,-1155 371,-1143 371,-1143 371,-1137 377,-1131 383,-1131 383,-1131 443,-1131 443,-1131 449,-1131 455,-1137 455,-1143 455,-1143 455,-1155 455,-1155 455,-1161 449,-1167 443,-1167"/>
<text text-anchor="middle" x="413" y="-1146.5" font-family="Arial" font-size="10.00">Period archived</text>
</g>
<!-- Y&#45;&gt;Z -->
<g id="edge26" class="edge">
<title>Y&#45;&gt;Z</title>
<path fill="none" stroke="#475569" d="M413,-1212.64C413,-1202.3 413,-1188.94 413,-1177.22"/>
<polygon fill="#475569" stroke="#475569" points="416.5,-1177.05 413,-1167.05 409.5,-1177.05 416.5,-1177.05"/>
<text text-anchor="middle" x="441" y="-1187.8" font-family="Arial" font-size="9.00">status: closed</text>
</g>
</g>
</svg>
