<?xml version="1.0" encoding="UTF-8" standalone="no"?>
<!DOCTYPE svg PUBLIC "-//W3C//DTD SVG 1.1//EN"
 "http://www.w3.org/Graphics/SVG/1.1/DTD/svg11.dtd">
<!-- Generated by graphviz version 2.43.0 (0)
 -->
<!-- Title: G Pages: 1 -->
<svg width="724pt" height="836pt"
 viewBox="0.00 0.00 724.38 836.00" xmlns="http://www.w3.org/2000/svg" xmlns:xlink="http://www.w3.org/1999/xlink">
<g id="graph0" class="graph" transform="scale(1 1) rotate(0) translate(4 832)">
<title>G</title>
<polygon fill="white" stroke="transparent" points="-4,4 -4,-832 720.38,-832 720.38,4 -4,4"/>
<text text-anchor="middle" x="358.19" y="-811.2" font-family="Arial" font-size="16.00">OPERATIONAL_HANDBOOK_ID.md &#45; diagram 4</text>
<!-- A -->
<g id="node1" class="node">
<title>A</title>
<path fill="#f8fafc" stroke="#334155" d="M372,-802C372,-802 250,-802 250,-802 244,-802 238,-796 238,-790 238,-790 238,-778 238,-778 238,-772 244,-766 250,-766 250,-766 372,-766 372,-766 378,-766 384,-772 384,-778 384,-778 384,-790 384,-790 384,-796 378,-802 372,-802"/>
<text text-anchor="middle" x="311" y="-781.5" font-family="Arial" font-size="10.00">Status Settlement: completed</text>
</g>
<!-- B -->
<g id="node2" class="node">
<title>B</title>
<path fill="#f8fafc" stroke="#334155" d="M300.38,-723.42C300.38,-723.42 287.36,-716.58 287.36,-716.58 282.05,-713.79 282.05,-708.21 287.36,-705.42 287.36,-705.42 300.38,-698.58 300.38,-698.58 305.69,-695.79 316.31,-695.79 321.62,-698.58 321.62,-698.58 334.64,-705.42 334.64,-705.42 339.95,-708.21 339.95,-713.79 334.64,-716.58 334.64,-716.58 321.62,-723.42 321.62,-723.42 316.31,-726.21 305.69,-726.21 300.38,-723.42"/>
<text text-anchor="middle" x="311" y="-708.5" font-family="Arial" font-size="10.00">Aksi?</text>
</g>
<!-- A&#45;&gt;B -->
<g id="edge1" class="edge">
<title>A&#45;&gt;B</title>
<path fill="none" stroke="#475569" d="M311,-765.81C311,-757.79 311,-748.05 311,-739.07"/>
<polygon fill="#475569" stroke="#475569" points="314.5,-739.03 311,-729.03 307.5,-739.03 314.5,-739.03"/>
</g>
<!-- C -->
<g id="node3" class="node">
<title>C</title>
<path fill="#f8fafc" stroke="#334155" d="M214.5,-647C214.5,-647 117.5,-647 117.5,-647 111.5,-647 105.5,-641 105.5,-635 105.5,-635 105.5,-623 105.5,-623 105.5,-617 111.5,-611 117.5,-611 117.5,-611 214.5,-611 214.5,-611 220.5,-611 226.5,-617 226.5,-623 226.5,-623 226.5,-635 226.5,-635 226.5,-641 220.5,-647 214.5,-647"/>
<text text-anchor="middle" x="166" y="-626.5" font-family="Arial" font-size="10.00">SettlementService::void</text>
</g>
<!-- B&#45;&gt;C -->
<g id="edge2" class="edge">
<title>B&#45;&gt;C</title>
<path fill="none" stroke="#475569" d="M295.21,-701.29C273.92,-689.54 235.3,-668.23 205.8,-651.96"/>
<polygon fill="#475569" stroke="#475569" points="207.42,-648.85 196.97,-647.09 204.04,-654.98 207.42,-648.85"/>
<text text-anchor="middle" x="257.5" y="-667.8" font-family="Arial" font-size="9.00">Void</text>
</g>
<!-- M -->
<g id="node13" class="node">
<title>M</title>
<path fill="#f8fafc" stroke="#334155" d="M364.5,-647C364.5,-647 257.5,-647 257.5,-647 251.5,-647 245.5,-641 245.5,-635 245.5,-635 245.5,-623 245.5,-623 245.5,-617 251.5,-611 257.5,-611 257.5,-611 364.5,-611 364.5,-611 370.5,-611 376.5,-617 376.5,-623 376.5,-623 376.5,-635 376.5,-635 376.5,-641 370.5,-647 364.5,-647"/>
<text text-anchor="middle" x="311" y="-626.5" font-family="Arial" font-size="10.00">SettlementService::cancel</text>
</g>
<!-- B&#45;&gt;M -->
<g id="edge13" class="edge">
<title>B&#45;&gt;M</title>
<path fill="none" stroke="#475569" d="M311,-692.64C311,-682.3 311,-668.94 311,-657.22"/>
<polygon fill="#475569" stroke="#475569" points="314.5,-657.05 311,-647.05 307.5,-657.05 314.5,-657.05"/>
<text text-anchor="middle" x="322" y="-667.8" font-family="Arial" font-size="9.00">Batal</text>
</g>
<!-- Q -->
<g id="node17" class="node">
<title>Q</title>
<path fill="#f8fafc" stroke="#334155" d="M500,-647C500,-647 408,-647 408,-647 402,-647 396,-641 396,-635 396,-635 396,-623 396,-623 396,-617 402,-611 408,-611 408,-611 500,-611 500,-611 506,-611 512,-617 512,-623 512,-623 512,-635 512,-635 512,-641 506,-647 500,-647"/>
<text text-anchor="middle" x="454" y="-626.5" font-family="Arial" font-size="10.00">InvoiceService::cancel</text>
</g>
<!-- B&#45;&gt;Q -->
<g id="edge18" class="edge">
<title>B&#45;&gt;Q</title>
<path fill="none" stroke="#475569" d="M326.85,-701.13C347.85,-689.39 385.6,-668.26 414.53,-652.08"/>
<polygon fill="#475569" stroke="#475569" points="416.57,-654.95 423.59,-647.01 413.15,-648.84 416.57,-654.95"/>
<text text-anchor="middle" x="445.5" y="-667.8" font-family="Arial" font-size="9.00">Batalkan invoice berbayar</text>
</g>
<!-- D -->
<g id="node4" class="node">
<title>D</title>
<path fill="#f8fafc" stroke="#334155" d="M192.5,-574C192.5,-574 131.5,-574 131.5,-574 125.5,-574 119.5,-568 119.5,-562 119.5,-562 119.5,-550 119.5,-550 119.5,-544 125.5,-538 131.5,-538 131.5,-538 192.5,-538 192.5,-538 198.5,-538 204.5,-544 204.5,-550 204.5,-550 204.5,-562 204.5,-562 204.5,-568 198.5,-574 192.5,-574"/>
<text text-anchor="middle" x="162" y="-553.5" font-family="Arial" font-size="10.00">DB::transaction</text>
</g>
<!-- C&#45;&gt;D -->
<g id="edge3" class="edge">
<title>C&#45;&gt;D</title>
<path fill="none" stroke="#475569" d="M165.03,-610.81C164.58,-602.79 164.03,-593.05 163.53,-584.07"/>
<polygon fill="#475569" stroke="#475569" points="167.02,-583.82 162.96,-574.03 160.03,-584.21 167.02,-583.82"/>
</g>
<!-- E -->
<g id="node5" class="node">
<title>E</title>
<path fill="#f8fafc" stroke="#334155" d="M178,-492C178,-492 116,-492 116,-492 110,-492 104,-486 104,-480 104,-480 104,-468 104,-468 104,-462 110,-456 116,-456 116,-456 178,-456 178,-456 184,-456 190,-462 190,-468 190,-468 190,-480 190,-480 190,-486 184,-492 178,-492"/>
<text text-anchor="middle" x="147" y="-471.5" font-family="Arial" font-size="10.00">Set status: void</text>
</g>
<!-- D&#45;&gt;E -->
<g id="edge4" class="edge">
<title>D&#45;&gt;E</title>
<path fill="none" stroke="#475569" d="M158.75,-537.64C156.81,-527.3 154.3,-513.94 152.1,-502.22"/>
<polygon fill="#475569" stroke="#475569" points="155.48,-501.23 150.2,-492.05 148.6,-502.52 155.48,-501.23"/>
</g>
<!-- F -->
<g id="node6" class="node">
<title>F</title>
<path fill="#f8fafc" stroke="#334155" d="M182,-419C182,-419 12,-419 12,-419 6,-419 0,-413 0,-407 0,-407 0,-395 0,-395 0,-389 6,-383 12,-383 12,-383 182,-383 182,-383 188,-383 194,-389 194,-395 194,-395 194,-407 194,-407 194,-413 188,-419 182,-419"/>
<text text-anchor="middle" x="97" y="-398.5" font-family="Arial" font-size="10.00">Catat voided_at, voided_by, void_reason</text>
</g>
<!-- E&#45;&gt;F -->
<g id="edge5" class="edge">
<title>E&#45;&gt;F</title>
<path fill="none" stroke="#475569" d="M134.9,-455.81C128.88,-447.27 121.49,-436.77 114.83,-427.32"/>
<polygon fill="#475569" stroke="#475569" points="117.61,-425.19 108.99,-419.03 111.89,-429.22 117.61,-425.19"/>
</g>
<!-- G -->
<g id="node7" class="node">
<title>G</title>
<path fill="#f8fafc" stroke="#334155" d="M291.5,-346C291.5,-346 164.5,-346 164.5,-346 158.5,-346 152.5,-340 152.5,-334 152.5,-334 152.5,-322 152.5,-322 152.5,-316 158.5,-310 164.5,-310 164.5,-310 291.5,-310 291.5,-310 297.5,-310 303.5,-316 303.5,-322 303.5,-322 303.5,-334 303.5,-334 303.5,-340 297.5,-346 291.5,-346"/>
<text text-anchor="middle" x="228" y="-325.5" font-family="Arial" font-size="10.00">Untuk setiap invoice teralokasi</text>
</g>
<!-- F&#45;&gt;G -->
<g id="edge6" class="edge">
<title>F&#45;&gt;G</title>
<path fill="none" stroke="#475569" d="M128.38,-382.99C146.07,-373.4 168.37,-361.32 187.39,-351.01"/>
<polygon fill="#475569" stroke="#475569" points="189.3,-353.96 196.42,-346.11 185.96,-347.8 189.3,-353.96"/>
</g>
<!-- H -->
<g id="node8" class="node">
<title>H</title>
<path fill="#f8fafc" stroke="#334155" d="M300,-264C300,-264 156,-264 156,-264 150,-264 144,-258 144,-252 144,-252 144,-240 144,-240 144,-234 150,-228 156,-228 156,-228 300,-228 300,-228 306,-228 312,-234 312,-240 312,-240 312,-252 312,-252 312,-258 306,-264 300,-264"/>
<text text-anchor="middle" x="228" y="-243.5" font-family="Arial" font-size="10.00">invoice.recalculateFromAllocations</text>
</g>
<!-- G&#45;&gt;H -->
<g id="edge7" class="edge">
<title>G&#45;&gt;H</title>
<path fill="none" stroke="#475569" d="M228,-309.64C228,-299.3 228,-285.94 228,-274.22"/>
<polygon fill="#475569" stroke="#475569" points="231.5,-274.05 228,-264.05 224.5,-274.05 231.5,-274.05"/>
</g>
<!-- I -->
<g id="node9" class="node">
<title>I</title>
<path fill="#f8fafc" stroke="#334155" d="M216.23,-188.67C216.23,-188.67 148.79,-175.33 148.79,-175.33 142.9,-174.16 142.9,-171.84 148.79,-170.67 148.79,-170.67 216.23,-157.33 216.23,-157.33 222.11,-156.16 233.89,-156.16 239.77,-157.33 239.77,-157.33 307.21,-170.67 307.21,-170.67 313.1,-171.84 313.1,-174.16 307.21,-175.33 307.21,-175.33 239.77,-188.67 239.77,-188.67 233.89,-189.84 222.11,-189.84 216.23,-188.67"/>
<text text-anchor="middle" x="228" y="-170.5" font-family="Arial" font-size="10.00">Invoice masih lunas?</text>
</g>
<!-- H&#45;&gt;I -->
<g id="edge8" class="edge">
<title>H&#45;&gt;I</title>
<path fill="none" stroke="#475569" d="M228,-227.81C228,-219.79 228,-210.05 228,-201.07"/>
<polygon fill="#475569" stroke="#475569" points="231.5,-201.03 228,-191.03 224.5,-201.03 231.5,-201.03"/>
</g>
<!-- J -->
<g id="node10" class="node">
<title>J</title>
<path fill="#f8fafc" stroke="#334155" d="M185,-109C185,-109 37,-109 37,-109 31,-109 25,-103 25,-97 25,-97 25,-85 25,-85 25,-79 31,-73 37,-73 37,-73 185,-73 185,-73 191,-73 197,-79 197,-85 197,-85 197,-97 197,-97 197,-103 191,-109 185,-109"/>
<text text-anchor="middle" x="111" y="-88.5" font-family="Arial" font-size="10.00">Balikkan kewajiban is_paid ke false</text>
</g>
<!-- I&#45;&gt;J -->
<g id="edge9" class="edge">
<title>I&#45;&gt;J</title>
<path fill="none" stroke="#475569" d="M208.68,-158.79C191.22,-146.85 165.15,-129.03 144.34,-114.79"/>
<polygon fill="#475569" stroke="#475569" points="146.3,-111.9 136.07,-109.14 142.35,-117.67 146.3,-111.9"/>
<text text-anchor="middle" x="188.5" y="-129.8" font-family="Arial" font-size="9.00">Tidak</text>
</g>
<!-- K -->
<g id="node11" class="node">
<title>K</title>
<path fill="#f8fafc" stroke="#334155" d="M359,-109C359,-109 227,-109 227,-109 221,-109 215,-103 215,-97 215,-97 215,-85 215,-85 215,-79 221,-73 227,-73 227,-73 359,-73 359,-73 365,-73 371,-79 371,-85 371,-85 371,-97 371,-97 371,-103 365,-109 359,-109"/>
<text text-anchor="middle" x="293" y="-88.5" font-family="Arial" font-size="10.00">Pertahankan kewajiban terbayar</text>
</g>
<!-- I&#45;&gt;K -->
<g id="edge10" class="edge">
<title>I&#45;&gt;K</title>
<path fill="none" stroke="#475569" d="M239.92,-157.33C249.09,-146.05 261.96,-130.2 272.74,-116.94"/>
<polygon fill="#475569" stroke="#475569" points="275.53,-119.05 279.12,-109.08 270.1,-114.63 275.53,-119.05"/>
<text text-anchor="middle" x="311.5" y="-129.8" font-family="Arial" font-size="9.00">Ya oleh settlement lain</text>
</g>
<!-- L -->
<g id="node12" class="node">
<title>L</title>
<path fill="#f8fafc" stroke="#334155" d="M262,-36C262,-36 140,-36 140,-36 134,-36 128,-30 128,-24 128,-24 128,-12 128,-12 128,-6 134,0 140,0 140,0 262,0 262,0 268,0 274,-6 274,-12 274,-12 274,-24 274,-24 274,-30 268,-36 262,-36"/>
<text text-anchor="middle" x="201" y="-15.5" font-family="Arial" font-size="10.00">Posting event reversal.posted</text>
</g>
<!-- J&#45;&gt;L -->
<g id="edge11" class="edge">
<title>J&#45;&gt;L</title>
<path fill="none" stroke="#475569" d="M132.79,-72.81C144.39,-63.66 158.84,-52.26 171.44,-42.32"/>
<polygon fill="#475569" stroke="#475569" points="173.73,-44.97 179.41,-36.03 169.4,-39.47 173.73,-44.97"/>
</g>
<!-- K&#45;&gt;L -->
<g id="edge12" class="edge">
<title>K&#45;&gt;L</title>
<path fill="none" stroke="#475569" d="M270.73,-72.81C258.86,-63.66 244.1,-52.26 231.21,-42.32"/>
<polygon fill="#475569" stroke="#475569" points="233.12,-39.37 223.07,-36.03 228.84,-44.91 233.12,-39.37"/>
</g>
<!-- N -->
<g id="node14" class="node">
<title>N</title>
<path fill="#f8fafc" stroke="#334155" d="M341.5,-574C341.5,-574 280.5,-574 280.5,-574 274.5,-574 268.5,-568 268.5,-562 268.5,-562 268.5,-550 268.5,-550 268.5,-544 274.5,-538 280.5,-538 280.5,-538 341.5,-538 341.5,-538 347.5,-538 353.5,-544 353.5,-550 353.5,-550 353.5,-562 353.5,-562 353.5,-568 347.5,-574 341.5,-574"/>
<text text-anchor="middle" x="311" y="-553.5" font-family="Arial" font-size="10.00">DB::transaction</text>
</g>
<!-- M&#45;&gt;N -->
<g id="edge14" class="edge">
<title>M&#45;&gt;N</title>
<path fill="none" stroke="#475569" d="M311,-610.81C311,-602.79 311,-593.05 311,-584.07"/>
<polygon fill="#475569" stroke="#475569" points="314.5,-584.03 311,-574.03 307.5,-584.03 314.5,-584.03"/>
</g>
<!-- O -->
<g id="node15" class="node">
<title>O</title>
<path fill="#f8fafc" stroke="#334155" d="M353.5,-492C353.5,-492 268.5,-492 268.5,-492 262.5,-492 256.5,-486 256.5,-480 256.5,-480 256.5,-468 256.5,-468 256.5,-462 262.5,-456 268.5,-456 268.5,-456 353.5,-456 353.5,-456 359.5,-456 365.5,-462 365.5,-468 365.5,-468 365.5,-480 365.5,-480 365.5,-486 359.5,-492 353.5,-492"/>
<text text-anchor="middle" x="311" y="-471.5" font-family="Arial" font-size="10.00">Set status: cancelled</text>
</g>
<!-- N&#45;&gt;O -->
<g id="edge15" class="edge">
<title>N&#45;&gt;O</title>
<path fill="none" stroke="#475569" d="M311,-537.64C311,-527.3 311,-513.94 311,-502.22"/>
<polygon fill="#475569" stroke="#475569" points="314.5,-502.05 311,-492.05 307.5,-502.05 314.5,-502.05"/>
</g>
<!-- P -->
<g id="node16" class="node">
<title>P</title>
<path fill="#f8fafc" stroke="#334155" d="M453.5,-419C453.5,-419 224.5,-419 224.5,-419 218.5,-419 212.5,-413 212.5,-407 212.5,-407 212.5,-395 212.5,-395 212.5,-389 218.5,-383 224.5,-383 224.5,-383 453.5,-383 453.5,-383 459.5,-383 465.5,-389 465.5,-395 465.5,-395 465.5,-407 465.5,-407 465.5,-413 459.5,-419 453.5,-419"/>
<text text-anchor="middle" x="339" y="-398.5" font-family="Arial" font-size="10.00">Catat cancelled_at, cancelled_by, cancellation_reason</text>
</g>
<!-- O&#45;&gt;P -->
<g id="edge16" class="edge">
<title>O&#45;&gt;P</title>
<path fill="none" stroke="#475569" d="M317.78,-455.81C321.01,-447.62 324.95,-437.62 328.56,-428.48"/>
<polygon fill="#475569" stroke="#475569" points="331.87,-429.62 332.28,-419.03 325.36,-427.05 331.87,-429.62"/>
</g>
<!-- P&#45;&gt;G -->
<g id="edge17" class="edge">
<title>P&#45;&gt;G</title>
<path fill="none" stroke="#475569" d="M312.41,-382.99C297.69,-373.58 279.21,-361.76 263.29,-351.57"/>
<polygon fill="#475569" stroke="#475569" points="265.07,-348.55 254.76,-346.11 261.29,-354.45 265.07,-348.55"/>
</g>
<!-- R -->
<g id="node18" class="node">
<title>R</title>
<path fill="#f8fafc" stroke="#334155" d="M443.3,-571.34C443.3,-571.34 387.53,-558.66 387.53,-558.66 381.68,-557.33 381.68,-554.67 387.53,-553.34 387.53,-553.34 443.3,-540.66 443.3,-540.66 449.15,-539.33 460.85,-539.33 466.7,-540.66 466.7,-540.66 522.47,-553.34 522.47,-553.34 528.32,-554.67 528.32,-557.33 522.47,-558.66 522.47,-558.66 466.7,-571.34 466.7,-571.34 460.85,-572.67 449.15,-572.67 443.3,-571.34"/>
<text text-anchor="middle" x="455" y="-553.5" font-family="Arial" font-size="10.00">Ada pembayaran?</text>
</g>
<!-- Q&#45;&gt;R -->
<g id="edge19" class="edge">
<title>Q&#45;&gt;R</title>
<path fill="none" stroke="#475569" d="M454.24,-610.81C454.36,-602.79 454.49,-593.05 454.62,-584.07"/>
<polygon fill="#475569" stroke="#475569" points="458.12,-584.08 454.76,-574.03 451.12,-583.98 458.12,-584.08"/>
</g>
<!-- S -->
<g id="node19" class="node">
<title>S</title>
<path fill="#f8fafc" stroke="#334155" d="M514.5,-492C514.5,-492 395.5,-492 395.5,-492 389.5,-492 383.5,-486 383.5,-480 383.5,-480 383.5,-468 383.5,-468 383.5,-462 389.5,-456 395.5,-456 395.5,-456 514.5,-456 514.5,-456 520.5,-456 526.5,-462 526.5,-468 526.5,-468 526.5,-480 526.5,-480 526.5,-486 520.5,-492 514.5,-492"/>
<text text-anchor="middle" x="455" y="-471.5" font-family="Arial" font-size="10.00">Set status invoice: cancelled</text>
</g>
<!-- R&#45;&gt;S -->
<g id="edge20" class="edge">
<title>R&#45;&gt;S</title>
<path fill="none" stroke="#475569" d="M455,-537.64C455,-527.3 455,-513.94 455,-502.22"/>
<polygon fill="#475569" stroke="#475569" points="458.5,-502.05 455,-492.05 451.5,-502.05 458.5,-502.05"/>
<text text-anchor="middle" x="466.5" y="-512.8" font-family="Arial" font-size="9.00">Tidak</text>
</g>
<!-- T -->
<g id="node20" class="node">
<title>T</title>
<path fill="#f8fafc" stroke="#334155" d="M631.5,-492C631.5,-492 556.5,-492 556.5,-492 550.5,-492 544.5,-486 544.5,-480 544.5,-480 544.5,-468 544.5,-468 544.5,-462 550.5,-456 556.5,-456 556.5,-456 631.5,-456 631.5,-456 637.5,-456 643.5,-462 643.5,-468 643.5,-468 643.5,-480 643.5,-480 643.5,-486 637.5,-492 631.5,-492"/>
<text text-anchor="middle" x="594" y="-471.5" font-family="Arial" font-size="10.00">voidWithPayments</text>
</g>
<!-- R&#45;&gt;T -->
<g id="edge21" class="edge">
<title>R&#45;&gt;T</title>
<path fill="none" stroke="#475569" d="M476.41,-542.68C497.46,-530.56 530.06,-511.8 555.59,-497.1"/>
<polygon fill="#475569" stroke="#475569" points="557.38,-500.11 564.3,-492.09 553.89,-494.05 557.38,-500.11"/>
<text text-anchor="middle" x="538.5" y="-512.8" font-family="Arial" font-size="9.00">Ya</text>
</g>
<!-- U -->
<g id="node21" class="node">
<title>U</title>
<path fill="#f8fafc" stroke="#334155" d="M664,-419C664,-419 524,-419 524,-419 518,-419 512,-413 512,-407 512,-407 512,-395 512,-395 512,-389 518,-383 524,-383 524,-383 664,-383 664,-383 670,-383 676,-389 676,-395 676,-395 676,-407 676,-407 676,-413 670,-419 664,-419"/>
<text text-anchor="middle" x="594" y="-398.5" font-family="Arial" font-size="10.00">Cari semua settlement completed</text>
</g>
<!-- T&#45;&gt;U -->
<g id="edge22" class="edge">
<title>T&#45;&gt;U</title>
<path fill="none" stroke="#475569" d="M594,-455.81C594,-447.79 594,-438.05 594,-429.07"/>
<polygon fill="#475569" stroke="#475569" points="597.5,-429.03 594,-419.03 590.5,-429.03 597.5,-429.03"/>
</g>
<!-- V -->
<g id="node22" class="node">
<title>V</title>
<path fill="#f8fafc" stroke="#334155" d="M582.13,-344.25C582.13,-344.25 483.62,-329.75 483.62,-329.75 477.68,-328.87 477.68,-327.13 483.62,-326.25 483.62,-326.25 582.13,-311.75 582.13,-311.75 588.06,-310.87 599.94,-310.87 605.87,-311.75 605.87,-311.75 704.38,-326.25 704.38,-326.25 710.32,-327.13 710.32,-328.87 704.38,-329.75 704.38,-329.75 605.87,-344.25 605.87,-344.25 599.94,-345.13 588.06,-345.13 582.13,-344.25"/>
<text text-anchor="middle" x="594" y="-325.5" font-family="Arial" font-size="10.00">Setiap punya alokasi tunggal?</text>
</g>
<!-- U&#45;&gt;V -->
<g id="edge23" class="edge">
<title>U&#45;&gt;V</title>
<path fill="none" stroke="#475569" d="M594,-382.81C594,-374.79 594,-365.05 594,-356.07"/>
<polygon fill="#475569" stroke="#475569" points="597.5,-356.03 594,-346.03 590.5,-356.03 597.5,-356.03"/>
</g>
<!-- W -->
<g id="node23" class="node">
<title>W</title>
<path fill="#f8fafc" stroke="#334155" d="M531.5,-264C531.5,-264 442.5,-264 442.5,-264 436.5,-264 430.5,-258 430.5,-252 430.5,-252 430.5,-240 430.5,-240 430.5,-234 436.5,-228 442.5,-228 442.5,-228 531.5,-228 531.5,-228 537.5,-228 543.5,-234 543.5,-240 543.5,-240 543.5,-252 543.5,-252 543.5,-258 537.5,-264 531.5,-264"/>
<text text-anchor="middle" x="487" y="-243.5" font-family="Arial" font-size="10.00">Void setiap settlement</text>
</g>
<!-- V&#45;&gt;W -->
<g id="edge24" class="edge">
<title>V&#45;&gt;W</title>
<path fill="none" stroke="#475569" d="M574.87,-312.7C559.13,-300.93 536.5,-284.01 518.15,-270.29"/>
<polygon fill="#475569" stroke="#475569" points="520.16,-267.43 510.06,-264.24 515.97,-273.03 520.16,-267.43"/>
<text text-anchor="middle" x="552.5" y="-284.8" font-family="Arial" font-size="9.00">Ya</text>
</g>
<!-- X -->
<g id="node24" class="node">
<title>X</title>
<path fill="#f8fafc" stroke="#334155" d="M696.5,-264C696.5,-264 573.5,-264 573.5,-264 567.5,-264 561.5,-258 561.5,-252 561.5,-252 561.5,-240 561.5,-240 561.5,-234 567.5,-228 573.5,-228 573.5,-228 696.5,-228 696.5,-228 702.5,-228 708.5,-234 708.5,-240 708.5,-240 708.5,-252 708.5,-252 708.5,-258 702.5,-264 696.5,-264"/>
<text text-anchor="middle" x="635" y="-243.5" font-family="Arial" font-size="10.00">Error: settlement multi&#45;alokasi</text>
</g>
<!-- V&#45;&gt;X -->
<g id="edge25" class="edge">
<title>V&#45;&gt;X</title>
<path fill="none" stroke="#475569" d="M602.3,-310.81C607.82,-300.04 615.19,-285.65 621.54,-273.26"/>
<polygon fill="#475569" stroke="#475569" points="624.7,-274.77 626.15,-264.27 618.47,-271.58 624.7,-274.77"/>
<text text-anchor="middle" x="628.5" y="-284.8" font-family="Arial" font-size="9.00">Tidak</text>
</g>
<!-- Y -->
<g id="node25" class="node">
<title>Y</title>
<path fill="#f8fafc" stroke="#334155" d="M527.5,-191C527.5,-191 446.5,-191 446.5,-191 440.5,-191 434.5,-185 434.5,-179 434.5,-179 434.5,-167 434.5,-167 434.5,-161 440.5,-155 446.5,-155 446.5,-155 527.5,-155 527.5,-155 533.5,-155 539.5,-161 539.5,-167 539.5,-167 539.5,-179 539.5,-179 539.5,-185 533.5,-191 527.5,-191"/>
<text text-anchor="middle" x="487" y="-170.5" font-family="Arial" font-size="10.00">Hitung ulang invoice</text>
</g>
<!-- W&#45;&gt;Y -->
<g id="edge26" class="edge">
<title>W&#45;&gt;Y</title>
<path fill="none" stroke="#475569" d="M487,-227.81C487,-219.79 487,-210.05 487,-201.07"/>
<polygon fill="#475569" stroke="#475569" points="490.5,-201.03 487,-191.03 483.5,-201.03 490.5,-201.03"/>
</g>
<!-- Z -->
<g id="node26" class="node">
<title>Z</title>
<path fill="#f8fafc" stroke="#334155" d="M546.5,-109C546.5,-109 427.5,-109 427.5,-109 421.5,-109 415.5,-103 415.5,-97 415.5,-97 415.5,-85 415.5,-85 415.5,-79 421.5,-73 427.5,-73 427.5,-73 546.5,-73 546.5,-73 552.5,-73 558.5,-79 558.5,-85 558.5,-85 558.5,-97 558.5,-97 558.5,-103 552.5,-109 546.5,-109"/>
<text text-anchor="middle" x="487" y="-88.5" font-family="Arial" font-size="10.00">Set status invoice: cancelled</text>
</g>
<!-- Y&#45;&gt;Z -->
<g id="edge27" class="edge">
<title>Y&#45;&gt;Z</title>
<path fill="none" stroke="#475569" d="M487,-154.64C487,-144.3 487,-130.94 487,-119.22"/>
<polygon fill="#475569" stroke="#475569" points="490.5,-119.05 487,-109.05 483.5,-119.05 490.5,-119.05"/>
</g>
</g>
</svg>
