<?xml version="1.0" encoding="UTF-8" standalone="no"?>
<!DOCTYPE svg PUBLIC "-//W3C//DTD SVG 1.1//EN"
 "http://www.w3.org/Graphics/SVG/1.1/DTD/svg11.dtd">
<!-- Generated by graphviz version 2.43.0 (0)
 -->
<!-- Title: G Pages: 1 -->
<svg width="724pt" height="836pt"
 viewBox="0.00 0.00 723.72 836.00" xmlns="http://www.w3.org/2000/svg" xmlns:xlink="http://www.w3.org/1999/xlink">
<g id="graph0" class="graph" transform="scale(1 1) rotate(0) translate(4 832)">
<title>G</title>
<polygon fill="white" stroke="transparent" points="-4,4 -4,-832 719.72,-832 719.72,4 -4,4"/>
<text text-anchor="middle" x="357.86" y="-811.2" font-family="Arial" font-size="16.00">OPERATIONAL_HANDBOOK.md &#45; diagram 4</text>
<!-- A -->
<g id="node1" class="node">
<title>A</title>
<path fill="#f8fafc" stroke="#334155" d="M380,-802C380,-802 259,-802 259,-802 253,-802 247,-796 247,-790 247,-790 247,-778 247,-778 247,-772 253,-766 259,-766 259,-766 380,-766 380,-766 386,-766 392,-772 392,-778 392,-778 392,-790 392,-790 392,-796 386,-802 380,-802"/>
<text text-anchor="middle" x="319.5" y="-781.5" font-family="Arial" font-size="10.00">Settlement status: completed</text>
</g>
<!-- B -->
<g id="node2" class="node">
<title>B</title>
<path fill="#f8fafc" stroke="#334155" d="M308.48,-724.25C308.48,-724.25 288.77,-715.75 288.77,-715.75 283.26,-713.38 283.26,-708.62 288.77,-706.25 288.77,-706.25 308.48,-697.75 308.48,-697.75 313.99,-695.38 325.01,-695.38 330.52,-697.75 330.52,-697.75 350.23,-706.25 350.23,-706.25 355.74,-708.62 355.74,-713.38 350.23,-715.75 350.23,-715.75 330.52,-724.25 330.52,-724.25 325.01,-726.62 313.99,-726.62 308.48,-724.25"/>
<text text-anchor="middle" x="319.5" y="-708.5" font-family="Arial" font-size="10.00">Action?</text>
</g>
<!-- A&#45;&gt;B -->
<g id="edge1" class="edge">
<title>A&#45;&gt;B</title>
<path fill="none" stroke="#475569" d="M319.5,-765.81C319.5,-757.79 319.5,-748.05 319.5,-739.07"/>
<polygon fill="#475569" stroke="#475569" points="323,-739.03 319.5,-729.03 316,-739.03 323,-739.03"/>
</g>
<!-- C -->
<g id="node3" class="node">
<title>C</title>
<path fill="#f8fafc" stroke="#334155" d="M223,-647C223,-647 126,-647 126,-647 120,-647 114,-641 114,-635 114,-635 114,-623 114,-623 114,-617 120,-611 126,-611 126,-611 223,-611 223,-611 229,-611 235,-617 235,-623 235,-623 235,-635 235,-635 235,-641 229,-647 223,-647"/>
<text text-anchor="middle" x="174.5" y="-626.5" font-family="Arial" font-size="10.00">SettlementService::void</text>
</g>
<!-- B&#45;&gt;C -->
<g id="edge2" class="edge">
<title>B&#45;&gt;C</title>
<path fill="none" stroke="#475569" d="M302.01,-700.35C280.46,-688.46 243.19,-667.9 214.49,-652.07"/>
<polygon fill="#475569" stroke="#475569" points="215.95,-648.87 205.51,-647.11 212.57,-655 215.95,-648.87"/>
<text text-anchor="middle" x="266" y="-667.8" font-family="Arial" font-size="9.00">Void</text>
</g>
<!-- M -->
<g id="node13" class="node">
<title>M</title>
<path fill="#f8fafc" stroke="#334155" d="M373,-647C373,-647 266,-647 266,-647 260,-647 254,-641 254,-635 254,-635 254,-623 254,-623 254,-617 260,-611 266,-611 266,-611 373,-611 373,-611 379,-611 385,-617 385,-623 385,-623 385,-635 385,-635 385,-641 379,-647 373,-647"/>
<text text-anchor="middle" x="319.5" y="-626.5" font-family="Arial" font-size="10.00">SettlementService::cancel</text>
</g>
<!-- B&#45;&gt;M -->
<g id="edge13" class="edge">
<title>B&#45;&gt;M</title>
<path fill="none" stroke="#475569" d="M319.5,-692.64C319.5,-682.3 319.5,-668.94 319.5,-657.22"/>
<polygon fill="#475569" stroke="#475569" points="323,-657.05 319.5,-647.05 316,-657.05 323,-657.05"/>
<text text-anchor="middle" x="334.5" y="-667.8" font-family="Arial" font-size="9.00">Cancel</text>
</g>
<!-- Q -->
<g id="node17" class="node">
<title>Q</title>
<path fill="#f8fafc" stroke="#334155" d="M508.5,-647C508.5,-647 416.5,-647 416.5,-647 410.5,-647 404.5,-641 404.5,-635 404.5,-635 404.5,-623 404.5,-623 404.5,-617 410.5,-611 416.5,-611 416.5,-611 508.5,-611 508.5,-611 514.5,-611 520.5,-617 520.5,-623 520.5,-623 520.5,-635 520.5,-635 520.5,-641 514.5,-647 508.5,-647"/>
<text text-anchor="middle" x="462.5" y="-626.5" font-family="Arial" font-size="10.00">InvoiceService::cancel</text>
</g>
<!-- B&#45;&gt;Q -->
<g id="edge18" class="edge">
<title>B&#45;&gt;Q</title>
<path fill="none" stroke="#475569" d="M336.75,-700.35C358,-688.46 394.75,-667.9 423.06,-652.07"/>
<polygon fill="#475569" stroke="#475569" points="424.9,-655.04 431.92,-647.11 421.48,-648.94 424.9,-655.04"/>
<text text-anchor="middle" x="441.5" y="-667.8" font-family="Arial" font-size="9.00">Cancel paid invoice</text>
</g>
<!-- D -->
<g id="node4" class="node">
<title>D</title>
<path fill="#f8fafc" stroke="#334155" d="M201,-574C201,-574 140,-574 140,-574 134,-574 128,-568 128,-562 128,-562 128,-550 128,-550 128,-544 134,-538 140,-538 140,-538 201,-538 201,-538 207,-538 213,-544 213,-550 213,-550 213,-562 213,-562 213,-568 207,-574 201,-574"/>
<text text-anchor="middle" x="170.5" y="-553.5" font-family="Arial" font-size="10.00">DB::transaction</text>
</g>
<!-- C&#45;&gt;D -->
<g id="edge3" class="edge">
<title>C&#45;&gt;D</title>
<path fill="none" stroke="#475569" d="M173.53,-610.81C173.08,-602.79 172.53,-593.05 172.03,-584.07"/>
<polygon fill="#475569" stroke="#475569" points="175.52,-583.82 171.46,-574.03 168.53,-584.21 175.52,-583.82"/>
</g>
<!-- E -->
<g id="node5" class="node">
<title>E</title>
<path fill="#f8fafc" stroke="#334155" d="M184.5,-492C184.5,-492 122.5,-492 122.5,-492 116.5,-492 110.5,-486 110.5,-480 110.5,-480 110.5,-468 110.5,-468 110.5,-462 116.5,-456 122.5,-456 122.5,-456 184.5,-456 184.5,-456 190.5,-456 196.5,-462 196.5,-468 196.5,-468 196.5,-480 196.5,-480 196.5,-486 190.5,-492 184.5,-492"/>
<text text-anchor="middle" x="153.5" y="-471.5" font-family="Arial" font-size="10.00">Set status: void</text>
</g>
<!-- D&#45;&gt;E -->
<g id="edge4" class="edge">
<title>D&#45;&gt;E</title>
<path fill="none" stroke="#475569" d="M166.81,-537.64C164.59,-527.19 161.72,-513.67 159.21,-501.86"/>
<polygon fill="#475569" stroke="#475569" points="162.63,-501.1 157.12,-492.05 155.78,-502.56 162.63,-501.1"/>
</g>
<!-- F -->
<g id="node6" class="node">
<title>F</title>
<path fill="#f8fafc" stroke="#334155" d="M189,-419C189,-419 12,-419 12,-419 6,-419 0,-413 0,-407 0,-407 0,-395 0,-395 0,-389 6,-383 12,-383 12,-383 189,-383 189,-383 195,-383 201,-389 201,-395 201,-395 201,-407 201,-407 201,-413 195,-419 189,-419"/>
<text text-anchor="middle" x="100.5" y="-398.5" font-family="Arial" font-size="10.00">Record voided_at, voided_by, void_reason</text>
</g>
<!-- E&#45;&gt;F -->
<g id="edge5" class="edge">
<title>E&#45;&gt;F</title>
<path fill="none" stroke="#475569" d="M140.67,-455.81C134.29,-447.27 126.45,-436.77 119.4,-427.32"/>
<polygon fill="#475569" stroke="#475569" points="122,-424.95 113.21,-419.03 116.39,-429.14 122,-424.95"/>
</g>
<!-- G -->
<g id="node7" class="node">
<title>G</title>
<path fill="#f8fafc" stroke="#334155" d="M326,-346C326,-346 219,-346 219,-346 213,-346 207,-340 207,-334 207,-334 207,-322 207,-322 207,-316 213,-310 219,-310 219,-310 326,-310 326,-310 332,-310 338,-316 338,-322 338,-322 338,-334 338,-334 338,-340 332,-346 326,-346"/>
<text text-anchor="middle" x="272.5" y="-325.5" font-family="Arial" font-size="10.00">For each allocated invoice</text>
</g>
<!-- F&#45;&gt;G -->
<g id="edge6" class="edge">
<title>F&#45;&gt;G</title>
<path fill="none" stroke="#475569" d="M141.7,-382.99C165.67,-373.1 196.08,-360.54 221.55,-350.03"/>
<polygon fill="#475569" stroke="#475569" points="223.13,-353.16 231.04,-346.11 220.46,-346.69 223.13,-353.16"/>
</g>
<!-- H -->
<g id="node8" class="node">
<title>H</title>
<path fill="#f8fafc" stroke="#334155" d="M344.5,-264C344.5,-264 200.5,-264 200.5,-264 194.5,-264 188.5,-258 188.5,-252 188.5,-252 188.5,-240 188.5,-240 188.5,-234 194.5,-228 200.5,-228 200.5,-228 344.5,-228 344.5,-228 350.5,-228 356.5,-234 356.5,-240 356.5,-240 356.5,-252 356.5,-252 356.5,-258 350.5,-264 344.5,-264"/>
<text text-anchor="middle" x="272.5" y="-243.5" font-family="Arial" font-size="10.00">invoice.recalculateFromAllocations</text>
</g>
<!-- G&#45;&gt;H -->
<g id="edge7" class="edge">
<title>G&#45;&gt;H</title>
<path fill="none" stroke="#475569" d="M272.5,-309.64C272.5,-299.3 272.5,-285.94 272.5,-274.22"/>
<polygon fill="#475569" stroke="#475569" points="276,-274.05 272.5,-264.05 269,-274.05 276,-274.05"/>
</g>
<!-- I -->
<g id="node9" class="node">
<title>I</title>
<path fill="#f8fafc" stroke="#334155" d="M260.71,-188.75C260.71,-188.75 190.14,-175.25 190.14,-175.25 184.25,-174.13 184.25,-171.87 190.14,-170.75 190.14,-170.75 260.71,-157.25 260.71,-157.25 266.61,-156.13 278.39,-156.13 284.29,-157.25 284.29,-157.25 354.86,-170.75 354.86,-170.75 360.75,-171.87 360.75,-174.13 354.86,-175.25 354.86,-175.25 284.29,-188.75 284.29,-188.75 278.39,-189.87 266.61,-189.87 260.71,-188.75"/>
<text text-anchor="middle" x="272.5" y="-170.5" font-family="Arial" font-size="10.00">Invoice still fully paid?</text>
</g>
<!-- H&#45;&gt;I -->
<g id="edge8" class="edge">
<title>H&#45;&gt;I</title>
<path fill="none" stroke="#475569" d="M272.5,-227.81C272.5,-219.79 272.5,-210.05 272.5,-201.07"/>
<polygon fill="#475569" stroke="#475569" points="276,-201.03 272.5,-191.03 269,-201.03 276,-201.03"/>
</g>
<!-- J -->
<g id="node10" class="node">
<title>J</title>
<path fill="#f8fafc" stroke="#334155" d="M247,-109C247,-109 112,-109 112,-109 106,-109 100,-103 100,-97 100,-97 100,-85 100,-85 100,-79 106,-73 112,-73 112,-73 247,-73 247,-73 253,-73 259,-79 259,-85 259,-85 259,-97 259,-97 259,-103 253,-109 247,-109"/>
<text text-anchor="middle" x="179.5" y="-88.5" font-family="Arial" font-size="10.00">Revert obligation is_paid to false</text>
</g>
<!-- I&#45;&gt;J -->
<g id="edge9" class="edge">
<title>I&#45;&gt;J</title>
<path fill="none" stroke="#475569" d="M256.3,-158.07C242.83,-146.48 223.35,-129.72 207.38,-115.98"/>
<polygon fill="#475569" stroke="#475569" points="209.26,-112.98 199.39,-109.11 204.69,-118.29 209.26,-112.98"/>
<text text-anchor="middle" x="239" y="-129.8" font-family="Arial" font-size="9.00">No</text>
</g>
<!-- K -->
<g id="node11" class="node">
<title>K</title>
<path fill="#f8fafc" stroke="#334155" d="M369.5,-109C369.5,-109 289.5,-109 289.5,-109 283.5,-109 277.5,-103 277.5,-97 277.5,-97 277.5,-85 277.5,-85 277.5,-79 283.5,-73 289.5,-73 289.5,-73 369.5,-73 369.5,-73 375.5,-73 381.5,-79 381.5,-85 381.5,-85 381.5,-97 381.5,-97 381.5,-103 375.5,-109 369.5,-109"/>
<text text-anchor="middle" x="329.5" y="-88.5" font-family="Arial" font-size="10.00">Keep obligation paid</text>
</g>
<!-- I&#45;&gt;K -->
<g id="edge10" class="edge">
<title>I&#45;&gt;K</title>
<path fill="none" stroke="#475569" d="M283.22,-156.95C291.16,-145.81 302.16,-130.38 311.44,-117.35"/>
<polygon fill="#475569" stroke="#475569" points="314.29,-119.38 317.24,-109.2 308.59,-115.32 314.29,-119.38"/>
<text text-anchor="middle" x="354.5" y="-129.8" font-family="Arial" font-size="9.00">Yes by other settlements</text>
</g>
<!-- L -->
<g id="node12" class="node">
<title>L</title>
<path fill="#f8fafc" stroke="#334155" d="M333.5,-36C333.5,-36 173.5,-36 173.5,-36 167.5,-36 161.5,-30 161.5,-24 161.5,-24 161.5,-12 161.5,-12 161.5,-6 167.5,0 173.5,0 173.5,0 333.5,0 333.5,0 339.5,0 345.5,-6 345.5,-12 345.5,-12 345.5,-24 345.5,-24 345.5,-30 339.5,-36 333.5,-36"/>
<text text-anchor="middle" x="253.5" y="-15.5" font-family="Arial" font-size="10.00">Post reversal.posted accounting event</text>
</g>
<!-- J&#45;&gt;L -->
<g id="edge11" class="edge">
<title>J&#45;&gt;L</title>
<path fill="none" stroke="#475569" d="M197.41,-72.81C206.68,-63.92 218.16,-52.91 228.31,-43.17"/>
<polygon fill="#475569" stroke="#475569" points="230.96,-45.48 235.75,-36.03 226.11,-40.43 230.96,-45.48"/>
</g>
<!-- K&#45;&gt;L -->
<g id="edge12" class="edge">
<title>K&#45;&gt;L</title>
<path fill="none" stroke="#475569" d="M311.1,-72.81C301.49,-63.83 289.57,-52.69 279.07,-42.89"/>
<polygon fill="#475569" stroke="#475569" points="281.42,-40.3 271.73,-36.03 276.65,-45.41 281.42,-40.3"/>
</g>
<!-- N -->
<g id="node14" class="node">
<title>N</title>
<path fill="#f8fafc" stroke="#334155" d="M350,-574C350,-574 289,-574 289,-574 283,-574 277,-568 277,-562 277,-562 277,-550 277,-550 277,-544 283,-538 289,-538 289,-538 350,-538 350,-538 356,-538 362,-544 362,-550 362,-550 362,-562 362,-562 362,-568 356,-574 350,-574"/>
<text text-anchor="middle" x="319.5" y="-553.5" font-family="Arial" font-size="10.00">DB::transaction</text>
</g>
<!-- M&#45;&gt;N -->
<g id="edge14" class="edge">
<title>M&#45;&gt;N</title>
<path fill="none" stroke="#475569" d="M319.5,-610.81C319.5,-602.79 319.5,-593.05 319.5,-584.07"/>
<polygon fill="#475569" stroke="#475569" points="323,-584.03 319.5,-574.03 316,-584.03 323,-584.03"/>
</g>
<!-- O -->
<g id="node15" class="node">
<title>O</title>
<path fill="#f8fafc" stroke="#334155" d="M362,-492C362,-492 277,-492 277,-492 271,-492 265,-486 265,-480 265,-480 265,-468 265,-468 265,-462 271,-456 277,-456 277,-456 362,-456 362,-456 368,-456 374,-462 374,-468 374,-468 374,-480 374,-480 374,-486 368,-492 362,-492"/>
<text text-anchor="middle" x="319.5" y="-471.5" font-family="Arial" font-size="10.00">Set status: cancelled</text>
</g>
<!-- N&#45;&gt;O -->
<g id="edge15" class="edge">
<title>N&#45;&gt;O</title>
<path fill="none" stroke="#475569" d="M319.5,-537.64C319.5,-527.3 319.5,-513.94 319.5,-502.22"/>
<polygon fill="#475569" stroke="#475569" points="323,-502.05 319.5,-492.05 316,-502.05 323,-502.05"/>
</g>
<!-- P -->
<g id="node16" class="node">
<title>P</title>
<path fill="#f8fafc" stroke="#334155" d="M467.5,-419C467.5,-419 231.5,-419 231.5,-419 225.5,-419 219.5,-413 219.5,-407 219.5,-407 219.5,-395 219.5,-395 219.5,-389 225.5,-383 231.5,-383 231.5,-383 467.5,-383 467.5,-383 473.5,-383 479.5,-389 479.5,-395 479.5,-395 479.5,-407 479.5,-407 479.5,-413 473.5,-419 467.5,-419"/>
<text text-anchor="middle" x="349.5" y="-398.5" font-family="Arial" font-size="10.00">Record cancelled_at, cancelled_by, cancellation_reason</text>
</g>
<!-- O&#45;&gt;P -->
<g id="edge16" class="edge">
<title>O&#45;&gt;P</title>
<path fill="none" stroke="#475569" d="M326.76,-455.81C330.23,-447.62 334.45,-437.62 338.31,-428.48"/>
<polygon fill="#475569" stroke="#475569" points="341.64,-429.6 342.3,-419.03 335.19,-426.88 341.64,-429.6"/>
</g>
<!-- P&#45;&gt;G -->
<g id="edge17" class="edge">
<title>P&#45;&gt;G</title>
<path fill="none" stroke="#475569" d="M330.86,-382.81C321.12,-373.83 309.04,-362.69 298.4,-352.89"/>
<polygon fill="#475569" stroke="#475569" points="300.69,-350.23 290.97,-346.03 295.95,-355.38 300.69,-350.23"/>
</g>
<!-- R -->
<g id="node18" class="node">
<title>R</title>
<path fill="#f8fafc" stroke="#334155" d="M451.86,-571.08C451.86,-571.08 403.45,-558.92 403.45,-558.92 397.63,-557.46 397.63,-554.54 403.45,-553.08 403.45,-553.08 451.86,-540.92 451.86,-540.92 457.68,-539.46 469.32,-539.46 475.14,-540.92 475.14,-540.92 523.55,-553.08 523.55,-553.08 529.37,-554.54 529.37,-557.46 523.55,-558.92 523.55,-558.92 475.14,-571.08 475.14,-571.08 469.32,-572.54 457.68,-572.54 451.86,-571.08"/>
<text text-anchor="middle" x="463.5" y="-553.5" font-family="Arial" font-size="10.00">Has payments?</text>
</g>
<!-- Q&#45;&gt;R -->
<g id="edge19" class="edge">
<title>Q&#45;&gt;R</title>
<path fill="none" stroke="#475569" d="M462.74,-610.81C462.86,-602.79 462.99,-593.05 463.12,-584.07"/>
<polygon fill="#475569" stroke="#475569" points="466.62,-584.08 463.26,-574.03 459.62,-583.98 466.62,-584.08"/>
</g>
<!-- S -->
<g id="node19" class="node">
<title>S</title>
<path fill="#f8fafc" stroke="#334155" d="M523,-492C523,-492 404,-492 404,-492 398,-492 392,-486 392,-480 392,-480 392,-468 392,-468 392,-462 398,-456 404,-456 404,-456 523,-456 523,-456 529,-456 535,-462 535,-468 535,-468 535,-480 535,-480 535,-486 529,-492 523,-492"/>
<text text-anchor="middle" x="463.5" y="-471.5" font-family="Arial" font-size="10.00">Set invoice status: cancelled</text>
</g>
<!-- R&#45;&gt;S -->
<g id="edge20" class="edge">
<title>R&#45;&gt;S</title>
<path fill="none" stroke="#475569" d="M463.5,-537.64C463.5,-527.3 463.5,-513.94 463.5,-502.22"/>
<polygon fill="#475569" stroke="#475569" points="467,-502.05 463.5,-492.05 460,-502.05 467,-502.05"/>
<text text-anchor="middle" x="470" y="-512.8" font-family="Arial" font-size="9.00">No</text>
</g>
<!-- T -->
<g id="node20" class="node">
<title>T</title>
<path fill="#f8fafc" stroke="#334155" d="M640,-492C640,-492 565,-492 565,-492 559,-492 553,-486 553,-480 553,-480 553,-468 553,-468 553,-462 559,-456 565,-456 565,-456 640,-456 640,-456 646,-456 652,-462 652,-468 652,-468 652,-480 652,-480 652,-486 646,-492 640,-492"/>
<text text-anchor="middle" x="602.5" y="-471.5" font-family="Arial" font-size="10.00">voidWithPayments</text>
</g>
<!-- R&#45;&gt;T -->
<g id="edge21" class="edge">
<title>R&#45;&gt;T</title>
<path fill="none" stroke="#475569" d="M484.31,-543.02C505.31,-530.94 538.23,-511.99 564,-497.16"/>
<polygon fill="#475569" stroke="#475569" points="565.87,-500.12 572.79,-492.1 562.38,-494.05 565.87,-500.12"/>
<text text-anchor="middle" x="549.5" y="-512.8" font-family="Arial" font-size="9.00">Yes</text>
</g>
<!-- U -->
<g id="node21" class="node">
<title>U</title>
<path fill="#f8fafc" stroke="#334155" d="M665.5,-419C665.5,-419 539.5,-419 539.5,-419 533.5,-419 527.5,-413 527.5,-407 527.5,-407 527.5,-395 527.5,-395 527.5,-389 533.5,-383 539.5,-383 539.5,-383 665.5,-383 665.5,-383 671.5,-383 677.5,-389 677.5,-395 677.5,-395 677.5,-407 677.5,-407 677.5,-413 671.5,-419 665.5,-419"/>
<text text-anchor="middle" x="602.5" y="-398.5" font-family="Arial" font-size="10.00">Find all completed settlements</text>
</g>
<!-- T&#45;&gt;U -->
<g id="edge22" class="edge">
<title>T&#45;&gt;U</title>
<path fill="none" stroke="#475569" d="M602.5,-455.81C602.5,-447.79 602.5,-438.05 602.5,-429.07"/>
<polygon fill="#475569" stroke="#475569" points="606,-429.03 602.5,-419.03 599,-429.03 606,-429.03"/>
</g>
<!-- V -->
<g id="node22" class="node">
<title>V</title>
<path fill="#f8fafc" stroke="#334155" d="M590.65,-344.12C590.65,-344.12 500.91,-329.88 500.91,-329.88 494.99,-328.94 494.99,-327.06 500.91,-326.12 500.91,-326.12 590.65,-311.88 590.65,-311.88 596.57,-310.94 608.43,-310.94 614.35,-311.88 614.35,-311.88 704.09,-326.12 704.09,-326.12 710.01,-327.06 710.01,-328.94 704.09,-329.88 704.09,-329.88 614.35,-344.12 614.35,-344.12 608.43,-345.06 596.57,-345.06 590.65,-344.12"/>
<text text-anchor="middle" x="602.5" y="-325.5" font-family="Arial" font-size="10.00">Each has single allocation?</text>
</g>
<!-- U&#45;&gt;V -->
<g id="edge23" class="edge">
<title>U&#45;&gt;V</title>
<path fill="none" stroke="#475569" d="M602.5,-382.81C602.5,-374.79 602.5,-365.05 602.5,-356.07"/>
<polygon fill="#475569" stroke="#475569" points="606,-356.03 602.5,-346.03 599,-356.03 606,-356.03"/>
</g>
<!-- W -->
<g id="node23" class="node">
<title>W</title>
<path fill="#f8fafc" stroke="#334155" d="M518.5,-264C518.5,-264 434.5,-264 434.5,-264 428.5,-264 422.5,-258 422.5,-252 422.5,-252 422.5,-240 422.5,-240 422.5,-234 428.5,-228 434.5,-228 434.5,-228 518.5,-228 518.5,-228 524.5,-228 530.5,-234 530.5,-240 530.5,-240 530.5,-252 530.5,-252 530.5,-258 524.5,-264 518.5,-264"/>
<text text-anchor="middle" x="476.5" y="-243.5" font-family="Arial" font-size="10.00">Void each settlement</text>
</g>
<!-- V&#45;&gt;W -->
<g id="edge24" class="edge">
<title>V&#45;&gt;W</title>
<path fill="none" stroke="#475569" d="M580.84,-313.25C561.96,-301.26 534.2,-283.64 512.06,-269.58"/>
<polygon fill="#475569" stroke="#475569" points="513.9,-266.6 503.58,-264.19 510.14,-272.51 513.9,-266.6"/>
<text text-anchor="middle" x="555.5" y="-284.8" font-family="Arial" font-size="9.00">Yes</text>
</g>
<!-- X -->
<g id="node24" class="node">
<title>X</title>
<path fill="#f8fafc" stroke="#334155" d="M694.5,-264C694.5,-264 560.5,-264 560.5,-264 554.5,-264 548.5,-258 548.5,-252 548.5,-252 548.5,-240 548.5,-240 548.5,-234 554.5,-228 560.5,-228 560.5,-228 694.5,-228 694.5,-228 700.5,-228 706.5,-234 706.5,-240 706.5,-240 706.5,-252 706.5,-252 706.5,-258 700.5,-264 694.5,-264"/>
<text text-anchor="middle" x="627.5" y="-243.5" font-family="Arial" font-size="10.00">Error: multi&#45;allocation settlement</text>
</g>
<!-- V&#45;&gt;X -->
<g id="edge25" class="edge">
<title>V&#45;&gt;X</title>
<path fill="none" stroke="#475569" d="M607.68,-310.42C610.99,-299.84 615.35,-285.88 619.14,-273.75"/>
<polygon fill="#475569" stroke="#475569" points="622.51,-274.7 622.15,-264.11 615.83,-272.61 622.51,-274.7"/>
<text text-anchor="middle" x="623" y="-284.8" font-family="Arial" font-size="9.00">No</text>
</g>
<!-- Y -->
<g id="node25" class="node">
<title>Y</title>
<path fill="#f8fafc" stroke="#334155" d="M515.5,-191C515.5,-191 437.5,-191 437.5,-191 431.5,-191 425.5,-185 425.5,-179 425.5,-179 425.5,-167 425.5,-167 425.5,-161 431.5,-155 437.5,-155 437.5,-155 515.5,-155 515.5,-155 521.5,-155 527.5,-161 527.5,-167 527.5,-167 527.5,-179 527.5,-179 527.5,-185 521.5,-191 515.5,-191"/>
<text text-anchor="middle" x="476.5" y="-170.5" font-family="Arial" font-size="10.00">Recalculate invoice</text>
</g>
<!-- W&#45;&gt;Y -->
<g id="edge26" class="edge">
<title>W&#45;&gt;Y</title>
<path fill="none" stroke="#475569" d="M476.5,-227.81C476.5,-219.79 476.5,-210.05 476.5,-201.07"/>
<polygon fill="#475569" stroke="#475569" points="480,-201.03 476.5,-191.03 473,-201.03 480,-201.03"/>
</g>
<!-- Z -->
<g id="node26" class="node">
<title>Z</title>
<path fill="#f8fafc" stroke="#334155" d="M536,-109C536,-109 417,-109 417,-109 411,-109 405,-103 405,-97 405,-97 405,-85 405,-85 405,-79 411,-73 417,-73 417,-73 536,-73 536,-73 542,-73 548,-79 548,-85 548,-85 548,-97 548,-97 548,-103 542,-109 536,-109"/>
<text text-anchor="middle" x="476.5" y="-88.5" font-family="Arial" font-size="10.00">Set invoice status: cancelled</text>
</g>
<!-- Y&#45;&gt;Z -->
<g id="edge27" class="edge">
<title>Y&#45;&gt;Z</title>
<path fill="none" stroke="#475569" d="M476.5,-154.64C476.5,-144.3 476.5,-130.94 476.5,-119.22"/>
<polygon fill="#475569" stroke="#475569" points="480,-119.05 476.5,-109.05 473,-119.05 480,-119.05"/>
</g>
</g>
</svg>
