<?xml version="1.0" encoding="UTF-8" standalone="no"?>
<!DOCTYPE svg PUBLIC "-//W3C//DTD SVG 1.1//EN"
 "http://www.w3.org/Graphics/SVG/1.1/DTD/svg11.dtd">
<!-- Generated by graphviz version 2.43.0 (0)
 -->
<!-- Title: G Pages: 1 -->
<svg width="820pt" height="422pt"
 viewBox="0.00 0.00 820.00 422.00" xmlns="http://www.w3.org/2000/svg" xmlns:xlink="http://www.w3.org/1999/xlink">
<g id="graph0" class="graph" transform="scale(1 1) rotate(0) translate(4 418)">
<title>G</title>
<polygon fill="white" stroke="transparent" points="-4,4 -4,-418 816,-418 816,4 -4,4"/>
<text text-anchor="middle" x="406" y="-397.2" font-family="Arial" font-size="16.00">OPERATIONAL_HANDBOOK.md &#45; diagram 1</text>
<g id="clust1" class="cluster">
<title>cluster_Foundation</title>
<path fill="white" stroke="#cbd5e1" d="M524,-302C524,-302 675,-302 675,-302 681,-302 687,-308 687,-314 687,-314 687,-368 687,-368 687,-374 681,-380 675,-380 675,-380 524,-380 524,-380 518,-380 512,-374 512,-368 512,-368 512,-314 512,-314 512,-308 518,-302 524,-302"/>
<text text-anchor="middle" x="599.5" y="-363.2" font-family="Arial" font-size="16.00">Yayasan (Foundation)</text>
</g>
<g id="clust2" class="cluster">
<title>cluster_Units</title>
<path fill="white" stroke="#cbd5e1" d="M20,-302C20,-302 212,-302 212,-302 218,-302 224,-308 224,-314 224,-314 224,-368 224,-368 224,-374 218,-380 212,-380 212,-380 20,-380 20,-380 14,-380 8,-374 8,-368 8,-368 8,-314 8,-314 8,-308 14,-302 20,-302"/>
<text text-anchor="middle" x="116" y="-363.2" font-family="Arial" font-size="16.00">School Units</text>
</g>
<g id="clust3" class="cluster">
<title>cluster_Modules</title>
<path fill="white" stroke="#cbd5e1" d="M158,-8C158,-8 516,-8 516,-8 522,-8 528,-14 528,-20 528,-20 528,-262 528,-262 528,-268 522,-274 516,-274 516,-274 158,-274 158,-274 152,-274 146,-268 146,-262 146,-262 146,-20 146,-20 146,-14 152,-8 158,-8"/>
<text text-anchor="middle" x="337" y="-257.2" font-family="Arial" font-size="16.00">Core Modules</text>
</g>
<g id="clust4" class="cluster">
<title>cluster_Data</title>
<path fill="white" stroke="#cbd5e1" d="M548,-8C548,-8 792,-8 792,-8 798,-8 804,-14 804,-20 804,-20 804,-74 804,-74 804,-80 798,-86 792,-86 792,-86 548,-86 548,-86 542,-86 536,-80 536,-74 536,-74 536,-20 536,-20 536,-14 542,-8 548,-8"/>
<text text-anchor="middle" x="670" y="-69.2" font-family="Arial" font-size="16.00">Financial Records</text>
</g>
<!-- BND -->
<g id="node1" class="node">
<title>BND</title>
<path fill="#f8fafc" stroke="#334155" d="M571.5,-346C571.5,-346 532.5,-346 532.5,-346 526.5,-346 520.5,-340 520.5,-334 520.5,-334 520.5,-322 520.5,-322 520.5,-316 526.5,-310 532.5,-310 532.5,-310 571.5,-310 571.5,-310 577.5,-310 583.5,-316 583.5,-322 583.5,-322 583.5,-334 583.5,-334 583.5,-340 577.5,-346 571.5,-346"/>
<text text-anchor="middle" x="552" y="-325.5" font-family="Arial" font-size="10.00">Bendahara</text>
</g>
<!-- BNK -->
<g id="node7" class="node">
<title>BNK</title>
<path fill="#f8fafc" stroke="#334155" d="M434,-240C434,-240 354,-240 354,-240 348,-240 342,-234 342,-228 342,-228 342,-216 342,-216 342,-210 348,-204 354,-204 354,-204 434,-204 434,-204 440,-204 446,-210 446,-216 446,-216 446,-228 446,-228 446,-234 440,-240 434,-240"/>
<text text-anchor="middle" x="394" y="-219.5" font-family="Arial" font-size="10.00">Bank Reconciliation</text>
</g>
<!-- BND&#45;&gt;BNK -->
<g id="edge6" class="edge">
<title>BND&#45;&gt;BNK</title>
<path fill="none" stroke="#475569" d="M520.44,-311C509.18,-305.16 496.45,-298.42 485,-292 471.44,-284.4 467.67,-283.01 455,-274 443.26,-265.65 430.95,-255.63 420.49,-246.69"/>
<polygon fill="#475569" stroke="#475569" points="422.74,-244.01 412.89,-240.11 418.16,-249.3 422.74,-244.01"/>
<text text-anchor="middle" x="504" y="-284.8" font-family="Arial" font-size="9.00">oversees</text>
</g>
<!-- EXP -->
<g id="node8" class="node">
<title>EXP</title>
<path fill="#f8fafc" stroke="#334155" d="M312,-240C312,-240 276,-240 276,-240 270,-240 264,-234 264,-228 264,-228 264,-216 264,-216 264,-210 270,-204 276,-204 276,-204 312,-204 312,-204 318,-204 324,-210 324,-216 324,-216 324,-228 324,-228 324,-234 318,-240 312,-240"/>
<text text-anchor="middle" x="294" y="-219.5" font-family="Arial" font-size="10.00">Expenses</text>
</g>
<!-- BND&#45;&gt;EXP -->
<g id="edge5" class="edge">
<title>BND&#45;&gt;EXP</title>
<path fill="none" stroke="#475569" d="M520.4,-325.88C475.36,-322.92 391.66,-312.24 333,-274 323.23,-267.63 314.94,-257.96 308.54,-248.74"/>
<polygon fill="#475569" stroke="#475569" points="311.37,-246.67 303.01,-240.16 305.49,-250.46 311.37,-246.67"/>
<text text-anchor="middle" x="384" y="-284.8" font-family="Arial" font-size="9.00">oversees</text>
</g>
<!-- INV -->
<g id="node9" class="node">
<title>INV</title>
<path fill="#f8fafc" stroke="#334155" d="M508,-240C508,-240 476,-240 476,-240 470,-240 464,-234 464,-228 464,-228 464,-216 464,-216 464,-210 470,-204 476,-204 476,-204 508,-204 508,-204 514,-204 520,-210 520,-216 520,-216 520,-228 520,-228 520,-234 514,-240 508,-240"/>
<text text-anchor="middle" x="492" y="-219.5" font-family="Arial" font-size="10.00">Invoicing</text>
</g>
<!-- BND&#45;&gt;INV -->
<g id="edge3" class="edge">
<title>BND&#45;&gt;INV</title>
<path fill="none" stroke="#475569" d="M542.09,-309.83C532.54,-293.27 517.95,-267.99 506.98,-248.97"/>
<polygon fill="#475569" stroke="#475569" points="509.95,-247.11 501.92,-240.2 503.89,-250.61 509.95,-247.11"/>
<text text-anchor="middle" x="549" y="-284.8" font-family="Arial" font-size="9.00">oversees</text>
</g>
<!-- STL -->
<g id="node12" class="node">
<title>STL</title>
<path fill="#f8fafc" stroke="#334155" d="M505.5,-158C505.5,-158 460.5,-158 460.5,-158 454.5,-158 448.5,-152 448.5,-146 448.5,-146 448.5,-134 448.5,-134 448.5,-128 454.5,-122 460.5,-122 460.5,-122 505.5,-122 505.5,-122 511.5,-122 517.5,-128 517.5,-134 517.5,-134 517.5,-146 517.5,-146 517.5,-152 511.5,-158 505.5,-158"/>
<text text-anchor="middle" x="483" y="-137.5" font-family="Arial" font-size="10.00">Settlements</text>
</g>
<!-- BND&#45;&gt;STL -->
<g id="edge4" class="edge">
<title>BND&#45;&gt;STL</title>
<path fill="none" stroke="#475569" d="M565.25,-309.67C569.97,-301.56 573.75,-291.59 572,-282 562.96,-232.46 562.7,-215.91 532,-176 528.81,-171.86 525.01,-168 520.94,-164.47"/>
<polygon fill="#475569" stroke="#475569" points="522.91,-161.57 512.89,-158.11 518.57,-167.06 522.91,-161.57"/>
<text text-anchor="middle" x="589" y="-219.8" font-family="Arial" font-size="9.00">oversees</text>
</g>
<!-- SA -->
<g id="node2" class="node">
<title>SA</title>
<path fill="#f8fafc" stroke="#334155" d="M667,-346C667,-346 619,-346 619,-346 613,-346 607,-340 607,-334 607,-334 607,-322 607,-322 607,-316 613,-310 619,-310 619,-310 667,-310 667,-310 673,-310 679,-316 679,-322 679,-322 679,-334 679,-334 679,-340 673,-346 667,-346"/>
<text text-anchor="middle" x="643" y="-325.5" font-family="Arial" font-size="10.00">Super Admin</text>
</g>
<!-- Modules -->
<g id="node17" class="node">
<title>Modules</title>
<path fill="#f8fafc" stroke="#334155" d="M774,-158C774,-158 744,-158 744,-158 738,-158 732,-152 732,-146 732,-146 732,-134 732,-134 732,-128 738,-122 744,-122 744,-122 774,-122 774,-122 780,-122 786,-128 786,-134 786,-134 786,-146 786,-146 786,-152 780,-158 774,-158"/>
<text text-anchor="middle" x="759" y="-137.5" font-family="Arial" font-size="10.00">Modules</text>
</g>
<!-- SA&#45;&gt;Modules -->
<g id="edge2" class="edge">
<title>SA&#45;&gt;Modules</title>
<path fill="none" stroke="#475569" d="M675.39,-309.83C683.32,-304.74 691.42,-298.7 698,-292 731.96,-257.41 747.79,-201.43 754.55,-168.22"/>
<polygon fill="#475569" stroke="#475569" points="758.01,-168.77 756.43,-158.29 751.13,-167.46 758.01,-168.77"/>
<text text-anchor="middle" x="765.5" y="-219.8" font-family="Arial" font-size="9.00">configures</text>
</g>
<!-- Units -->
<g id="node18" class="node">
<title>Units</title>
<path fill="#f8fafc" stroke="#334155" d="M688,-240C688,-240 658,-240 658,-240 652,-240 646,-234 646,-228 646,-228 646,-216 646,-216 646,-210 652,-204 658,-204 658,-204 688,-204 688,-204 694,-204 700,-210 700,-216 700,-216 700,-228 700,-228 700,-234 694,-240 688,-240"/>
<text text-anchor="middle" x="673" y="-219.5" font-family="Arial" font-size="10.00">Units</text>
</g>
<!-- SA&#45;&gt;Units -->
<g id="edge1" class="edge">
<title>SA&#45;&gt;Units</title>
<path fill="none" stroke="#475569" d="M647.95,-309.83C652.64,-293.57 659.76,-268.9 665.21,-250.01"/>
<polygon fill="#475569" stroke="#475569" points="668.63,-250.78 668.04,-240.2 661.9,-248.84 668.63,-250.78"/>
<text text-anchor="middle" x="674.5" y="-284.8" font-family="Arial" font-size="9.00">manages</text>
</g>
<!-- DTA -->
<g id="node3" class="node">
<title>DTA</title>
<path fill="#f8fafc" stroke="#334155" d="M204,-346C204,-346 172,-346 172,-346 166,-346 160,-340 160,-334 160,-334 160,-322 160,-322 160,-316 166,-310 172,-310 172,-310 204,-310 204,-310 210,-310 216,-316 216,-322 216,-322 216,-334 216,-334 216,-340 210,-346 204,-346"/>
<text text-anchor="middle" x="188" y="-325.5" font-family="Arial" font-size="10.00">DTA Unit</text>
</g>
<!-- ADM -->
<g id="node6" class="node">
<title>ADM</title>
<path fill="#f8fafc" stroke="#334155" d="M234,-240C234,-240 166,-240 166,-240 160,-240 154,-234 154,-228 154,-228 154,-216 154,-216 154,-210 160,-204 166,-204 166,-204 234,-204 234,-204 240,-204 246,-210 246,-216 246,-216 246,-228 246,-228 246,-234 240,-240 234,-240"/>
<text text-anchor="middle" x="200" y="-219.5" font-family="Arial" font-size="10.00">Admission / PSB</text>
</g>
<!-- DTA&#45;&gt;ADM -->
<g id="edge11" class="edge">
<title>DTA&#45;&gt;ADM</title>
<path fill="none" stroke="#475569" d="M189.98,-309.83C191.85,-293.64 194.68,-269.13 196.85,-250.27"/>
<polygon fill="#475569" stroke="#475569" points="200.35,-250.53 198.02,-240.2 193.39,-249.73 200.35,-250.53"/>
</g>
<!-- MST -->
<g id="node10" class="node">
<title>MST</title>
<path fill="#f8fafc" stroke="#334155" d="M213.5,-158C213.5,-158 166.5,-158 166.5,-158 160.5,-158 154.5,-152 154.5,-146 154.5,-146 154.5,-134 154.5,-134 154.5,-128 160.5,-122 166.5,-122 166.5,-122 213.5,-122 213.5,-122 219.5,-122 225.5,-128 225.5,-134 225.5,-134 225.5,-146 225.5,-146 225.5,-152 219.5,-158 213.5,-158"/>
<text text-anchor="middle" x="190" y="-137.5" font-family="Arial" font-size="10.00">Master Data</text>
</g>
<!-- DTA&#45;&gt;MST -->
<g id="edge12" class="edge">
<title>DTA&#45;&gt;MST</title>
<path fill="none" stroke="#475569" d="M168.96,-309.84C159.82,-300.3 149.83,-287.62 145,-274 134.6,-244.68 135.51,-233.63 145,-204 149.45,-190.13 158.19,-176.71 166.8,-165.85"/>
<polygon fill="#475569" stroke="#475569" points="169.57,-168 173.28,-158.08 164.19,-163.51 169.57,-168"/>
</g>
<!-- MI -->
<g id="node4" class="node">
<title>MI</title>
<path fill="#f8fafc" stroke="#334155" d="M58,-346C58,-346 28,-346 28,-346 22,-346 16,-340 16,-334 16,-334 16,-322 16,-322 16,-316 22,-310 28,-310 28,-310 58,-310 58,-310 64,-310 70,-316 70,-322 70,-322 70,-334 70,-334 70,-340 64,-346 58,-346"/>
<text text-anchor="middle" x="43" y="-325.5" font-family="Arial" font-size="10.00">MI Unit</text>
</g>
<!-- MI&#45;&gt;ADM -->
<g id="edge7" class="edge">
<title>MI&#45;&gt;ADM</title>
<path fill="none" stroke="#475569" d="M67.34,-309.96C71.22,-307.28 75.21,-304.55 79,-302 107.73,-282.65 140.66,-261.2 164.9,-245.54"/>
<polygon fill="#475569" stroke="#475569" points="166.91,-248.41 173.42,-240.04 163.12,-242.52 166.91,-248.41"/>
</g>
<!-- MI&#45;&gt;MST -->
<g id="edge8" class="edge">
<title>MI&#45;&gt;MST</title>
<path fill="none" stroke="#475569" d="M49.83,-309.9C62.75,-279.43 93.41,-215.27 137,-176 141.73,-171.74 147.02,-167.62 152.39,-163.79"/>
<polygon fill="#475569" stroke="#475569" points="154.51,-166.58 160.8,-158.04 150.57,-160.8 154.51,-166.58"/>
</g>
<!-- RA -->
<g id="node5" class="node">
<title>RA</title>
<path fill="#f8fafc" stroke="#334155" d="M130,-346C130,-346 100,-346 100,-346 94,-346 88,-340 88,-334 88,-334 88,-322 88,-322 88,-316 94,-310 100,-310 100,-310 130,-310 130,-310 136,-310 142,-316 142,-322 142,-322 142,-334 142,-334 142,-340 136,-346 130,-346"/>
<text text-anchor="middle" x="115" y="-325.5" font-family="Arial" font-size="10.00">RA Unit</text>
</g>
<!-- RA&#45;&gt;ADM -->
<g id="edge9" class="edge">
<title>RA&#45;&gt;ADM</title>
<path fill="none" stroke="#475569" d="M129.04,-309.83C142.75,-293.04 163.8,-267.3 179.41,-248.19"/>
<polygon fill="#475569" stroke="#475569" points="182.32,-250.16 185.94,-240.2 176.9,-245.73 182.32,-250.16"/>
</g>
<!-- RA&#45;&gt;MST -->
<g id="edge10" class="edge">
<title>RA&#45;&gt;MST</title>
<path fill="none" stroke="#475569" d="M115.51,-309.82C116.66,-285.59 120.47,-240.31 133,-204 137.67,-190.45 139.86,-187.04 149,-176 152.12,-172.23 155.67,-168.55 159.35,-165.06"/>
<polygon fill="#475569" stroke="#475569" points="161.87,-167.51 166.99,-158.24 157.2,-162.29 161.87,-167.51"/>
</g>
<!-- ADM&#45;&gt;MST -->
<g id="edge13" class="edge">
<title>ADM&#45;&gt;MST</title>
<path fill="none" stroke="#475569" d="M197.83,-203.64C196.54,-193.3 194.87,-179.94 193.4,-168.22"/>
<polygon fill="#475569" stroke="#475569" points="196.84,-167.54 192.13,-158.05 189.9,-168.41 196.84,-167.54"/>
<text text-anchor="middle" x="217" y="-178.8" font-family="Arial" font-size="9.00">enrollment</text>
</g>
<!-- TXN -->
<g id="node13" class="node">
<title>TXN</title>
<path fill="#f8fafc" stroke="#334155" d="M374.5,-158C374.5,-158 325.5,-158 325.5,-158 319.5,-158 313.5,-152 313.5,-146 313.5,-146 313.5,-134 313.5,-134 313.5,-128 319.5,-122 325.5,-122 325.5,-122 374.5,-122 374.5,-122 380.5,-122 386.5,-128 386.5,-134 386.5,-134 386.5,-146 386.5,-146 386.5,-152 380.5,-158 374.5,-158"/>
<text text-anchor="middle" x="350" y="-137.5" font-family="Arial" font-size="10.00">Transactions</text>
</g>
<!-- BNK&#45;&gt;TXN -->
<g id="edge24" class="edge">
<title>BNK&#45;&gt;TXN</title>
<path fill="none" stroke="#475569" d="M378.25,-203.65C373.88,-198.26 369.41,-192.12 366,-186 362.9,-180.43 360.22,-174.15 357.98,-168.08"/>
<polygon fill="#475569" stroke="#475569" points="361.17,-166.59 354.65,-158.25 354.54,-168.84 361.17,-166.59"/>
<text text-anchor="middle" x="383.5" y="-178.8" font-family="Arial" font-size="9.00">matches</text>
</g>
<!-- RPT -->
<g id="node11" class="node">
<title>RPT</title>
<path fill="#f8fafc" stroke="#334155" d="M384,-52C384,-52 354,-52 354,-52 348,-52 342,-46 342,-40 342,-40 342,-28 342,-28 342,-22 348,-16 354,-16 354,-16 384,-16 384,-16 390,-16 396,-22 396,-28 396,-28 396,-40 396,-40 396,-46 390,-52 384,-52"/>
<text text-anchor="middle" x="369" y="-31.5" font-family="Arial" font-size="10.00">Reports</text>
</g>
<!-- EXP&#45;&gt;RPT -->
<g id="edge23" class="edge">
<title>EXP&#45;&gt;RPT</title>
<path fill="none" stroke="#475569" d="M293.26,-203.9C292.98,-183.65 294.36,-149.22 305,-122 314.09,-98.74 331.05,-76.13 345.22,-59.79"/>
<polygon fill="#475569" stroke="#475569" points="347.86,-62.09 351.91,-52.3 342.64,-57.43 347.86,-62.09"/>
</g>
<!-- EXP&#45;&gt;TXN -->
<g id="edge19" class="edge">
<title>EXP&#45;&gt;TXN</title>
<path fill="none" stroke="#475569" d="M306.15,-203.64C313.76,-192.77 323.7,-178.57 332.19,-166.44"/>
<polygon fill="#475569" stroke="#475569" points="335.2,-168.25 338.06,-158.05 329.46,-164.24 335.2,-168.25"/>
<text text-anchor="middle" x="336" y="-178.8" font-family="Arial" font-size="9.00">posts</text>
</g>
<!-- INV&#45;&gt;RPT -->
<g id="edge20" class="edge">
<title>INV&#45;&gt;RPT</title>
<path fill="none" stroke="#475569" d="M473.29,-203.65C451.12,-182.16 414.35,-143.55 392,-104 384.65,-90.99 379.18,-75.26 375.42,-62.11"/>
<polygon fill="#475569" stroke="#475569" points="378.74,-60.97 372.77,-52.21 371.97,-62.78 378.74,-60.97"/>
</g>
<!-- INV&#45;&gt;STL -->
<g id="edge16" class="edge">
<title>INV&#45;&gt;STL</title>
<path fill="none" stroke="#475569" d="M490.05,-203.64C488.88,-193.3 487.38,-179.94 486.06,-168.22"/>
<polygon fill="#475569" stroke="#475569" points="489.51,-167.6 484.92,-158.05 482.56,-168.38 489.51,-167.6"/>
<text text-anchor="middle" x="508" y="-178.8" font-family="Arial" font-size="9.00">payments</text>
</g>
<!-- OBL -->
<g id="node15" class="node">
<title>OBL</title>
<path fill="#f8fafc" stroke="#334155" d="M708,-52C708,-52 630,-52 630,-52 624,-52 618,-46 618,-40 618,-40 618,-28 618,-28 618,-22 624,-16 630,-16 630,-16 708,-16 708,-16 714,-16 720,-22 720,-28 720,-28 720,-40 720,-40 720,-46 714,-52 708,-52"/>
<text text-anchor="middle" x="669" y="-31.5" font-family="Arial" font-size="10.00">Student Obligations</text>
</g>
<!-- MST&#45;&gt;OBL -->
<g id="edge14" class="edge">
<title>MST&#45;&gt;OBL</title>
<path fill="none" stroke="#475569" d="M225.72,-133.53C248.41,-130.11 278.41,-125.66 305,-122 367.58,-113.38 385.75,-123.01 446,-104 455.1,-101.13 455.8,-96.55 465,-94 495.89,-85.45 579.24,-97.89 609,-86 623.51,-80.21 637.02,-69.42 647.53,-59.26"/>
<polygon fill="#475569" stroke="#475569" points="650.11,-61.63 654.63,-52.05 645.12,-56.72 650.11,-61.63"/>
<text text-anchor="middle" x="491" y="-96.8" font-family="Arial" font-size="9.00">fee mapping</text>
</g>
<!-- STL&#45;&gt;RPT -->
<g id="edge21" class="edge">
<title>STL&#45;&gt;RPT</title>
<path fill="none" stroke="#475569" d="M448.09,-130.99C431.49,-125.68 412.4,-117.19 399,-104 387.39,-92.57 379.97,-75.9 375.42,-61.81"/>
<polygon fill="#475569" stroke="#475569" points="378.75,-60.73 372.59,-52.11 372.03,-62.69 378.75,-60.73"/>
</g>
<!-- RCP -->
<g id="node16" class="node">
<title>RCP</title>
<path fill="#f8fafc" stroke="#334155" d="M588,-52C588,-52 556,-52 556,-52 550,-52 544,-46 544,-40 544,-40 544,-28 544,-28 544,-22 550,-16 556,-16 556,-16 588,-16 588,-16 594,-16 600,-22 600,-28 600,-28 600,-40 600,-40 600,-46 594,-52 588,-52"/>
<text text-anchor="middle" x="572" y="-31.5" font-family="Arial" font-size="10.00">Receipts</text>
</g>
<!-- STL&#45;&gt;RCP -->
<g id="edge17" class="edge">
<title>STL&#45;&gt;RCP</title>
<path fill="none" stroke="#475569" d="M503.02,-121.87C509.03,-116.39 515.49,-110.14 521,-104 533.24,-90.36 545.5,-73.89 554.93,-60.46"/>
<polygon fill="#475569" stroke="#475569" points="557.88,-62.36 560.69,-52.14 552.12,-58.37 557.88,-62.36"/>
<text text-anchor="middle" x="541.5" y="-96.8" font-family="Arial" font-size="9.00">issues</text>
</g>
<!-- TXN&#45;&gt;RPT -->
<g id="edge22" class="edge">
<title>TXN&#45;&gt;RPT</title>
<path fill="none" stroke="#475569" d="M353.14,-121.83C356.09,-105.64 360.57,-81.13 364.02,-62.27"/>
<polygon fill="#475569" stroke="#475569" points="367.5,-62.67 365.86,-52.2 360.62,-61.41 367.5,-62.67"/>
</g>
<!-- TXN&#45;&gt;RCP -->
<g id="edge18" class="edge">
<title>TXN&#45;&gt;RCP</title>
<path fill="none" stroke="#475569" d="M370.29,-121.79C383.32,-111.79 401.11,-100.02 419,-94 442.86,-85.98 509.77,-97.81 532,-86 542.65,-80.34 551.4,-70.48 557.96,-60.93"/>
<polygon fill="#475569" stroke="#475569" points="560.99,-62.7 563.37,-52.37 555.07,-58.95 560.99,-62.7"/>
<text text-anchor="middle" x="432.5" y="-96.8" font-family="Arial" font-size="9.00">issues</text>
</g>
<!-- AUD -->
<g id="node14" class="node">
<title>AUD</title>
<path fill="#f8fafc" stroke="#334155" d="M784,-52C784,-52 750,-52 750,-52 744,-52 738,-46 738,-40 738,-40 738,-28 738,-28 738,-22 744,-16 750,-16 750,-16 784,-16 784,-16 790,-16 796,-22 796,-28 796,-28 796,-40 796,-40 796,-46 790,-52 784,-52"/>
<text text-anchor="middle" x="767" y="-31.5" font-family="Arial" font-size="10.00">Audit Log</text>
</g>
<!-- OBL&#45;&gt;INV -->
<g id="edge15" class="edge">
<title>OBL&#45;&gt;INV</title>
<path fill="none" stroke="#475569" d="M654.41,-52.35C630.01,-81.06 578.97,-139.87 532,-186 528.23,-189.7 524.14,-193.5 520.07,-197.17"/>
<polygon fill="#475569" stroke="#475569" points="517.52,-194.75 512.35,-203.99 522.16,-199.99 517.52,-194.75"/>
<text text-anchor="middle" x="613" y="-137.8" font-family="Arial" font-size="9.00">generates</text>
</g>
<!-- Modules&#45;&gt;AUD -->
<g id="edge25" class="edge">
<title>Modules&#45;&gt;AUD</title>
<path fill="none" stroke="#475569" d="M760.32,-121.83C761.57,-105.64 763.45,-81.13 764.9,-62.27"/>
<polygon fill="#475569" stroke="#475569" points="768.4,-62.44 765.68,-52.2 761.42,-61.9 768.4,-62.44"/>
</g>
</g>
</svg>
