<?xml version="1.0" encoding="UTF-8" standalone="no"?>
<!DOCTYPE svg PUBLIC "-//W3C//DTD SVG 1.1//EN"
 "http://www.w3.org/Graphics/SVG/1.1/DTD/svg11.dtd">
<!-- Generated by graphviz version 2.43.0 (0)
 -->
<!-- Title: G Pages: 1 -->
<svg width="870pt" height="836pt"
 viewBox="0.00 0.00 870.00 836.00" xmlns="http://www.w3.org/2000/svg" xmlns:xlink="http://www.w3.org/1999/xlink">
<g id="graph0" class="graph" transform="scale(1 1) rotate(0) translate(4 832)">
<title>G</title>
<polygon fill="white" stroke="transparent" points="-4,4 -4,-832 866,-832 866,4 -4,4"/>
<text text-anchor="middle" x="431" y="-811.2" font-family="Arial" font-size="16.00">OPERATIONAL_HANDBOOK_ID.md &#45; diagram 6</text>
<!-- A -->
<g id="node1" class="node">
<title>A</title>
<path fill="#f8fafc" stroke="#334155" d="M431.5,-802C431.5,-802 324.5,-802 324.5,-802 318.5,-802 312.5,-796 312.5,-790 312.5,-790 312.5,-778 312.5,-778 312.5,-772 318.5,-766 324.5,-766 324.5,-766 431.5,-766 431.5,-766 437.5,-766 443.5,-772 443.5,-778 443.5,-778 443.5,-790 443.5,-790 443.5,-796 437.5,-802 431.5,-802"/>
<text text-anchor="middle" x="378" y="-781.5" font-family="Arial" font-size="10.00">Pengguna memilih laporan</text>
</g>
<!-- B -->
<g id="node2" class="node">
<title>B</title>
<path fill="#f8fafc" stroke="#334155" d="M366.54,-725.45C366.54,-725.45 331.41,-714.55 331.41,-714.55 325.68,-712.78 325.68,-709.22 331.41,-707.45 331.41,-707.45 366.54,-696.55 366.54,-696.55 372.27,-694.78 383.73,-694.78 389.46,-696.55 389.46,-696.55 424.59,-707.45 424.59,-707.45 430.32,-709.22 430.32,-712.78 424.59,-714.55 424.59,-714.55 389.46,-725.45 389.46,-725.45 383.73,-727.22 372.27,-727.22 366.54,-725.45"/>
<text text-anchor="middle" x="378" y="-708.5" font-family="Arial" font-size="10.00">Tipe laporan</text>
</g>
<!-- A&#45;&gt;B -->
<g id="edge1" class="edge">
<title>A&#45;&gt;B</title>
<path fill="none" stroke="#475569" d="M378,-765.81C378,-757.79 378,-748.05 378,-739.07"/>
<polygon fill="#475569" stroke="#475569" points="381.5,-739.03 378,-729.03 374.5,-739.03 381.5,-739.03"/>
</g>
<!-- C -->
<g id="node3" class="node">
<title>C</title>
<path fill="#f8fafc" stroke="#334155" d="M58,-647C58,-647 12,-647 12,-647 6,-647 0,-641 0,-635 0,-635 0,-623 0,-623 0,-617 6,-611 12,-611 12,-611 58,-611 58,-611 64,-611 70,-617 70,-623 70,-623 70,-635 70,-635 70,-641 64,-647 58,-647"/>
<text text-anchor="middle" x="35" y="-626.5" font-family="Arial" font-size="10.00">Pilih tanggal</text>
</g>
<!-- B&#45;&gt;C -->
<g id="edge2" class="edge">
<title>B&#45;&gt;C</title>
<path fill="none" stroke="#475569" d="M341.13,-704.31C286.02,-695.36 178.89,-676.23 80.21,-647.14"/>
<polygon fill="#475569" stroke="#475569" points="80.96,-643.71 70.38,-644.2 78.96,-650.42 80.96,-643.71"/>
<text text-anchor="middle" x="199" y="-667.8" font-family="Arial" font-size="9.00">Harian</text>
</g>
<!-- D -->
<g id="node4" class="node">
<title>D</title>
<path fill="#f8fafc" stroke="#334155" d="M165.5,-647C165.5,-647 100.5,-647 100.5,-647 94.5,-647 88.5,-641 88.5,-635 88.5,-635 88.5,-623 88.5,-623 88.5,-617 94.5,-611 100.5,-611 100.5,-611 165.5,-611 165.5,-611 171.5,-611 177.5,-617 177.5,-623 177.5,-623 177.5,-635 177.5,-635 177.5,-641 171.5,-647 165.5,-647"/>
<text text-anchor="middle" x="133" y="-626.5" font-family="Arial" font-size="10.00">Pilih bulan/tahun</text>
</g>
<!-- B&#45;&gt;D -->
<g id="edge3" class="edge">
<title>B&#45;&gt;D</title>
<path fill="none" stroke="#475569" d="M350.13,-701.37C327.65,-694.37 295.24,-684.19 267,-675 240.75,-666.45 211.69,-656.73 187.36,-648.51"/>
<polygon fill="#475569" stroke="#475569" points="188.19,-645.1 177.6,-645.21 185.95,-651.73 188.19,-645.1"/>
<text text-anchor="middle" x="284.5" y="-667.8" font-family="Arial" font-size="9.00">Bulanan</text>
</g>
<!-- E -->
<g id="node5" class="node">
<title>E</title>
<path fill="#f8fafc" stroke="#334155" d="M288,-647C288,-647 208,-647 208,-647 202,-647 196,-641 196,-635 196,-635 196,-623 196,-623 196,-617 202,-611 208,-611 208,-611 288,-611 288,-611 294,-611 300,-617 300,-623 300,-623 300,-635 300,-635 300,-641 294,-647 288,-647"/>
<text text-anchor="middle" x="248" y="-626.5" font-family="Arial" font-size="10.00">Filter kelas opsional</text>
</g>
<!-- B&#45;&gt;E -->
<g id="edge4" class="edge">
<title>B&#45;&gt;E</title>
<path fill="none" stroke="#475569" d="M359.37,-698.54C339.87,-686.53 308.73,-667.37 284.33,-652.36"/>
<polygon fill="#475569" stroke="#475569" points="286.03,-649.29 275.68,-647.03 282.36,-655.26 286.03,-649.29"/>
<text text-anchor="middle" x="344.5" y="-667.8" font-family="Arial" font-size="9.00">Tunggakan</text>
</g>
<!-- F -->
<g id="node6" class="node">
<title>F</title>
<path fill="#f8fafc" stroke="#334155" d="M425.5,-647C425.5,-647 330.5,-647 330.5,-647 324.5,-647 318.5,-641 318.5,-635 318.5,-635 318.5,-623 318.5,-623 318.5,-617 324.5,-611 330.5,-611 330.5,-611 425.5,-611 425.5,-611 431.5,-611 437.5,-617 437.5,-623 437.5,-623 437.5,-635 437.5,-635 437.5,-641 431.5,-647 425.5,-647"/>
<text text-anchor="middle" x="378" y="-626.5" font-family="Arial" font-size="10.00">Rentang tanggal + filter</text>
</g>
<!-- B&#45;&gt;F -->
<g id="edge5" class="edge">
<title>B&#45;&gt;F</title>
<path fill="none" stroke="#475569" d="M378,-692.64C378,-682.3 378,-668.94 378,-657.22"/>
<polygon fill="#475569" stroke="#475569" points="381.5,-657.05 378,-647.05 374.5,-657.05 381.5,-657.05"/>
<text text-anchor="middle" x="410.5" y="-667.8" font-family="Arial" font-size="9.00">AR Outstanding</text>
</g>
<!-- G -->
<g id="node7" class="node">
<title>G</title>
<path fill="#f8fafc" stroke="#334155" d="M600,-647C600,-647 468,-647 468,-647 462,-647 456,-641 456,-635 456,-635 456,-623 456,-623 456,-617 462,-611 468,-611 468,-611 600,-611 600,-611 606,-611 612,-617 612,-623 612,-623 612,-635 612,-635 612,-641 606,-647 600,-647"/>
<text text-anchor="middle" x="534" y="-626.5" font-family="Arial" font-size="10.00">Rentang tanggal + metode/kasir</text>
</g>
<!-- B&#45;&gt;G -->
<g id="edge6" class="edge">
<title>B&#45;&gt;G</title>
<path fill="none" stroke="#475569" d="M399.16,-699.32C412.83,-692.41 430.98,-683.21 447,-675 461.65,-667.5 477.66,-659.23 491.91,-651.86"/>
<polygon fill="#475569" stroke="#475569" points="493.71,-654.86 500.98,-647.16 490.49,-648.65 493.71,-654.86"/>
<text text-anchor="middle" x="482.5" y="-667.8" font-family="Arial" font-size="9.00">Koleksi</text>
</g>
<!-- H -->
<g id="node8" class="node">
<title>H</title>
<path fill="#f8fafc" stroke="#334155" d="M761.5,-647C761.5,-647 642.5,-647 642.5,-647 636.5,-647 630.5,-641 630.5,-635 630.5,-635 630.5,-623 630.5,-623 630.5,-617 636.5,-611 642.5,-611 642.5,-611 761.5,-611 761.5,-611 767.5,-611 773.5,-617 773.5,-623 773.5,-623 773.5,-635 773.5,-635 773.5,-641 767.5,-647 761.5,-647"/>
<text text-anchor="middle" x="702" y="-626.5" font-family="Arial" font-size="10.00">Pilih siswa + rentang tanggal</text>
</g>
<!-- B&#45;&gt;H -->
<g id="edge7" class="edge">
<title>B&#45;&gt;H</title>
<path fill="none" stroke="#475569" d="M408.77,-702.4C457.55,-690.36 554.16,-666.5 623.16,-649.47"/>
<polygon fill="#475569" stroke="#475569" points="624.26,-652.8 633.13,-647 622.58,-646 624.26,-652.8"/>
<text text-anchor="middle" x="590" y="-667.8" font-family="Arial" font-size="9.00">Laporan Siswa</text>
</g>
<!-- I -->
<g id="node9" class="node">
<title>I</title>
<path fill="#f8fafc" stroke="#334155" d="M850,-647C850,-647 804,-647 804,-647 798,-647 792,-641 792,-635 792,-635 792,-623 792,-623 792,-617 798,-611 804,-611 804,-611 850,-611 850,-611 856,-611 862,-617 862,-623 862,-623 862,-635 862,-635 862,-641 856,-647 850,-647"/>
<text text-anchor="middle" x="827" y="-626.5" font-family="Arial" font-size="10.00">Pilih tanggal</text>
</g>
<!-- B&#45;&gt;I -->
<g id="edge8" class="edge">
<title>B&#45;&gt;I</title>
<path fill="none" stroke="#475569" d="M421.87,-706.58C495.21,-700.14 647.15,-683.65 781.98,-647"/>
<polygon fill="#475569" stroke="#475569" points="782.95,-650.37 791.66,-644.33 781.09,-643.62 782.95,-650.37"/>
<text text-anchor="middle" x="726" y="-667.8" font-family="Arial" font-size="9.00">Buku Kas</text>
</g>
<!-- J -->
<g id="node10" class="node">
<title>J</title>
<path fill="#f8fafc" stroke="#334155" d="M366.98,-569.25C366.98,-569.25 347.27,-560.75 347.27,-560.75 341.76,-558.38 341.76,-553.62 347.27,-551.25 347.27,-551.25 366.98,-542.75 366.98,-542.75 372.49,-540.38 383.51,-540.38 389.02,-542.75 389.02,-542.75 408.73,-551.25 408.73,-551.25 414.24,-553.62 414.24,-558.38 408.73,-560.75 408.73,-560.75 389.02,-569.25 389.02,-569.25 383.51,-571.62 372.49,-571.62 366.98,-569.25"/>
<text text-anchor="middle" x="378" y="-553.5" font-family="Arial" font-size="10.00">Lingkup</text>
</g>
<!-- C&#45;&gt;J -->
<g id="edge9" class="edge">
<title>C&#45;&gt;J</title>
<path fill="none" stroke="#475569" d="M70.35,-613.68C73.25,-612.71 76.16,-611.8 79,-611 169.31,-585.65 278.42,-569.46 336.65,-561.94"/>
<polygon fill="#475569" stroke="#475569" points="337.09,-565.41 346.57,-560.68 336.21,-558.47 337.09,-565.41"/>
</g>
<!-- D&#45;&gt;J -->
<g id="edge10" class="edge">
<title>D&#45;&gt;J</title>
<path fill="none" stroke="#475569" d="M177.76,-613.8C180.88,-612.84 183.99,-611.9 187,-611 241.63,-594.68 305.42,-576.9 343.72,-566.37"/>
<polygon fill="#475569" stroke="#475569" points="345.1,-569.62 353.81,-563.59 343.24,-562.87 345.1,-569.62"/>
</g>
<!-- E&#45;&gt;J -->
<g id="edge11" class="edge">
<title>E&#45;&gt;J</title>
<path fill="none" stroke="#475569" d="M279.14,-610.99C301.16,-598.97 330.36,-583.02 351.31,-571.57"/>
<polygon fill="#475569" stroke="#475569" points="353.21,-574.53 360.3,-566.66 349.85,-568.39 353.21,-574.53"/>
</g>
<!-- F&#45;&gt;J -->
<g id="edge12" class="edge">
<title>F&#45;&gt;J</title>
<path fill="none" stroke="#475569" d="M378,-610.81C378,-602.79 378,-593.05 378,-584.07"/>
<polygon fill="#475569" stroke="#475569" points="381.5,-584.03 378,-574.03 374.5,-584.03 381.5,-584.03"/>
</g>
<!-- G&#45;&gt;J -->
<g id="edge13" class="edge">
<title>G&#45;&gt;J</title>
<path fill="none" stroke="#475569" d="M496.63,-610.99C469.1,-598.46 432.2,-581.67 406.9,-570.15"/>
<polygon fill="#475569" stroke="#475569" points="408.04,-566.83 397.49,-565.87 405.14,-573.2 408.04,-566.83"/>
</g>
<!-- H&#45;&gt;J -->
<g id="edge14" class="edge">
<title>H&#45;&gt;J</title>
<path fill="none" stroke="#475569" d="M630.5,-612.33C563.58,-597.67 466.34,-576.36 414.22,-564.94"/>
<polygon fill="#475569" stroke="#475569" points="414.93,-561.51 404.42,-562.79 413.44,-568.35 414.93,-561.51"/>
</g>
<!-- I&#45;&gt;J -->
<g id="edge15" class="edge">
<title>I&#45;&gt;J</title>
<path fill="none" stroke="#475569" d="M791.69,-613.53C788.78,-612.59 785.86,-611.73 783,-611 655.02,-578.24 498.9,-564.56 423.32,-559.55"/>
<polygon fill="#475569" stroke="#475569" points="423.41,-556.04 413.2,-558.89 422.96,-563.03 423.41,-556.04"/>
</g>
<!-- K -->
<g id="node11" class="node">
<title>K</title>
<path fill="#f8fafc" stroke="#334155" d="M364,-492C364,-492 266,-492 266,-492 260,-492 254,-486 254,-480 254,-480 254,-468 254,-468 254,-462 260,-456 266,-456 266,-456 364,-456 364,-456 370,-456 376,-462 376,-468 376,-468 376,-480 376,-480 376,-486 370,-492 364,-492"/>
<text text-anchor="middle" x="315" y="-471.5" font-family="Arial" font-size="10.00">withoutGlobalScope unit</text>
</g>
<!-- J&#45;&gt;K -->
<g id="edge16" class="edge">
<title>J&#45;&gt;K</title>
<path fill="none" stroke="#475569" d="M358.92,-545.78C348.39,-539.78 335.89,-531.03 328,-520 324.15,-514.62 321.44,-508.11 319.52,-501.74"/>
<polygon fill="#475569" stroke="#475569" points="322.92,-500.88 317.13,-492.01 316.12,-502.56 322.92,-500.88"/>
<text text-anchor="middle" x="371.5" y="-512.8" font-family="Arial" font-size="9.00">super_admin: semua</text>
</g>
<!-- L -->
<g id="node12" class="node">
<title>L</title>
<path fill="#f8fafc" stroke="#334155" d="M477.5,-492C477.5,-492 406.5,-492 406.5,-492 400.5,-492 394.5,-486 394.5,-480 394.5,-480 394.5,-468 394.5,-468 394.5,-462 400.5,-456 406.5,-456 406.5,-456 477.5,-456 477.5,-456 483.5,-456 489.5,-462 489.5,-468 489.5,-468 489.5,-480 489.5,-480 489.5,-486 483.5,-492 477.5,-492"/>
<text text-anchor="middle" x="442" y="-471.5" font-family="Arial" font-size="10.00">Query lingkup unit</text>
</g>
<!-- J&#45;&gt;L -->
<g id="edge17" class="edge">
<title>J&#45;&gt;L</title>
<path fill="none" stroke="#475569" d="M391.54,-543.81C398.95,-537.3 408.02,-528.69 415,-520 419.6,-514.27 423.98,-507.69 427.82,-501.36"/>
<polygon fill="#475569" stroke="#475569" points="431.04,-502.8 433.03,-492.39 424.98,-499.28 431.04,-502.8"/>
<text text-anchor="middle" x="446" y="-512.8" font-family="Arial" font-size="9.00">default: unit</text>
</g>
<!-- M -->
<g id="node13" class="node">
<title>M</title>
<path fill="#f8fafc" stroke="#334155" d="M404.5,-419C404.5,-419 351.5,-419 351.5,-419 345.5,-419 339.5,-413 339.5,-407 339.5,-407 339.5,-395 339.5,-395 339.5,-389 345.5,-383 351.5,-383 351.5,-383 404.5,-383 404.5,-383 410.5,-383 416.5,-389 416.5,-395 416.5,-395 416.5,-407 416.5,-407 416.5,-413 410.5,-419 404.5,-419"/>
<text text-anchor="middle" x="378" y="-398.5" font-family="Arial" font-size="10.00">Bangun query</text>
</g>
<!-- K&#45;&gt;M -->
<g id="edge18" class="edge">
<title>K&#45;&gt;M</title>
<path fill="none" stroke="#475569" d="M330.25,-455.81C337.99,-447.09 347.53,-436.34 356.04,-426.75"/>
<polygon fill="#475569" stroke="#475569" points="358.87,-428.83 362.89,-419.03 353.63,-424.19 358.87,-428.83"/>
</g>
<!-- L&#45;&gt;M -->
<g id="edge19" class="edge">
<title>L&#45;&gt;M</title>
<path fill="none" stroke="#475569" d="M426.51,-455.81C418.57,-447 408.76,-436.13 400.05,-426.46"/>
<polygon fill="#475569" stroke="#475569" points="402.65,-424.11 393.35,-419.03 397.45,-428.8 402.65,-424.11"/>
</g>
<!-- N -->
<g id="node14" class="node">
<title>N</title>
<path fill="#f8fafc" stroke="#334155" d="M278,-346C278,-346 158,-346 158,-346 152,-346 146,-340 146,-334 146,-334 146,-322 146,-322 146,-316 152,-310 158,-310 158,-310 278,-310 278,-310 284,-310 290,-316 290,-322 290,-322 290,-334 290,-334 290,-340 284,-346 278,-346"/>
<text text-anchor="middle" x="218" y="-325.5" font-family="Arial" font-size="10.00">Settlement: hanya completed</text>
</g>
<!-- M&#45;&gt;N -->
<g id="edge20" class="edge">
<title>M&#45;&gt;N</title>
<path fill="none" stroke="#475569" d="M339.68,-382.99C317.48,-373.14 289.34,-360.66 265.71,-350.17"/>
<polygon fill="#475569" stroke="#475569" points="267.13,-346.97 256.57,-346.11 264.29,-353.37 267.13,-346.97"/>
</g>
<!-- O -->
<g id="node15" class="node">
<title>O</title>
<path fill="#f8fafc" stroke="#334155" d="M436,-346C436,-346 320,-346 320,-346 314,-346 308,-340 308,-334 308,-334 308,-322 308,-322 308,-316 314,-310 320,-310 320,-310 436,-310 436,-310 442,-310 448,-316 448,-322 448,-322 448,-334 448,-334 448,-340 442,-346 436,-346"/>
<text text-anchor="middle" x="378" y="-325.5" font-family="Arial" font-size="10.00">Transaksi: hanya completed</text>
</g>
<!-- M&#45;&gt;O -->
<g id="edge21" class="edge">
<title>M&#45;&gt;O</title>
<path fill="none" stroke="#475569" d="M378,-382.81C378,-374.79 378,-365.05 378,-356.07"/>
<polygon fill="#475569" stroke="#475569" points="381.5,-356.03 378,-346.03 374.5,-356.03 381.5,-356.03"/>
</g>
<!-- P -->
<g id="node16" class="node">
<title>P</title>
<path fill="#f8fafc" stroke="#334155" d="M567.5,-346C567.5,-346 478.5,-346 478.5,-346 472.5,-346 466.5,-340 466.5,-334 466.5,-334 466.5,-322 466.5,-322 466.5,-316 472.5,-310 478.5,-310 478.5,-310 567.5,-310 567.5,-310 573.5,-310 579.5,-316 579.5,-322 579.5,-322 579.5,-334 579.5,-334 579.5,-340 573.5,-346 567.5,-346"/>
<text text-anchor="middle" x="523" y="-325.5" font-family="Arial" font-size="10.00">Invoice: kalkulasi sisa</text>
</g>
<!-- M&#45;&gt;P -->
<g id="edge22" class="edge">
<title>M&#45;&gt;P</title>
<path fill="none" stroke="#475569" d="M412.73,-382.99C432.58,-373.27 457.68,-360.99 478.91,-350.59"/>
<polygon fill="#475569" stroke="#475569" points="480.61,-353.65 488.05,-346.11 477.53,-347.37 480.61,-353.65"/>
</g>
<!-- Q -->
<g id="node17" class="node">
<title>Q</title>
<path fill="#f8fafc" stroke="#334155" d="M433,-273C433,-273 323,-273 323,-273 317,-273 311,-267 311,-261 311,-261 311,-249 311,-249 311,-243 317,-237 323,-237 323,-237 433,-237 433,-237 439,-237 445,-243 445,-249 445,-249 445,-261 445,-261 445,-267 439,-273 433,-273"/>
<text text-anchor="middle" x="378" y="-252.5" font-family="Arial" font-size="10.00">Gabungkan &amp; urutkan hasil</text>
</g>
<!-- N&#45;&gt;Q -->
<g id="edge23" class="edge">
<title>N&#45;&gt;Q</title>
<path fill="none" stroke="#475569" d="M256.32,-309.99C278.52,-300.14 306.66,-287.66 330.29,-277.17"/>
<polygon fill="#475569" stroke="#475569" points="331.71,-280.37 339.43,-273.11 328.87,-273.97 331.71,-280.37"/>
</g>
<!-- O&#45;&gt;Q -->
<g id="edge24" class="edge">
<title>O&#45;&gt;Q</title>
<path fill="none" stroke="#475569" d="M378,-309.81C378,-301.79 378,-292.05 378,-283.07"/>
<polygon fill="#475569" stroke="#475569" points="381.5,-283.03 378,-273.03 374.5,-283.03 381.5,-283.03"/>
</g>
<!-- P&#45;&gt;Q -->
<g id="edge25" class="edge">
<title>P&#45;&gt;Q</title>
<path fill="none" stroke="#475569" d="M488.27,-309.99C468.42,-300.27 443.32,-287.99 422.09,-277.59"/>
<polygon fill="#475569" stroke="#475569" points="423.47,-274.37 412.95,-273.11 420.39,-280.65 423.47,-274.37"/>
</g>
<!-- R -->
<g id="node18" class="node">
<title>R</title>
<path fill="#f8fafc" stroke="#334155" d="M367.15,-194.87C367.15,-194.87 350.76,-187.13 350.76,-187.13 345.33,-184.56 345.33,-179.44 350.76,-176.87 350.76,-176.87 367.15,-169.13 367.15,-169.13 372.58,-166.56 383.42,-166.56 388.85,-169.13 388.85,-169.13 405.24,-176.87 405.24,-176.87 410.67,-179.44 410.67,-184.56 405.24,-187.13 405.24,-187.13 388.85,-194.87 388.85,-194.87 383.42,-197.44 372.58,-197.44 367.15,-194.87"/>
<text text-anchor="middle" x="378" y="-179.5" font-family="Arial" font-size="10.00">Output</text>
</g>
<!-- Q&#45;&gt;R -->
<g id="edge26" class="edge">
<title>Q&#45;&gt;R</title>
<path fill="none" stroke="#475569" d="M378,-236.81C378,-228.79 378,-219.05 378,-210.07"/>
<polygon fill="#475569" stroke="#475569" points="381.5,-210.03 378,-200.03 374.5,-210.03 381.5,-210.03"/>
</g>
<!-- S -->
<g id="node19" class="node">
<title>S</title>
<path fill="#f8fafc" stroke="#334155" d="M424,-118C424,-118 272,-118 272,-118 266,-118 260,-112 260,-106 260,-106 260,-94 260,-94 260,-88 266,-82 272,-82 272,-82 424,-82 424,-82 430,-82 436,-88 436,-94 436,-94 436,-106 436,-106 436,-112 430,-118 424,-118"/>
<text text-anchor="middle" x="348" y="-97.5" font-family="Arial" font-size="10.00">Render tabel HTML dengan paginasi</text>
</g>
<!-- R&#45;&gt;S -->
<g id="edge27" class="edge">
<title>R&#45;&gt;S</title>
<path fill="none" stroke="#475569" d="M372.5,-166.33C368.43,-155.47 362.77,-140.39 357.92,-127.45"/>
<polygon fill="#475569" stroke="#475569" points="361.19,-126.21 354.4,-118.08 354.64,-128.67 361.19,-126.21"/>
<text text-anchor="middle" x="384" y="-138.8" font-family="Arial" font-size="9.00">Tampilan</text>
</g>
<!-- T -->
<g id="node20" class="node">
<title>T</title>
<path fill="#f8fafc" stroke="#334155" d="M482.09,-113C482.09,-113 464.65,-105 464.65,-105 459.2,-102.5 459.2,-97.5 464.65,-95 464.65,-95 482.09,-87 482.09,-87 487.55,-84.5 498.45,-84.5 503.91,-87 503.91,-87 521.35,-95 521.35,-95 526.8,-97.5 526.8,-102.5 521.35,-105 521.35,-105 503.91,-113 503.91,-113 498.45,-115.5 487.55,-115.5 482.09,-113"/>
<text text-anchor="middle" x="493" y="-97.5" font-family="Arial" font-size="10.00">Format</text>
</g>
<!-- R&#45;&gt;T -->
<g id="edge28" class="edge">
<title>R&#45;&gt;T</title>
<path fill="none" stroke="#475569" d="M392.56,-170.87C412.07,-157.3 446.9,-133.07 469.98,-117.02"/>
<polygon fill="#475569" stroke="#475569" points="471.98,-119.89 478.19,-111.3 467.98,-114.14 471.98,-119.89"/>
<text text-anchor="middle" x="457.5" y="-138.8" font-family="Arial" font-size="9.00">Ekspor</text>
</g>
<!-- U -->
<g id="node21" class="node">
<title>U</title>
<path fill="#f8fafc" stroke="#334155" d="M507,-36C507,-36 321,-36 321,-36 315,-36 309,-30 309,-24 309,-24 309,-12 309,-12 309,-6 315,0 321,0 321,0 507,0 507,0 513,0 519,-6 519,-12 519,-12 519,-24 519,-24 519,-30 513,-36 507,-36"/>
<text text-anchor="middle" x="414" y="-15.5" font-family="Arial" font-size="10.00">ReportRowsExport dengan format akuntansi</text>
</g>
<!-- T&#45;&gt;U -->
<g id="edge29" class="edge">
<title>T&#45;&gt;U</title>
<path fill="none" stroke="#475569" d="M481.34,-87.2C470.01,-75.72 452.46,-57.95 438.12,-43.43"/>
<polygon fill="#475569" stroke="#475569" points="440.48,-40.83 430.96,-36.18 435.5,-45.75 440.48,-40.83"/>
<text text-anchor="middle" x="471" y="-56.8" font-family="Arial" font-size="9.00">XLSX</text>
</g>
<!-- V -->
<g id="node22" class="node">
<title>V</title>
<path fill="#f8fafc" stroke="#334155" d="M594.5,-36C594.5,-36 549.5,-36 549.5,-36 543.5,-36 537.5,-30 537.5,-24 537.5,-24 537.5,-12 537.5,-12 537.5,-6 543.5,0 549.5,0 549.5,0 594.5,0 594.5,0 600.5,0 606.5,-6 606.5,-12 606.5,-12 606.5,-24 606.5,-24 606.5,-30 600.5,-36 594.5,-36"/>
<text text-anchor="middle" x="572" y="-15.5" font-family="Arial" font-size="10.00">Unduh CSV</text>
</g>
<!-- T&#45;&gt;V -->
<g id="edge30" class="edge">
<title>T&#45;&gt;V</title>
<path fill="none" stroke="#475569" d="M504.66,-87.2C515.99,-75.72 533.54,-57.95 547.88,-43.43"/>
<polygon fill="#475569" stroke="#475569" points="550.5,-45.75 555.04,-36.18 545.52,-40.83 550.5,-45.75"/>
<text text-anchor="middle" x="546.5" y="-56.8" font-family="Arial" font-size="9.00">CSV</text>
</g>
</g>
</svg>
