<?xml version="1.0" encoding="UTF-8" standalone="no"?>
<!DOCTYPE svg PUBLIC "-//W3C//DTD SVG 1.1//EN"
 "http://www.w3.org/Graphics/SVG/1.1/DTD/svg11.dtd">
<!-- Generated by graphviz version 2.43.0 (0)
 -->
<!-- Title: G Pages: 1 -->
<svg width="1078pt" height="521pt"
 viewBox="0.00 0.00 1077.74 521.00" xmlns="http://www.w3.org/2000/svg" xmlns:xlink="http://www.w3.org/1999/xlink">
<g id="graph0" class="graph" transform="scale(1 1) rotate(0) translate(4 517)">
<title>G</title>
<polygon fill="white" stroke="transparent" points="-4,4 -4,-517 1073.74,-517 1073.74,4 -4,4"/>
<text text-anchor="middle" x="534.87" y="-496.2" font-family="Arial" font-size="16.00">OPERATIONAL_HANDBOOK_ID.md &#45; diagram 8</text>
<g id="clust1" class="cluster">
<title>cluster_sg_1</title>
<path fill="white" stroke="#cbd5e1" d="M336.24,-147C336.24,-147 920.24,-147 920.24,-147 926.24,-147 932.24,-153 932.24,-159 932.24,-159 932.24,-403 932.24,-403 932.24,-409 926.24,-415 920.24,-415 920.24,-415 336.24,-415 336.24,-415 330.24,-415 324.24,-409 324.24,-403 324.24,-403 324.24,-159 324.24,-159 324.24,-153 330.24,-147 336.24,-147"/>
<text text-anchor="middle" x="628.24" y="-398.2" font-family="Arial" font-size="16.00">Log Audit</text>
</g>
<!-- B -->
<g id="node1" class="node">
<title>B</title>
<path fill="#f8fafc" stroke="#334155" d="M670.74,-355C670.74,-355 491.74,-355 491.74,-355 485.74,-355 479.74,-349 479.74,-343 479.74,-343 479.74,-331 479.74,-331 479.74,-325 485.74,-319 491.74,-319 491.74,-319 670.74,-319 670.74,-319 676.74,-319 682.74,-325 682.74,-331 682.74,-331 682.74,-343 682.74,-343 682.74,-349 676.74,-355 670.74,-355"/>
<text text-anchor="middle" x="581.24" y="-334.5" font-family="Arial" font-size="10.00">Masukkan nama bank, periode, saldo awal</text>
</g>
<!-- C -->
<g id="node2" class="node">
<title>C</title>
<path fill="#f8fafc" stroke="#334155" d="M566.24,-273C566.24,-273 458.24,-273 458.24,-273 452.24,-273 446.24,-267 446.24,-261 446.24,-261 446.24,-249 446.24,-249 446.24,-243 452.24,-237 458.24,-237 458.24,-237 566.24,-237 566.24,-237 572.24,-237 578.24,-243 578.24,-249 578.24,-249 578.24,-261 578.24,-261 578.24,-267 572.24,-273 566.24,-273"/>
<text text-anchor="middle" x="512.24" y="-252.5" font-family="Arial" font-size="10.00">Impor rekening koran CSV</text>
</g>
<!-- B&#45;&gt;C -->
<g id="edge2" class="edge">
<title>B&#45;&gt;C</title>
<path fill="none" stroke="#475569" d="M566.27,-318.64C556.71,-307.56 544.17,-293.02 533.58,-280.74"/>
<polygon fill="#475569" stroke="#475569" points="536.13,-278.34 526.95,-273.05 530.83,-282.91 536.13,-278.34"/>
</g>
<!-- O -->
<g id="node6" class="node">
<title>O</title>
<path fill="#f8fafc" stroke="#334155" d="M688.24,-273C688.24,-273 608.24,-273 608.24,-273 602.24,-273 596.24,-267 596.24,-261 596.24,-261 596.24,-249 596.24,-249 596.24,-243 602.24,-237 608.24,-237 608.24,-237 688.24,-237 688.24,-237 694.24,-237 700.24,-243 700.24,-249 700.24,-249 700.24,-261 700.24,-261 700.24,-267 694.24,-273 688.24,-273"/>
<text text-anchor="middle" x="648.24" y="-252.5" font-family="Arial" font-size="10.00">Log: create_session</text>
</g>
<!-- B&#45;&gt;O -->
<g id="edge16" class="edge">
<title>B&#45;&gt;O</title>
<path fill="none" stroke="#475569" d="M595.78,-318.64C605.06,-307.56 617.24,-293.02 627.53,-280.74"/>
<polygon fill="#475569" stroke="#475569" points="630.23,-282.96 633.97,-273.05 624.86,-278.47 630.23,-282.96"/>
</g>
<!-- P -->
<g id="node7" class="node">
<title>P</title>
<path fill="#f8fafc" stroke="#334155" d="M575.74,-191C575.74,-191 448.74,-191 448.74,-191 442.74,-191 436.74,-185 436.74,-179 436.74,-179 436.74,-167 436.74,-167 436.74,-161 442.74,-155 448.74,-155 448.74,-155 575.74,-155 575.74,-155 581.74,-155 587.74,-161 587.74,-167 587.74,-167 587.74,-179 587.74,-179 587.74,-185 581.74,-191 575.74,-191"/>
<text text-anchor="middle" x="512.24" y="-170.5" font-family="Arial" font-size="10.00">Log: import_csv + jumlah baris</text>
</g>
<!-- C&#45;&gt;P -->
<g id="edge17" class="edge">
<title>C&#45;&gt;P</title>
<path fill="none" stroke="#475569" d="M512.24,-236.64C512.24,-226.3 512.24,-212.94 512.24,-201.22"/>
<polygon fill="#475569" stroke="#475569" points="515.74,-201.05 512.24,-191.05 508.74,-201.05 515.74,-201.05"/>
</g>
<!-- D -->
<g id="node12" class="node">
<title>D</title>
<path fill="#f8fafc" stroke="#334155" d="M304.24,-355C304.24,-355 206.24,-355 206.24,-355 200.24,-355 194.24,-349 194.24,-343 194.24,-343 194.24,-331 194.24,-331 194.24,-325 200.24,-319 206.24,-319 206.24,-319 304.24,-319 304.24,-319 310.24,-319 316.24,-325 316.24,-331 316.24,-331 316.24,-343 316.24,-343 316.24,-349 310.24,-355 304.24,-355"/>
<text text-anchor="middle" x="255.24" y="-334.5" font-family="Arial" font-size="10.00">Baris dibuat: unmatched</text>
</g>
<!-- C&#45;&gt;D -->
<g id="edge3" class="edge">
<title>C&#45;&gt;D</title>
<path fill="none" stroke="#475569" d="M457.51,-273.04C417.19,-285.59 362.2,-302.7 319.74,-315.92"/>
<polygon fill="#475569" stroke="#475569" points="318.57,-312.62 310.06,-318.94 320.65,-319.31 318.57,-312.62"/>
<text text-anchor="middle" x="432.74" y="-293.8" font-family="Arial" font-size="9.00">status: in_review</text>
</g>
<!-- H -->
<g id="node3" class="node">
<title>H</title>
<path fill="#f8fafc" stroke="#334155" d="M805.74,-355C805.74,-355 716.74,-355 716.74,-355 710.74,-355 704.74,-349 704.74,-343 704.74,-343 704.74,-331 704.74,-331 704.74,-325 710.74,-319 716.74,-319 716.74,-319 805.74,-319 805.74,-319 811.74,-319 817.74,-325 817.74,-331 817.74,-331 817.74,-343 817.74,-343 817.74,-349 811.74,-355 805.74,-355"/>
<text text-anchor="middle" x="761.24" y="-334.5" font-family="Arial" font-size="10.00">Status baris: matched</text>
</g>
<!-- Q -->
<g id="node8" class="node">
<title>Q</title>
<path fill="#f8fafc" stroke="#334155" d="M792.24,-273C792.24,-273 730.24,-273 730.24,-273 724.24,-273 718.24,-267 718.24,-261 718.24,-261 718.24,-249 718.24,-249 718.24,-243 724.24,-237 730.24,-237 730.24,-237 792.24,-237 792.24,-237 798.24,-237 804.24,-243 804.24,-249 804.24,-249 804.24,-261 804.24,-261 804.24,-267 798.24,-273 792.24,-273"/>
<text text-anchor="middle" x="761.24" y="-252.5" font-family="Arial" font-size="10.00">Log: match_line</text>
</g>
<!-- H&#45;&gt;Q -->
<g id="edge18" class="edge">
<title>H&#45;&gt;Q</title>
<path fill="none" stroke="#475569" d="M761.24,-318.64C761.24,-308.3 761.24,-294.94 761.24,-283.22"/>
<polygon fill="#475569" stroke="#475569" points="764.74,-283.05 761.24,-273.05 757.74,-283.05 764.74,-283.05"/>
</g>
<!-- J -->
<g id="node17" class="node">
<title>J</title>
<path fill="#f8fafc" stroke="#334155" d="M384.38,-485.17C384.38,-485.17 291.51,-470.83 291.51,-470.83 285.58,-469.92 285.58,-468.08 291.51,-467.17 291.51,-467.17 384.38,-452.83 384.38,-452.83 390.31,-451.92 402.17,-451.92 408.1,-452.83 408.1,-452.83 500.98,-467.17 500.98,-467.17 506.91,-468.08 506.91,-469.92 500.98,-470.83 500.98,-470.83 408.1,-485.17 408.1,-485.17 402.17,-486.08 390.31,-486.08 384.38,-485.17"/>
<text text-anchor="middle" x="396.24" y="-466.5" font-family="Arial" font-size="10.00">Perlu batalkan pencocokan?</text>
</g>
<!-- H&#45;&gt;J -->
<g id="edge9" class="edge">
<title>H&#45;&gt;J</title>
<path fill="none" stroke="#475569" d="M751.64,-355.12C740.19,-373.64 719.17,-402.23 692.24,-415 657.07,-431.68 555.39,-415.23 517.24,-423 487.9,-428.97 456.24,-440.97 432.66,-451.07"/>
<polygon fill="#475569" stroke="#475569" points="431.16,-447.91 423.4,-455.12 433.96,-454.32 431.16,-447.91"/>
</g>
<!-- K -->
<g id="node4" class="node">
<title>K</title>
<path fill="#f8fafc" stroke="#334155" d="M445.74,-355C445.74,-355 346.74,-355 346.74,-355 340.74,-355 334.74,-349 334.74,-343 334.74,-343 334.74,-331 334.74,-331 334.74,-325 340.74,-319 346.74,-319 346.74,-319 445.74,-319 445.74,-319 451.74,-319 457.74,-325 457.74,-331 457.74,-331 457.74,-343 457.74,-343 457.74,-349 451.74,-355 445.74,-355"/>
<text text-anchor="middle" x="396.24" y="-334.5" font-family="Arial" font-size="10.00">Status baris: unmatched</text>
</g>
<!-- R -->
<g id="node9" class="node">
<title>R</title>
<path fill="#f8fafc" stroke="#334155" d="M416.24,-273C416.24,-273 344.24,-273 344.24,-273 338.24,-273 332.24,-267 332.24,-261 332.24,-261 332.24,-249 332.24,-249 332.24,-243 338.24,-237 344.24,-237 344.24,-237 416.24,-237 416.24,-237 422.24,-237 428.24,-243 428.24,-249 428.24,-249 428.24,-261 428.24,-261 428.24,-267 422.24,-273 416.24,-273"/>
<text text-anchor="middle" x="380.24" y="-252.5" font-family="Arial" font-size="10.00">Log: unmatch_line</text>
</g>
<!-- K&#45;&gt;R -->
<g id="edge19" class="edge">
<title>K&#45;&gt;R</title>
<path fill="none" stroke="#475569" d="M392.77,-318.64C390.68,-308.19 387.98,-294.67 385.62,-282.86"/>
<polygon fill="#475569" stroke="#475569" points="389.05,-282.17 383.65,-273.05 382.18,-283.54 389.05,-282.17"/>
</g>
<!-- E -->
<g id="node13" class="node">
<title>E</title>
<path fill="#f8fafc" stroke="#334155" d="M209.54,-270.36C209.54,-270.36 153.11,-257.64 153.11,-257.64 147.26,-256.32 147.26,-253.68 153.11,-252.36 153.11,-252.36 209.54,-239.64 209.54,-239.64 215.39,-238.32 227.1,-238.32 232.95,-239.64 232.95,-239.64 289.38,-252.36 289.38,-252.36 295.23,-253.68 295.23,-256.32 289.38,-257.64 289.38,-257.64 232.95,-270.36 232.95,-270.36 227.1,-271.68 215.39,-271.68 209.54,-270.36"/>
<text text-anchor="middle" x="221.24" y="-252.5" font-family="Arial" font-size="10.00">Untuk setiap baris</text>
</g>
<!-- K&#45;&gt;E -->
<g id="edge11" class="edge">
<title>K&#45;&gt;E</title>
<path fill="none" stroke="#475569" d="M377.87,-318.88C367.02,-309.54 352.64,-298.41 338.24,-291 317.25,-280.2 292.38,-272.17 270.98,-266.55"/>
<polygon fill="#475569" stroke="#475569" points="271.66,-263.11 261.1,-264.05 269.94,-269.89 271.66,-263.11"/>
</g>
<!-- M -->
<g id="node5" class="node">
<title>M</title>
<path fill="#f8fafc" stroke="#334155" d="M890.24,-355C890.24,-355 850.24,-355 850.24,-355 844.24,-355 838.24,-349 838.24,-343 838.24,-343 838.24,-331 838.24,-331 838.24,-325 844.24,-319 850.24,-319 850.24,-319 890.24,-319 890.24,-319 896.24,-319 902.24,-325 902.24,-331 902.24,-331 902.24,-343 902.24,-343 902.24,-349 896.24,-355 890.24,-355"/>
<text text-anchor="middle" x="870.24" y="-334.5" font-family="Arial" font-size="10.00">Tutup Sesi</text>
</g>
<!-- S -->
<g id="node10" class="node">
<title>S</title>
<path fill="#f8fafc" stroke="#334155" d="M911.74,-273C911.74,-273 834.74,-273 834.74,-273 828.74,-273 822.74,-267 822.74,-261 822.74,-261 822.74,-249 822.74,-249 822.74,-243 828.74,-237 834.74,-237 834.74,-237 911.74,-237 911.74,-237 917.74,-237 923.74,-243 923.74,-249 923.74,-249 923.74,-261 923.74,-261 923.74,-267 917.74,-273 911.74,-273"/>
<text text-anchor="middle" x="873.24" y="-252.5" font-family="Arial" font-size="10.00">Log: close_session</text>
</g>
<!-- M&#45;&gt;S -->
<g id="edge20" class="edge">
<title>M&#45;&gt;S</title>
<path fill="none" stroke="#475569" d="M870.9,-318.64C871.28,-308.3 871.78,-294.94 872.22,-283.22"/>
<polygon fill="#475569" stroke="#475569" points="875.73,-283.17 872.61,-273.05 868.73,-282.91 875.73,-283.17"/>
</g>
<!-- N -->
<g id="node19" class="node">
<title>N</title>
<path fill="#f8fafc" stroke="#334155" d="M1057.74,-273C1057.74,-273 992.74,-273 992.74,-273 986.74,-273 980.74,-267 980.74,-261 980.74,-261 980.74,-249 980.74,-249 980.74,-243 986.74,-237 992.74,-237 992.74,-237 1057.74,-237 1057.74,-237 1063.74,-237 1069.74,-243 1069.74,-249 1069.74,-249 1069.74,-261 1069.74,-261 1069.74,-267 1063.74,-273 1057.74,-273"/>
<text text-anchor="middle" x="1025.24" y="-252.5" font-family="Arial" font-size="10.00">Sesi hanya&#45;baca</text>
</g>
<!-- M&#45;&gt;N -->
<g id="edge15" class="edge">
<title>M&#45;&gt;N</title>
<path fill="none" stroke="#475569" d="M902.42,-326.95C921.57,-320.92 946.01,-312.07 966.24,-301 977.26,-294.97 988.44,-287.02 998.06,-279.47"/>
<polygon fill="#475569" stroke="#475569" points="1000.49,-282.01 1006.07,-273 996.09,-276.56 1000.49,-282.01"/>
<text text-anchor="middle" x="1009.24" y="-293.8" font-family="Arial" font-size="9.00">status: closed</text>
</g>
<!-- A -->
<g id="node11" class="node">
<title>A</title>
<path fill="#f8fafc" stroke="#334155" d="M598.74,-487C598.74,-487 563.74,-487 563.74,-487 557.74,-487 551.74,-481 551.74,-475 551.74,-475 551.74,-463 551.74,-463 551.74,-457 557.74,-451 563.74,-451 563.74,-451 598.74,-451 598.74,-451 604.74,-451 610.74,-457 610.74,-463 610.74,-463 610.74,-475 610.74,-475 610.74,-481 604.74,-487 598.74,-487"/>
<text text-anchor="middle" x="581.24" y="-466.5" font-family="Arial" font-size="10.00">Buat Sesi</text>
</g>
<!-- A&#45;&gt;B -->
<g id="edge1" class="edge">
<title>A&#45;&gt;B</title>
<path fill="none" stroke="#475569" d="M581.24,-450.74C581.24,-428.98 581.24,-391.32 581.24,-365.56"/>
<polygon fill="#475569" stroke="#475569" points="584.74,-365.33 581.24,-355.33 577.74,-365.33 584.74,-365.33"/>
<text text-anchor="middle" x="604.74" y="-425.8" font-family="Arial" font-size="9.00">status: draft</text>
</g>
<!-- D&#45;&gt;E -->
<g id="edge4" class="edge">
<title>D&#45;&gt;E</title>
<path fill="none" stroke="#475569" d="M247.87,-318.64C243.18,-307.62 237.04,-293.17 231.84,-280.93"/>
<polygon fill="#475569" stroke="#475569" points="235.05,-279.53 227.92,-271.7 228.61,-282.27 235.05,-279.53"/>
</g>
<!-- F -->
<g id="node14" class="node">
<title>F</title>
<path fill="#f8fafc" stroke="#334155" d="M304.24,-191C304.24,-191 138.24,-191 138.24,-191 132.24,-191 126.24,-185 126.24,-179 126.24,-179 126.24,-167 126.24,-167 126.24,-161 132.24,-155 138.24,-155 138.24,-155 304.24,-155 304.24,-155 310.24,-155 316.24,-161 316.24,-167 316.24,-167 316.24,-179 316.24,-179 316.24,-185 310.24,-191 304.24,-191"/>
<text text-anchor="middle" x="221.24" y="-170.5" font-family="Arial" font-size="10.00">Pilih transaksi sistem untuk dicocokkan</text>
</g>
<!-- E&#45;&gt;F -->
<g id="edge5" class="edge">
<title>E&#45;&gt;F</title>
<path fill="none" stroke="#475569" d="M221.24,-236.64C221.24,-226.3 221.24,-212.94 221.24,-201.22"/>
<polygon fill="#475569" stroke="#475569" points="224.74,-201.05 221.24,-191.05 217.74,-201.05 224.74,-201.05"/>
</g>
<!-- G -->
<g id="node15" class="node">
<title>G</title>
<path fill="#f8fafc" stroke="#334155" d="M574.59,-115.13C574.59,-115.13 524.88,-102.87 524.88,-102.87 519.05,-101.44 519.05,-98.56 524.88,-97.13 524.88,-97.13 574.59,-84.87 574.59,-84.87 580.42,-83.44 592.07,-83.44 597.9,-84.87 597.9,-84.87 647.61,-97.13 647.61,-97.13 653.44,-98.56 653.44,-101.44 647.61,-102.87 647.61,-102.87 597.9,-115.13 597.9,-115.13 592.07,-116.56 580.42,-116.56 574.59,-115.13"/>
<text text-anchor="middle" x="586.24" y="-97.5" font-family="Arial" font-size="10.00">Transaksi valid?</text>
</g>
<!-- F&#45;&gt;G -->
<g id="edge6" class="edge">
<title>F&#45;&gt;G</title>
<path fill="none" stroke="#475569" d="M285.78,-154.95C297.23,-152.14 309.06,-149.38 320.24,-147 393.67,-131.4 479.35,-117.32 533.2,-108.95"/>
<polygon fill="#475569" stroke="#475569" points="533.86,-112.39 543.21,-107.41 532.79,-105.48 533.86,-112.39"/>
</g>
<!-- G&#45;&gt;H -->
<g id="edge7" class="edge">
<title>G&#45;&gt;H</title>
<path fill="none" stroke="#475569" d="M641.81,-104.33C721.92,-112.48 867.43,-140.52 933.24,-237 942.26,-250.22 942.41,-259.88 933.24,-273 926.68,-282.4 872.91,-301.21 827.21,-315.84"/>
<polygon fill="#475569" stroke="#475569" points="826.07,-312.53 817.6,-318.89 828.19,-319.2 826.07,-312.53"/>
<text text-anchor="middle" x="965.74" y="-211.8" font-family="Arial" font-size="9.00">completed + unit sama</text>
</g>
<!-- I -->
<g id="node16" class="node">
<title>I</title>
<path fill="#f8fafc" stroke="#334155" d="M639.74,-36C639.74,-36 532.74,-36 532.74,-36 526.74,-36 520.74,-30 520.74,-24 520.74,-24 520.74,-12 520.74,-12 520.74,-6 526.74,0 532.74,0 532.74,0 639.74,0 639.74,0 645.74,0 651.74,-6 651.74,-12 651.74,-12 651.74,-24 651.74,-24 651.74,-30 645.74,-36 639.74,-36"/>
<text text-anchor="middle" x="586.24" y="-15.5" font-family="Arial" font-size="10.00">Error: transaksi tidak valid</text>
</g>
<!-- G&#45;&gt;I -->
<g id="edge8" class="edge">
<title>G&#45;&gt;I</title>
<path fill="none" stroke="#475569" d="M586.24,-81.64C586.24,-71.3 586.24,-57.94 586.24,-46.22"/>
<polygon fill="#475569" stroke="#475569" points="589.74,-46.05 586.24,-36.05 582.74,-46.05 589.74,-46.05"/>
<text text-anchor="middle" x="607.24" y="-56.8" font-family="Arial" font-size="9.00">tidak valid</text>
</g>
<!-- J&#45;&gt;K -->
<g id="edge10" class="edge">
<title>J&#45;&gt;K</title>
<path fill="none" stroke="#475569" d="M396.24,-450.74C396.24,-428.98 396.24,-391.32 396.24,-365.56"/>
<polygon fill="#475569" stroke="#475569" points="399.74,-365.33 396.24,-355.33 392.74,-365.33 399.74,-365.33"/>
<text text-anchor="middle" x="401.74" y="-425.8" font-family="Arial" font-size="9.00">Ya</text>
</g>
<!-- L -->
<g id="node18" class="node">
<title>L</title>
<path fill="#f8fafc" stroke="#334155" d="M76.49,-352.61C76.49,-352.61 11.51,-339.39 11.51,-339.39 5.63,-338.2 5.63,-335.8 11.51,-334.61 11.51,-334.61 76.49,-321.39 76.49,-321.39 82.36,-320.2 94.12,-320.2 100,-321.39 100,-321.39 164.97,-334.61 164.97,-334.61 170.85,-335.8 170.85,-338.2 164.97,-339.39 164.97,-339.39 100,-352.61 100,-352.61 94.12,-353.8 82.36,-353.8 76.49,-352.61"/>
<text text-anchor="middle" x="88.24" y="-334.5" font-family="Arial" font-size="10.00">Semua baris cocok?</text>
</g>
<!-- J&#45;&gt;L -->
<g id="edge12" class="edge">
<title>J&#45;&gt;L</title>
<path fill="none" stroke="#475569" d="M337.06,-460.03C293.42,-452.55 233.51,-438.82 185.24,-415 156.4,-400.76 128.13,-376.86 109.63,-359.46"/>
<polygon fill="#475569" stroke="#475569" points="111.96,-356.85 102.32,-352.45 107.11,-361.9 111.96,-356.85"/>
<text text-anchor="middle" x="235.74" y="-425.8" font-family="Arial" font-size="9.00">Tidak</text>
</g>
<!-- L&#45;&gt;M -->
<g id="edge14" class="edge">
<title>L&#45;&gt;M</title>
<path fill="none" stroke="#475569" d="M102.62,-352.23C120.19,-369.61 151.72,-397.04 185.24,-408 253.05,-430.16 765.1,-443.02 827.24,-408 843.78,-398.69 854.68,-380.17 861.37,-364.38"/>
<polygon fill="#475569" stroke="#475569" points="864.65,-365.6 865,-355.01 858.12,-363.07 864.65,-365.6"/>
<text text-anchor="middle" x="526.24" y="-425.8" font-family="Arial" font-size="9.00">Ya</text>
</g>
<!-- L&#45;&gt;E -->
<g id="edge13" class="edge">
<title>L&#45;&gt;E</title>
<path fill="none" stroke="#475569" d="M109.61,-323.15C131.85,-309.77 166.83,-288.73 191.7,-273.77"/>
<polygon fill="#475569" stroke="#475569" points="193.6,-276.71 200.37,-268.56 189.99,-270.71 193.6,-276.71"/>
<text text-anchor="middle" x="174.74" y="-293.8" font-family="Arial" font-size="9.00">Tidak</text>
</g>
</g>
</svg>
