<?xml version="1.0" encoding="UTF-8" standalone="no"?>
<!DOCTYPE svg PUBLIC "-//W3C//DTD SVG 1.1//EN"
 "http://www.w3.org/Graphics/SVG/1.1/DTD/svg11.dtd">
<!-- Generated by graphviz version 2.43.0 (0)
 -->
<!-- Title: G Pages: 1 -->
<svg width="537pt" height="809pt"
 viewBox="0.00 0.00 537.00 809.00" xmlns="http://www.w3.org/2000/svg" xmlns:xlink="http://www.w3.org/1999/xlink">
<g id="graph0" class="graph" transform="scale(1 1) rotate(0) translate(4 805)">
<title>G</title>
<polygon fill="white" stroke="transparent" points="-4,4 -4,-805 533,-805 533,4 -4,4"/>
<text text-anchor="middle" x="264.5" y="-784.2" font-family="Arial" font-size="16.00">OPERATIONAL_HANDBOOK.md &#45; diagram 7</text>
<!-- A -->
<g id="node1" class="node">
<title>A</title>
<path fill="#f8fafc" stroke="#334155" d="M280.5,-775C280.5,-775 191.5,-775 191.5,-775 185.5,-775 179.5,-769 179.5,-763 179.5,-763 179.5,-751 179.5,-751 179.5,-745 185.5,-739 191.5,-739 191.5,-739 280.5,-739 280.5,-739 286.5,-739 292.5,-745 292.5,-751 292.5,-751 292.5,-763 292.5,-763 292.5,-769 286.5,-775 280.5,-775"/>
<text text-anchor="middle" x="236" y="-754.5" font-family="Arial" font-size="10.00">Create Expense Entry</text>
</g>
<!-- B -->
<g id="node2" class="node">
<title>B</title>
<path fill="#f8fafc" stroke="#334155" d="M304,-702C304,-702 168,-702 168,-702 162,-702 156,-696 156,-690 156,-690 156,-678 156,-678 156,-672 162,-666 168,-666 168,-666 304,-666 304,-666 310,-666 316,-672 316,-678 316,-678 316,-690 316,-690 316,-696 310,-702 304,-702"/>
<text text-anchor="middle" x="236" y="-681.5" font-family="Arial" font-size="10.00">Select fee type with subcategory</text>
</g>
<!-- A&#45;&gt;B -->
<g id="edge1" class="edge">
<title>A&#45;&gt;B</title>
<path fill="none" stroke="#475569" d="M236,-738.81C236,-730.79 236,-721.05 236,-712.07"/>
<polygon fill="#475569" stroke="#475569" points="239.5,-712.03 236,-702.03 232.5,-712.03 239.5,-712.03"/>
</g>
<!-- C -->
<g id="node3" class="node">
<title>C</title>
<path fill="#f8fafc" stroke="#334155" d="M339,-629C339,-629 133,-629 133,-629 127,-629 121,-623 121,-617 121,-617 121,-605 121,-605 121,-599 127,-593 133,-593 133,-593 339,-593 339,-593 345,-593 351,-599 351,-605 351,-605 351,-617 351,-617 351,-623 345,-629 339,-629"/>
<text text-anchor="middle" x="236" y="-608.5" font-family="Arial" font-size="10.00">Enter: date, method, vendor, amount, description</text>
</g>
<!-- B&#45;&gt;C -->
<g id="edge2" class="edge">
<title>B&#45;&gt;C</title>
<path fill="none" stroke="#475569" d="M236,-665.81C236,-657.79 236,-648.05 236,-639.07"/>
<polygon fill="#475569" stroke="#475569" points="239.5,-639.03 236,-629.03 232.5,-639.03 239.5,-639.03"/>
</g>
<!-- D -->
<g id="node4" class="node">
<title>D</title>
<path fill="#f8fafc" stroke="#334155" d="M259.5,-556C259.5,-556 212.5,-556 212.5,-556 206.5,-556 200.5,-550 200.5,-544 200.5,-544 200.5,-532 200.5,-532 200.5,-526 206.5,-520 212.5,-520 212.5,-520 259.5,-520 259.5,-520 265.5,-520 271.5,-526 271.5,-532 271.5,-532 271.5,-544 271.5,-544 271.5,-550 265.5,-556 259.5,-556"/>
<text text-anchor="middle" x="236" y="-535.5" font-family="Arial" font-size="10.00">Status: draft</text>
</g>
<!-- C&#45;&gt;D -->
<g id="edge3" class="edge">
<title>C&#45;&gt;D</title>
<path fill="none" stroke="#475569" d="M236,-592.81C236,-584.79 236,-575.05 236,-566.07"/>
<polygon fill="#475569" stroke="#475569" points="239.5,-566.03 236,-556.03 232.5,-566.03 239.5,-566.03"/>
</g>
<!-- E -->
<g id="node5" class="node">
<title>E</title>
<path fill="#f8fafc" stroke="#334155" d="M224.76,-478.79C224.76,-478.79 199.17,-469.21 199.17,-469.21 193.55,-467.1 193.55,-462.9 199.17,-460.79 199.17,-460.79 224.76,-451.21 224.76,-451.21 230.38,-449.1 241.62,-449.1 247.24,-451.21 247.24,-451.21 272.83,-460.79 272.83,-460.79 278.45,-462.9 278.45,-467.1 272.83,-469.21 272.83,-469.21 247.24,-478.79 247.24,-478.79 241.62,-480.9 230.38,-480.9 224.76,-478.79"/>
<text text-anchor="middle" x="236" y="-462.5" font-family="Arial" font-size="10.00">Approve?</text>
</g>
<!-- D&#45;&gt;E -->
<g id="edge4" class="edge">
<title>D&#45;&gt;E</title>
<path fill="none" stroke="#475569" d="M236,-519.81C236,-511.79 236,-502.05 236,-493.07"/>
<polygon fill="#475569" stroke="#475569" points="239.5,-493.03 236,-483.03 232.5,-493.03 239.5,-493.03"/>
</g>
<!-- F -->
<g id="node6" class="node">
<title>F</title>
<path fill="#f8fafc" stroke="#334155" d="M248,-401C248,-401 50,-401 50,-401 44,-401 38,-395 38,-389 38,-389 38,-377 38,-377 38,-371 44,-365 50,-365 50,-365 248,-365 248,-365 254,-365 260,-371 260,-377 260,-377 260,-389 260,-389 260,-395 254,-401 248,-401"/>
<text text-anchor="middle" x="149" y="-380.5" font-family="Arial" font-size="10.00">ExpenseManagementService::approveAndPost</text>
</g>
<!-- E&#45;&gt;F -->
<g id="edge5" class="edge">
<title>E&#45;&gt;F</title>
<path fill="none" stroke="#475569" d="M222.79,-451.85C210.12,-440.2 190.66,-422.31 174.9,-407.82"/>
<polygon fill="#475569" stroke="#475569" points="177.24,-405.21 167.51,-401.02 172.5,-410.37 177.24,-405.21"/>
<text text-anchor="middle" x="206" y="-421.8" font-family="Arial" font-size="9.00">Yes</text>
</g>
<!-- L -->
<g id="node12" class="node">
<title>L</title>
<path fill="#f8fafc" stroke="#334155" d="M358,-401C358,-401 290,-401 290,-401 284,-401 278,-395 278,-389 278,-389 278,-377 278,-377 278,-371 284,-365 290,-365 290,-365 358,-365 358,-365 364,-365 370,-371 370,-377 370,-377 370,-389 370,-389 370,-395 364,-401 358,-401"/>
<text text-anchor="middle" x="324" y="-380.5" font-family="Arial" font-size="10.00">Status: cancelled</text>
</g>
<!-- E&#45;&gt;L -->
<g id="edge11" class="edge">
<title>E&#45;&gt;L</title>
<path fill="none" stroke="#475569" d="M249.37,-451.85C262.17,-440.2 281.86,-422.31 297.8,-407.82"/>
<polygon fill="#475569" stroke="#475569" points="300.23,-410.34 305.28,-401.02 295.52,-405.16 300.23,-410.34"/>
<text text-anchor="middle" x="301" y="-421.8" font-family="Arial" font-size="9.00">Cancel</text>
</g>
<!-- G -->
<g id="node7" class="node">
<title>G</title>
<path fill="#f8fafc" stroke="#334155" d="M179.5,-328C179.5,-328 118.5,-328 118.5,-328 112.5,-328 106.5,-322 106.5,-316 106.5,-316 106.5,-304 106.5,-304 106.5,-298 112.5,-292 118.5,-292 118.5,-292 179.5,-292 179.5,-292 185.5,-292 191.5,-298 191.5,-304 191.5,-304 191.5,-316 191.5,-316 191.5,-322 185.5,-328 179.5,-328"/>
<text text-anchor="middle" x="149" y="-307.5" font-family="Arial" font-size="10.00">DB::transaction</text>
</g>
<!-- F&#45;&gt;G -->
<g id="edge6" class="edge">
<title>F&#45;&gt;G</title>
<path fill="none" stroke="#475569" d="M149,-364.81C149,-356.79 149,-347.05 149,-338.07"/>
<polygon fill="#475569" stroke="#475569" points="152.5,-338.03 149,-328.03 145.5,-338.03 152.5,-338.03"/>
</g>
<!-- H -->
<g id="node8" class="node">
<title>H</title>
<path fill="#f8fafc" stroke="#334155" d="M223,-255C223,-255 75,-255 75,-255 69,-255 63,-249 63,-243 63,-243 63,-231 63,-231 63,-225 69,-219 75,-219 75,-219 223,-219 223,-219 229,-219 235,-225 235,-231 235,-231 235,-243 235,-243 235,-249 229,-255 223,-255"/>
<text text-anchor="middle" x="149" y="-234.5" font-family="Arial" font-size="10.00">TransactionService::createExpense</text>
</g>
<!-- G&#45;&gt;H -->
<g id="edge7" class="edge">
<title>G&#45;&gt;H</title>
<path fill="none" stroke="#475569" d="M149,-291.81C149,-283.79 149,-274.05 149,-265.07"/>
<polygon fill="#475569" stroke="#475569" points="152.5,-265.03 149,-255.03 145.5,-265.03 152.5,-265.03"/>
</g>
<!-- I -->
<g id="node9" class="node">
<title>I</title>
<path fill="#f8fafc" stroke="#334155" d="M286,-182C286,-182 12,-182 12,-182 6,-182 0,-176 0,-170 0,-170 0,-158 0,-158 0,-152 6,-146 12,-146 12,-146 286,-146 286,-146 292,-146 298,-152 298,-158 298,-158 298,-170 298,-170 298,-176 292,-182 286,-182"/>
<text text-anchor="middle" x="149" y="-161.5" font-family="Arial" font-size="10.00">Create Transaction: type=expense, number=NK&#45;YYYY&#45;XXXXXX</text>
</g>
<!-- H&#45;&gt;I -->
<g id="edge8" class="edge">
<title>H&#45;&gt;I</title>
<path fill="none" stroke="#475569" d="M149,-218.81C149,-210.79 149,-201.05 149,-192.07"/>
<polygon fill="#475569" stroke="#475569" points="152.5,-192.03 149,-182.03 145.5,-192.03 152.5,-192.03"/>
</g>
<!-- J -->
<g id="node10" class="node">
<title>J</title>
<path fill="#f8fafc" stroke="#334155" d="M265.5,-109C265.5,-109 32.5,-109 32.5,-109 26.5,-109 20.5,-103 20.5,-97 20.5,-97 20.5,-85 20.5,-85 20.5,-79 26.5,-73 32.5,-73 32.5,-73 265.5,-73 265.5,-73 271.5,-73 277.5,-79 277.5,-85 277.5,-85 277.5,-97 277.5,-97 277.5,-103 271.5,-109 265.5,-109"/>
<text text-anchor="middle" x="149" y="-88.5" font-family="Arial" font-size="10.00">Update expense: status=posted, posted_transaction_id</text>
</g>
<!-- I&#45;&gt;J -->
<g id="edge9" class="edge">
<title>I&#45;&gt;J</title>
<path fill="none" stroke="#475569" d="M149,-145.81C149,-137.79 149,-128.05 149,-119.07"/>
<polygon fill="#475569" stroke="#475569" points="152.5,-119.03 149,-109.03 145.5,-119.03 152.5,-119.03"/>
</g>
<!-- K -->
<g id="node11" class="node">
<title>K</title>
<path fill="#f8fafc" stroke="#334155" d="M219.5,-36C219.5,-36 78.5,-36 78.5,-36 72.5,-36 66.5,-30 66.5,-24 66.5,-24 66.5,-12 66.5,-12 66.5,-6 72.5,0 78.5,0 78.5,0 219.5,0 219.5,0 225.5,0 231.5,-6 231.5,-12 231.5,-12 231.5,-24 231.5,-24 231.5,-30 225.5,-36 219.5,-36"/>
<text text-anchor="middle" x="149" y="-15.5" font-family="Arial" font-size="10.00">Record approved_by, approved_at</text>
</g>
<!-- J&#45;&gt;K -->
<g id="edge10" class="edge">
<title>J&#45;&gt;K</title>
<path fill="none" stroke="#475569" d="M149,-72.81C149,-64.79 149,-55.05 149,-46.07"/>
<polygon fill="#475569" stroke="#475569" points="152.5,-46.03 149,-36.03 145.5,-46.03 152.5,-46.03"/>
</g>
<!-- M -->
<g id="node13" class="node">
<title>M</title>
<path fill="#f8fafc" stroke="#334155" d="M483.5,-775C483.5,-775 400.5,-775 400.5,-775 394.5,-775 388.5,-769 388.5,-763 388.5,-763 388.5,-751 388.5,-751 388.5,-745 394.5,-739 400.5,-739 400.5,-739 483.5,-739 483.5,-739 489.5,-739 495.5,-745 495.5,-751 495.5,-751 495.5,-763 495.5,-763 495.5,-769 489.5,-775 483.5,-775"/>
<text text-anchor="middle" x="442" y="-754.5" font-family="Arial" font-size="10.00">Budget Management</text>
</g>
<!-- N -->
<g id="node14" class="node">
<title>N</title>
<path fill="#f8fafc" stroke="#334155" d="M517,-702C517,-702 367,-702 367,-702 361,-702 355,-696 355,-690 355,-690 355,-678 355,-678 355,-672 361,-666 367,-666 367,-666 517,-666 517,-666 523,-666 529,-672 529,-678 529,-678 529,-690 529,-690 529,-696 523,-702 517,-702"/>
<text text-anchor="middle" x="442" y="-681.5" font-family="Arial" font-size="10.00">Set monthly budget per subcategory</text>
</g>
<!-- M&#45;&gt;N -->
<g id="edge12" class="edge">
<title>M&#45;&gt;N</title>
<path fill="none" stroke="#475569" d="M442,-738.81C442,-730.79 442,-721.05 442,-712.07"/>
<polygon fill="#475569" stroke="#475569" points="445.5,-712.03 442,-702.03 438.5,-712.03 445.5,-712.03"/>
</g>
<!-- O -->
<g id="node15" class="node">
<title>O</title>
<path fill="#f8fafc" stroke="#334155" d="M502.5,-629C502.5,-629 381.5,-629 381.5,-629 375.5,-629 369.5,-623 369.5,-617 369.5,-617 369.5,-605 369.5,-605 369.5,-599 375.5,-593 381.5,-593 381.5,-593 502.5,-593 502.5,-593 508.5,-593 514.5,-599 514.5,-605 514.5,-605 514.5,-617 514.5,-617 514.5,-623 508.5,-629 502.5,-629"/>
<text text-anchor="middle" x="442" y="-608.5" font-family="Arial" font-size="10.00">Budget vs Realization Report</text>
</g>
<!-- N&#45;&gt;O -->
<g id="edge13" class="edge">
<title>N&#45;&gt;O</title>
<path fill="none" stroke="#475569" d="M442,-665.81C442,-657.79 442,-648.05 442,-639.07"/>
<polygon fill="#475569" stroke="#475569" points="445.5,-639.03 442,-629.03 438.5,-639.03 445.5,-639.03"/>
</g>
<!-- P -->
<g id="node16" class="node">
<title>P</title>
<path fill="#f8fafc" stroke="#334155" d="M514,-556C514,-556 370,-556 370,-556 364,-556 358,-550 358,-544 358,-544 358,-532 358,-532 358,-526 364,-520 370,-520 370,-520 514,-520 514,-520 520,-520 526,-526 526,-532 526,-532 526,-544 526,-544 526,-550 520,-556 514,-556"/>
<text text-anchor="middle" x="442" y="-535.5" font-family="Arial" font-size="10.00">Planned vs SUM posted expenses</text>
</g>
<!-- O&#45;&gt;P -->
<g id="edge14" class="edge">
<title>O&#45;&gt;P</title>
<path fill="none" stroke="#475569" d="M442,-592.81C442,-584.79 442,-575.05 442,-566.07"/>
<polygon fill="#475569" stroke="#475569" points="445.5,-566.03 442,-556.03 438.5,-566.03 445.5,-566.03"/>
</g>
<!-- Q -->
<g id="node17" class="node">
<title>Q</title>
<path fill="#f8fafc" stroke="#334155" d="M501.5,-483C501.5,-483 382.5,-483 382.5,-483 376.5,-483 370.5,-477 370.5,-471 370.5,-471 370.5,-459 370.5,-459 370.5,-453 376.5,-447 382.5,-447 382.5,-447 501.5,-447 501.5,-447 507.5,-447 513.5,-453 513.5,-459 513.5,-459 513.5,-471 513.5,-471 513.5,-477 507.5,-483 501.5,-483"/>
<text text-anchor="middle" x="442" y="-462.5" font-family="Arial" font-size="10.00">Variance = planned &#45; realized</text>
</g>
<!-- P&#45;&gt;Q -->
<g id="edge15" class="edge">
<title>P&#45;&gt;Q</title>
<path fill="none" stroke="#475569" d="M442,-519.81C442,-511.79 442,-502.05 442,-493.07"/>
<polygon fill="#475569" stroke="#475569" points="445.5,-493.03 442,-483.03 438.5,-493.03 445.5,-493.03"/>
</g>
</g>
</svg>
