<?xml version="1.0" encoding="UTF-8" standalone="no"?>
<!DOCTYPE svg PUBLIC "-//W3C//DTD SVG 1.1//EN"
 "http://www.w3.org/Graphics/SVG/1.1/DTD/svg11.dtd">
<!-- Generated by graphviz version 2.43.0 (0)
 -->
<!-- Title: G Pages: 1 -->
<svg width="482pt" height="1520pt"
 viewBox="0.00 0.00 481.50 1520.00" xmlns="http://www.w3.org/2000/svg" xmlns:xlink="http://www.w3.org/1999/xlink">
<g id="graph0" class="graph" transform="scale(1 1) rotate(0) translate(4 1516)">
<title>G</title>
<polygon fill="white" stroke="transparent" points="-4,4 -4,-1516 477.5,-1516 477.5,4 -4,4"/>
<text text-anchor="middle" x="236.75" y="-1495.2" font-family="Arial" font-size="16.00">OPERATIONAL_HANDBOOK_ID.md &#45; diagram 3</text>
<!-- A -->
<g id="node1" class="node">
<title>A</title>
<path fill="#f8fafc" stroke="#334155" d="M410.5,-1486C410.5,-1486 306.5,-1486 306.5,-1486 300.5,-1486 294.5,-1480 294.5,-1474 294.5,-1474 294.5,-1462 294.5,-1462 294.5,-1456 300.5,-1450 306.5,-1450 306.5,-1450 410.5,-1450 410.5,-1450 416.5,-1450 422.5,-1456 422.5,-1462 422.5,-1462 422.5,-1474 422.5,-1474 422.5,-1480 416.5,-1486 410.5,-1486"/>
<text text-anchor="middle" x="358.5" y="-1465.5" font-family="Arial" font-size="10.00">Buat Periode Penerimaan</text>
</g>
<!-- B -->
<g id="node2" class="node">
<title>B</title>
<path fill="#f8fafc" stroke="#334155" d="M403,-1404C403,-1404 314,-1404 314,-1404 308,-1404 302,-1398 302,-1392 302,-1392 302,-1380 302,-1380 302,-1374 308,-1368 314,-1368 314,-1368 403,-1368 403,-1368 409,-1368 415,-1374 415,-1380 415,-1380 415,-1392 415,-1392 415,-1398 409,-1404 403,-1404"/>
<text text-anchor="middle" x="358.5" y="-1383.5" font-family="Arial" font-size="10.00">Tetapkan Kuota Kelas</text>
</g>
<!-- A&#45;&gt;B -->
<g id="edge1" class="edge">
<title>A&#45;&gt;B</title>
<path fill="none" stroke="#475569" d="M358.5,-1449.64C358.5,-1439.3 358.5,-1425.94 358.5,-1414.22"/>
<polygon fill="#475569" stroke="#475569" points="362,-1414.05 358.5,-1404.05 355,-1414.05 362,-1414.05"/>
<text text-anchor="middle" x="382" y="-1424.8" font-family="Arial" font-size="9.00">status: draft</text>
</g>
<!-- C -->
<g id="node3" class="node">
<title>C</title>
<path fill="#f8fafc" stroke="#334155" d="M384,-1331C384,-1331 333,-1331 333,-1331 327,-1331 321,-1325 321,-1319 321,-1319 321,-1307 321,-1307 321,-1301 327,-1295 333,-1295 333,-1295 384,-1295 384,-1295 390,-1295 396,-1301 396,-1307 396,-1307 396,-1319 396,-1319 396,-1325 390,-1331 384,-1331"/>
<text text-anchor="middle" x="358.5" y="-1310.5" font-family="Arial" font-size="10.00">Buka Periode</text>
</g>
<!-- B&#45;&gt;C -->
<g id="edge2" class="edge">
<title>B&#45;&gt;C</title>
<path fill="none" stroke="#475569" d="M358.5,-1367.81C358.5,-1359.79 358.5,-1350.05 358.5,-1341.07"/>
<polygon fill="#475569" stroke="#475569" points="362,-1341.03 358.5,-1331.03 355,-1341.03 362,-1341.03"/>
</g>
<!-- D -->
<g id="node4" class="node">
<title>D</title>
<path fill="#f8fafc" stroke="#334155" d="M348.5,-1249C348.5,-1249 254.5,-1249 254.5,-1249 248.5,-1249 242.5,-1243 242.5,-1237 242.5,-1237 242.5,-1225 242.5,-1225 242.5,-1219 248.5,-1213 254.5,-1213 254.5,-1213 348.5,-1213 348.5,-1213 354.5,-1213 360.5,-1219 360.5,-1225 360.5,-1225 360.5,-1237 360.5,-1237 360.5,-1243 354.5,-1249 348.5,-1249"/>
<text text-anchor="middle" x="301.5" y="-1228.5" font-family="Arial" font-size="10.00">Daftarkan Calon Siswa</text>
</g>
<!-- C&#45;&gt;D -->
<g id="edge3" class="edge">
<title>C&#45;&gt;D</title>
<path fill="none" stroke="#475569" d="M346.13,-1294.64C338.39,-1283.77 328.27,-1269.57 319.63,-1257.44"/>
<polygon fill="#475569" stroke="#475569" points="322.3,-1255.16 313.65,-1249.05 316.6,-1259.23 322.3,-1255.16"/>
<text text-anchor="middle" x="358.5" y="-1269.8" font-family="Arial" font-size="9.00">status: open</text>
</g>
<!-- Y -->
<g id="node25" class="node">
<title>Y</title>
<path fill="#f8fafc" stroke="#334155" d="M444,-1249C444,-1249 391,-1249 391,-1249 385,-1249 379,-1243 379,-1237 379,-1237 379,-1225 379,-1225 379,-1219 385,-1213 391,-1213 391,-1213 444,-1213 444,-1213 450,-1213 456,-1219 456,-1225 456,-1225 456,-1237 456,-1237 456,-1243 450,-1249 444,-1249"/>
<text text-anchor="middle" x="417.5" y="-1228.5" font-family="Arial" font-size="10.00">Tutup Periode</text>
</g>
<!-- C&#45;&gt;Y -->
<g id="edge25" class="edge">
<title>C&#45;&gt;Y</title>
<path fill="none" stroke="#475569" d="M373.32,-1294.84C377.98,-1289.25 383.07,-1282.95 387.5,-1277 392.05,-1270.89 396.73,-1264.13 401,-1257.75"/>
<polygon fill="#475569" stroke="#475569" points="403.93,-1259.66 406.51,-1249.38 398.09,-1255.81 403.93,-1259.66"/>
</g>
<!-- E -->
<g id="node5" class="node">
<title>E</title>
<path fill="#f8fafc" stroke="#334155" d="M337.5,-1167C337.5,-1167 265.5,-1167 265.5,-1167 259.5,-1167 253.5,-1161 253.5,-1155 253.5,-1155 253.5,-1143 253.5,-1143 253.5,-1137 259.5,-1131 265.5,-1131 265.5,-1131 337.5,-1131 337.5,-1131 343.5,-1131 349.5,-1137 349.5,-1143 349.5,-1143 349.5,-1155 349.5,-1155 349.5,-1161 343.5,-1167 337.5,-1167"/>
<text text-anchor="middle" x="301.5" y="-1146.5" font-family="Arial" font-size="10.00">Pindah ke Review</text>
</g>
<!-- D&#45;&gt;E -->
<g id="edge4" class="edge">
<title>D&#45;&gt;E</title>
<path fill="none" stroke="#475569" d="M301.5,-1212.64C301.5,-1202.3 301.5,-1188.94 301.5,-1177.22"/>
<polygon fill="#475569" stroke="#475569" points="305,-1177.05 301.5,-1167.05 298,-1177.05 305,-1177.05"/>
<text text-anchor="middle" x="336.5" y="-1187.8" font-family="Arial" font-size="9.00">status: registered</text>
</g>
<!-- F -->
<g id="node6" class="node">
<title>F</title>
<path fill="#f8fafc" stroke="#334155" d="M290.15,-1081.1C290.15,-1081.1 260.45,-1070.9 260.45,-1070.9 254.78,-1068.95 254.78,-1065.05 260.45,-1063.1 260.45,-1063.1 290.15,-1052.9 290.15,-1052.9 295.83,-1050.95 307.17,-1050.95 312.85,-1052.9 312.85,-1052.9 342.55,-1063.1 342.55,-1063.1 348.22,-1065.05 348.22,-1068.95 342.55,-1070.9 342.55,-1070.9 312.85,-1081.1 312.85,-1081.1 307.17,-1083.05 295.83,-1083.05 290.15,-1081.1"/>
<text text-anchor="middle" x="301.5" y="-1064.5" font-family="Arial" font-size="10.00">Keputusan</text>
</g>
<!-- E&#45;&gt;F -->
<g id="edge5" class="edge">
<title>E&#45;&gt;F</title>
<path fill="none" stroke="#475569" d="M301.5,-1130.64C301.5,-1120.3 301.5,-1106.94 301.5,-1095.22"/>
<polygon fill="#475569" stroke="#475569" points="305,-1095.05 301.5,-1085.05 298,-1095.05 305,-1095.05"/>
<text text-anchor="middle" x="344" y="-1105.8" font-family="Arial" font-size="9.00">status: under_review</text>
</g>
<!-- G -->
<g id="node7" class="node">
<title>G</title>
<path fill="#f8fafc" stroke="#334155" d="M234.17,-999.06C234.17,-999.06 205.1,-988.94 205.1,-988.94 199.44,-986.97 199.44,-983.03 205.1,-981.06 205.1,-981.06 234.17,-970.94 234.17,-970.94 239.83,-968.97 251.17,-968.97 256.83,-970.94 256.83,-970.94 285.9,-981.06 285.9,-981.06 291.56,-983.03 291.56,-986.97 285.9,-988.94 285.9,-988.94 256.83,-999.06 256.83,-999.06 251.17,-1001.03 239.83,-1001.03 234.17,-999.06"/>
<text text-anchor="middle" x="245.5" y="-982.5" font-family="Arial" font-size="10.00">Cek kuota</text>
</g>
<!-- F&#45;&gt;G -->
<g id="edge6" class="edge">
<title>F&#45;&gt;G</title>
<path fill="none" stroke="#475569" d="M291.75,-1052.07C283.23,-1039.91 270.74,-1022.05 260.88,-1007.97"/>
<polygon fill="#475569" stroke="#475569" points="263.74,-1005.96 255.14,-999.78 258.01,-1009.97 263.74,-1005.96"/>
<text text-anchor="middle" x="291.5" y="-1023.8" font-family="Arial" font-size="9.00">Terima</text>
</g>
<!-- J -->
<g id="node10" class="node">
<title>J</title>
<path fill="#f8fafc" stroke="#334155" d="M400.5,-1003C400.5,-1003 338.5,-1003 338.5,-1003 332.5,-1003 326.5,-997 326.5,-991 326.5,-991 326.5,-979 326.5,-979 326.5,-973 332.5,-967 338.5,-967 338.5,-967 400.5,-967 400.5,-967 406.5,-967 412.5,-973 412.5,-979 412.5,-979 412.5,-991 412.5,-991 412.5,-997 406.5,-1003 400.5,-1003"/>
<text text-anchor="middle" x="369.5" y="-982.5" font-family="Arial" font-size="10.00">Status: rejected</text>
</g>
<!-- F&#45;&gt;J -->
<g id="edge9" class="edge">
<title>F&#45;&gt;J</title>
<path fill="none" stroke="#475569" d="M312.73,-1052.79C322.38,-1041.44 336.56,-1024.76 348.33,-1010.91"/>
<polygon fill="#475569" stroke="#475569" points="351.12,-1013.03 354.93,-1003.14 345.79,-1008.49 351.12,-1013.03"/>
<text text-anchor="middle" x="351.5" y="-1023.8" font-family="Arial" font-size="9.00">Tolak</text>
</g>
<!-- H -->
<g id="node8" class="node">
<title>H</title>
<path fill="#f8fafc" stroke="#334155" d="M157,-921C157,-921 90,-921 90,-921 84,-921 78,-915 78,-909 78,-909 78,-897 78,-897 78,-891 84,-885 90,-885 90,-885 157,-885 157,-885 163,-885 169,-891 169,-897 169,-897 169,-909 169,-909 169,-915 163,-921 157,-921"/>
<text text-anchor="middle" x="123.5" y="-900.5" font-family="Arial" font-size="10.00">Status: accepted</text>
</g>
<!-- G&#45;&gt;H -->
<g id="edge7" class="edge">
<title>G&#45;&gt;H</title>
<path fill="none" stroke="#475569" d="M227.73,-973.14C216.66,-966.32 202.17,-957.27 189.5,-949 178.7,-941.95 167.05,-934.09 156.57,-926.93"/>
<polygon fill="#475569" stroke="#475569" points="158.33,-923.89 148.1,-921.12 154.37,-929.66 158.33,-923.89"/>
<text text-anchor="middle" x="215.5" y="-941.8" font-family="Arial" font-size="9.00">Dalam kuota</text>
</g>
<!-- I -->
<g id="node9" class="node">
<title>I</title>
<path fill="#f8fafc" stroke="#334155" d="M291.5,-921C291.5,-921 199.5,-921 199.5,-921 193.5,-921 187.5,-915 187.5,-909 187.5,-909 187.5,-897 187.5,-897 187.5,-891 193.5,-885 199.5,-885 199.5,-885 291.5,-885 291.5,-885 297.5,-885 303.5,-891 303.5,-897 303.5,-897 303.5,-909 303.5,-909 303.5,-915 297.5,-921 291.5,-921"/>
<text text-anchor="middle" x="245.5" y="-900.5" font-family="Arial" font-size="10.00">Error: kuota terlampaui</text>
</g>
<!-- G&#45;&gt;I -->
<g id="edge8" class="edge">
<title>G&#45;&gt;I</title>
<path fill="none" stroke="#475569" d="M245.5,-966.64C245.5,-956.3 245.5,-942.94 245.5,-931.22"/>
<polygon fill="#475569" stroke="#475569" points="249,-931.05 245.5,-921.05 242,-931.05 249,-931.05"/>
<text text-anchor="middle" x="280.5" y="-941.8" font-family="Arial" font-size="9.00">Kuota terlampaui</text>
</g>
<!-- L -->
<g id="node12" class="node">
<title>L</title>
<path fill="#f8fafc" stroke="#334155" d="M164.5,-848C164.5,-848 82.5,-848 82.5,-848 76.5,-848 70.5,-842 70.5,-836 70.5,-836 70.5,-824 70.5,-824 70.5,-818 76.5,-812 82.5,-812 82.5,-812 164.5,-812 164.5,-812 170.5,-812 176.5,-818 176.5,-824 176.5,-824 176.5,-836 176.5,-836 176.5,-842 170.5,-848 164.5,-848"/>
<text text-anchor="middle" x="123.5" y="-827.5" font-family="Arial" font-size="10.00">Daftar Ulang / Enroll</text>
</g>
<!-- H&#45;&gt;L -->
<g id="edge11" class="edge">
<title>H&#45;&gt;L</title>
<path fill="none" stroke="#475569" d="M123.5,-884.81C123.5,-876.79 123.5,-867.05 123.5,-858.07"/>
<polygon fill="#475569" stroke="#475569" points="127,-858.03 123.5,-848.03 120,-858.03 127,-858.03"/>
</g>
<!-- K -->
<g id="node11" class="node">
<title>K</title>
<path fill="#f8fafc" stroke="#334155" d="M429,-921C429,-921 334,-921 334,-921 328,-921 322,-915 322,-909 322,-909 322,-897 322,-897 322,-891 328,-885 334,-885 334,-885 429,-885 429,-885 435,-885 441,-891 441,-897 441,-897 441,-909 441,-909 441,-915 435,-921 429,-921"/>
<text text-anchor="middle" x="381.5" y="-900.5" font-family="Arial" font-size="10.00">Catat alasan penolakan</text>
</g>
<!-- J&#45;&gt;K -->
<g id="edge10" class="edge">
<title>J&#45;&gt;K</title>
<path fill="none" stroke="#475569" d="M372.1,-966.64C373.66,-956.3 375.66,-942.94 377.42,-931.22"/>
<polygon fill="#475569" stroke="#475569" points="380.92,-931.46 378.94,-921.05 374,-930.42 380.92,-931.46"/>
</g>
<!-- M -->
<g id="node13" class="node">
<title>M</title>
<path fill="#f8fafc" stroke="#334155" d="M154,-775C154,-775 93,-775 93,-775 87,-775 81,-769 81,-763 81,-763 81,-751 81,-751 81,-745 87,-739 93,-739 93,-739 154,-739 154,-739 160,-739 166,-745 166,-751 166,-751 166,-763 166,-763 166,-769 160,-775 154,-775"/>
<text text-anchor="middle" x="123.5" y="-754.5" font-family="Arial" font-size="10.00">DB::transaction</text>
</g>
<!-- L&#45;&gt;M -->
<g id="edge12" class="edge">
<title>L&#45;&gt;M</title>
<path fill="none" stroke="#475569" d="M123.5,-811.81C123.5,-803.79 123.5,-794.05 123.5,-785.07"/>
<polygon fill="#475569" stroke="#475569" points="127,-785.03 123.5,-775.03 120,-785.03 127,-785.03"/>
</g>
<!-- N -->
<g id="node14" class="node">
<title>N</title>
<path fill="#f8fafc" stroke="#334155" d="M160,-702C160,-702 87,-702 87,-702 81,-702 75,-696 75,-690 75,-690 75,-678 75,-678 75,-672 81,-666 87,-666 87,-666 160,-666 160,-666 166,-666 172,-672 172,-678 172,-678 172,-690 172,-690 172,-696 166,-702 160,-702"/>
<text text-anchor="middle" x="123.5" y="-681.5" font-family="Arial" font-size="10.00">Buat record Siswa</text>
</g>
<!-- M&#45;&gt;N -->
<g id="edge13" class="edge">
<title>M&#45;&gt;N</title>
<path fill="none" stroke="#475569" d="M123.5,-738.81C123.5,-730.79 123.5,-721.05 123.5,-712.07"/>
<polygon fill="#475569" stroke="#475569" points="127,-712.03 123.5,-702.03 120,-712.03 127,-712.03"/>
</g>
<!-- O -->
<g id="node15" class="node">
<title>O</title>
<path fill="#f8fafc" stroke="#334155" d="M140,-629C140,-629 107,-629 107,-629 101,-629 95,-623 95,-617 95,-617 95,-605 95,-605 95,-599 101,-593 107,-593 107,-593 140,-593 140,-593 146,-593 152,-599 152,-605 152,-605 152,-617 152,-617 152,-623 146,-629 140,-629"/>
<text text-anchor="middle" x="123.5" y="-608.5" font-family="Arial" font-size="10.00">Buat NIS</text>
</g>
<!-- N&#45;&gt;O -->
<g id="edge14" class="edge">
<title>N&#45;&gt;O</title>
<path fill="none" stroke="#475569" d="M123.5,-665.81C123.5,-657.79 123.5,-648.05 123.5,-639.07"/>
<polygon fill="#475569" stroke="#475569" points="127,-639.03 123.5,-629.03 120,-639.03 127,-639.03"/>
</g>
<!-- P -->
<g id="node16" class="node">
<title>P</title>
<path fill="#f8fafc" stroke="#334155" d="M185,-556C185,-556 62,-556 62,-556 56,-556 50,-550 50,-544 50,-544 50,-532 50,-532 50,-526 56,-520 62,-520 62,-520 185,-520 185,-520 191,-520 197,-526 197,-532 197,-532 197,-544 197,-544 197,-550 191,-556 185,-556"/>
<text text-anchor="middle" x="123.5" y="-535.5" font-family="Arial" font-size="10.00">Cari FeeMatrix: biaya bulanan</text>
</g>
<!-- O&#45;&gt;P -->
<g id="edge15" class="edge">
<title>O&#45;&gt;P</title>
<path fill="none" stroke="#475569" d="M123.5,-592.81C123.5,-584.79 123.5,-575.05 123.5,-566.07"/>
<polygon fill="#475569" stroke="#475569" points="127,-566.03 123.5,-556.03 120,-566.03 127,-566.03"/>
</g>
<!-- Q -->
<g id="node17" class="node">
<title>Q</title>
<path fill="#f8fafc" stroke="#334155" d="M196.5,-483C196.5,-483 50.5,-483 50.5,-483 44.5,-483 38.5,-477 38.5,-471 38.5,-471 38.5,-459 38.5,-459 38.5,-453 44.5,-447 50.5,-447 50.5,-447 196.5,-447 196.5,-447 202.5,-447 208.5,-453 208.5,-459 208.5,-459 208.5,-471 208.5,-471 208.5,-477 202.5,-483 196.5,-483"/>
<text text-anchor="middle" x="123.5" y="-462.5" font-family="Arial" font-size="10.00">Buat StudentFeeMapping per biaya</text>
</g>
<!-- P&#45;&gt;Q -->
<g id="edge16" class="edge">
<title>P&#45;&gt;Q</title>
<path fill="none" stroke="#475569" d="M123.5,-519.81C123.5,-511.79 123.5,-502.05 123.5,-493.07"/>
<polygon fill="#475569" stroke="#475569" points="127,-493.03 123.5,-483.03 120,-493.03 127,-493.03"/>
</g>
<!-- R -->
<g id="node18" class="node">
<title>R</title>
<path fill="#f8fafc" stroke="#334155" d="M194.5,-410C194.5,-410 52.5,-410 52.5,-410 46.5,-410 40.5,-404 40.5,-398 40.5,-398 40.5,-386 40.5,-386 40.5,-380 46.5,-374 52.5,-374 52.5,-374 194.5,-374 194.5,-374 200.5,-374 206.5,-380 206.5,-386 206.5,-386 206.5,-398 206.5,-398 206.5,-404 200.5,-410 194.5,-410"/>
<text text-anchor="middle" x="123.5" y="-389.5" font-family="Arial" font-size="10.00">Cari FeeMatrix: biaya sekali bayar</text>
</g>
<!-- Q&#45;&gt;R -->
<g id="edge17" class="edge">
<title>Q&#45;&gt;R</title>
<path fill="none" stroke="#475569" d="M123.5,-446.81C123.5,-438.79 123.5,-429.05 123.5,-420.07"/>
<polygon fill="#475569" stroke="#475569" points="127,-420.03 123.5,-410.03 120,-420.03 127,-420.03"/>
</g>
<!-- S -->
<g id="node19" class="node">
<title>S</title>
<path fill="#f8fafc" stroke="#334155" d="M191.5,-337C191.5,-337 55.5,-337 55.5,-337 49.5,-337 43.5,-331 43.5,-325 43.5,-325 43.5,-313 43.5,-313 43.5,-307 49.5,-301 55.5,-301 55.5,-301 191.5,-301 191.5,-301 197.5,-301 203.5,-307 203.5,-313 203.5,-313 203.5,-325 203.5,-325 203.5,-331 197.5,-337 191.5,-337"/>
<text text-anchor="middle" x="123.5" y="-316.5" font-family="Arial" font-size="10.00">Buat StudentObligation per biaya</text>
</g>
<!-- R&#45;&gt;S -->
<g id="edge18" class="edge">
<title>R&#45;&gt;S</title>
<path fill="none" stroke="#475569" d="M123.5,-373.81C123.5,-365.79 123.5,-356.05 123.5,-347.07"/>
<polygon fill="#475569" stroke="#475569" points="127,-347.03 123.5,-337.03 120,-347.03 127,-347.03"/>
</g>
<!-- T -->
<g id="node20" class="node">
<title>T</title>
<path fill="#f8fafc" stroke="#334155" d="M111.64,-262.18C111.64,-262.18 18.1,-247.82 18.1,-247.82 12.17,-246.91 12.17,-245.09 18.1,-244.18 18.1,-244.18 111.64,-229.82 111.64,-229.82 117.57,-228.91 129.43,-228.91 135.36,-229.82 135.36,-229.82 228.9,-244.18 228.9,-244.18 234.83,-245.09 234.83,-246.91 228.9,-247.82 228.9,-247.82 135.36,-262.18 135.36,-262.18 129.43,-263.09 117.57,-263.09 111.64,-262.18"/>
<text text-anchor="middle" x="123.5" y="-243.5" font-family="Arial" font-size="10.00">Ada kewajiban sekali bayar?</text>
</g>
<!-- S&#45;&gt;T -->
<g id="edge19" class="edge">
<title>S&#45;&gt;T</title>
<path fill="none" stroke="#475569" d="M123.5,-300.81C123.5,-292.79 123.5,-283.05 123.5,-274.07"/>
<polygon fill="#475569" stroke="#475569" points="127,-274.03 123.5,-264.03 120,-274.03 127,-274.03"/>
</g>
<!-- U -->
<g id="node21" class="node">
<title>U</title>
<path fill="#f8fafc" stroke="#334155" d="M115,-182C115,-182 12,-182 12,-182 6,-182 0,-176 0,-170 0,-170 0,-158 0,-158 0,-152 6,-146 12,-146 12,-146 115,-146 115,-146 121,-146 127,-152 127,-158 127,-158 127,-170 127,-170 127,-176 121,-182 115,-182"/>
<text text-anchor="middle" x="63.5" y="-161.5" font-family="Arial" font-size="10.00">Buat Invoice Pendaftaran</text>
</g>
<!-- T&#45;&gt;U -->
<g id="edge20" class="edge">
<title>T&#45;&gt;U</title>
<path fill="none" stroke="#475569" d="M111.93,-229.58C103.55,-218.4 92.04,-203.05 82.34,-190.12"/>
<polygon fill="#475569" stroke="#475569" points="85.08,-187.94 76.28,-182.04 79.48,-192.14 85.08,-187.94"/>
<text text-anchor="middle" x="103" y="-202.8" font-family="Arial" font-size="9.00">Ya</text>
</g>
<!-- V -->
<g id="node22" class="node">
<title>V</title>
<path fill="#f8fafc" stroke="#334155" d="M212,-182C212,-182 157,-182 157,-182 151,-182 145,-176 145,-170 145,-170 145,-158 145,-158 145,-152 151,-146 157,-146 157,-146 212,-146 212,-146 218,-146 224,-152 224,-158 224,-158 224,-170 224,-170 224,-176 218,-182 212,-182"/>
<text text-anchor="middle" x="184.5" y="-161.5" font-family="Arial" font-size="10.00">Lewati invoice</text>
</g>
<!-- T&#45;&gt;V -->
<g id="edge21" class="edge">
<title>T&#45;&gt;V</title>
<path fill="none" stroke="#475569" d="M135.26,-229.58C143.78,-218.4 155.49,-203.05 165.35,-190.12"/>
<polygon fill="#475569" stroke="#475569" points="168.23,-192.11 171.51,-182.04 162.66,-187.87 168.23,-192.11"/>
<text text-anchor="middle" x="170" y="-202.8" font-family="Arial" font-size="9.00">Tidak</text>
</g>
<!-- W -->
<g id="node23" class="node">
<title>W</title>
<path fill="#f8fafc" stroke="#334155" d="M181.5,-109C181.5,-109 65.5,-109 65.5,-109 59.5,-109 53.5,-103 53.5,-97 53.5,-97 53.5,-85 53.5,-85 53.5,-79 59.5,-73 65.5,-73 65.5,-73 181.5,-73 181.5,-73 187.5,-73 193.5,-79 193.5,-85 193.5,-85 193.5,-97 193.5,-97 193.5,-103 187.5,-109 181.5,-109"/>
<text text-anchor="middle" x="123.5" y="-88.5" font-family="Arial" font-size="10.00">Status calon siswa: enrolled</text>
</g>
<!-- U&#45;&gt;W -->
<g id="edge22" class="edge">
<title>U&#45;&gt;W</title>
<path fill="none" stroke="#475569" d="M78.02,-145.81C85.39,-137.09 94.48,-126.34 102.59,-116.75"/>
<polygon fill="#475569" stroke="#475569" points="105.33,-118.93 109.11,-109.03 99.98,-114.41 105.33,-118.93"/>
</g>
<!-- V&#45;&gt;W -->
<g id="edge23" class="edge">
<title>V&#45;&gt;W</title>
<path fill="none" stroke="#475569" d="M169.73,-145.81C162.24,-137.09 153,-126.34 144.76,-116.75"/>
<polygon fill="#475569" stroke="#475569" points="147.3,-114.33 138.13,-109.03 141.99,-118.89 147.3,-114.33"/>
</g>
<!-- X -->
<g id="node24" class="node">
<title>X</title>
<path fill="#f8fafc" stroke="#334155" d="M189.5,-36C189.5,-36 57.5,-36 57.5,-36 51.5,-36 45.5,-30 45.5,-24 45.5,-24 45.5,-12 45.5,-12 45.5,-6 51.5,0 57.5,0 57.5,0 189.5,0 189.5,0 195.5,0 201.5,-6 201.5,-12 201.5,-12 201.5,-24 201.5,-24 201.5,-30 195.5,-36 189.5,-36"/>
<text text-anchor="middle" x="123.5" y="-15.5" font-family="Arial" font-size="10.00">Hubungkan applicant.student_id</text>
</g>
<!-- W&#45;&gt;X -->
<g id="edge24" class="edge">
<title>W&#45;&gt;X</title>
<path fill="none" stroke="#475569" d="M123.5,-72.81C123.5,-64.79 123.5,-55.05 123.5,-46.07"/>
<polygon fill="#475569" stroke="#475569" points="127,-46.03 123.5,-36.03 120,-46.03 127,-46.03"/>
</g>
<!-- Z -->
<g id="node26" class="node">
<title>Z</title>
<path fill="#f8fafc" stroke="#334155" d="M454,-1167C454,-1167 381,-1167 381,-1167 375,-1167 369,-1161 369,-1155 369,-1155 369,-1143 369,-1143 369,-1137 375,-1131 381,-1131 381,-1131 454,-1131 454,-1131 460,-1131 466,-1137 466,-1143 466,-1143 466,-1155 466,-1155 466,-1161 460,-1167 454,-1167"/>
<text text-anchor="middle" x="417.5" y="-1146.5" font-family="Arial" font-size="10.00">Periode diarsipkan</text>
</g>
<!-- Y&#45;&gt;Z -->
<g id="edge26" class="edge">
<title>Y&#45;&gt;Z</title>
<path fill="none" stroke="#475569" d="M417.5,-1212.64C417.5,-1202.3 417.5,-1188.94 417.5,-1177.22"/>
<polygon fill="#475569" stroke="#475569" points="421,-1177.05 417.5,-1167.05 414,-1177.05 421,-1177.05"/>
<text text-anchor="middle" x="445.5" y="-1187.8" font-family="Arial" font-size="9.00">status: closed</text>
</g>
</g>
</svg>
