<?xml version="1.0" encoding="UTF-8" standalone="no"?>
<!DOCTYPE svg PUBLIC "-//W3C//DTD SVG 1.1//EN"
 "http://www.w3.org/Graphics/SVG/1.1/DTD/svg11.dtd">
<!-- Generated by graphviz version 2.43.0 (0)
 -->
<!-- Title: G Pages: 1 -->
<svg width="827pt" height="836pt"
 viewBox="0.00 0.00 827.00 836.00" xmlns="http://www.w3.org/2000/svg" xmlns:xlink="http://www.w3.org/1999/xlink">
<g id="graph0" class="graph" transform="scale(1 1) rotate(0) translate(4 832)">
<title>G</title>
<polygon fill="white" stroke="transparent" points="-4,4 -4,-832 823,-832 823,4 -4,4"/>
<text text-anchor="middle" x="409.5" y="-811.2" font-family="Arial" font-size="16.00">OPERATIONAL_HANDBOOK.md &#45; diagram 6</text>
<!-- A -->
<g id="node1" class="node">
<title>A</title>
<path fill="#f8fafc" stroke="#334155" d="M406,-802C406,-802 330,-802 330,-802 324,-802 318,-796 318,-790 318,-790 318,-778 318,-778 318,-772 324,-766 330,-766 330,-766 406,-766 406,-766 412,-766 418,-772 418,-778 418,-778 418,-790 418,-790 418,-796 412,-802 406,-802"/>
<text text-anchor="middle" x="368" y="-781.5" font-family="Arial" font-size="10.00">User selects report</text>
</g>
<!-- B -->
<g id="node2" class="node">
<title>B</title>
<path fill="#f8fafc" stroke="#334155" d="M356.56,-725.37C356.56,-725.37 322.72,-714.63 322.72,-714.63 317,-712.81 317,-709.19 322.72,-707.37 322.72,-707.37 356.56,-696.63 356.56,-696.63 362.28,-694.81 373.72,-694.81 379.44,-696.63 379.44,-696.63 413.28,-707.37 413.28,-707.37 419,-709.19 419,-712.81 413.28,-714.63 413.28,-714.63 379.44,-725.37 379.44,-725.37 373.72,-727.19 362.28,-727.19 356.56,-725.37"/>
<text text-anchor="middle" x="368" y="-708.5" font-family="Arial" font-size="10.00">Report type</text>
</g>
<!-- A&#45;&gt;B -->
<g id="edge1" class="edge">
<title>A&#45;&gt;B</title>
<path fill="none" stroke="#475569" d="M368,-765.81C368,-757.79 368,-748.05 368,-739.07"/>
<polygon fill="#475569" stroke="#475569" points="371.5,-739.03 368,-729.03 364.5,-739.03 371.5,-739.03"/>
</g>
<!-- C -->
<g id="node3" class="node">
<title>C</title>
<path fill="#f8fafc" stroke="#334155" d="M54,-647C54,-647 12,-647 12,-647 6,-647 0,-641 0,-635 0,-635 0,-623 0,-623 0,-617 6,-611 12,-611 12,-611 54,-611 54,-611 60,-611 66,-617 66,-623 66,-623 66,-635 66,-635 66,-641 60,-647 54,-647"/>
<text text-anchor="middle" x="33" y="-626.5" font-family="Arial" font-size="10.00">Select date</text>
</g>
<!-- B&#45;&gt;C -->
<g id="edge2" class="edge">
<title>B&#45;&gt;C</title>
<path fill="none" stroke="#475569" d="M331.86,-704.3C277.82,-695.34 172.82,-676.18 75.93,-647.02"/>
<polygon fill="#475569" stroke="#475569" points="76.87,-643.65 66.28,-644.08 74.82,-650.34 76.87,-643.65"/>
<text text-anchor="middle" x="190" y="-667.8" font-family="Arial" font-size="9.00">Daily</text>
</g>
<!-- D -->
<g id="node4" class="node">
<title>D</title>
<path fill="#f8fafc" stroke="#334155" d="M168,-647C168,-647 96,-647 96,-647 90,-647 84,-641 84,-635 84,-635 84,-623 84,-623 84,-617 90,-611 96,-611 96,-611 168,-611 168,-611 174,-611 180,-617 180,-623 180,-623 180,-635 180,-635 180,-641 174,-647 168,-647"/>
<text text-anchor="middle" x="132" y="-626.5" font-family="Arial" font-size="10.00">Select month/year</text>
</g>
<!-- B&#45;&gt;D -->
<g id="edge3" class="edge">
<title>B&#45;&gt;D</title>
<path fill="none" stroke="#475569" d="M341.84,-701.13C305.46,-688.8 238.61,-666.14 190.12,-649.7"/>
<polygon fill="#475569" stroke="#475569" points="190.97,-646.29 180.37,-646.4 188.72,-652.92 190.97,-646.29"/>
<text text-anchor="middle" x="281.5" y="-667.8" font-family="Arial" font-size="9.00">Monthly</text>
</g>
<!-- E -->
<g id="node5" class="node">
<title>E</title>
<path fill="#f8fafc" stroke="#334155" d="M287.5,-647C287.5,-647 210.5,-647 210.5,-647 204.5,-647 198.5,-641 198.5,-635 198.5,-635 198.5,-623 198.5,-623 198.5,-617 204.5,-611 210.5,-611 210.5,-611 287.5,-611 287.5,-611 293.5,-611 299.5,-617 299.5,-623 299.5,-623 299.5,-635 299.5,-635 299.5,-641 293.5,-647 287.5,-647"/>
<text text-anchor="middle" x="249" y="-626.5" font-family="Arial" font-size="10.00">Optional class filter</text>
</g>
<!-- B&#45;&gt;E -->
<g id="edge4" class="edge">
<title>B&#45;&gt;E</title>
<path fill="none" stroke="#475569" d="M350.7,-698.37C333.06,-686.51 305.22,-667.79 283.12,-652.94"/>
<polygon fill="#475569" stroke="#475569" points="284.92,-649.93 274.67,-647.25 281.01,-655.74 284.92,-649.93"/>
<text text-anchor="middle" x="331.5" y="-667.8" font-family="Arial" font-size="9.00">Arrears</text>
</g>
<!-- F -->
<g id="node6" class="node">
<title>F</title>
<path fill="#f8fafc" stroke="#334155" d="M406.5,-647C406.5,-647 329.5,-647 329.5,-647 323.5,-647 317.5,-641 317.5,-635 317.5,-635 317.5,-623 317.5,-623 317.5,-617 323.5,-611 329.5,-611 329.5,-611 406.5,-611 406.5,-611 412.5,-611 418.5,-617 418.5,-623 418.5,-623 418.5,-635 418.5,-635 418.5,-641 412.5,-647 406.5,-647"/>
<text text-anchor="middle" x="368" y="-626.5" font-family="Arial" font-size="10.00">Date range + filters</text>
</g>
<!-- B&#45;&gt;F -->
<g id="edge5" class="edge">
<title>B&#45;&gt;F</title>
<path fill="none" stroke="#475569" d="M368,-692.64C368,-682.3 368,-668.94 368,-657.22"/>
<polygon fill="#475569" stroke="#475569" points="371.5,-657.05 368,-647.05 364.5,-657.05 371.5,-657.05"/>
<text text-anchor="middle" x="400.5" y="-667.8" font-family="Arial" font-size="9.00">AR Outstanding</text>
</g>
<!-- G -->
<g id="node7" class="node">
<title>G</title>
<path fill="#f8fafc" stroke="#334155" d="M567.5,-647C567.5,-647 448.5,-647 448.5,-647 442.5,-647 436.5,-641 436.5,-635 436.5,-635 436.5,-623 436.5,-623 436.5,-617 442.5,-611 448.5,-611 448.5,-611 567.5,-611 567.5,-611 573.5,-611 579.5,-617 579.5,-623 579.5,-623 579.5,-635 579.5,-635 579.5,-641 573.5,-647 567.5,-647"/>
<text text-anchor="middle" x="508" y="-626.5" font-family="Arial" font-size="10.00">Date range + method/cashier</text>
</g>
<!-- B&#45;&gt;G -->
<g id="edge6" class="edge">
<title>B&#45;&gt;G</title>
<path fill="none" stroke="#475569" d="M389.42,-699.79C403.18,-693.07 421.35,-683.9 437,-675 449.23,-668.04 462.32,-659.94 473.89,-652.55"/>
<polygon fill="#475569" stroke="#475569" points="475.89,-655.42 482.4,-647.06 472.1,-649.54 475.89,-655.42"/>
<text text-anchor="middle" x="474" y="-667.8" font-family="Arial" font-size="9.00">Collection</text>
</g>
<!-- H -->
<g id="node8" class="node">
<title>H</title>
<path fill="#f8fafc" stroke="#334155" d="M722.5,-647C722.5,-647 609.5,-647 609.5,-647 603.5,-647 597.5,-641 597.5,-635 597.5,-635 597.5,-623 597.5,-623 597.5,-617 603.5,-611 609.5,-611 609.5,-611 722.5,-611 722.5,-611 728.5,-611 734.5,-617 734.5,-623 734.5,-623 734.5,-635 734.5,-635 734.5,-641 728.5,-647 722.5,-647"/>
<text text-anchor="middle" x="666" y="-626.5" font-family="Arial" font-size="10.00">Select student + date range</text>
</g>
<!-- B&#45;&gt;H -->
<g id="edge7" class="edge">
<title>B&#45;&gt;H</title>
<path fill="none" stroke="#475569" d="M397.14,-702.23C423.69,-695.15 463.99,-684.39 499,-675 529.88,-666.72 563.95,-657.54 593.23,-649.64"/>
<polygon fill="#475569" stroke="#475569" points="594.22,-653 602.96,-647.02 592.4,-646.24 594.22,-653"/>
<text text-anchor="middle" x="573" y="-667.8" font-family="Arial" font-size="9.00">Student Statement</text>
</g>
<!-- I -->
<g id="node9" class="node">
<title>I</title>
<path fill="#f8fafc" stroke="#334155" d="M807,-647C807,-647 765,-647 765,-647 759,-647 753,-641 753,-635 753,-635 753,-623 753,-623 753,-617 759,-611 765,-611 765,-611 807,-611 807,-611 813,-611 819,-617 819,-623 819,-623 819,-635 819,-635 819,-641 813,-647 807,-647"/>
<text text-anchor="middle" x="786" y="-626.5" font-family="Arial" font-size="10.00">Select date</text>
</g>
<!-- B&#45;&gt;I -->
<g id="edge8" class="edge">
<title>B&#45;&gt;I</title>
<path fill="none" stroke="#475569" d="M410.86,-706.56C479.77,-700.22 619.2,-684.08 743.07,-647.01"/>
<polygon fill="#475569" stroke="#475569" points="744.17,-650.33 752.72,-644.07 742.13,-643.64 744.17,-650.33"/>
<text text-anchor="middle" x="696" y="-667.8" font-family="Arial" font-size="9.00">Cash Book</text>
</g>
<!-- J -->
<g id="node10" class="node">
<title>J</title>
<path fill="#f8fafc" stroke="#334155" d="M357.22,-568.72C357.22,-568.72 342.02,-561.28 342.02,-561.28 336.63,-558.64 336.63,-553.36 342.02,-550.72 342.02,-550.72 357.22,-543.28 357.22,-543.28 362.61,-540.64 373.39,-540.64 378.78,-543.28 378.78,-543.28 393.98,-550.72 393.98,-550.72 399.37,-553.36 399.37,-558.64 393.98,-561.28 393.98,-561.28 378.78,-568.72 378.78,-568.72 373.39,-571.36 362.61,-571.36 357.22,-568.72"/>
<text text-anchor="middle" x="368" y="-553.5" font-family="Arial" font-size="10.00">Scope</text>
</g>
<!-- C&#45;&gt;J -->
<g id="edge9" class="edge">
<title>C&#45;&gt;J</title>
<path fill="none" stroke="#475569" d="M66.26,-613.83C69.19,-612.8 72.13,-611.84 75,-611 164.53,-584.92 273.27,-568.79 329.76,-561.53"/>
<polygon fill="#475569" stroke="#475569" points="330.2,-565.01 339.68,-560.28 329.32,-558.06 330.2,-565.01"/>
</g>
<!-- D&#45;&gt;J -->
<g id="edge10" class="edge">
<title>D&#45;&gt;J</title>
<path fill="none" stroke="#475569" d="M180.04,-613.55C226.78,-599.48 296.44,-578.53 336.53,-566.47"/>
<polygon fill="#475569" stroke="#475569" points="337.72,-569.77 346.29,-563.53 335.7,-563.06 337.72,-569.77"/>
</g>
<!-- E&#45;&gt;J -->
<g id="edge11" class="edge">
<title>E&#45;&gt;J</title>
<path fill="none" stroke="#475569" d="M277.5,-610.99C297.59,-599.01 324.23,-583.12 343.39,-571.68"/>
<polygon fill="#475569" stroke="#475569" points="345.34,-574.59 352.14,-566.46 341.76,-568.58 345.34,-574.59"/>
</g>
<!-- F&#45;&gt;J -->
<g id="edge12" class="edge">
<title>F&#45;&gt;J</title>
<path fill="none" stroke="#475569" d="M368,-610.81C368,-602.79 368,-593.05 368,-584.07"/>
<polygon fill="#475569" stroke="#475569" points="371.5,-584.03 368,-574.03 364.5,-584.03 371.5,-584.03"/>
</g>
<!-- G&#45;&gt;J -->
<g id="edge13" class="edge">
<title>G&#45;&gt;J</title>
<path fill="none" stroke="#475569" d="M474.47,-610.99C449.83,-598.5 416.84,-581.77 394.15,-570.26"/>
<polygon fill="#475569" stroke="#475569" points="395.61,-567.08 385.11,-565.68 392.44,-573.32 395.61,-567.08"/>
</g>
<!-- H&#45;&gt;J -->
<g id="edge14" class="edge">
<title>H&#45;&gt;J</title>
<path fill="none" stroke="#475569" d="M597.26,-611.62C535.89,-597 448.64,-576.21 401.44,-564.97"/>
<polygon fill="#475569" stroke="#475569" points="401.98,-561.5 391.45,-562.59 400.36,-568.31 401.98,-561.5"/>
</g>
<!-- I&#45;&gt;J -->
<g id="edge15" class="edge">
<title>I&#45;&gt;J</title>
<path fill="none" stroke="#475569" d="M752.78,-613.71C749.84,-612.7 746.89,-611.78 744,-611 625,-578.88 479.34,-564.88 409.38,-559.66"/>
<polygon fill="#475569" stroke="#475569" points="409.44,-556.15 399.22,-558.92 408.94,-563.14 409.44,-556.15"/>
</g>
<!-- K -->
<g id="node11" class="node">
<title>K</title>
<path fill="#f8fafc" stroke="#334155" d="M354,-492C354,-492 256,-492 256,-492 250,-492 244,-486 244,-480 244,-480 244,-468 244,-468 244,-462 250,-456 256,-456 256,-456 354,-456 354,-456 360,-456 366,-462 366,-468 366,-468 366,-480 366,-480 366,-486 360,-492 354,-492"/>
<text text-anchor="middle" x="305" y="-471.5" font-family="Arial" font-size="10.00">withoutGlobalScope unit</text>
</g>
<!-- J&#45;&gt;K -->
<g id="edge16" class="edge">
<title>J&#45;&gt;K</title>
<path fill="none" stroke="#475569" d="M355.2,-544.06C347.93,-537.5 338.93,-528.75 332,-520 327.44,-514.24 323.07,-507.65 319.23,-501.31"/>
<polygon fill="#475569" stroke="#475569" points="322.07,-499.23 314.02,-492.35 316.02,-502.75 322.07,-499.23"/>
<text text-anchor="middle" x="366.5" y="-512.8" font-family="Arial" font-size="9.00">super_admin: all</text>
</g>
<!-- L -->
<g id="node12" class="node">
<title>L</title>
<path fill="#f8fafc" stroke="#334155" d="M468,-492C468,-492 396,-492 396,-492 390,-492 384,-486 384,-480 384,-480 384,-468 384,-468 384,-462 390,-456 396,-456 396,-456 468,-456 468,-456 474,-456 480,-462 480,-468 480,-468 480,-480 480,-480 480,-486 474,-492 468,-492"/>
<text text-anchor="middle" x="432" y="-471.5" font-family="Arial" font-size="10.00">Unit&#45;scoped query</text>
</g>
<!-- J&#45;&gt;L -->
<g id="edge17" class="edge">
<title>J&#45;&gt;L</title>
<path fill="none" stroke="#475569" d="M379.77,-543.42C386.29,-536.79 394.39,-528.18 401,-520 405.92,-513.91 410.89,-507.07 415.36,-500.6"/>
<polygon fill="#475569" stroke="#475569" points="418.4,-502.35 421.11,-492.11 412.6,-498.43 418.4,-502.35"/>
<text text-anchor="middle" x="433" y="-512.8" font-family="Arial" font-size="9.00">default: unit</text>
</g>
<!-- M -->
<g id="node13" class="node">
<title>M</title>
<path fill="#f8fafc" stroke="#334155" d="M388.5,-419C388.5,-419 347.5,-419 347.5,-419 341.5,-419 335.5,-413 335.5,-407 335.5,-407 335.5,-395 335.5,-395 335.5,-389 341.5,-383 347.5,-383 347.5,-383 388.5,-383 388.5,-383 394.5,-383 400.5,-389 400.5,-395 400.5,-395 400.5,-407 400.5,-407 400.5,-413 394.5,-419 388.5,-419"/>
<text text-anchor="middle" x="368" y="-398.5" font-family="Arial" font-size="10.00">Build query</text>
</g>
<!-- K&#45;&gt;M -->
<g id="edge18" class="edge">
<title>K&#45;&gt;M</title>
<path fill="none" stroke="#475569" d="M320.25,-455.81C327.99,-447.09 337.53,-436.34 346.04,-426.75"/>
<polygon fill="#475569" stroke="#475569" points="348.87,-428.83 352.89,-419.03 343.63,-424.19 348.87,-428.83"/>
</g>
<!-- L&#45;&gt;M -->
<g id="edge19" class="edge">
<title>L&#45;&gt;M</title>
<path fill="none" stroke="#475569" d="M416.51,-455.81C408.57,-447 398.76,-436.13 390.05,-426.46"/>
<polygon fill="#475569" stroke="#475569" points="392.65,-424.11 383.35,-419.03 387.45,-428.8 392.65,-424.11"/>
</g>
<!-- N -->
<g id="node14" class="node">
<title>N</title>
<path fill="#f8fafc" stroke="#334155" d="M265.5,-346C265.5,-346 148.5,-346 148.5,-346 142.5,-346 136.5,-340 136.5,-334 136.5,-334 136.5,-322 136.5,-322 136.5,-316 142.5,-310 148.5,-310 148.5,-310 265.5,-310 265.5,-310 271.5,-310 277.5,-316 277.5,-322 277.5,-322 277.5,-334 277.5,-334 277.5,-340 271.5,-346 265.5,-346"/>
<text text-anchor="middle" x="207" y="-325.5" font-family="Arial" font-size="10.00">Settlements: completed only</text>
</g>
<!-- M&#45;&gt;N -->
<g id="edge20" class="edge">
<title>M&#45;&gt;N</title>
<path fill="none" stroke="#475569" d="M335.42,-385.63C312.34,-375.46 281,-361.64 255.06,-350.2"/>
<polygon fill="#475569" stroke="#475569" points="256.34,-346.93 245.77,-346.1 253.51,-353.34 256.34,-346.93"/>
</g>
<!-- O -->
<g id="node15" class="node">
<title>O</title>
<path fill="#f8fafc" stroke="#334155" d="M428.5,-346C428.5,-346 307.5,-346 307.5,-346 301.5,-346 295.5,-340 295.5,-334 295.5,-334 295.5,-322 295.5,-322 295.5,-316 301.5,-310 307.5,-310 307.5,-310 428.5,-310 428.5,-310 434.5,-310 440.5,-316 440.5,-322 440.5,-322 440.5,-334 440.5,-334 440.5,-340 434.5,-346 428.5,-346"/>
<text text-anchor="middle" x="368" y="-325.5" font-family="Arial" font-size="10.00">Transactions: completed only</text>
</g>
<!-- M&#45;&gt;O -->
<g id="edge21" class="edge">
<title>M&#45;&gt;O</title>
<path fill="none" stroke="#475569" d="M368,-382.81C368,-374.79 368,-365.05 368,-356.07"/>
<polygon fill="#475569" stroke="#475569" points="371.5,-356.03 368,-346.03 364.5,-356.03 371.5,-356.03"/>
</g>
<!-- P -->
<g id="node16" class="node">
<title>P</title>
<path fill="#f8fafc" stroke="#334155" d="M605.5,-346C605.5,-346 470.5,-346 470.5,-346 464.5,-346 458.5,-340 458.5,-334 458.5,-334 458.5,-322 458.5,-322 458.5,-316 464.5,-310 470.5,-310 470.5,-310 605.5,-310 605.5,-310 611.5,-310 617.5,-316 617.5,-322 617.5,-322 617.5,-334 617.5,-334 617.5,-340 611.5,-346 605.5,-346"/>
<text text-anchor="middle" x="538" y="-325.5" font-family="Arial" font-size="10.00">Invoices: outstanding calculation</text>
</g>
<!-- M&#45;&gt;P -->
<g id="edge22" class="edge">
<title>M&#45;&gt;P</title>
<path fill="none" stroke="#475569" d="M400.78,-386.31C425.48,-375.99 459.8,-361.66 487.93,-349.91"/>
<polygon fill="#475569" stroke="#475569" points="489.33,-353.12 497.21,-346.03 486.64,-346.66 489.33,-353.12"/>
</g>
<!-- Q -->
<g id="node17" class="node">
<title>Q</title>
<path fill="#f8fafc" stroke="#334155" d="M414.5,-273C414.5,-273 321.5,-273 321.5,-273 315.5,-273 309.5,-267 309.5,-261 309.5,-261 309.5,-249 309.5,-249 309.5,-243 315.5,-237 321.5,-237 321.5,-237 414.5,-237 414.5,-237 420.5,-237 426.5,-243 426.5,-249 426.5,-249 426.5,-261 426.5,-261 426.5,-267 420.5,-273 414.5,-273"/>
<text text-anchor="middle" x="368" y="-252.5" font-family="Arial" font-size="10.00">Combine &amp; sort results</text>
</g>
<!-- N&#45;&gt;Q -->
<g id="edge23" class="edge">
<title>N&#45;&gt;Q</title>
<path fill="none" stroke="#475569" d="M245.56,-309.99C267.9,-300.14 296.22,-287.66 319.99,-277.17"/>
<polygon fill="#475569" stroke="#475569" points="321.46,-280.35 329.19,-273.11 318.63,-273.95 321.46,-280.35"/>
</g>
<!-- O&#45;&gt;Q -->
<g id="edge24" class="edge">
<title>O&#45;&gt;Q</title>
<path fill="none" stroke="#475569" d="M368,-309.81C368,-301.79 368,-292.05 368,-283.07"/>
<polygon fill="#475569" stroke="#475569" points="371.5,-283.03 368,-273.03 364.5,-283.03 371.5,-283.03"/>
</g>
<!-- P&#45;&gt;Q -->
<g id="edge25" class="edge">
<title>P&#45;&gt;Q</title>
<path fill="none" stroke="#475569" d="M497.28,-309.99C473.59,-300.1 443.53,-287.54 418.36,-277.03"/>
<polygon fill="#475569" stroke="#475569" points="419.55,-273.74 408.98,-273.11 416.85,-280.2 419.55,-273.74"/>
</g>
<!-- R -->
<g id="node18" class="node">
<title>R</title>
<path fill="#f8fafc" stroke="#334155" d="M357.15,-194.87C357.15,-194.87 340.76,-187.13 340.76,-187.13 335.33,-184.56 335.33,-179.44 340.76,-176.87 340.76,-176.87 357.15,-169.13 357.15,-169.13 362.58,-166.56 373.42,-166.56 378.85,-169.13 378.85,-169.13 395.24,-176.87 395.24,-176.87 400.67,-179.44 400.67,-184.56 395.24,-187.13 395.24,-187.13 378.85,-194.87 378.85,-194.87 373.42,-197.44 362.58,-197.44 357.15,-194.87"/>
<text text-anchor="middle" x="368" y="-179.5" font-family="Arial" font-size="10.00">Output</text>
</g>
<!-- Q&#45;&gt;R -->
<g id="edge26" class="edge">
<title>Q&#45;&gt;R</title>
<path fill="none" stroke="#475569" d="M368,-236.81C368,-228.79 368,-219.05 368,-210.07"/>
<polygon fill="#475569" stroke="#475569" points="371.5,-210.03 368,-200.03 364.5,-210.03 371.5,-210.03"/>
</g>
<!-- S -->
<g id="node19" class="node">
<title>S</title>
<path fill="#f8fafc" stroke="#334155" d="M419,-118C419,-118 273,-118 273,-118 267,-118 261,-112 261,-106 261,-106 261,-94 261,-94 261,-88 267,-82 273,-82 273,-82 419,-82 419,-82 425,-82 431,-88 431,-94 431,-94 431,-106 431,-106 431,-112 425,-118 419,-118"/>
<text text-anchor="middle" x="346" y="-97.5" font-family="Arial" font-size="10.00">Render HTML table with pagination</text>
</g>
<!-- R&#45;&gt;S -->
<g id="edge27" class="edge">
<title>R&#45;&gt;S</title>
<path fill="none" stroke="#475569" d="M363.86,-165.95C360.92,-155.24 356.88,-140.55 353.38,-127.85"/>
<polygon fill="#475569" stroke="#475569" points="356.76,-126.92 350.73,-118.2 350.01,-128.77 356.76,-126.92"/>
<text text-anchor="middle" x="369.5" y="-138.8" font-family="Arial" font-size="9.00">View</text>
</g>
<!-- T -->
<g id="node20" class="node">
<title>T</title>
<path fill="#f8fafc" stroke="#334155" d="M477.09,-113C477.09,-113 459.65,-105 459.65,-105 454.2,-102.5 454.2,-97.5 459.65,-95 459.65,-95 477.09,-87 477.09,-87 482.55,-84.5 493.45,-84.5 498.91,-87 498.91,-87 516.35,-95 516.35,-95 521.8,-97.5 521.8,-102.5 516.35,-105 516.35,-105 498.91,-113 498.91,-113 493.45,-115.5 482.55,-115.5 477.09,-113"/>
<text text-anchor="middle" x="488" y="-97.5" font-family="Arial" font-size="10.00">Format</text>
</g>
<!-- R&#45;&gt;T -->
<g id="edge28" class="edge">
<title>R&#45;&gt;T</title>
<path fill="none" stroke="#475569" d="M383.2,-170.87C403.55,-157.3 439.89,-133.07 463.98,-117.02"/>
<polygon fill="#475569" stroke="#475569" points="466.17,-119.76 472.55,-111.3 462.28,-113.94 466.17,-119.76"/>
<text text-anchor="middle" x="449.5" y="-138.8" font-family="Arial" font-size="9.00">Export</text>
</g>
<!-- U -->
<g id="node21" class="node">
<title>U</title>
<path fill="#f8fafc" stroke="#334155" d="M497,-36C497,-36 319,-36 319,-36 313,-36 307,-30 307,-24 307,-24 307,-12 307,-12 307,-6 313,0 319,0 319,0 497,0 497,0 503,0 509,-6 509,-12 509,-12 509,-24 509,-24 509,-30 503,-36 497,-36"/>
<text text-anchor="middle" x="408" y="-15.5" font-family="Arial" font-size="10.00">ReportRowsExport with accounting format</text>
</g>
<!-- T&#45;&gt;U -->
<g id="edge29" class="edge">
<title>T&#45;&gt;U</title>
<path fill="none" stroke="#475569" d="M476.2,-87.2C464.72,-75.72 446.95,-57.95 432.43,-43.43"/>
<polygon fill="#475569" stroke="#475569" points="434.72,-40.77 425.18,-36.18 429.77,-45.72 434.72,-40.77"/>
<text text-anchor="middle" x="465" y="-56.8" font-family="Arial" font-size="9.00">XLSX</text>
</g>
<!-- V -->
<g id="node22" class="node">
<title>V</title>
<path fill="#f8fafc" stroke="#334155" d="M597,-36C597,-36 539,-36 539,-36 533,-36 527,-30 527,-24 527,-24 527,-12 527,-12 527,-6 533,0 539,0 539,0 597,0 597,0 603,0 609,-6 609,-12 609,-12 609,-24 609,-24 609,-30 603,-36 597,-36"/>
<text text-anchor="middle" x="568" y="-15.5" font-family="Arial" font-size="10.00">CSV download</text>
</g>
<!-- T&#45;&gt;V -->
<g id="edge30" class="edge">
<title>T&#45;&gt;V</title>
<path fill="none" stroke="#475569" d="M499.8,-87.2C511.28,-75.72 529.05,-57.95 543.57,-43.43"/>
<polygon fill="#475569" stroke="#475569" points="546.23,-45.72 550.82,-36.18 541.28,-40.77 546.23,-45.72"/>
<text text-anchor="middle" x="541.5" y="-56.8" font-family="Arial" font-size="9.00">CSV</text>
</g>
</g>
</svg>
