<?xml version="1.0" encoding="UTF-8" standalone="no"?>
<!DOCTYPE svg PUBLIC "-//W3C//DTD SVG 1.1//EN"
 "http://www.w3.org/Graphics/SVG/1.1/DTD/svg11.dtd">
<!-- Generated by graphviz version 2.43.0 (0)
 -->
<!-- Title: G Pages: 1 -->
<svg width="823pt" height="422pt"
 viewBox="0.00 0.00 823.00 422.00" xmlns="http://www.w3.org/2000/svg" xmlns:xlink="http://www.w3.org/1999/xlink">
<g id="graph0" class="graph" transform="scale(1 1) rotate(0) translate(4 418)">
<title>G</title>
<polygon fill="white" stroke="transparent" points="-4,4 -4,-418 819,-418 819,4 -4,4"/>
<text text-anchor="middle" x="407.5" y="-397.2" font-family="Arial" font-size="16.00">OPERATIONAL_HANDBOOK_ID.md &#45; diagram 1</text>
<g id="clust1" class="cluster">
<title>cluster_Yayasan</title>
<path fill="white" stroke="#cbd5e1" d="M520,-302C520,-302 666,-302 666,-302 672,-302 678,-308 678,-314 678,-314 678,-368 678,-368 678,-374 672,-380 666,-380 666,-380 520,-380 520,-380 514,-380 508,-374 508,-368 508,-368 508,-314 508,-314 508,-308 514,-302 520,-302"/>
<text text-anchor="middle" x="593" y="-363.2" font-family="Arial" font-size="16.00">Yayasan</text>
</g>
<g id="clust2" class="cluster">
<title>cluster_Unit</title>
<path fill="white" stroke="#cbd5e1" d="M20,-302C20,-302 214,-302 214,-302 220,-302 226,-308 226,-314 226,-314 226,-368 226,-368 226,-374 220,-380 214,-380 214,-380 20,-380 20,-380 14,-380 8,-374 8,-368 8,-368 8,-314 8,-314 8,-308 14,-302 20,-302"/>
<text text-anchor="middle" x="117" y="-363.2" font-family="Arial" font-size="16.00">Unit Sekolah</text>
</g>
<g id="clust3" class="cluster">
<title>cluster_Modul</title>
<path fill="white" stroke="#cbd5e1" d="M158,-8C158,-8 531,-8 531,-8 537,-8 543,-14 543,-20 543,-20 543,-262 543,-262 543,-268 537,-274 531,-274 531,-274 158,-274 158,-274 152,-274 146,-268 146,-262 146,-262 146,-20 146,-20 146,-14 152,-8 158,-8"/>
<text text-anchor="middle" x="344.5" y="-257.2" font-family="Arial" font-size="16.00">Modul Utama</text>
</g>
<g id="clust4" class="cluster">
<title>cluster_Data</title>
<path fill="white" stroke="#cbd5e1" d="M563,-8C563,-8 795,-8 795,-8 801,-8 807,-14 807,-20 807,-20 807,-74 807,-74 807,-80 801,-86 795,-86 795,-86 563,-86 563,-86 557,-86 551,-80 551,-74 551,-74 551,-20 551,-20 551,-14 557,-8 563,-8"/>
<text text-anchor="middle" x="679" y="-69.2" font-family="Arial" font-size="16.00">Catatan Keuangan</text>
</g>
<!-- BND -->
<g id="node1" class="node">
<title>BND</title>
<path fill="#f8fafc" stroke="#334155" d="M567.5,-346C567.5,-346 528.5,-346 528.5,-346 522.5,-346 516.5,-340 516.5,-334 516.5,-334 516.5,-322 516.5,-322 516.5,-316 522.5,-310 528.5,-310 528.5,-310 567.5,-310 567.5,-310 573.5,-310 579.5,-316 579.5,-322 579.5,-322 579.5,-334 579.5,-334 579.5,-340 573.5,-346 567.5,-346"/>
<text text-anchor="middle" x="548" y="-325.5" font-family="Arial" font-size="10.00">Bendahara</text>
</g>
<!-- BNK -->
<g id="node7" class="node">
<title>BNK</title>
<path fill="#f8fafc" stroke="#334155" d="M442.5,-240C442.5,-240 371.5,-240 371.5,-240 365.5,-240 359.5,-234 359.5,-228 359.5,-228 359.5,-216 359.5,-216 359.5,-210 365.5,-204 371.5,-204 371.5,-204 442.5,-204 442.5,-204 448.5,-204 454.5,-210 454.5,-216 454.5,-216 454.5,-228 454.5,-228 454.5,-234 448.5,-240 442.5,-240"/>
<text text-anchor="middle" x="407" y="-219.5" font-family="Arial" font-size="10.00">Rekonsiliasi Bank</text>
</g>
<!-- BND&#45;&gt;BNK -->
<g id="edge6" class="edge">
<title>BND&#45;&gt;BNK</title>
<path fill="none" stroke="#475569" d="M516.18,-317.84C499.62,-312.1 479.61,-303.57 464,-292 447.97,-280.13 433.69,-262.81 423.43,-248.5"/>
<polygon fill="#475569" stroke="#475569" points="426.15,-246.28 417.58,-240.05 420.39,-250.27 426.15,-246.28"/>
<text text-anchor="middle" x="488" y="-284.8" font-family="Arial" font-size="9.00">mengawasi</text>
</g>
<!-- EXP -->
<g id="node8" class="node">
<title>EXP</title>
<path fill="#f8fafc" stroke="#334155" d="M329.5,-240C329.5,-240 282.5,-240 282.5,-240 276.5,-240 270.5,-234 270.5,-228 270.5,-228 270.5,-216 270.5,-216 270.5,-210 276.5,-204 282.5,-204 282.5,-204 329.5,-204 329.5,-204 335.5,-204 341.5,-210 341.5,-216 341.5,-216 341.5,-228 341.5,-228 341.5,-234 335.5,-240 329.5,-240"/>
<text text-anchor="middle" x="306" y="-219.5" font-family="Arial" font-size="10.00">Pengeluaran</text>
</g>
<!-- BND&#45;&gt;EXP -->
<g id="edge5" class="edge">
<title>BND&#45;&gt;EXP</title>
<path fill="none" stroke="#475569" d="M516.32,-324.91C475.01,-320.84 402.01,-308.89 351,-274 340.85,-267.06 331.51,-257.33 324.01,-248.22"/>
<polygon fill="#475569" stroke="#475569" points="326.59,-245.84 317.66,-240.14 321.08,-250.16 326.59,-245.84"/>
<text text-anchor="middle" x="403" y="-284.8" font-family="Arial" font-size="9.00">mengawasi</text>
</g>
<!-- INV -->
<g id="node9" class="node">
<title>INV</title>
<path fill="#f8fafc" stroke="#334155" d="M523,-240C523,-240 485,-240 485,-240 479,-240 473,-234 473,-228 473,-228 473,-216 473,-216 473,-210 479,-204 485,-204 485,-204 523,-204 523,-204 529,-204 535,-210 535,-216 535,-216 535,-228 535,-228 535,-234 529,-240 523,-240"/>
<text text-anchor="middle" x="504" y="-219.5" font-family="Arial" font-size="10.00">Penagihan</text>
</g>
<!-- BND&#45;&gt;INV -->
<g id="edge3" class="edge">
<title>BND&#45;&gt;INV</title>
<path fill="none" stroke="#475569" d="M531.8,-309.89C527.42,-304.5 523.05,-298.3 520,-292 513.65,-278.9 509.75,-263.17 507.4,-250.03"/>
<polygon fill="#475569" stroke="#475569" points="510.85,-249.48 505.82,-240.16 503.94,-250.58 510.85,-249.48"/>
<text text-anchor="middle" x="544" y="-284.8" font-family="Arial" font-size="9.00">mengawasi</text>
</g>
<!-- STL -->
<g id="node12" class="node">
<title>STL</title>
<path fill="#f8fafc" stroke="#334155" d="M516.5,-158C516.5,-158 469.5,-158 469.5,-158 463.5,-158 457.5,-152 457.5,-146 457.5,-146 457.5,-134 457.5,-134 457.5,-128 463.5,-122 469.5,-122 469.5,-122 516.5,-122 516.5,-122 522.5,-122 528.5,-128 528.5,-134 528.5,-134 528.5,-146 528.5,-146 528.5,-152 522.5,-158 516.5,-158"/>
<text text-anchor="middle" x="493" y="-137.5" font-family="Arial" font-size="10.00">Pembayaran</text>
</g>
<!-- BND&#45;&gt;STL -->
<g id="edge4" class="edge">
<title>BND&#45;&gt;STL</title>
<path fill="none" stroke="#475569" d="M560.07,-309.97C563.3,-304.49 566.35,-298.22 568,-292 572.94,-273.38 585.99,-233.52 547,-176 544.1,-171.72 540.48,-167.84 536.49,-164.36"/>
<polygon fill="#475569" stroke="#475569" points="538.53,-161.51 528.48,-158.15 534.25,-167.04 538.53,-161.51"/>
<text text-anchor="middle" x="598" y="-219.8" font-family="Arial" font-size="9.00">mengawasi</text>
</g>
<!-- SA -->
<g id="node2" class="node">
<title>SA</title>
<path fill="#f8fafc" stroke="#334155" d="M658,-346C658,-346 610,-346 610,-346 604,-346 598,-340 598,-334 598,-334 598,-322 598,-322 598,-316 604,-310 610,-310 610,-310 658,-310 658,-310 664,-310 670,-316 670,-322 670,-322 670,-334 670,-334 670,-340 664,-346 658,-346"/>
<text text-anchor="middle" x="634" y="-325.5" font-family="Arial" font-size="10.00">Super Admin</text>
</g>
<!-- Modul -->
<g id="node17" class="node">
<title>Modul</title>
<path fill="#f8fafc" stroke="#334155" d="M778,-158C778,-158 748,-158 748,-158 742,-158 736,-152 736,-146 736,-146 736,-134 736,-134 736,-128 742,-122 748,-122 748,-122 778,-122 778,-122 784,-122 790,-128 790,-134 790,-134 790,-146 790,-146 790,-152 784,-158 778,-158"/>
<text text-anchor="middle" x="763" y="-137.5" font-family="Arial" font-size="10.00">Modul</text>
</g>
<!-- SA&#45;&gt;Modul -->
<g id="edge2" class="edge">
<title>SA&#45;&gt;Modul</title>
<path fill="none" stroke="#475569" d="M670.05,-310.91C679.7,-305.67 689.74,-299.29 698,-292 734.89,-259.46 751.57,-202.29 758.53,-168.41"/>
<polygon fill="#475569" stroke="#475569" points="762.03,-168.76 760.46,-158.29 755.15,-167.45 762.03,-168.76"/>
<text text-anchor="middle" x="781" y="-219.8" font-family="Arial" font-size="9.00">mengonfigurasi</text>
</g>
<!-- Unit -->
<g id="node18" class="node">
<title>Unit</title>
<path fill="#f8fafc" stroke="#334155" d="M690,-240C690,-240 660,-240 660,-240 654,-240 648,-234 648,-228 648,-228 648,-216 648,-216 648,-210 654,-204 660,-204 660,-204 690,-204 690,-204 696,-204 702,-210 702,-216 702,-216 702,-228 702,-228 702,-234 696,-240 690,-240"/>
<text text-anchor="middle" x="675" y="-219.5" font-family="Arial" font-size="10.00">Unit</text>
</g>
<!-- SA&#45;&gt;Unit -->
<g id="edge1" class="edge">
<title>SA&#45;&gt;Unit</title>
<path fill="none" stroke="#475569" d="M640.77,-309.83C647.21,-293.49 656.99,-268.67 664.45,-249.75"/>
<polygon fill="#475569" stroke="#475569" points="667.81,-250.79 668.22,-240.2 661.3,-248.22 667.81,-250.79"/>
<text text-anchor="middle" x="672" y="-284.8" font-family="Arial" font-size="9.00">mengelola</text>
</g>
<!-- DTA -->
<g id="node3" class="node">
<title>DTA</title>
<path fill="#f8fafc" stroke="#334155" d="M205.5,-346C205.5,-346 172.5,-346 172.5,-346 166.5,-346 160.5,-340 160.5,-334 160.5,-334 160.5,-322 160.5,-322 160.5,-316 166.5,-310 172.5,-310 172.5,-310 205.5,-310 205.5,-310 211.5,-310 217.5,-316 217.5,-322 217.5,-322 217.5,-334 217.5,-334 217.5,-340 211.5,-346 205.5,-346"/>
<text text-anchor="middle" x="189" y="-325.5" font-family="Arial" font-size="10.00">Unit DTA</text>
</g>
<!-- ADM -->
<g id="node6" class="node">
<title>ADM</title>
<path fill="#f8fafc" stroke="#334155" d="M240,-240C240,-240 166,-240 166,-240 160,-240 154,-234 154,-228 154,-228 154,-216 154,-216 154,-210 160,-204 166,-204 166,-204 240,-204 240,-204 246,-204 252,-210 252,-216 252,-216 252,-228 252,-228 252,-234 246,-240 240,-240"/>
<text text-anchor="middle" x="203" y="-219.5" font-family="Arial" font-size="10.00">Penerimaan / PSB</text>
</g>
<!-- DTA&#45;&gt;ADM -->
<g id="edge11" class="edge">
<title>DTA&#45;&gt;ADM</title>
<path fill="none" stroke="#475569" d="M191.31,-309.83C193.49,-293.64 196.79,-269.13 199.33,-250.27"/>
<polygon fill="#475569" stroke="#475569" points="202.82,-250.58 200.68,-240.2 195.88,-249.64 202.82,-250.58"/>
</g>
<!-- MST -->
<g id="node10" class="node">
<title>MST</title>
<path fill="#f8fafc" stroke="#334155" d="M213.5,-158C213.5,-158 166.5,-158 166.5,-158 160.5,-158 154.5,-152 154.5,-146 154.5,-146 154.5,-134 154.5,-134 154.5,-128 160.5,-122 166.5,-122 166.5,-122 213.5,-122 213.5,-122 219.5,-122 225.5,-128 225.5,-134 225.5,-134 225.5,-146 225.5,-146 225.5,-152 219.5,-158 213.5,-158"/>
<text text-anchor="middle" x="190" y="-137.5" font-family="Arial" font-size="10.00">Data Master</text>
</g>
<!-- DTA&#45;&gt;MST -->
<g id="edge12" class="edge">
<title>DTA&#45;&gt;MST</title>
<path fill="none" stroke="#475569" d="M169.53,-309.92C160.18,-300.4 149.95,-287.72 145,-274 134.44,-244.74 135.51,-233.63 145,-204 149.45,-190.13 158.19,-176.71 166.8,-165.85"/>
<polygon fill="#475569" stroke="#475569" points="169.57,-168 173.28,-158.08 164.19,-163.51 169.57,-168"/>
</g>
<!-- MI -->
<g id="node4" class="node">
<title>MI</title>
<path fill="#f8fafc" stroke="#334155" d="M58,-346C58,-346 28,-346 28,-346 22,-346 16,-340 16,-334 16,-334 16,-322 16,-322 16,-316 22,-310 28,-310 28,-310 58,-310 58,-310 64,-310 70,-316 70,-322 70,-322 70,-334 70,-334 70,-340 64,-346 58,-346"/>
<text text-anchor="middle" x="43" y="-325.5" font-family="Arial" font-size="10.00">Unit MI</text>
</g>
<!-- MI&#45;&gt;ADM -->
<g id="edge7" class="edge">
<title>MI&#45;&gt;ADM</title>
<path fill="none" stroke="#475569" d="M67.31,-309.92C71.2,-307.25 75.2,-304.53 79,-302 108.15,-282.61 141.66,-261.32 166.49,-245.73"/>
<polygon fill="#475569" stroke="#475569" points="168.6,-248.53 175.22,-240.26 164.88,-242.6 168.6,-248.53"/>
</g>
<!-- MI&#45;&gt;MST -->
<g id="edge8" class="edge">
<title>MI&#45;&gt;MST</title>
<path fill="none" stroke="#475569" d="M49.83,-309.9C62.75,-279.43 93.41,-215.27 137,-176 141.73,-171.74 147.02,-167.62 152.39,-163.79"/>
<polygon fill="#475569" stroke="#475569" points="154.51,-166.58 160.8,-158.04 150.57,-160.8 154.51,-166.58"/>
</g>
<!-- RA -->
<g id="node5" class="node">
<title>RA</title>
<path fill="#f8fafc" stroke="#334155" d="M130,-346C130,-346 100,-346 100,-346 94,-346 88,-340 88,-334 88,-334 88,-322 88,-322 88,-316 94,-310 100,-310 100,-310 130,-310 130,-310 136,-310 142,-316 142,-322 142,-322 142,-334 142,-334 142,-340 136,-346 130,-346"/>
<text text-anchor="middle" x="115" y="-325.5" font-family="Arial" font-size="10.00">Unit RA</text>
</g>
<!-- RA&#45;&gt;ADM -->
<g id="edge9" class="edge">
<title>RA&#45;&gt;ADM</title>
<path fill="none" stroke="#475569" d="M129.53,-309.83C143.8,-292.97 165.72,-267.06 181.9,-247.94"/>
<polygon fill="#475569" stroke="#475569" points="184.66,-250.09 188.45,-240.2 179.32,-245.57 184.66,-250.09"/>
</g>
<!-- RA&#45;&gt;MST -->
<g id="edge10" class="edge">
<title>RA&#45;&gt;MST</title>
<path fill="none" stroke="#475569" d="M115.51,-309.82C116.66,-285.59 120.47,-240.31 133,-204 137.67,-190.45 139.86,-187.04 149,-176 152.12,-172.23 155.67,-168.55 159.35,-165.06"/>
<polygon fill="#475569" stroke="#475569" points="161.87,-167.51 166.99,-158.24 157.2,-162.29 161.87,-167.51"/>
</g>
<!-- ADM&#45;&gt;MST -->
<g id="edge13" class="edge">
<title>ADM&#45;&gt;MST</title>
<path fill="none" stroke="#475569" d="M200.18,-203.64C198.5,-193.3 196.33,-179.94 194.42,-168.22"/>
<polygon fill="#475569" stroke="#475569" points="197.83,-167.36 192.77,-158.05 190.92,-168.48 197.83,-167.36"/>
<text text-anchor="middle" x="222" y="-178.8" font-family="Arial" font-size="9.00">pendaftaran</text>
</g>
<!-- TXN -->
<g id="node13" class="node">
<title>TXN</title>
<path fill="#f8fafc" stroke="#334155" d="M400.5,-158C400.5,-158 365.5,-158 365.5,-158 359.5,-158 353.5,-152 353.5,-146 353.5,-146 353.5,-134 353.5,-134 353.5,-128 359.5,-122 365.5,-122 365.5,-122 400.5,-122 400.5,-122 406.5,-122 412.5,-128 412.5,-134 412.5,-134 412.5,-146 412.5,-146 412.5,-152 406.5,-158 400.5,-158"/>
<text text-anchor="middle" x="383" y="-137.5" font-family="Arial" font-size="10.00">Transaksi</text>
</g>
<!-- BNK&#45;&gt;TXN -->
<g id="edge24" class="edge">
<title>BNK&#45;&gt;TXN</title>
<path fill="none" stroke="#475569" d="M392.98,-203.82C389.37,-198.43 385.95,-192.25 384,-186 382.26,-180.4 381.45,-174.22 381.18,-168.28"/>
<polygon fill="#475569" stroke="#475569" points="384.68,-168.03 381.19,-158.03 377.68,-168.02 384.68,-168.03"/>
<text text-anchor="middle" x="413" y="-178.8" font-family="Arial" font-size="9.00">mencocokkan</text>
</g>
<!-- RPT -->
<g id="node11" class="node">
<title>RPT</title>
<path fill="#f8fafc" stroke="#334155" d="M402,-52C402,-52 372,-52 372,-52 366,-52 360,-46 360,-40 360,-40 360,-28 360,-28 360,-22 366,-16 372,-16 372,-16 402,-16 402,-16 408,-16 414,-22 414,-28 414,-28 414,-40 414,-40 414,-46 408,-52 402,-52"/>
<text text-anchor="middle" x="387" y="-31.5" font-family="Arial" font-size="10.00">Laporan</text>
</g>
<!-- EXP&#45;&gt;RPT -->
<g id="edge23" class="edge">
<title>EXP&#45;&gt;RPT</title>
<path fill="none" stroke="#475569" d="M312.38,-203.67C319.8,-183.78 332.63,-150.26 345,-122 353.99,-101.45 365.05,-78.62 373.57,-61.51"/>
<polygon fill="#475569" stroke="#475569" points="376.9,-62.66 378.25,-52.16 370.64,-59.53 376.9,-62.66"/>
</g>
<!-- EXP&#45;&gt;TXN -->
<g id="edge19" class="edge">
<title>EXP&#45;&gt;TXN</title>
<path fill="none" stroke="#475569" d="M320.85,-203.59C328.25,-195.11 337.41,-184.86 346,-176 349.44,-172.46 353.13,-168.79 356.81,-165.23"/>
<polygon fill="#475569" stroke="#475569" points="359.43,-167.57 364.25,-158.14 354.6,-162.51 359.43,-167.57"/>
<text text-anchor="middle" x="361.5" y="-178.8" font-family="Arial" font-size="9.00">posting</text>
</g>
<!-- INV&#45;&gt;RPT -->
<g id="edge20" class="edge">
<title>INV&#45;&gt;RPT</title>
<path fill="none" stroke="#475569" d="M488.47,-203.91C477.26,-191.41 461.88,-173.91 449,-158 436.41,-142.46 436.53,-135.74 422,-122 411.52,-112.09 402.53,-116.3 395,-104 387.45,-91.66 385.22,-75.74 384.98,-62.3"/>
<polygon fill="#475569" stroke="#475569" points="388.48,-62.23 385.15,-52.17 381.48,-62.11 388.48,-62.23"/>
</g>
<!-- INV&#45;&gt;STL -->
<g id="edge16" class="edge">
<title>INV&#45;&gt;STL</title>
<path fill="none" stroke="#475569" d="M496.27,-203.9C494.12,-198.31 492.08,-192 491,-186 489.98,-180.32 489.71,-174.18 489.85,-168.32"/>
<polygon fill="#475569" stroke="#475569" points="493.35,-168.41 490.46,-158.21 486.36,-167.98 493.35,-168.41"/>
<text text-anchor="middle" x="517" y="-178.8" font-family="Arial" font-size="9.00">pembayaran</text>
</g>
<!-- OBL -->
<g id="node15" class="node">
<title>OBL</title>
<path fill="#f8fafc" stroke="#334155" d="M711,-52C711,-52 643,-52 643,-52 637,-52 631,-46 631,-40 631,-40 631,-28 631,-28 631,-22 637,-16 643,-16 643,-16 711,-16 711,-16 717,-16 723,-22 723,-28 723,-28 723,-40 723,-40 723,-46 717,-52 711,-52"/>
<text text-anchor="middle" x="677" y="-31.5" font-family="Arial" font-size="10.00">Kewajiban Siswa</text>
</g>
<!-- MST&#45;&gt;OBL -->
<g id="edge14" class="edge">
<title>MST&#45;&gt;OBL</title>
<path fill="none" stroke="#475569" d="M225.6,-134.96C299.21,-126.55 462.28,-107.67 474,-104 483.11,-101.15 483.81,-96.57 493,-94 520.66,-86.25 595.6,-97.31 622,-86 635.54,-80.2 647.86,-69.56 657.39,-59.5"/>
<polygon fill="#475569" stroke="#475569" points="660.04,-61.78 664.11,-52 654.82,-57.11 660.04,-61.78"/>
<text text-anchor="middle" x="526.5" y="-96.8" font-family="Arial" font-size="9.00">pemetaan biaya</text>
</g>
<!-- STL&#45;&gt;RPT -->
<g id="edge21" class="edge">
<title>STL&#45;&gt;RPT</title>
<path fill="none" stroke="#475569" d="M457.26,-127.07C433.48,-118.83 405.91,-108.56 402,-104 392.14,-92.51 388.31,-76.04 386.97,-62.08"/>
<polygon fill="#475569" stroke="#475569" points="390.46,-61.79 386.39,-52.01 383.48,-62.2 390.46,-61.79"/>
</g>
<!-- RCP -->
<g id="node16" class="node">
<title>RCP</title>
<path fill="#f8fafc" stroke="#334155" d="M601,-52C601,-52 571,-52 571,-52 565,-52 559,-46 559,-40 559,-40 559,-28 559,-28 559,-22 565,-16 571,-16 571,-16 601,-16 601,-16 607,-16 613,-22 613,-28 613,-28 613,-40 613,-40 613,-46 607,-52 601,-52"/>
<text text-anchor="middle" x="586" y="-31.5" font-family="Arial" font-size="10.00">Kuitansi</text>
</g>
<!-- STL&#45;&gt;RCP -->
<g id="edge17" class="edge">
<title>STL&#45;&gt;RCP</title>
<path fill="none" stroke="#475569" d="M528.51,-128.09C541.21,-122.64 554.68,-114.83 564,-104 574.07,-92.31 579.54,-75.97 582.51,-62.12"/>
<polygon fill="#475569" stroke="#475569" points="585.97,-62.61 584.32,-52.14 579.09,-61.36 585.97,-62.61"/>
<text text-anchor="middle" x="596" y="-96.8" font-family="Arial" font-size="9.00">menerbitkan</text>
</g>
<!-- TXN&#45;&gt;RPT -->
<g id="edge22" class="edge">
<title>TXN&#45;&gt;RPT</title>
<path fill="none" stroke="#475569" d="M383.66,-121.83C384.28,-105.64 385.23,-81.13 385.95,-62.27"/>
<polygon fill="#475569" stroke="#475569" points="389.45,-62.33 386.34,-52.2 382.46,-62.06 389.45,-62.33"/>
</g>
<!-- TXN&#45;&gt;RCP -->
<g id="edge18" class="edge">
<title>TXN&#45;&gt;RCP</title>
<path fill="none" stroke="#475569" d="M392.98,-121.82C399.79,-111.84 409.77,-100.06 422,-94 446.94,-81.64 522.45,-99.12 547,-86 557.54,-80.37 566.09,-70.51 572.47,-60.95"/>
<polygon fill="#475569" stroke="#475569" points="575.47,-62.75 577.71,-52.39 569.5,-59.09 575.47,-62.75"/>
<text text-anchor="middle" x="448" y="-96.8" font-family="Arial" font-size="9.00">menerbitkan</text>
</g>
<!-- AUD -->
<g id="node14" class="node">
<title>AUD</title>
<path fill="#f8fafc" stroke="#334155" d="M786.5,-52C786.5,-52 753.5,-52 753.5,-52 747.5,-52 741.5,-46 741.5,-40 741.5,-40 741.5,-28 741.5,-28 741.5,-22 747.5,-16 753.5,-16 753.5,-16 786.5,-16 786.5,-16 792.5,-16 798.5,-22 798.5,-28 798.5,-28 798.5,-40 798.5,-40 798.5,-46 792.5,-52 786.5,-52"/>
<text text-anchor="middle" x="770" y="-31.5" font-family="Arial" font-size="10.00">Log Audit</text>
</g>
<!-- OBL&#45;&gt;INV -->
<g id="edge15" class="edge">
<title>OBL&#45;&gt;INV</title>
<path fill="none" stroke="#475569" d="M665.54,-52.01C655.63,-66.33 640.63,-87.11 626,-104 592.04,-143.19 580.75,-150.45 543,-186 539.21,-189.57 535.16,-193.3 531.16,-196.93"/>
<polygon fill="#475569" stroke="#475569" points="528.69,-194.44 523.61,-203.73 533.38,-199.64 528.69,-194.44"/>
<text text-anchor="middle" x="638" y="-137.8" font-family="Arial" font-size="9.00">menghasilkan</text>
</g>
<!-- Modul&#45;&gt;AUD -->
<g id="edge25" class="edge">
<title>Modul&#45;&gt;AUD</title>
<path fill="none" stroke="#475569" d="M764.16,-121.83C765.25,-105.64 766.9,-81.13 768.16,-62.27"/>
<polygon fill="#475569" stroke="#475569" points="771.66,-62.41 768.84,-52.2 764.68,-61.94 771.66,-62.41"/>
</g>
</g>
</svg>
