<?xml version="1.0" encoding="UTF-8" standalone="no"?>
<!DOCTYPE svg PUBLIC "-//W3C//DTD SVG 1.1//EN"
 "http://www.w3.org/Graphics/SVG/1.1/DTD/svg11.dtd">
<!-- Generated by graphviz version 2.43.0 (0)
 -->
<!-- Title: G Pages: 1 -->
<svg width="628pt" height="1520pt"
 viewBox="0.00 0.00 628.49 1520.00" xmlns="http://www.w3.org/2000/svg" xmlns:xlink="http://www.w3.org/1999/xlink">
<g id="graph0" class="graph" transform="scale(1 1) rotate(0) translate(4 1516)">
<title>G</title>
<polygon fill="white" stroke="transparent" points="-4,4 -4,-1516 624.49,-1516 624.49,4 -4,4"/>
<text text-anchor="middle" x="310.24" y="-1495.2" font-family="Arial" font-size="16.00">OPERATIONAL_HANDBOOK_ID.md &#45; diagram 2</text>
<!-- A -->
<g id="node1" class="node">
<title>A</title>
<path fill="#f8fafc" stroke="#334155" d="M276.49,-1486C276.49,-1486 172.49,-1486 172.49,-1486 166.49,-1486 160.49,-1480 160.49,-1474 160.49,-1474 160.49,-1462 160.49,-1462 160.49,-1456 166.49,-1450 172.49,-1450 172.49,-1450 276.49,-1450 276.49,-1450 282.49,-1450 288.49,-1456 288.49,-1462 288.49,-1462 288.49,-1474 288.49,-1474 288.49,-1480 282.49,-1486 276.49,-1486"/>
<text text-anchor="middle" x="224.49" y="-1465.5" font-family="Arial" font-size="10.00">Konfigurasi Matriks Biaya</text>
</g>
<!-- B -->
<g id="node4" class="node">
<title>B</title>
<path fill="#f8fafc" stroke="#334155" d="M314.99,-1404C314.99,-1404 133.99,-1404 133.99,-1404 127.99,-1404 121.99,-1398 121.99,-1392 121.99,-1392 121.99,-1380 121.99,-1380 121.99,-1374 127.99,-1368 133.99,-1368 133.99,-1368 314.99,-1368 314.99,-1368 320.99,-1368 326.99,-1374 326.99,-1380 326.99,-1380 326.99,-1392 326.99,-1392 326.99,-1398 320.99,-1404 314.99,-1404"/>
<text text-anchor="middle" x="224.49" y="-1383.5" font-family="Arial" font-size="10.00">ArrearsService.generateMonthlyObligations</text>
</g>
<!-- A&#45;&gt;B -->
<g id="edge1" class="edge">
<title>A&#45;&gt;B</title>
<path fill="none" stroke="#475569" d="M224.49,-1449.64C224.49,-1439.3 224.49,-1425.94 224.49,-1414.22"/>
<polygon fill="#475569" stroke="#475569" points="227.99,-1414.05 224.49,-1404.05 220.99,-1414.05 227.99,-1414.05"/>
<text text-anchor="middle" x="253.49" y="-1424.8" font-family="Arial" font-size="9.00">resolusi biaya</text>
</g>
<!-- AA -->
<g id="node2" class="node">
<title>AA</title>
<path fill="#f8fafc" stroke="#334155" d="M492.49,-36C492.49,-36 350.49,-36 350.49,-36 344.49,-36 338.49,-30 338.49,-24 338.49,-24 338.49,-12 338.49,-12 338.49,-6 344.49,0 350.49,0 350.49,0 492.49,0 492.49,0 498.49,0 504.49,-6 504.49,-12 504.49,-12 504.49,-24 504.49,-24 504.49,-30 498.49,-36 492.49,-36"/>
<text text-anchor="middle" x="421.49" y="-15.5" font-family="Arial" font-size="10.00">Kuitansi: COPY &#45; Cetak Ulang #N</text>
</g>
<!-- AB -->
<g id="node3" class="node">
<title>AB</title>
<path fill="#f8fafc" stroke="#334155" d="M608.49,-36C608.49,-36 534.49,-36 534.49,-36 528.49,-36 522.49,-30 522.49,-24 522.49,-24 522.49,-12 522.49,-12 522.49,-6 528.49,0 534.49,0 534.49,0 608.49,0 608.49,0 614.49,0 620.49,-6 620.49,-12 620.49,-12 620.49,-24 620.49,-24 620.49,-30 614.49,-36 608.49,-36"/>
<text text-anchor="middle" x="571.49" y="-15.5" font-family="Arial" font-size="10.00">Error: 403 Dilarang</text>
</g>
<!-- C -->
<g id="node5" class="node">
<title>C</title>
<path fill="#f8fafc" stroke="#334155" d="M212.68,-1328.84C212.68,-1328.84 137.82,-1315.16 137.82,-1315.16 131.92,-1314.08 131.92,-1311.92 137.82,-1310.84 137.82,-1310.84 212.68,-1297.16 212.68,-1297.16 218.59,-1296.08 230.39,-1296.08 236.29,-1297.16 236.29,-1297.16 311.15,-1310.84 311.15,-1310.84 317.06,-1311.92 317.06,-1314.08 311.15,-1315.16 311.15,-1315.16 236.29,-1328.84 236.29,-1328.84 230.39,-1329.92 218.59,-1329.92 212.68,-1328.84"/>
<text text-anchor="middle" x="224.49" y="-1310.5" font-family="Arial" font-size="10.00">StudentObligation ada?</text>
</g>
<!-- B&#45;&gt;C -->
<g id="edge2" class="edge">
<title>B&#45;&gt;C</title>
<path fill="none" stroke="#475569" d="M224.49,-1367.81C224.49,-1359.79 224.49,-1350.05 224.49,-1341.07"/>
<polygon fill="#475569" stroke="#475569" points="227.99,-1341.03 224.49,-1331.03 220.99,-1341.03 227.99,-1341.03"/>
</g>
<!-- D -->
<g id="node6" class="node">
<title>D</title>
<path fill="#f8fafc" stroke="#334155" d="M163.99,-1249C163.99,-1249 70.99,-1249 70.99,-1249 64.99,-1249 58.99,-1243 58.99,-1237 58.99,-1237 58.99,-1225 58.99,-1225 58.99,-1219 64.99,-1213 70.99,-1213 70.99,-1213 163.99,-1213 163.99,-1213 169.99,-1213 175.99,-1219 175.99,-1225 175.99,-1225 175.99,-1237 175.99,-1237 175.99,-1243 169.99,-1249 163.99,-1249"/>
<text text-anchor="middle" x="117.49" y="-1228.5" font-family="Arial" font-size="10.00">Buat StudentObligation</text>
</g>
<!-- C&#45;&gt;D -->
<g id="edge3" class="edge">
<title>C&#45;&gt;D</title>
<path fill="none" stroke="#475569" d="M205.85,-1298.07C190.07,-1286.26 167.11,-1269.1 148.55,-1255.23"/>
<polygon fill="#475569" stroke="#475569" points="150.48,-1252.3 140.38,-1249.11 146.29,-1257.9 150.48,-1252.3"/>
<text text-anchor="middle" x="188.99" y="-1269.8" font-family="Arial" font-size="9.00">Tidak</text>
</g>
<!-- E -->
<g id="node7" class="node">
<title>E</title>
<path fill="#f8fafc" stroke="#334155" d="M266.49,-1249C266.49,-1249 206.49,-1249 206.49,-1249 200.49,-1249 194.49,-1243 194.49,-1237 194.49,-1237 194.49,-1225 194.49,-1225 194.49,-1219 200.49,-1213 206.49,-1213 206.49,-1213 266.49,-1213 266.49,-1213 272.49,-1213 278.49,-1219 278.49,-1225 278.49,-1225 278.49,-1237 278.49,-1237 278.49,-1243 272.49,-1249 266.49,-1249"/>
<text text-anchor="middle" x="236.49" y="-1228.5" font-family="Arial" font-size="10.00">Perbarui jumlah</text>
</g>
<!-- C&#45;&gt;E -->
<g id="edge4" class="edge">
<title>C&#45;&gt;E</title>
<path fill="none" stroke="#475569" d="M223.74,-1294.8C223.66,-1286.37 223.99,-1276.1 225.49,-1267 225.93,-1264.32 226.53,-1261.57 227.22,-1258.84"/>
<polygon fill="#475569" stroke="#475569" points="230.59,-1259.79 230.02,-1249.21 223.87,-1257.84 230.59,-1259.79"/>
<text text-anchor="middle" x="277.49" y="-1269.8" font-family="Arial" font-size="9.00">Ya, belum ditagih/dibayar</text>
</g>
<!-- F -->
<g id="node8" class="node">
<title>F</title>
<path fill="#f8fafc" stroke="#334155" d="M383.99,-1249C383.99,-1249 318.99,-1249 318.99,-1249 312.99,-1249 306.99,-1243 306.99,-1237 306.99,-1237 306.99,-1225 306.99,-1225 306.99,-1219 312.99,-1213 318.99,-1213 318.99,-1213 383.99,-1213 383.99,-1213 389.99,-1213 395.99,-1219 395.99,-1225 395.99,-1225 395.99,-1237 395.99,-1237 395.99,-1243 389.99,-1249 383.99,-1249"/>
<text text-anchor="middle" x="351.49" y="-1228.5" font-family="Arial" font-size="10.00">Lewati &#45; terkunci</text>
</g>
<!-- C&#45;&gt;F -->
<g id="edge5" class="edge">
<title>C&#45;&gt;F</title>
<path fill="none" stroke="#475569" d="M274.07,-1303.99C293.14,-1298.88 314.02,-1290.54 329.49,-1277 335.12,-1272.07 339.45,-1265.38 342.71,-1258.66"/>
<polygon fill="#475569" stroke="#475569" points="346.13,-1259.58 346.77,-1249 339.67,-1256.87 346.13,-1259.58"/>
<text text-anchor="middle" x="398.49" y="-1269.8" font-family="Arial" font-size="9.00">Ya, sudah ditagih atau dibayar</text>
</g>
<!-- G -->
<g id="node9" class="node">
<title>G</title>
<path fill="#f8fafc" stroke="#334155" d="M243.49,-1176C243.49,-1176 109.49,-1176 109.49,-1176 103.49,-1176 97.49,-1170 97.49,-1164 97.49,-1164 97.49,-1152 97.49,-1152 97.49,-1146 103.49,-1140 109.49,-1140 109.49,-1140 243.49,-1140 243.49,-1140 249.49,-1140 255.49,-1146 255.49,-1152 255.49,-1152 255.49,-1164 255.49,-1164 255.49,-1170 249.49,-1176 243.49,-1176"/>
<text text-anchor="middle" x="176.49" y="-1155.5" font-family="Arial" font-size="10.00">InvoiceService.generateInvoices</text>
</g>
<!-- D&#45;&gt;G -->
<g id="edge6" class="edge">
<title>D&#45;&gt;G</title>
<path fill="none" stroke="#475569" d="M131.77,-1212.81C139.02,-1204.09 147.95,-1193.34 155.93,-1183.75"/>
<polygon fill="#475569" stroke="#475569" points="158.64,-1185.96 162.34,-1176.03 153.26,-1181.48 158.64,-1185.96"/>
</g>
<!-- E&#45;&gt;G -->
<g id="edge7" class="edge">
<title>E&#45;&gt;G</title>
<path fill="none" stroke="#475569" d="M221.96,-1212.81C214.59,-1204.09 205.51,-1193.34 197.4,-1183.75"/>
<polygon fill="#475569" stroke="#475569" points="200.01,-1181.41 190.88,-1176.03 194.66,-1185.93 200.01,-1181.41"/>
</g>
<!-- H -->
<g id="node10" class="node">
<title>H</title>
<path fill="#f8fafc" stroke="#334155" d="M164.55,-1101.78C164.55,-1101.78 11.95,-1086.22 11.95,-1086.22 5.98,-1085.61 5.98,-1084.39 11.95,-1083.78 11.95,-1083.78 164.55,-1068.22 164.55,-1068.22 170.52,-1067.61 182.46,-1067.61 188.43,-1068.22 188.43,-1068.22 341.03,-1083.78 341.03,-1083.78 347,-1084.39 347,-1085.61 341.03,-1086.22 341.03,-1086.22 188.43,-1101.78 188.43,-1101.78 182.46,-1102.39 170.52,-1102.39 164.55,-1101.78"/>
<text text-anchor="middle" x="176.49" y="-1082.5" font-family="Arial" font-size="10.00">Ada kewajiban belum bayar &amp; belum ditagih?</text>
</g>
<!-- G&#45;&gt;H -->
<g id="edge8" class="edge">
<title>G&#45;&gt;H</title>
<path fill="none" stroke="#475569" d="M176.49,-1139.81C176.49,-1131.79 176.49,-1122.05 176.49,-1113.07"/>
<polygon fill="#475569" stroke="#475569" points="179.99,-1113.03 176.49,-1103.03 172.99,-1113.03 179.99,-1113.03"/>
</g>
<!-- I -->
<g id="node11" class="node">
<title>I</title>
<path fill="#f8fafc" stroke="#334155" d="M171.49,-1021C171.49,-1021 55.49,-1021 55.49,-1021 49.49,-1021 43.49,-1015 43.49,-1009 43.49,-1009 43.49,-997 43.49,-997 43.49,-991 49.49,-985 55.49,-985 55.49,-985 171.49,-985 171.49,-985 177.49,-985 183.49,-991 183.49,-997 183.49,-997 183.49,-1009 183.49,-1009 183.49,-1015 177.49,-1021 171.49,-1021"/>
<text text-anchor="middle" x="113.49" y="-1000.5" font-family="Arial" font-size="10.00">Buat Invoice + InvoiceItems</text>
</g>
<!-- H&#45;&gt;I -->
<g id="edge9" class="edge">
<title>H&#45;&gt;I</title>
<path fill="none" stroke="#475569" d="M164.04,-1068.19C155.28,-1057.06 143.36,-1041.93 133.29,-1029.15"/>
<polygon fill="#475569" stroke="#475569" points="135.94,-1026.85 127,-1021.16 130.44,-1031.18 135.94,-1026.85"/>
<text text-anchor="middle" x="154.99" y="-1041.8" font-family="Arial" font-size="9.00">Ya</text>
</g>
<!-- J -->
<g id="node12" class="node">
<title>J</title>
<path fill="#f8fafc" stroke="#334155" d="M263.49,-1021C263.49,-1021 213.49,-1021 213.49,-1021 207.49,-1021 201.49,-1015 201.49,-1009 201.49,-1009 201.49,-997 201.49,-997 201.49,-991 207.49,-985 213.49,-985 213.49,-985 263.49,-985 263.49,-985 269.49,-985 275.49,-991 275.49,-997 275.49,-997 275.49,-1009 275.49,-1009 275.49,-1015 269.49,-1021 263.49,-1021"/>
<text text-anchor="middle" x="238.49" y="-1000.5" font-family="Arial" font-size="10.00">Lewati siswa</text>
</g>
<!-- H&#45;&gt;J -->
<g id="edge10" class="edge">
<title>H&#45;&gt;J</title>
<path fill="none" stroke="#475569" d="M188.74,-1068.19C197.37,-1057.06 209.1,-1041.93 219,-1029.15"/>
<polygon fill="#475569" stroke="#475569" points="221.83,-1031.21 225.19,-1021.16 216.3,-1026.92 221.83,-1031.21"/>
<text text-anchor="middle" x="222.99" y="-1041.8" font-family="Arial" font-size="9.00">Tidak</text>
</g>
<!-- K -->
<g id="node13" class="node">
<title>K</title>
<path fill="#f8fafc" stroke="#334155" d="M163.49,-948C163.49,-948 63.49,-948 63.49,-948 57.49,-948 51.49,-942 51.49,-936 51.49,-936 51.49,-924 51.49,-924 51.49,-918 57.49,-912 63.49,-912 63.49,-912 163.49,-912 163.49,-912 169.49,-912 175.49,-918 175.49,-924 175.49,-924 175.49,-936 175.49,-936 175.49,-942 169.49,-948 163.49,-948"/>
<text text-anchor="middle" x="113.49" y="-927.5" font-family="Arial" font-size="10.00">Status Invoice: UNPAID</text>
</g>
<!-- I&#45;&gt;K -->
<g id="edge11" class="edge">
<title>I&#45;&gt;K</title>
<path fill="none" stroke="#475569" d="M113.49,-984.81C113.49,-976.79 113.49,-967.05 113.49,-958.07"/>
<polygon fill="#475569" stroke="#475569" points="116.99,-958.03 113.49,-948.03 109.99,-958.03 116.99,-958.03"/>
</g>
<!-- L -->
<g id="node14" class="node">
<title>L</title>
<path fill="#f8fafc" stroke="#334155" d="M188.49,-875C188.49,-875 38.49,-875 38.49,-875 32.49,-875 26.49,-869 26.49,-863 26.49,-863 26.49,-851 26.49,-851 26.49,-845 32.49,-839 38.49,-839 38.49,-839 188.49,-839 188.49,-839 194.49,-839 200.49,-845 200.49,-851 200.49,-851 200.49,-863 200.49,-863 200.49,-869 194.49,-875 188.49,-875"/>
<text text-anchor="middle" x="113.49" y="-854.5" font-family="Arial" font-size="10.00">SettlementService.createSettlement</text>
</g>
<!-- K&#45;&gt;L -->
<g id="edge12" class="edge">
<title>K&#45;&gt;L</title>
<path fill="none" stroke="#475569" d="M113.49,-911.81C113.49,-903.79 113.49,-894.05 113.49,-885.07"/>
<polygon fill="#475569" stroke="#475569" points="116.99,-885.03 113.49,-875.03 109.99,-885.03 116.99,-885.03"/>
</g>
<!-- M -->
<g id="node15" class="node">
<title>M</title>
<path fill="#f8fafc" stroke="#334155" d="M170.99,-802C170.99,-802 55.99,-802 55.99,-802 49.99,-802 43.99,-796 43.99,-790 43.99,-790 43.99,-778 43.99,-778 43.99,-772 49.99,-766 55.99,-766 55.99,-766 170.99,-766 170.99,-766 176.99,-766 182.99,-772 182.99,-778 182.99,-778 182.99,-790 182.99,-790 182.99,-796 176.99,-802 170.99,-802"/>
<text text-anchor="middle" x="113.49" y="-781.5" font-family="Arial" font-size="10.00">lockForUpdate pada Invoice</text>
</g>
<!-- L&#45;&gt;M -->
<g id="edge13" class="edge">
<title>L&#45;&gt;M</title>
<path fill="none" stroke="#475569" d="M113.49,-838.81C113.49,-830.79 113.49,-821.05 113.49,-812.07"/>
<polygon fill="#475569" stroke="#475569" points="116.99,-812.03 113.49,-802.03 109.99,-812.03 116.99,-812.03"/>
</g>
<!-- N -->
<g id="node16" class="node">
<title>N</title>
<path fill="#f8fafc" stroke="#334155" d="M101.85,-726.08C101.85,-726.08 53.44,-713.92 53.44,-713.92 47.62,-712.46 47.62,-709.54 53.44,-708.08 53.44,-708.08 101.85,-695.92 101.85,-695.92 107.67,-694.46 119.31,-694.46 125.13,-695.92 125.13,-695.92 173.54,-708.08 173.54,-708.08 179.36,-709.54 179.36,-712.46 173.54,-713.92 173.54,-713.92 125.13,-726.08 125.13,-726.08 119.31,-727.54 107.67,-727.54 101.85,-726.08"/>
<text text-anchor="middle" x="113.49" y="-708.5" font-family="Arial" font-size="10.00">jumlah &lt;= sisa?</text>
</g>
<!-- M&#45;&gt;N -->
<g id="edge14" class="edge">
<title>M&#45;&gt;N</title>
<path fill="none" stroke="#475569" d="M113.49,-765.81C113.49,-757.79 113.49,-748.05 113.49,-739.07"/>
<polygon fill="#475569" stroke="#475569" points="116.99,-739.03 113.49,-729.03 109.99,-739.03 116.99,-739.03"/>
</g>
<!-- O -->
<g id="node17" class="node">
<title>O</title>
<path fill="#f8fafc" stroke="#334155" d="M145.49,-647C145.49,-647 35.49,-647 35.49,-647 29.49,-647 23.49,-641 23.49,-635 23.49,-635 23.49,-623 23.49,-623 23.49,-617 29.49,-611 35.49,-611 35.49,-611 145.49,-611 145.49,-611 151.49,-611 157.49,-617 157.49,-623 157.49,-623 157.49,-635 157.49,-635 157.49,-641 151.49,-647 145.49,-647"/>
<text text-anchor="middle" x="90.49" y="-626.5" font-family="Arial" font-size="10.00">Error: alokasi melebihi sisa</text>
</g>
<!-- N&#45;&gt;O -->
<g id="edge15" class="edge">
<title>N&#45;&gt;O</title>
<path fill="none" stroke="#475569" d="M108.83,-693.81C105.8,-683.25 101.76,-669.21 98.25,-656.99"/>
<polygon fill="#475569" stroke="#475569" points="101.58,-655.92 95.45,-647.27 94.85,-657.85 101.58,-655.92"/>
<text text-anchor="middle" x="114.99" y="-667.8" font-family="Arial" font-size="9.00">Tidak</text>
</g>
<!-- P -->
<g id="node18" class="node">
<title>P</title>
<path fill="#f8fafc" stroke="#334155" d="M294.99,-647C294.99,-647 187.99,-647 187.99,-647 181.99,-647 175.99,-641 175.99,-635 175.99,-635 175.99,-623 175.99,-623 175.99,-617 181.99,-611 187.99,-611 187.99,-611 294.99,-611 294.99,-611 300.99,-611 306.99,-617 306.99,-623 306.99,-623 306.99,-635 306.99,-635 306.99,-641 300.99,-647 294.99,-647"/>
<text text-anchor="middle" x="241.49" y="-626.5" font-family="Arial" font-size="10.00">Buat Settlement + Alokasi</text>
</g>
<!-- N&#45;&gt;P -->
<g id="edge16" class="edge">
<title>N&#45;&gt;P</title>
<path fill="none" stroke="#475569" d="M132.93,-697.85C152.15,-685.83 182.03,-667.16 205.57,-652.45"/>
<polygon fill="#475569" stroke="#475569" points="207.63,-655.29 214.25,-647.02 203.92,-649.35 207.63,-655.29"/>
<text text-anchor="middle" x="190.99" y="-667.8" font-family="Arial" font-size="9.00">Ya</text>
</g>
<!-- Q -->
<g id="node19" class="node">
<title>Q</title>
<path fill="#f8fafc" stroke="#334155" d="M313.49,-574C313.49,-574 169.49,-574 169.49,-574 163.49,-574 157.49,-568 157.49,-562 157.49,-562 157.49,-550 157.49,-550 157.49,-544 163.49,-538 169.49,-538 169.49,-538 313.49,-538 313.49,-538 319.49,-538 325.49,-544 325.49,-550 325.49,-550 325.49,-562 325.49,-562 325.49,-568 319.49,-574 313.49,-574"/>
<text text-anchor="middle" x="241.49" y="-553.5" font-family="Arial" font-size="10.00">invoice.recalculateFromAllocations</text>
</g>
<!-- P&#45;&gt;Q -->
<g id="edge17" class="edge">
<title>P&#45;&gt;Q</title>
<path fill="none" stroke="#475569" d="M241.49,-610.81C241.49,-602.79 241.49,-593.05 241.49,-584.07"/>
<polygon fill="#475569" stroke="#475569" points="244.99,-584.03 241.49,-574.03 237.99,-584.03 244.99,-584.03"/>
</g>
<!-- R -->
<g id="node20" class="node">
<title>R</title>
<path fill="#f8fafc" stroke="#334155" d="M229.62,-499.23C229.62,-499.23 132.43,-484.77 132.43,-484.77 126.5,-483.88 126.5,-482.12 132.43,-481.23 132.43,-481.23 229.62,-466.77 229.62,-466.77 235.55,-465.88 247.42,-465.88 253.36,-466.77 253.36,-466.77 350.54,-481.23 350.54,-481.23 356.48,-482.12 356.48,-483.88 350.54,-484.77 350.54,-484.77 253.36,-499.23 253.36,-499.23 247.42,-500.12 235.55,-500.12 229.62,-499.23"/>
<text text-anchor="middle" x="241.49" y="-480.5" font-family="Arial" font-size="10.00">paid_amount vs total_amount</text>
</g>
<!-- Q&#45;&gt;R -->
<g id="edge18" class="edge">
<title>Q&#45;&gt;R</title>
<path fill="none" stroke="#475569" d="M241.49,-537.81C241.49,-529.79 241.49,-520.05 241.49,-511.07"/>
<polygon fill="#475569" stroke="#475569" points="244.99,-511.03 241.49,-501.03 237.99,-511.03 244.99,-511.03"/>
</g>
<!-- S -->
<g id="node21" class="node">
<title>S</title>
<path fill="#f8fafc" stroke="#334155" d="M145.99,-419C145.99,-419 80.99,-419 80.99,-419 74.99,-419 68.99,-413 68.99,-407 68.99,-407 68.99,-395 68.99,-395 68.99,-389 74.99,-383 80.99,-383 80.99,-383 145.99,-383 145.99,-383 151.99,-383 157.99,-389 157.99,-395 157.99,-395 157.99,-407 157.99,-407 157.99,-413 151.99,-419 145.99,-419"/>
<text text-anchor="middle" x="113.49" y="-398.5" font-family="Arial" font-size="10.00">Status: UNPAID</text>
</g>
<!-- R&#45;&gt;S -->
<g id="edge19" class="edge">
<title>R&#45;&gt;S</title>
<path fill="none" stroke="#475569" d="M219.48,-468.25C200.3,-456.26 172.11,-438.64 149.62,-424.58"/>
<polygon fill="#475569" stroke="#475569" points="151.33,-421.52 141,-419.19 147.62,-427.46 151.33,-421.52"/>
<text text-anchor="middle" x="202.49" y="-439.8" font-family="Arial" font-size="9.00">paid = 0</text>
</g>
<!-- T -->
<g id="node22" class="node">
<title>T</title>
<path fill="#f8fafc" stroke="#334155" d="M294.99,-419C294.99,-419 187.99,-419 187.99,-419 181.99,-419 175.99,-413 175.99,-407 175.99,-407 175.99,-395 175.99,-395 175.99,-389 181.99,-383 187.99,-383 187.99,-383 294.99,-383 294.99,-383 300.99,-383 306.99,-389 306.99,-395 306.99,-395 306.99,-407 306.99,-407 306.99,-413 300.99,-419 294.99,-419"/>
<text text-anchor="middle" x="241.49" y="-398.5" font-family="Arial" font-size="10.00">Status: PARTIALLY_PAID</text>
</g>
<!-- R&#45;&gt;T -->
<g id="edge20" class="edge">
<title>R&#45;&gt;T</title>
<path fill="none" stroke="#475569" d="M241.49,-464.64C241.49,-454.3 241.49,-440.94 241.49,-429.22"/>
<polygon fill="#475569" stroke="#475569" points="244.99,-429.05 241.49,-419.05 237.99,-429.05 244.99,-429.05"/>
<text text-anchor="middle" x="271.99" y="-439.8" font-family="Arial" font-size="9.00">0 &lt; paid &lt; total</text>
</g>
<!-- U -->
<g id="node23" class="node">
<title>U</title>
<path fill="#f8fafc" stroke="#334155" d="M387.49,-419C387.49,-419 337.49,-419 337.49,-419 331.49,-419 325.49,-413 325.49,-407 325.49,-407 325.49,-395 325.49,-395 325.49,-389 331.49,-383 337.49,-383 337.49,-383 387.49,-383 387.49,-383 393.49,-383 399.49,-389 399.49,-395 399.49,-395 399.49,-407 399.49,-407 399.49,-413 393.49,-419 387.49,-419"/>
<text text-anchor="middle" x="362.49" y="-398.5" font-family="Arial" font-size="10.00">Status: PAID</text>
</g>
<!-- R&#45;&gt;U -->
<g id="edge21" class="edge">
<title>R&#45;&gt;U</title>
<path fill="none" stroke="#475569" d="M268.38,-468.93C280.34,-462.76 294.42,-455 306.49,-447 316.2,-440.56 326.28,-432.83 335.16,-425.61"/>
<polygon fill="#475569" stroke="#475569" points="337.47,-428.24 342.95,-419.17 333.01,-422.85 337.47,-428.24"/>
<text text-anchor="middle" x="343.99" y="-439.8" font-family="Arial" font-size="9.00">paid &gt;= total</text>
</g>
<!-- V -->
<g id="node24" class="node">
<title>V</title>
<path fill="#f8fafc" stroke="#334155" d="M427.49,-346C427.49,-346 297.49,-346 297.49,-346 291.49,-346 285.49,-340 285.49,-334 285.49,-334 285.49,-322 285.49,-322 285.49,-316 291.49,-310 297.49,-310 297.49,-310 427.49,-310 427.49,-310 433.49,-310 439.49,-316 439.49,-322 439.49,-322 439.49,-334 439.49,-334 439.49,-340 433.49,-346 427.49,-346"/>
<text text-anchor="middle" x="362.49" y="-325.5" font-family="Arial" font-size="10.00">Tandai kewajiban is_paid = true</text>
</g>
<!-- U&#45;&gt;V -->
<g id="edge22" class="edge">
<title>U&#45;&gt;V</title>
<path fill="none" stroke="#475569" d="M362.49,-382.81C362.49,-374.79 362.49,-365.05 362.49,-356.07"/>
<polygon fill="#475569" stroke="#475569" points="365.99,-356.03 362.49,-346.03 358.99,-356.03 365.99,-356.03"/>
</g>
<!-- W -->
<g id="node25" class="node">
<title>W</title>
<path fill="#f8fafc" stroke="#334155" d="M427.49,-273C427.49,-273 297.49,-273 297.49,-273 291.49,-273 285.49,-267 285.49,-261 285.49,-261 285.49,-249 285.49,-249 285.49,-243 291.49,-237 297.49,-237 297.49,-237 427.49,-237 427.49,-237 433.49,-237 439.49,-243 439.49,-249 439.49,-249 439.49,-261 439.49,-261 439.49,-267 433.49,-273 427.49,-273"/>
<text text-anchor="middle" x="362.49" y="-252.5" font-family="Arial" font-size="10.00">ControlledReceiptService.issue</text>
</g>
<!-- V&#45;&gt;W -->
<g id="edge23" class="edge">
<title>V&#45;&gt;W</title>
<path fill="none" stroke="#475569" d="M362.49,-309.81C362.49,-301.79 362.49,-292.05 362.49,-283.07"/>
<polygon fill="#475569" stroke="#475569" points="365.99,-283.03 362.49,-273.03 358.99,-283.03 365.99,-283.03"/>
</g>
<!-- X -->
<g id="node26" class="node">
<title>X</title>
<path fill="#f8fafc" stroke="#334155" d="M350.85,-197.08C350.85,-197.08 302.44,-184.92 302.44,-184.92 296.62,-183.46 296.62,-180.54 302.44,-179.08 302.44,-179.08 350.85,-166.92 350.85,-166.92 356.67,-165.46 368.31,-165.46 374.13,-166.92 374.13,-166.92 422.54,-179.08 422.54,-179.08 428.36,-180.54 428.36,-183.46 422.54,-184.92 422.54,-184.92 374.13,-197.08 374.13,-197.08 368.31,-198.54 356.67,-198.54 350.85,-197.08"/>
<text text-anchor="middle" x="362.49" y="-179.5" font-family="Arial" font-size="10.00">Cetak pertama?</text>
</g>
<!-- W&#45;&gt;X -->
<g id="edge24" class="edge">
<title>W&#45;&gt;X</title>
<path fill="none" stroke="#475569" d="M362.49,-236.81C362.49,-228.79 362.49,-219.05 362.49,-210.07"/>
<polygon fill="#475569" stroke="#475569" points="365.99,-210.03 362.49,-200.03 358.99,-210.03 365.99,-210.03"/>
</g>
<!-- Y -->
<g id="node27" class="node">
<title>Y</title>
<path fill="#f8fafc" stroke="#334155" d="M386.49,-118C386.49,-118 304.49,-118 304.49,-118 298.49,-118 292.49,-112 292.49,-106 292.49,-106 292.49,-94 292.49,-94 292.49,-88 298.49,-82 304.49,-82 304.49,-82 386.49,-82 386.49,-82 392.49,-82 398.49,-88 398.49,-94 398.49,-94 398.49,-106 398.49,-106 398.49,-112 392.49,-118 386.49,-118"/>
<text text-anchor="middle" x="345.49" y="-97.5" font-family="Arial" font-size="10.00">Kuitansi: ORIGINAL</text>
</g>
<!-- X&#45;&gt;Y -->
<g id="edge25" class="edge">
<title>X&#45;&gt;Y</title>
<path fill="none" stroke="#475569" d="M359.05,-164.81C356.83,-154.36 353.88,-140.5 351.3,-128.36"/>
<polygon fill="#475569" stroke="#475569" points="354.66,-127.33 349.16,-118.27 347.81,-128.78 354.66,-127.33"/>
<text text-anchor="middle" x="359.99" y="-138.8" font-family="Arial" font-size="9.00">Ya</text>
</g>
<!-- Z -->
<g id="node28" class="node">
<title>Z</title>
<path fill="#f8fafc" stroke="#334155" d="M484.78,-115.36C484.78,-115.36 428.36,-102.64 428.36,-102.64 422.5,-101.32 422.5,-98.68 428.36,-97.36 428.36,-97.36 484.78,-84.64 484.78,-84.64 490.64,-83.32 502.34,-83.32 508.2,-84.64 508.2,-84.64 564.62,-97.36 564.62,-97.36 570.48,-98.68 570.48,-101.32 564.62,-102.64 564.62,-102.64 508.2,-115.36 508.2,-115.36 502.34,-116.68 490.64,-116.68 484.78,-115.36"/>
<text text-anchor="middle" x="496.49" y="-97.5" font-family="Arial" font-size="10.00">bendahara/admin?</text>
</g>
<!-- X&#45;&gt;Z -->
<g id="edge26" class="edge">
<title>X&#45;&gt;Z</title>
<path fill="none" stroke="#475569" d="M382.55,-169.02C404.79,-155.75 440.89,-134.19 466.49,-118.91"/>
<polygon fill="#475569" stroke="#475569" points="468.61,-121.72 475.41,-113.59 465.02,-115.71 468.61,-121.72"/>
<text text-anchor="middle" x="448.99" y="-138.8" font-family="Arial" font-size="9.00">Tidak</text>
</g>
<!-- Z&#45;&gt;AA -->
<g id="edge27" class="edge">
<title>Z&#45;&gt;AA</title>
<path fill="none" stroke="#475569" d="M483.08,-84.7C472.44,-73.35 457.32,-57.22 444.72,-43.78"/>
<polygon fill="#475569" stroke="#475569" points="447.04,-41.14 437.65,-36.24 441.94,-45.93 447.04,-41.14"/>
<text text-anchor="middle" x="486.99" y="-56.8" font-family="Arial" font-size="9.00">Ya + alasan</text>
</g>
<!-- Z&#45;&gt;AB -->
<g id="edge28" class="edge">
<title>Z&#45;&gt;AB</title>
<path fill="none" stroke="#475569" d="M509.9,-84.7C520.53,-73.35 535.66,-57.22 548.25,-43.78"/>
<polygon fill="#475569" stroke="#475569" points="551.04,-45.93 555.33,-36.24 545.93,-41.14 551.04,-45.93"/>
<text text-anchor="middle" x="548.99" y="-56.8" font-family="Arial" font-size="9.00">Tidak</text>
</g>
</g>
</svg>
