<?xml version="1.0" encoding="UTF-8" standalone="no"?>
<!DOCTYPE svg PUBLIC "-//W3C//DTD SVG 1.1//EN"
 "http://www.w3.org/Graphics/SVG/1.1/DTD/svg11.dtd">
<!-- Generated by graphviz version 2.43.0 (0)
 -->
<!-- Title: G Pages: 1 -->
<svg width="1084pt" height="521pt"
 viewBox="0.00 0.00 1084.25 521.00" xmlns="http://www.w3.org/2000/svg" xmlns:xlink="http://www.w3.org/1999/xlink">
<g id="graph0" class="graph" transform="scale(1 1) rotate(0) translate(4 517)">
<title>G</title>
<polygon fill="white" stroke="transparent" points="-4,4 -4,-517 1080.25,-517 1080.25,4 -4,4"/>
<text text-anchor="middle" x="538.13" y="-496.2" font-family="Arial" font-size="16.00">OPERATIONAL_HANDBOOK.md &#45; diagram 8</text>
<g id="clust1" class="cluster">
<title>cluster_sg_1</title>
<path fill="white" stroke="#cbd5e1" d="M328.75,-147C328.75,-147 920.75,-147 920.75,-147 926.75,-147 932.75,-153 932.75,-159 932.75,-159 932.75,-403 932.75,-403 932.75,-409 926.75,-415 920.75,-415 920.75,-415 328.75,-415 328.75,-415 322.75,-415 316.75,-409 316.75,-403 316.75,-403 316.75,-159 316.75,-159 316.75,-153 322.75,-147 328.75,-147"/>
<text text-anchor="middle" x="624.75" y="-398.2" font-family="Arial" font-size="16.00">Audit Log</text>
</g>
<!-- B -->
<g id="node1" class="node">
<title>B</title>
<path fill="#f8fafc" stroke="#334155" d="M664.75,-355C664.75,-355 488.75,-355 488.75,-355 482.75,-355 476.75,-349 476.75,-343 476.75,-343 476.75,-331 476.75,-331 476.75,-325 482.75,-319 488.75,-319 488.75,-319 664.75,-319 664.75,-319 670.75,-319 676.75,-325 676.75,-331 676.75,-331 676.75,-343 676.75,-343 676.75,-349 670.75,-355 664.75,-355"/>
<text text-anchor="middle" x="576.75" y="-334.5" font-family="Arial" font-size="10.00">Enter bank name, period, opening balance</text>
</g>
<!-- C -->
<g id="node2" class="node">
<title>C</title>
<path fill="#f8fafc" stroke="#334155" d="M566.25,-273C566.25,-273 451.25,-273 451.25,-273 445.25,-273 439.25,-267 439.25,-261 439.25,-261 439.25,-249 439.25,-249 439.25,-243 445.25,-237 451.25,-237 451.25,-237 566.25,-237 566.25,-237 572.25,-237 578.25,-243 578.25,-249 578.25,-249 578.25,-261 578.25,-261 578.25,-267 572.25,-273 566.25,-273"/>
<text text-anchor="middle" x="508.75" y="-252.5" font-family="Arial" font-size="10.00">Import CSV bank statement</text>
</g>
<!-- B&#45;&gt;C -->
<g id="edge2" class="edge">
<title>B&#45;&gt;C</title>
<path fill="none" stroke="#475569" d="M562,-318.64C552.58,-307.56 540.22,-293.02 529.78,-280.74"/>
<polygon fill="#475569" stroke="#475569" points="532.39,-278.4 523.24,-273.05 527.05,-282.94 532.39,-278.4"/>
</g>
<!-- O -->
<g id="node6" class="node">
<title>O</title>
<path fill="#f8fafc" stroke="#334155" d="M688.75,-273C688.75,-273 608.75,-273 608.75,-273 602.75,-273 596.75,-267 596.75,-261 596.75,-261 596.75,-249 596.75,-249 596.75,-243 602.75,-237 608.75,-237 608.75,-237 688.75,-237 688.75,-237 694.75,-237 700.75,-243 700.75,-249 700.75,-249 700.75,-261 700.75,-261 700.75,-267 694.75,-273 688.75,-273"/>
<text text-anchor="middle" x="648.75" y="-252.5" font-family="Arial" font-size="10.00">Log: create_session</text>
</g>
<!-- B&#45;&gt;O -->
<g id="edge16" class="edge">
<title>B&#45;&gt;O</title>
<path fill="none" stroke="#475569" d="M592.37,-318.64C602.35,-307.56 615.44,-293.02 626.49,-280.74"/>
<polygon fill="#475569" stroke="#475569" points="629.32,-282.82 633.41,-273.05 624.12,-278.14 629.32,-282.82"/>
</g>
<!-- P -->
<g id="node7" class="node">
<title>P</title>
<path fill="#f8fafc" stroke="#334155" d="M567.25,-191C567.25,-191 450.25,-191 450.25,-191 444.25,-191 438.25,-185 438.25,-179 438.25,-179 438.25,-167 438.25,-167 438.25,-161 444.25,-155 450.25,-155 450.25,-155 567.25,-155 567.25,-155 573.25,-155 579.25,-161 579.25,-167 579.25,-167 579.25,-179 579.25,-179 579.25,-185 573.25,-191 567.25,-191"/>
<text text-anchor="middle" x="508.75" y="-170.5" font-family="Arial" font-size="10.00">Log: import_csv + row count</text>
</g>
<!-- C&#45;&gt;P -->
<g id="edge17" class="edge">
<title>C&#45;&gt;P</title>
<path fill="none" stroke="#475569" d="M508.75,-236.64C508.75,-226.3 508.75,-212.94 508.75,-201.22"/>
<polygon fill="#475569" stroke="#475569" points="512.25,-201.05 508.75,-191.05 505.25,-201.05 512.25,-201.05"/>
</g>
<!-- D -->
<g id="node12" class="node">
<title>D</title>
<path fill="#f8fafc" stroke="#334155" d="M296.25,-355C296.25,-355 191.25,-355 191.25,-355 185.25,-355 179.25,-349 179.25,-343 179.25,-343 179.25,-331 179.25,-331 179.25,-325 185.25,-319 191.25,-319 191.25,-319 296.25,-319 296.25,-319 302.25,-319 308.25,-325 308.25,-331 308.25,-331 308.25,-343 308.25,-343 308.25,-349 302.25,-355 296.25,-355"/>
<text text-anchor="middle" x="243.75" y="-334.5" font-family="Arial" font-size="10.00">Lines created: unmatched</text>
</g>
<!-- C&#45;&gt;D -->
<g id="edge3" class="edge">
<title>C&#45;&gt;D</title>
<path fill="none" stroke="#475569" d="M452.31,-273.04C410.65,-285.62 353.8,-302.78 309.98,-316.01"/>
<polygon fill="#475569" stroke="#475569" points="308.84,-312.7 300.28,-318.94 310.86,-319.4 308.84,-312.7"/>
<text text-anchor="middle" x="426.25" y="-293.8" font-family="Arial" font-size="9.00">status: in_review</text>
</g>
<!-- H -->
<g id="node3" class="node">
<title>H</title>
<path fill="#f8fafc" stroke="#334155" d="M803.75,-355C803.75,-355 719.75,-355 719.75,-355 713.75,-355 707.75,-349 707.75,-343 707.75,-343 707.75,-331 707.75,-331 707.75,-325 713.75,-319 719.75,-319 719.75,-319 803.75,-319 803.75,-319 809.75,-319 815.75,-325 815.75,-331 815.75,-331 815.75,-343 815.75,-343 815.75,-349 809.75,-355 803.75,-355"/>
<text text-anchor="middle" x="761.75" y="-334.5" font-family="Arial" font-size="10.00">Line status: matched</text>
</g>
<!-- Q -->
<g id="node8" class="node">
<title>Q</title>
<path fill="#f8fafc" stroke="#334155" d="M792.75,-273C792.75,-273 730.75,-273 730.75,-273 724.75,-273 718.75,-267 718.75,-261 718.75,-261 718.75,-249 718.75,-249 718.75,-243 724.75,-237 730.75,-237 730.75,-237 792.75,-237 792.75,-237 798.75,-237 804.75,-243 804.75,-249 804.75,-249 804.75,-261 804.75,-261 804.75,-267 798.75,-273 792.75,-273"/>
<text text-anchor="middle" x="761.75" y="-252.5" font-family="Arial" font-size="10.00">Log: match_line</text>
</g>
<!-- H&#45;&gt;Q -->
<g id="edge18" class="edge">
<title>H&#45;&gt;Q</title>
<path fill="none" stroke="#475569" d="M761.75,-318.64C761.75,-308.3 761.75,-294.94 761.75,-283.22"/>
<polygon fill="#475569" stroke="#475569" points="765.25,-283.05 761.75,-273.05 758.25,-283.05 765.25,-283.05"/>
</g>
<!-- J -->
<g id="node17" class="node">
<title>J</title>
<path fill="#f8fafc" stroke="#334155" d="M374.04,-484.38C374.04,-484.38 316.96,-471.62 316.96,-471.62 311.1,-470.31 311.1,-467.69 316.96,-466.38 316.96,-466.38 374.04,-453.62 374.04,-453.62 379.9,-452.31 391.61,-452.31 397.46,-453.62 397.46,-453.62 454.55,-466.38 454.55,-466.38 460.4,-467.69 460.4,-470.31 454.55,-471.62 454.55,-471.62 397.46,-484.38 397.46,-484.38 391.61,-485.69 379.9,-485.69 374.04,-484.38"/>
<text text-anchor="middle" x="385.75" y="-466.5" font-family="Arial" font-size="10.00">Need to unmatch?</text>
</g>
<!-- H&#45;&gt;J -->
<g id="edge9" class="edge">
<title>H&#45;&gt;J</title>
<path fill="none" stroke="#475569" d="M750.74,-355.16C737.74,-373.71 714.24,-402.32 685.75,-415 650.19,-430.83 548.94,-415.43 510.75,-423 479.19,-429.25 444.92,-442.05 420.25,-452.41"/>
<polygon fill="#475569" stroke="#475569" points="418.78,-449.23 410.97,-456.38 421.54,-455.66 418.78,-449.23"/>
</g>
<!-- K -->
<g id="node4" class="node">
<title>K</title>
<path fill="#f8fafc" stroke="#334155" d="M433.25,-355C433.25,-355 338.25,-355 338.25,-355 332.25,-355 326.25,-349 326.25,-343 326.25,-343 326.25,-331 326.25,-331 326.25,-325 332.25,-319 338.25,-319 338.25,-319 433.25,-319 433.25,-319 439.25,-319 445.25,-325 445.25,-331 445.25,-331 445.25,-343 445.25,-343 445.25,-349 439.25,-355 433.25,-355"/>
<text text-anchor="middle" x="385.75" y="-334.5" font-family="Arial" font-size="10.00">Line status: unmatched</text>
</g>
<!-- R -->
<g id="node9" class="node">
<title>R</title>
<path fill="#f8fafc" stroke="#334155" d="M408.75,-273C408.75,-273 336.75,-273 336.75,-273 330.75,-273 324.75,-267 324.75,-261 324.75,-261 324.75,-249 324.75,-249 324.75,-243 330.75,-237 336.75,-237 336.75,-237 408.75,-237 408.75,-237 414.75,-237 420.75,-243 420.75,-249 420.75,-249 420.75,-261 420.75,-261 420.75,-267 414.75,-273 408.75,-273"/>
<text text-anchor="middle" x="372.75" y="-252.5" font-family="Arial" font-size="10.00">Log: unmatch_line</text>
</g>
<!-- K&#45;&gt;R -->
<g id="edge19" class="edge">
<title>K&#45;&gt;R</title>
<path fill="none" stroke="#475569" d="M382.93,-318.64C381.25,-308.3 379.08,-294.94 377.18,-283.22"/>
<polygon fill="#475569" stroke="#475569" points="380.58,-282.36 375.52,-273.05 373.67,-283.48 380.58,-282.36"/>
</g>
<!-- E -->
<g id="node13" class="node">
<title>E</title>
<path fill="#f8fafc" stroke="#334155" d="M217.25,-269.58C217.25,-269.58 179.71,-258.42 179.71,-258.42 173.96,-256.71 173.96,-253.29 179.71,-251.58 179.71,-251.58 217.25,-240.42 217.25,-240.42 223,-238.71 234.5,-238.71 240.25,-240.42 240.25,-240.42 277.79,-251.58 277.79,-251.58 283.55,-253.29 283.55,-256.71 277.79,-258.42 277.79,-258.42 240.25,-269.58 240.25,-269.58 234.5,-271.29 223,-271.29 217.25,-269.58"/>
<text text-anchor="middle" x="228.75" y="-252.5" font-family="Arial" font-size="10.00">For each line</text>
</g>
<!-- K&#45;&gt;E -->
<g id="edge11" class="edge">
<title>K&#45;&gt;E</title>
<path fill="none" stroke="#475569" d="M372.7,-318.97C364.69,-309.54 353.69,-298.29 341.75,-291 321.33,-278.52 296.08,-270.15 274.63,-264.73"/>
<polygon fill="#475569" stroke="#475569" points="275.31,-261.29 264.77,-262.38 273.68,-268.1 275.31,-261.29"/>
</g>
<!-- M -->
<g id="node5" class="node">
<title>M</title>
<path fill="#f8fafc" stroke="#334155" d="M901.75,-355C901.75,-355 845.75,-355 845.75,-355 839.75,-355 833.75,-349 833.75,-343 833.75,-343 833.75,-331 833.75,-331 833.75,-325 839.75,-319 845.75,-319 845.75,-319 901.75,-319 901.75,-319 907.75,-319 913.75,-325 913.75,-331 913.75,-331 913.75,-343 913.75,-343 913.75,-349 907.75,-355 901.75,-355"/>
<text text-anchor="middle" x="873.75" y="-334.5" font-family="Arial" font-size="10.00">Close Session</text>
</g>
<!-- S -->
<g id="node10" class="node">
<title>S</title>
<path fill="#f8fafc" stroke="#334155" d="M912.25,-273C912.25,-273 835.25,-273 835.25,-273 829.25,-273 823.25,-267 823.25,-261 823.25,-261 823.25,-249 823.25,-249 823.25,-243 829.25,-237 835.25,-237 835.25,-237 912.25,-237 912.25,-237 918.25,-237 924.25,-243 924.25,-249 924.25,-249 924.25,-261 924.25,-261 924.25,-267 918.25,-273 912.25,-273"/>
<text text-anchor="middle" x="873.75" y="-252.5" font-family="Arial" font-size="10.00">Log: close_session</text>
</g>
<!-- M&#45;&gt;S -->
<g id="edge20" class="edge">
<title>M&#45;&gt;S</title>
<path fill="none" stroke="#475569" d="M873.75,-318.64C873.75,-308.3 873.75,-294.94 873.75,-283.22"/>
<polygon fill="#475569" stroke="#475569" points="877.25,-283.05 873.75,-273.05 870.25,-283.05 877.25,-283.05"/>
</g>
<!-- N -->
<g id="node19" class="node">
<title>N</title>
<path fill="#f8fafc" stroke="#334155" d="M1064.25,-273C1064.25,-273 993.25,-273 993.25,-273 987.25,-273 981.25,-267 981.25,-261 981.25,-261 981.25,-249 981.25,-249 981.25,-243 987.25,-237 993.25,-237 993.25,-237 1064.25,-237 1064.25,-237 1070.25,-237 1076.25,-243 1076.25,-249 1076.25,-249 1076.25,-261 1076.25,-261 1076.25,-267 1070.25,-273 1064.25,-273"/>
<text text-anchor="middle" x="1028.75" y="-252.5" font-family="Arial" font-size="10.00">Session read&#45;only</text>
</g>
<!-- M&#45;&gt;N -->
<g id="edge15" class="edge">
<title>M&#45;&gt;N</title>
<path fill="none" stroke="#475569" d="M914.15,-323.45C930.88,-317.58 950.2,-309.91 966.75,-301 978.19,-294.84 989.92,-286.83 1000.06,-279.28"/>
<polygon fill="#475569" stroke="#475569" points="1002.34,-281.95 1008.16,-273.1 998.09,-276.39 1002.34,-281.95"/>
<text text-anchor="middle" x="1010.75" y="-293.8" font-family="Arial" font-size="9.00">status: closed</text>
</g>
<!-- A -->
<g id="node11" class="node">
<title>A</title>
<path fill="#f8fafc" stroke="#334155" d="M606.75,-487C606.75,-487 546.75,-487 546.75,-487 540.75,-487 534.75,-481 534.75,-475 534.75,-475 534.75,-463 534.75,-463 534.75,-457 540.75,-451 546.75,-451 546.75,-451 606.75,-451 606.75,-451 612.75,-451 618.75,-457 618.75,-463 618.75,-463 618.75,-475 618.75,-475 618.75,-481 612.75,-487 606.75,-487"/>
<text text-anchor="middle" x="576.75" y="-466.5" font-family="Arial" font-size="10.00">Create Session</text>
</g>
<!-- A&#45;&gt;B -->
<g id="edge1" class="edge">
<title>A&#45;&gt;B</title>
<path fill="none" stroke="#475569" d="M576.75,-450.74C576.75,-428.98 576.75,-391.32 576.75,-365.56"/>
<polygon fill="#475569" stroke="#475569" points="580.25,-365.33 576.75,-355.33 573.25,-365.33 580.25,-365.33"/>
<text text-anchor="middle" x="600.25" y="-425.8" font-family="Arial" font-size="9.00">status: draft</text>
</g>
<!-- D&#45;&gt;E -->
<g id="edge4" class="edge">
<title>D&#45;&gt;E</title>
<path fill="none" stroke="#475569" d="M240.5,-318.64C238.5,-307.98 235.9,-294.11 233.65,-282.14"/>
<polygon fill="#475569" stroke="#475569" points="237.08,-281.42 231.8,-272.23 230.2,-282.71 237.08,-281.42"/>
</g>
<!-- F -->
<g id="node14" class="node">
<title>F</title>
<path fill="#f8fafc" stroke="#334155" d="M296.75,-191C296.75,-191 148.75,-191 148.75,-191 142.75,-191 136.75,-185 136.75,-179 136.75,-179 136.75,-167 136.75,-167 136.75,-161 142.75,-155 148.75,-155 148.75,-155 296.75,-155 296.75,-155 302.75,-155 308.75,-161 308.75,-167 308.75,-167 308.75,-179 308.75,-179 308.75,-185 302.75,-191 296.75,-191"/>
<text text-anchor="middle" x="222.75" y="-170.5" font-family="Arial" font-size="10.00">Select system transaction to match</text>
</g>
<!-- E&#45;&gt;F -->
<g id="edge5" class="edge">
<title>E&#45;&gt;F</title>
<path fill="none" stroke="#475569" d="M227.48,-237.03C226.71,-226.71 225.7,-213.28 224.81,-201.47"/>
<polygon fill="#475569" stroke="#475569" points="228.28,-200.93 224.04,-191.22 221.3,-201.45 228.28,-200.93"/>
</g>
<!-- G -->
<g id="node15" class="node">
<title>G</title>
<path fill="#f8fafc" stroke="#334155" d="M576.05,-115.36C576.05,-115.36 519.62,-102.64 519.62,-102.64 513.77,-101.32 513.77,-98.68 519.62,-97.36 519.62,-97.36 576.05,-84.64 576.05,-84.64 581.9,-83.32 593.61,-83.32 599.46,-84.64 599.46,-84.64 655.88,-97.36 655.88,-97.36 661.74,-98.68 661.74,-101.32 655.88,-102.64 655.88,-102.64 599.46,-115.36 599.46,-115.36 593.61,-116.68 581.9,-116.68 576.05,-115.36"/>
<text text-anchor="middle" x="587.75" y="-97.5" font-family="Arial" font-size="10.00">Transaction valid?</text>
</g>
<!-- F&#45;&gt;G -->
<g id="edge6" class="edge">
<title>F&#45;&gt;G</title>
<path fill="none" stroke="#475569" d="M280.62,-154.96C291.26,-152.1 302.3,-149.32 312.75,-147 387.27,-130.47 474.32,-116.85 530.2,-108.83"/>
<polygon fill="#475569" stroke="#475569" points="530.85,-112.27 540.26,-107.39 529.87,-105.34 530.85,-112.27"/>
</g>
<!-- G&#45;&gt;H -->
<g id="edge7" class="edge">
<title>G&#45;&gt;H</title>
<path fill="none" stroke="#475569" d="M646.86,-104.78C727.45,-113.48 869.15,-142.19 933.75,-237 942.76,-250.22 942.92,-259.88 933.75,-273 927.08,-282.55 871.66,-301.82 825.51,-316.54"/>
<polygon fill="#475569" stroke="#475569" points="824.29,-313.26 815.82,-319.61 826.41,-319.93 824.29,-313.26"/>
<text text-anchor="middle" x="966.25" y="-211.8" font-family="Arial" font-size="9.00">completed + same unit</text>
</g>
<!-- I -->
<g id="node16" class="node">
<title>I</title>
<path fill="#f8fafc" stroke="#334155" d="M636.75,-36C636.75,-36 538.75,-36 538.75,-36 532.75,-36 526.75,-30 526.75,-24 526.75,-24 526.75,-12 526.75,-12 526.75,-6 532.75,0 538.75,0 538.75,0 636.75,0 636.75,0 642.75,0 648.75,-6 648.75,-12 648.75,-12 648.75,-24 648.75,-24 648.75,-30 642.75,-36 636.75,-36"/>
<text text-anchor="middle" x="587.75" y="-15.5" font-family="Arial" font-size="10.00">Error: invalid transaction</text>
</g>
<!-- G&#45;&gt;I -->
<g id="edge8" class="edge">
<title>G&#45;&gt;I</title>
<path fill="none" stroke="#475569" d="M587.75,-81.64C587.75,-71.3 587.75,-57.94 587.75,-46.22"/>
<polygon fill="#475569" stroke="#475569" points="591.25,-46.05 587.75,-36.05 584.25,-46.05 591.25,-46.05"/>
<text text-anchor="middle" x="601.75" y="-56.8" font-family="Arial" font-size="9.00">invalid</text>
</g>
<!-- J&#45;&gt;K -->
<g id="edge10" class="edge">
<title>J&#45;&gt;K</title>
<path fill="none" stroke="#475569" d="M385.75,-450.74C385.75,-428.98 385.75,-391.32 385.75,-365.56"/>
<polygon fill="#475569" stroke="#475569" points="389.25,-365.33 385.75,-355.33 382.25,-365.33 389.25,-365.33"/>
<text text-anchor="middle" x="393.75" y="-425.8" font-family="Arial" font-size="9.00">Yes</text>
</g>
<!-- L -->
<g id="node18" class="node">
<title>L</title>
<path fill="#f8fafc" stroke="#334155" d="M69.04,-352.38C69.04,-352.38 11.96,-339.62 11.96,-339.62 6.1,-338.31 6.1,-335.69 11.96,-334.38 11.96,-334.38 69.04,-321.62 69.04,-321.62 74.9,-320.31 86.61,-320.31 92.46,-321.62 92.46,-321.62 149.55,-334.38 149.55,-334.38 155.4,-335.69 155.4,-338.31 149.55,-339.62 149.55,-339.62 92.46,-352.38 92.46,-352.38 86.61,-353.69 74.9,-353.69 69.04,-352.38"/>
<text text-anchor="middle" x="80.75" y="-334.5" font-family="Arial" font-size="10.00">All lines matched?</text>
</g>
<!-- J&#45;&gt;L -->
<g id="edge12" class="edge">
<title>J&#45;&gt;L</title>
<path fill="none" stroke="#475569" d="M334.48,-462.34C289.14,-455.75 222.24,-442.12 169.75,-415 142.84,-401.09 117.24,-377.46 100.47,-360.04"/>
<polygon fill="#475569" stroke="#475569" points="102.8,-357.42 93.41,-352.52 97.7,-362.21 102.8,-357.42"/>
<text text-anchor="middle" x="215.25" y="-425.8" font-family="Arial" font-size="9.00">No</text>
</g>
<!-- L&#45;&gt;M -->
<g id="edge14" class="edge">
<title>L&#45;&gt;M</title>
<path fill="none" stroke="#475569" d="M93.68,-352.2C109.54,-369.56 138.22,-396.96 169.75,-408 238.44,-432.04 760.31,-441.82 824.75,-408 842.21,-398.83 854.68,-380.31 862.66,-364.49"/>
<polygon fill="#475569" stroke="#475569" points="865.99,-365.63 867.06,-355.09 859.65,-362.66 865.99,-365.63"/>
<text text-anchor="middle" x="522.75" y="-425.8" font-family="Arial" font-size="9.00">Yes</text>
</g>
<!-- L&#45;&gt;E -->
<g id="edge13" class="edge">
<title>L&#45;&gt;E</title>
<path fill="none" stroke="#475569" d="M103.23,-323.85C128.95,-309.95 171.15,-287.14 199.43,-271.85"/>
<polygon fill="#475569" stroke="#475569" points="201.31,-274.81 208.45,-266.98 197.99,-268.65 201.31,-274.81"/>
<text text-anchor="middle" x="170.25" y="-293.8" font-family="Arial" font-size="9.00">No</text>
</g>
</g>
</svg>
