<?xml version="1.0" encoding="UTF-8" standalone="no"?>
<!DOCTYPE svg PUBLIC "-//W3C//DTD SVG 1.1//EN"
 "http://www.w3.org/Graphics/SVG/1.1/DTD/svg11.dtd">
<!-- Generated by graphviz version 2.43.0 (0)
 -->
<!-- Title: G Pages: 1 -->
<svg width="534pt" height="1496pt"
 viewBox="0.00 0.00 533.50 1496.00" xmlns="http://www.w3.org/2000/svg" xmlns:xlink="http://www.w3.org/1999/xlink">
<g id="graph0" class="graph" transform="scale(1 1) rotate(0) translate(4 1492)">
<title>G</title>
<polygon fill="white" stroke="transparent" points="-4,4 -4,-1492 529.5,-1492 529.5,4 -4,4"/>
<text text-anchor="middle" x="262.75" y="-1471.2" font-family="Arial" font-size="16.00">OPERATIONAL_HANDBOOK_ID.md &#45; diagram 5</text>
<g id="clust1" class="cluster">
<title>cluster_sg_1</title>
<path fill="white" stroke="#cbd5e1" d="M239.5,-8C239.5,-8 435.5,-8 435.5,-8 441.5,-8 447.5,-14 447.5,-20 447.5,-20 447.5,-220 447.5,-220 447.5,-226 441.5,-232 435.5,-232 435.5,-232 239.5,-232 239.5,-232 233.5,-232 227.5,-226 227.5,-220 227.5,-220 227.5,-20 227.5,-20 227.5,-14 233.5,-8 239.5,-8"/>
<text text-anchor="middle" x="337.5" y="-215.2" font-family="Arial" font-size="16.00">Lapisan Tampilan</text>
</g>
<!-- T -->
<g id="node1" class="node">
<title>T</title>
<path fill="#f8fafc" stroke="#334155" d="M383,-198C383,-198 292,-198 292,-198 286,-198 280,-192 280,-186 280,-186 280,-174 280,-174 280,-168 286,-162 292,-162 292,-162 383,-162 383,-162 389,-162 395,-168 395,-174 395,-174 395,-186 395,-186 395,-192 389,-198 383,-198"/>
<text text-anchor="middle" x="337.5" y="-177.5" font-family="Arial" font-size="10.00">Kembalikan Response</text>
</g>
<!-- U -->
<g id="node2" class="node">
<title>U</title>
<path fill="#f8fafc" stroke="#334155" d="M383.5,-125C383.5,-125 291.5,-125 291.5,-125 285.5,-125 279.5,-119 279.5,-113 279.5,-113 279.5,-101 279.5,-101 279.5,-95 285.5,-89 291.5,-89 291.5,-89 383.5,-89 383.5,-89 389.5,-89 395.5,-95 395.5,-101 395.5,-101 395.5,-113 395.5,-113 395.5,-119 389.5,-125 383.5,-125"/>
<text text-anchor="middle" x="337.5" y="-104.5" font-family="Arial" font-size="10.00">Direktif @can di Blade</text>
</g>
<!-- T&#45;&gt;U -->
<g id="edge24" class="edge">
<title>T&#45;&gt;U</title>
<path fill="none" stroke="#475569" d="M337.5,-161.81C337.5,-153.79 337.5,-144.05 337.5,-135.07"/>
<polygon fill="#475569" stroke="#475569" points="341,-135.03 337.5,-125.03 334,-135.03 341,-135.03"/>
</g>
<!-- V -->
<g id="node3" class="node">
<title>V</title>
<path fill="#f8fafc" stroke="#334155" d="M427.5,-52C427.5,-52 247.5,-52 247.5,-52 241.5,-52 235.5,-46 235.5,-40 235.5,-40 235.5,-28 235.5,-28 235.5,-22 241.5,-16 247.5,-16 247.5,-16 427.5,-16 427.5,-16 433.5,-16 439.5,-22 439.5,-28 439.5,-28 439.5,-40 439.5,-40 439.5,-46 433.5,-52 427.5,-52"/>
<text text-anchor="middle" x="337.5" y="-31.5" font-family="Arial" font-size="10.00">Tampilkan/sembunyikan elemen UI per izin</text>
</g>
<!-- U&#45;&gt;V -->
<g id="edge25" class="edge">
<title>U&#45;&gt;V</title>
<path fill="none" stroke="#475569" d="M337.5,-88.81C337.5,-80.79 337.5,-71.05 337.5,-62.07"/>
<polygon fill="#475569" stroke="#475569" points="341,-62.03 337.5,-52.03 334,-62.03 341,-62.03"/>
</g>
<!-- A -->
<g id="node4" class="node">
<title>A</title>
<path fill="#f8fafc" stroke="#334155" d="M118,-1462C118,-1462 47,-1462 47,-1462 41,-1462 35,-1456 35,-1450 35,-1450 35,-1438 35,-1438 35,-1432 41,-1426 47,-1426 47,-1426 118,-1426 118,-1426 124,-1426 130,-1432 130,-1438 130,-1438 130,-1450 130,-1450 130,-1456 124,-1462 118,-1462"/>
<text text-anchor="middle" x="82.5" y="-1441.5" font-family="Arial" font-size="10.00">Permintaan HTTP</text>
</g>
<!-- B -->
<g id="node5" class="node">
<title>B</title>
<path fill="#f8fafc" stroke="#334155" d="M115,-1389C115,-1389 50,-1389 50,-1389 44,-1389 38,-1383 38,-1377 38,-1377 38,-1365 38,-1365 38,-1359 44,-1353 50,-1353 50,-1353 115,-1353 115,-1353 121,-1353 127,-1359 127,-1365 127,-1365 127,-1377 127,-1377 127,-1383 121,-1389 115,-1389"/>
<text text-anchor="middle" x="82.5" y="-1368.5" font-family="Arial" font-size="10.00">Middleware Auth</text>
</g>
<!-- A&#45;&gt;B -->
<g id="edge1" class="edge">
<title>A&#45;&gt;B</title>
<path fill="none" stroke="#475569" d="M82.5,-1425.81C82.5,-1417.79 82.5,-1408.05 82.5,-1399.07"/>
<polygon fill="#475569" stroke="#475569" points="86,-1399.03 82.5,-1389.03 79,-1399.03 86,-1399.03"/>
</g>
<!-- C -->
<g id="node6" class="node">
<title>C</title>
<path fill="#f8fafc" stroke="#334155" d="M81,-1307C81,-1307 12,-1307 12,-1307 6,-1307 0,-1301 0,-1295 0,-1295 0,-1283 0,-1283 0,-1277 6,-1271 12,-1271 12,-1271 81,-1271 81,-1271 87,-1271 93,-1277 93,-1283 93,-1283 93,-1295 93,-1295 93,-1301 87,-1307 81,-1307"/>
<text text-anchor="middle" x="46.5" y="-1286.5" font-family="Arial" font-size="10.00">Redirect ke Login</text>
</g>
<!-- B&#45;&gt;C -->
<g id="edge2" class="edge">
<title>B&#45;&gt;C</title>
<path fill="none" stroke="#475569" d="M74.69,-1352.64C69.94,-1342.09 63.78,-1328.39 58.43,-1316.51"/>
<polygon fill="#475569" stroke="#475569" points="61.47,-1314.73 54.17,-1307.05 55.08,-1317.61 61.47,-1314.73"/>
<text text-anchor="middle" x="92" y="-1327.8" font-family="Arial" font-size="9.00">Belum login</text>
</g>
<!-- D -->
<g id="node7" class="node">
<title>D</title>
<path fill="#f8fafc" stroke="#334155" d="M212,-1307C212,-1307 123,-1307 123,-1307 117,-1307 111,-1301 111,-1295 111,-1295 111,-1283 111,-1283 111,-1277 117,-1271 123,-1271 123,-1271 212,-1271 212,-1271 218,-1271 224,-1277 224,-1283 224,-1283 224,-1295 224,-1295 224,-1301 218,-1307 212,-1307"/>
<text text-anchor="middle" x="167.5" y="-1286.5" font-family="Arial" font-size="10.00">Middleware SetLocale</text>
</g>
<!-- B&#45;&gt;D -->
<g id="edge3" class="edge">
<title>B&#45;&gt;D</title>
<path fill="none" stroke="#475569" d="M101.12,-1352.98C107.31,-1347.29 114.22,-1340.89 120.5,-1335 127.64,-1328.3 135.33,-1320.98 142.38,-1314.22"/>
<polygon fill="#475569" stroke="#475569" points="144.93,-1316.63 149.72,-1307.18 140.08,-1311.58 144.93,-1316.63"/>
<text text-anchor="middle" x="156.5" y="-1327.8" font-family="Arial" font-size="9.00">Sudah login</text>
</g>
<!-- E -->
<g id="node8" class="node">
<title>E</title>
<path fill="#f8fafc" stroke="#334155" d="M231.5,-1234C231.5,-1234 103.5,-1234 103.5,-1234 97.5,-1234 91.5,-1228 91.5,-1222 91.5,-1222 91.5,-1210 91.5,-1210 91.5,-1204 97.5,-1198 103.5,-1198 103.5,-1198 231.5,-1198 231.5,-1198 237.5,-1198 243.5,-1204 243.5,-1210 243.5,-1210 243.5,-1222 243.5,-1222 243.5,-1228 237.5,-1234 231.5,-1234"/>
<text text-anchor="middle" x="167.5" y="-1213.5" font-family="Arial" font-size="10.00">Middleware EnsureUnitContext</text>
</g>
<!-- D&#45;&gt;E -->
<g id="edge4" class="edge">
<title>D&#45;&gt;E</title>
<path fill="none" stroke="#475569" d="M167.5,-1270.81C167.5,-1262.79 167.5,-1253.05 167.5,-1244.07"/>
<polygon fill="#475569" stroke="#475569" points="171,-1244.03 167.5,-1234.03 164,-1244.03 171,-1244.03"/>
</g>
<!-- F -->
<g id="node9" class="node">
<title>F</title>
<path fill="#f8fafc" stroke="#334155" d="M228.5,-1161C228.5,-1161 106.5,-1161 106.5,-1161 100.5,-1161 94.5,-1155 94.5,-1149 94.5,-1149 94.5,-1137 94.5,-1137 94.5,-1131 100.5,-1125 106.5,-1125 106.5,-1125 228.5,-1125 228.5,-1125 234.5,-1125 240.5,-1131 240.5,-1137 240.5,-1137 240.5,-1149 240.5,-1149 240.5,-1155 234.5,-1161 228.5,-1161"/>
<text text-anchor="middle" x="167.5" y="-1140.5" font-family="Arial" font-size="10.00">Set current_unit_id di session</text>
</g>
<!-- E&#45;&gt;F -->
<g id="edge5" class="edge">
<title>E&#45;&gt;F</title>
<path fill="none" stroke="#475569" d="M167.5,-1197.81C167.5,-1189.79 167.5,-1180.05 167.5,-1171.07"/>
<polygon fill="#475569" stroke="#475569" points="171,-1171.03 167.5,-1161.03 164,-1171.03 171,-1171.03"/>
</g>
<!-- G -->
<g id="node10" class="node">
<title>G</title>
<path fill="#f8fafc" stroke="#334155" d="M224,-1088C224,-1088 111,-1088 111,-1088 105,-1088 99,-1082 99,-1076 99,-1076 99,-1064 99,-1064 99,-1058 105,-1052 111,-1052 111,-1052 224,-1052 224,-1052 230,-1052 236,-1058 236,-1064 236,-1064 236,-1076 236,-1076 236,-1082 230,-1088 224,-1088"/>
<text text-anchor="middle" x="167.5" y="-1067.5" font-family="Arial" font-size="10.00">Middleware CheckInactivity</text>
</g>
<!-- F&#45;&gt;G -->
<g id="edge6" class="edge">
<title>F&#45;&gt;G</title>
<path fill="none" stroke="#475569" d="M167.5,-1124.81C167.5,-1116.79 167.5,-1107.05 167.5,-1098.07"/>
<polygon fill="#475569" stroke="#475569" points="171,-1098.03 167.5,-1088.03 164,-1098.03 171,-1098.03"/>
</g>
<!-- H -->
<g id="node11" class="node">
<title>H</title>
<path fill="#f8fafc" stroke="#334155" d="M175,-1006C175,-1006 104,-1006 104,-1006 98,-1006 92,-1000 92,-994 92,-994 92,-982 92,-982 92,-976 98,-970 104,-970 104,-970 175,-970 175,-970 181,-970 187,-976 187,-982 187,-982 187,-994 187,-994 187,-1000 181,-1006 175,-1006"/>
<text text-anchor="middle" x="139.5" y="-985.5" font-family="Arial" font-size="10.00">Logout + Redirect</text>
</g>
<!-- G&#45;&gt;H -->
<g id="edge7" class="edge">
<title>G&#45;&gt;H</title>
<path fill="none" stroke="#475569" d="M161.42,-1051.64C157.73,-1041.09 152.94,-1027.39 148.78,-1015.51"/>
<polygon fill="#475569" stroke="#475569" points="152.07,-1014.33 145.47,-1006.05 145.47,-1016.64 152.07,-1014.33"/>
<text text-anchor="middle" x="172.5" y="-1026.8" font-family="Arial" font-size="9.00">Timeout</text>
</g>
<!-- I -->
<g id="node12" class="node">
<title>I</title>
<path fill="#f8fafc" stroke="#334155" d="M317.62,-1004.28C317.62,-1004.28 217.29,-989.72 217.29,-989.72 211.35,-988.86 211.35,-987.14 217.29,-986.28 217.29,-986.28 317.62,-971.72 317.62,-971.72 323.56,-970.86 335.44,-970.86 341.38,-971.72 341.38,-971.72 441.71,-986.28 441.71,-986.28 447.65,-987.14 447.65,-988.86 441.71,-989.72 441.71,-989.72 341.38,-1004.28 341.38,-1004.28 335.44,-1005.14 323.56,-1005.14 317.62,-1004.28"/>
<text text-anchor="middle" x="329.5" y="-985.5" font-family="Arial" font-size="10.00">Route punya middleware role?</text>
</g>
<!-- G&#45;&gt;I -->
<g id="edge8" class="edge">
<title>G&#45;&gt;I</title>
<path fill="none" stroke="#475569" d="M202.25,-1051.84C229.2,-1038.53 266.41,-1020.15 293.64,-1006.71"/>
<polygon fill="#475569" stroke="#475569" points="295.4,-1009.74 302.81,-1002.18 292.3,-1003.47 295.4,-1009.74"/>
<text text-anchor="middle" x="267.5" y="-1026.8" font-family="Arial" font-size="9.00">Aktif</text>
</g>
<!-- J -->
<g id="node13" class="node">
<title>J</title>
<path fill="#f8fafc" stroke="#334155" d="M311.5,-924C311.5,-924 217.5,-924 217.5,-924 211.5,-924 205.5,-918 205.5,-912 205.5,-912 205.5,-900 205.5,-900 205.5,-894 211.5,-888 217.5,-888 217.5,-888 311.5,-888 311.5,-888 317.5,-888 323.5,-894 323.5,-900 323.5,-900 323.5,-912 323.5,-912 323.5,-918 317.5,-924 311.5,-924"/>
<text text-anchor="middle" x="264.5" y="-903.5" font-family="Arial" font-size="10.00">Middleware CheckRole</text>
</g>
<!-- I&#45;&gt;J -->
<g id="edge9" class="edge">
<title>I&#45;&gt;J</title>
<path fill="none" stroke="#475569" d="M316.97,-971.58C307.89,-960.4 295.42,-945.05 284.91,-932.12"/>
<polygon fill="#475569" stroke="#475569" points="287.37,-929.59 278.34,-924.04 281.93,-934.01 287.37,-929.59"/>
<text text-anchor="middle" x="306" y="-944.8" font-family="Arial" font-size="9.00">Ya</text>
</g>
<!-- L -->
<g id="node15" class="node">
<title>L</title>
<path fill="#f8fafc" stroke="#334155" d="M347.59,-840.57C347.59,-840.57 221.72,-825.43 221.72,-825.43 215.76,-824.72 215.76,-823.28 221.72,-822.57 221.72,-822.57 347.59,-807.43 347.59,-807.43 353.54,-806.72 365.46,-806.72 371.41,-807.43 371.41,-807.43 497.28,-822.57 497.28,-822.57 503.24,-823.28 503.24,-824.72 497.28,-825.43 497.28,-825.43 371.41,-840.57 371.41,-840.57 365.46,-841.28 353.54,-841.28 347.59,-840.57"/>
<text text-anchor="middle" x="359.5" y="-821.5" font-family="Arial" font-size="10.00">Route punya middleware permission?</text>
</g>
<!-- I&#45;&gt;L -->
<g id="edge12" class="edge">
<title>I&#45;&gt;L</title>
<path fill="none" stroke="#475569" d="M332.6,-970.27C337.78,-942.26 348.27,-885.63 354.51,-851.94"/>
<polygon fill="#475569" stroke="#475569" points="357.99,-852.35 356.37,-841.88 351.11,-851.07 357.99,-852.35"/>
<text text-anchor="middle" x="358" y="-903.8" font-family="Arial" font-size="9.00">Tidak</text>
</g>
<!-- K -->
<g id="node14" class="node">
<title>K</title>
<path fill="#f8fafc" stroke="#334155" d="M244.5,-678C244.5,-678 160.5,-678 160.5,-678 154.5,-678 148.5,-672 148.5,-666 148.5,-666 148.5,-654 148.5,-654 148.5,-648 154.5,-642 160.5,-642 160.5,-642 244.5,-642 244.5,-642 250.5,-642 256.5,-648 256.5,-654 256.5,-654 256.5,-666 256.5,-666 256.5,-672 250.5,-678 244.5,-678"/>
<text text-anchor="middle" x="202.5" y="-657.5" font-family="Arial" font-size="10.00">403 Tidak Diotorisasi</text>
</g>
<!-- J&#45;&gt;K -->
<g id="edge10" class="edge">
<title>J&#45;&gt;K</title>
<path fill="none" stroke="#475569" d="M238.94,-887.82C224.71,-876.65 208.33,-860.7 200.5,-842 179.12,-790.95 188.1,-724.48 195.79,-687.96"/>
<polygon fill="#475569" stroke="#475569" points="199.24,-688.59 198,-678.07 192.41,-687.07 199.24,-688.59"/>
<text text-anchor="middle" x="232.5" y="-780.8" font-family="Arial" font-size="9.00">User tidak punya role</text>
</g>
<!-- J&#45;&gt;L -->
<g id="edge11" class="edge">
<title>J&#45;&gt;L</title>
<path fill="none" stroke="#475569" d="M266.76,-887.9C268.76,-878.68 272.5,-867.66 279.5,-860 286.7,-852.11 296.01,-845.91 305.7,-841.07"/>
<polygon fill="#475569" stroke="#475569" points="307.4,-844.15 315.07,-836.84 304.51,-837.77 307.4,-844.15"/>
<text text-anchor="middle" x="312.5" y="-862.8" font-family="Arial" font-size="9.00">User punya role</text>
</g>
<!-- M -->
<g id="node16" class="node">
<title>M</title>
<path fill="#f8fafc" stroke="#334155" d="M317,-760C317,-760 222,-760 222,-760 216,-760 210,-754 210,-748 210,-748 210,-736 210,-736 210,-730 216,-724 222,-724 222,-724 317,-724 317,-724 323,-724 329,-730 329,-736 329,-736 329,-748 329,-748 329,-754 323,-760 317,-760"/>
<text text-anchor="middle" x="269.5" y="-739.5" font-family="Arial" font-size="10.00">Middleware Spatie can:</text>
</g>
<!-- L&#45;&gt;M -->
<g id="edge13" class="edge">
<title>L&#45;&gt;M</title>
<path fill="none" stroke="#475569" d="M342.57,-807.95C329.56,-796.39 311.34,-780.19 296.35,-766.87"/>
<polygon fill="#475569" stroke="#475569" points="298.65,-764.23 288.85,-760.2 294,-769.46 298.65,-764.23"/>
<text text-anchor="middle" x="325" y="-780.8" font-family="Arial" font-size="9.00">Ya</text>
</g>
<!-- N -->
<g id="node17" class="node">
<title>N</title>
<path fill="#f8fafc" stroke="#334155" d="M344,-678C344,-678 287,-678 287,-678 281,-678 275,-672 275,-666 275,-666 275,-654 275,-654 275,-648 281,-642 287,-642 287,-642 344,-642 344,-642 350,-642 356,-648 356,-654 356,-654 356,-666 356,-666 356,-672 350,-678 344,-678"/>
<text text-anchor="middle" x="315.5" y="-657.5" font-family="Arial" font-size="10.00">Aksi Controller</text>
</g>
<!-- L&#45;&gt;N -->
<g id="edge16" class="edge">
<title>L&#45;&gt;N</title>
<path fill="none" stroke="#475569" d="M362.15,-806.04C365.29,-780.77 368.21,-732.33 351.5,-696 349.83,-692.36 347.59,-688.9 345.06,-685.68"/>
<polygon fill="#475569" stroke="#475569" points="347.57,-683.24 338.27,-678.16 342.38,-687.93 347.57,-683.24"/>
<text text-anchor="middle" x="375" y="-739.8" font-family="Arial" font-size="9.00">Tidak</text>
</g>
<!-- M&#45;&gt;K -->
<g id="edge14" class="edge">
<title>M&#45;&gt;K</title>
<path fill="none" stroke="#475569" d="M254.96,-723.64C245.68,-712.56 233.5,-698.02 223.22,-685.74"/>
<polygon fill="#475569" stroke="#475569" points="225.88,-683.47 216.78,-678.05 220.52,-687.96 225.88,-683.47"/>
<text text-anchor="middle" x="262.5" y="-698.8" font-family="Arial" font-size="9.00">Izin ditolak</text>
</g>
<!-- M&#45;&gt;N -->
<g id="edge15" class="edge">
<title>M&#45;&gt;N</title>
<path fill="none" stroke="#475569" d="M279.48,-723.64C285.67,-712.87 293.74,-698.85 300.67,-686.79"/>
<polygon fill="#475569" stroke="#475569" points="303.75,-688.46 305.7,-678.05 297.68,-684.97 303.75,-688.46"/>
<text text-anchor="middle" x="322" y="-698.8" font-family="Arial" font-size="9.00">Izin diberikan</text>
</g>
<!-- O -->
<g id="node18" class="node">
<title>O</title>
<path fill="#f8fafc" stroke="#334155" d="M374.5,-605C374.5,-605 256.5,-605 256.5,-605 250.5,-605 244.5,-599 244.5,-593 244.5,-593 244.5,-581 244.5,-581 244.5,-575 250.5,-569 256.5,-569 256.5,-569 374.5,-569 374.5,-569 380.5,-569 386.5,-575 386.5,-581 386.5,-581 386.5,-593 386.5,-593 386.5,-599 380.5,-605 374.5,-605"/>
<text text-anchor="middle" x="315.5" y="-584.5" font-family="Arial" font-size="10.00">BelongsToUnit Global Scope</text>
</g>
<!-- N&#45;&gt;O -->
<g id="edge17" class="edge">
<title>N&#45;&gt;O</title>
<path fill="none" stroke="#475569" d="M315.5,-641.81C315.5,-633.79 315.5,-624.05 315.5,-615.07"/>
<polygon fill="#475569" stroke="#475569" points="319,-615.03 315.5,-605.03 312,-615.03 319,-615.03"/>
</g>
<!-- P -->
<g id="node19" class="node">
<title>P</title>
<path fill="#f8fafc" stroke="#334155" d="M398.5,-532C398.5,-532 232.5,-532 232.5,-532 226.5,-532 220.5,-526 220.5,-520 220.5,-520 220.5,-508 220.5,-508 220.5,-502 226.5,-496 232.5,-496 232.5,-496 398.5,-496 398.5,-496 404.5,-496 410.5,-502 410.5,-508 410.5,-508 410.5,-520 410.5,-520 410.5,-526 404.5,-532 398.5,-532"/>
<text text-anchor="middle" x="315.5" y="-511.5" font-family="Arial" font-size="10.00">Data difilter berdasarkan current_unit_id</text>
</g>
<!-- O&#45;&gt;P -->
<g id="edge18" class="edge">
<title>O&#45;&gt;P</title>
<path fill="none" stroke="#475569" d="M315.5,-568.81C315.5,-560.79 315.5,-551.05 315.5,-542.07"/>
<polygon fill="#475569" stroke="#475569" points="319,-542.03 315.5,-532.03 312,-542.03 319,-542.03"/>
</g>
<!-- Q -->
<g id="node20" class="node">
<title>Q</title>
<path fill="#f8fafc" stroke="#334155" d="M303.75,-456.56C303.75,-456.56 240.59,-443.44 240.59,-443.44 234.72,-442.22 234.72,-439.78 240.59,-438.56 240.59,-438.56 303.75,-425.44 303.75,-425.44 309.63,-424.22 321.37,-424.22 327.25,-425.44 327.25,-425.44 390.41,-438.56 390.41,-438.56 396.28,-439.78 396.28,-442.22 390.41,-443.44 390.41,-443.44 327.25,-456.56 327.25,-456.56 321.37,-457.78 309.63,-457.78 303.75,-456.56"/>
<text text-anchor="middle" x="315.5" y="-438.5" font-family="Arial" font-size="10.00">Permintaan mutasi?</text>
</g>
<!-- P&#45;&gt;Q -->
<g id="edge19" class="edge">
<title>P&#45;&gt;Q</title>
<path fill="none" stroke="#475569" d="M315.5,-495.81C315.5,-487.79 315.5,-478.05 315.5,-469.07"/>
<polygon fill="#475569" stroke="#475569" points="319,-469.03 315.5,-459.03 312,-469.03 319,-469.03"/>
</g>
<!-- Q&#45;&gt;T -->
<g id="edge22" class="edge">
<title>Q&#45;&gt;T</title>
<path fill="none" stroke="#475569" d="M314.53,-422.94C312.97,-390.74 310.81,-318.85 318.5,-259 320.7,-241.87 325.22,-223.05 329.3,-208.18"/>
<polygon fill="#475569" stroke="#475569" points="332.79,-208.72 332.16,-198.14 326.06,-206.8 332.79,-208.72"/>
<text text-anchor="middle" x="325" y="-315.8" font-family="Arial" font-size="9.00">Tidak</text>
</g>
<!-- R -->
<g id="node21" class="node">
<title>R</title>
<path fill="#f8fafc" stroke="#334155" d="M445,-377C445,-377 362,-377 362,-377 356,-377 350,-371 350,-365 350,-365 350,-353 350,-353 350,-347 356,-341 362,-341 362,-341 445,-341 445,-341 451,-341 457,-347 457,-353 457,-353 457,-365 457,-365 457,-371 451,-377 445,-377"/>
<text text-anchor="middle" x="403.5" y="-356.5" font-family="Arial" font-size="10.00">Middleware AuditLog</text>
</g>
<!-- Q&#45;&gt;R -->
<g id="edge20" class="edge">
<title>Q&#45;&gt;R</title>
<path fill="none" stroke="#475569" d="M330.83,-426.07C343.58,-414.48 362.01,-397.72 377.12,-383.98"/>
<polygon fill="#475569" stroke="#475569" points="379.63,-386.43 384.68,-377.11 374.92,-381.25 379.63,-386.43"/>
<text text-anchor="middle" x="370" y="-397.8" font-family="Arial" font-size="9.00">Ya</text>
</g>
<!-- S -->
<g id="node22" class="node">
<title>S</title>
<path fill="#f8fafc" stroke="#334155" d="M513.5,-295C513.5,-295 339.5,-295 339.5,-295 333.5,-295 327.5,-289 327.5,-283 327.5,-283 327.5,-271 327.5,-271 327.5,-265 333.5,-259 339.5,-259 339.5,-259 513.5,-259 513.5,-259 519.5,-259 525.5,-265 525.5,-271 525.5,-271 525.5,-283 525.5,-283 525.5,-289 519.5,-295 513.5,-295"/>
<text text-anchor="middle" x="426.5" y="-274.5" font-family="Arial" font-size="10.00">Log: metode, URL, IP, user_agent, status</text>
</g>
<!-- R&#45;&gt;S -->
<g id="edge21" class="edge">
<title>R&#45;&gt;S</title>
<path fill="none" stroke="#475569" d="M408.49,-340.64C411.49,-330.19 415.38,-316.67 418.78,-304.86"/>
<polygon fill="#475569" stroke="#475569" points="422.2,-305.63 421.6,-295.05 415.47,-303.69 422.2,-305.63"/>
</g>
<!-- S&#45;&gt;T -->
<g id="edge23" class="edge">
<title>S&#45;&gt;T</title>
<path fill="none" stroke="#475569" d="M410.18,-258.58C396.38,-243.84 376.43,-222.56 360.93,-206.01"/>
<polygon fill="#475569" stroke="#475569" points="363.11,-203.22 353.72,-198.31 358,-208 363.11,-203.22"/>
</g>
</g>
</svg>
