<?xml version="1.0" encoding="UTF-8" standalone="no"?>
<!DOCTYPE svg PUBLIC "-//W3C//DTD SVG 1.1//EN"
 "http://www.w3.org/Graphics/SVG/1.1/DTD/svg11.dtd">
<!-- Generated by graphviz version 2.43.0 (0)
 -->
<!-- Title: G Pages: 1 -->
<svg width="536pt" height="1496pt"
 viewBox="0.00 0.00 535.50 1496.00" xmlns="http://www.w3.org/2000/svg" xmlns:xlink="http://www.w3.org/1999/xlink">
<g id="graph0" class="graph" transform="scale(1 1) rotate(0) translate(4 1492)">
<title>G</title>
<polygon fill="white" stroke="transparent" points="-4,4 -4,-1492 531.5,-1492 531.5,4 -4,4"/>
<text text-anchor="middle" x="263.75" y="-1471.2" font-family="Arial" font-size="16.00">OPERATIONAL_HANDBOOK_EN.md &#45; diagram 5</text>
<g id="clust1" class="cluster">
<title>cluster_sg_1</title>
<path fill="white" stroke="#cbd5e1" d="M251.5,-8C251.5,-8 427.5,-8 427.5,-8 433.5,-8 439.5,-14 439.5,-20 439.5,-20 439.5,-220 439.5,-220 439.5,-226 433.5,-232 427.5,-232 427.5,-232 251.5,-232 251.5,-232 245.5,-232 239.5,-226 239.5,-220 239.5,-220 239.5,-20 239.5,-20 239.5,-14 245.5,-8 251.5,-8"/>
<text text-anchor="middle" x="339.5" y="-215.2" font-family="Arial" font-size="16.00">View Layer</text>
</g>
<!-- T -->
<g id="node1" class="node">
<title>T</title>
<path fill="#f8fafc" stroke="#334155" d="M374,-198C374,-198 305,-198 305,-198 299,-198 293,-192 293,-186 293,-186 293,-174 293,-174 293,-168 299,-162 305,-162 305,-162 374,-162 374,-162 380,-162 386,-168 386,-174 386,-174 386,-186 386,-186 386,-192 380,-198 374,-198"/>
<text text-anchor="middle" x="339.5" y="-177.5" font-family="Arial" font-size="10.00">Return Response</text>
</g>
<!-- U -->
<g id="node2" class="node">
<title>U</title>
<path fill="#f8fafc" stroke="#334155" d="M390.5,-125C390.5,-125 288.5,-125 288.5,-125 282.5,-125 276.5,-119 276.5,-113 276.5,-113 276.5,-101 276.5,-101 276.5,-95 282.5,-89 288.5,-89 288.5,-89 390.5,-89 390.5,-89 396.5,-89 402.5,-95 402.5,-101 402.5,-101 402.5,-113 402.5,-113 402.5,-119 396.5,-125 390.5,-125"/>
<text text-anchor="middle" x="339.5" y="-104.5" font-family="Arial" font-size="10.00">@can directives in Blade</text>
</g>
<!-- T&#45;&gt;U -->
<g id="edge24" class="edge">
<title>T&#45;&gt;U</title>
<path fill="none" stroke="#475569" d="M339.5,-161.81C339.5,-153.79 339.5,-144.05 339.5,-135.07"/>
<polygon fill="#475569" stroke="#475569" points="343,-135.03 339.5,-125.03 336,-135.03 343,-135.03"/>
</g>
<!-- V -->
<g id="node3" class="node">
<title>V</title>
<path fill="#f8fafc" stroke="#334155" d="M420,-52C420,-52 259,-52 259,-52 253,-52 247,-46 247,-40 247,-40 247,-28 247,-28 247,-22 253,-16 259,-16 259,-16 420,-16 420,-16 426,-16 432,-22 432,-28 432,-28 432,-40 432,-40 432,-46 426,-52 420,-52"/>
<text text-anchor="middle" x="339.5" y="-31.5" font-family="Arial" font-size="10.00">Show/hide UI elements per permission</text>
</g>
<!-- U&#45;&gt;V -->
<g id="edge25" class="edge">
<title>U&#45;&gt;V</title>
<path fill="none" stroke="#475569" d="M339.5,-88.81C339.5,-80.79 339.5,-71.05 339.5,-62.07"/>
<polygon fill="#475569" stroke="#475569" points="343,-62.03 339.5,-52.03 336,-62.03 343,-62.03"/>
</g>
<!-- A -->
<g id="node4" class="node">
<title>A</title>
<path fill="#f8fafc" stroke="#334155" d="M123,-1462C123,-1462 64,-1462 64,-1462 58,-1462 52,-1456 52,-1450 52,-1450 52,-1438 52,-1438 52,-1432 58,-1426 64,-1426 64,-1426 123,-1426 123,-1426 129,-1426 135,-1432 135,-1438 135,-1438 135,-1450 135,-1450 135,-1456 129,-1462 123,-1462"/>
<text text-anchor="middle" x="93.5" y="-1441.5" font-family="Arial" font-size="10.00">HTTP Request</text>
</g>
<!-- B -->
<g id="node5" class="node">
<title>B</title>
<path fill="#f8fafc" stroke="#334155" d="M126,-1389C126,-1389 61,-1389 61,-1389 55,-1389 49,-1383 49,-1377 49,-1377 49,-1365 49,-1365 49,-1359 55,-1353 61,-1353 61,-1353 126,-1353 126,-1353 132,-1353 138,-1359 138,-1365 138,-1365 138,-1377 138,-1377 138,-1383 132,-1389 126,-1389"/>
<text text-anchor="middle" x="93.5" y="-1368.5" font-family="Arial" font-size="10.00">Auth Middleware</text>
</g>
<!-- A&#45;&gt;B -->
<g id="edge1" class="edge">
<title>A&#45;&gt;B</title>
<path fill="none" stroke="#475569" d="M93.5,-1425.81C93.5,-1417.79 93.5,-1408.05 93.5,-1399.07"/>
<polygon fill="#475569" stroke="#475569" points="97,-1399.03 93.5,-1389.03 90,-1399.03 97,-1399.03"/>
</g>
<!-- C -->
<g id="node6" class="node">
<title>C</title>
<path fill="#f8fafc" stroke="#334155" d="M79,-1307C79,-1307 12,-1307 12,-1307 6,-1307 0,-1301 0,-1295 0,-1295 0,-1283 0,-1283 0,-1277 6,-1271 12,-1271 12,-1271 79,-1271 79,-1271 85,-1271 91,-1277 91,-1283 91,-1283 91,-1295 91,-1295 91,-1301 85,-1307 79,-1307"/>
<text text-anchor="middle" x="45.5" y="-1286.5" font-family="Arial" font-size="10.00">Redirect to Login</text>
</g>
<!-- B&#45;&gt;C -->
<g id="edge2" class="edge">
<title>B&#45;&gt;C</title>
<path fill="none" stroke="#475569" d="M73.03,-1352.98C67.68,-1347.68 62.34,-1341.51 58.5,-1335 55.27,-1329.53 52.8,-1323.2 50.93,-1317.05"/>
<polygon fill="#475569" stroke="#475569" points="54.23,-1315.85 48.31,-1307.06 47.46,-1317.62 54.23,-1315.85"/>
<text text-anchor="middle" x="95" y="-1327.8" font-family="Arial" font-size="9.00">Not authenticated</text>
</g>
<!-- D -->
<g id="node7" class="node">
<title>D</title>
<path fill="#f8fafc" stroke="#334155" d="M210,-1307C210,-1307 121,-1307 121,-1307 115,-1307 109,-1301 109,-1295 109,-1295 109,-1283 109,-1283 109,-1277 115,-1271 121,-1271 121,-1271 210,-1271 210,-1271 216,-1271 222,-1277 222,-1283 222,-1283 222,-1295 222,-1295 222,-1301 216,-1307 210,-1307"/>
<text text-anchor="middle" x="165.5" y="-1286.5" font-family="Arial" font-size="10.00">SetLocale Middleware</text>
</g>
<!-- B&#45;&gt;D -->
<g id="edge3" class="edge">
<title>B&#45;&gt;D</title>
<path fill="none" stroke="#475569" d="M113.48,-1352.84C119.49,-1347.35 125.96,-1341.11 131.5,-1335 137.05,-1328.88 142.64,-1321.91 147.63,-1315.31"/>
<polygon fill="#475569" stroke="#475569" points="150.46,-1317.36 153.59,-1307.24 144.83,-1313.2 150.46,-1317.36"/>
<text text-anchor="middle" x="169" y="-1327.8" font-family="Arial" font-size="9.00">Authenticated</text>
</g>
<!-- E -->
<g id="node8" class="node">
<title>E</title>
<path fill="#f8fafc" stroke="#334155" d="M229.5,-1234C229.5,-1234 101.5,-1234 101.5,-1234 95.5,-1234 89.5,-1228 89.5,-1222 89.5,-1222 89.5,-1210 89.5,-1210 89.5,-1204 95.5,-1198 101.5,-1198 101.5,-1198 229.5,-1198 229.5,-1198 235.5,-1198 241.5,-1204 241.5,-1210 241.5,-1210 241.5,-1222 241.5,-1222 241.5,-1228 235.5,-1234 229.5,-1234"/>
<text text-anchor="middle" x="165.5" y="-1213.5" font-family="Arial" font-size="10.00">EnsureUnitContext Middleware</text>
</g>
<!-- D&#45;&gt;E -->
<g id="edge4" class="edge">
<title>D&#45;&gt;E</title>
<path fill="none" stroke="#475569" d="M165.5,-1270.81C165.5,-1262.79 165.5,-1253.05 165.5,-1244.07"/>
<polygon fill="#475569" stroke="#475569" points="169,-1244.03 165.5,-1234.03 162,-1244.03 169,-1244.03"/>
</g>
<!-- F -->
<g id="node9" class="node">
<title>F</title>
<path fill="#f8fafc" stroke="#334155" d="M226.5,-1161C226.5,-1161 104.5,-1161 104.5,-1161 98.5,-1161 92.5,-1155 92.5,-1149 92.5,-1149 92.5,-1137 92.5,-1137 92.5,-1131 98.5,-1125 104.5,-1125 104.5,-1125 226.5,-1125 226.5,-1125 232.5,-1125 238.5,-1131 238.5,-1137 238.5,-1137 238.5,-1149 238.5,-1149 238.5,-1155 232.5,-1161 226.5,-1161"/>
<text text-anchor="middle" x="165.5" y="-1140.5" font-family="Arial" font-size="10.00">Set current_unit_id in session</text>
</g>
<!-- E&#45;&gt;F -->
<g id="edge5" class="edge">
<title>E&#45;&gt;F</title>
<path fill="none" stroke="#475569" d="M165.5,-1197.81C165.5,-1189.79 165.5,-1180.05 165.5,-1171.07"/>
<polygon fill="#475569" stroke="#475569" points="169,-1171.03 165.5,-1161.03 162,-1171.03 169,-1171.03"/>
</g>
<!-- G -->
<g id="node10" class="node">
<title>G</title>
<path fill="#f8fafc" stroke="#334155" d="M222,-1088C222,-1088 109,-1088 109,-1088 103,-1088 97,-1082 97,-1076 97,-1076 97,-1064 97,-1064 97,-1058 103,-1052 109,-1052 109,-1052 222,-1052 222,-1052 228,-1052 234,-1058 234,-1064 234,-1064 234,-1076 234,-1076 234,-1082 228,-1088 222,-1088"/>
<text text-anchor="middle" x="165.5" y="-1067.5" font-family="Arial" font-size="10.00">CheckInactivity Middleware</text>
</g>
<!-- F&#45;&gt;G -->
<g id="edge6" class="edge">
<title>F&#45;&gt;G</title>
<path fill="none" stroke="#475569" d="M165.5,-1124.81C165.5,-1116.79 165.5,-1107.05 165.5,-1098.07"/>
<polygon fill="#475569" stroke="#475569" points="169,-1098.03 165.5,-1088.03 162,-1098.03 169,-1098.03"/>
</g>
<!-- H -->
<g id="node11" class="node">
<title>H</title>
<path fill="#f8fafc" stroke="#334155" d="M169,-1006C169,-1006 98,-1006 98,-1006 92,-1006 86,-1000 86,-994 86,-994 86,-982 86,-982 86,-976 92,-970 98,-970 98,-970 169,-970 169,-970 175,-970 181,-976 181,-982 181,-982 181,-994 181,-994 181,-1000 175,-1006 169,-1006"/>
<text text-anchor="middle" x="133.5" y="-985.5" font-family="Arial" font-size="10.00">Logout + Redirect</text>
</g>
<!-- G&#45;&gt;H -->
<g id="edge7" class="edge">
<title>G&#45;&gt;H</title>
<path fill="none" stroke="#475569" d="M158.56,-1051.64C154.33,-1041.09 148.86,-1027.39 144.1,-1015.51"/>
<polygon fill="#475569" stroke="#475569" points="147.28,-1014.03 140.32,-1006.05 140.78,-1016.63 147.28,-1014.03"/>
<text text-anchor="middle" x="172" y="-1026.8" font-family="Arial" font-size="9.00">Timed out</text>
</g>
<!-- I -->
<g id="node12" class="node">
<title>I</title>
<path fill="#f8fafc" stroke="#334155" d="M301.64,-1004.14C301.64,-1004.14 210.59,-989.86 210.59,-989.86 204.66,-988.93 204.66,-987.07 210.59,-986.14 210.59,-986.14 301.64,-971.86 301.64,-971.86 307.57,-970.93 319.43,-970.93 325.36,-971.86 325.36,-971.86 416.41,-986.14 416.41,-986.14 422.34,-987.07 422.34,-988.93 416.41,-989.86 416.41,-989.86 325.36,-1004.14 325.36,-1004.14 319.43,-1005.07 307.57,-1005.07 301.64,-1004.14"/>
<text text-anchor="middle" x="313.5" y="-985.5" font-family="Arial" font-size="10.00">Route has role middleware?</text>
</g>
<!-- G&#45;&gt;I -->
<g id="edge8" class="edge">
<title>G&#45;&gt;I</title>
<path fill="none" stroke="#475569" d="M197.25,-1051.84C221.65,-1038.65 255.27,-1020.47 280.08,-1007.06"/>
<polygon fill="#475569" stroke="#475569" points="281.99,-1010.01 289.12,-1002.18 278.66,-1003.85 281.99,-1010.01"/>
<text text-anchor="middle" x="261" y="-1026.8" font-family="Arial" font-size="9.00">Active</text>
</g>
<!-- J -->
<g id="node13" class="node">
<title>J</title>
<path fill="#f8fafc" stroke="#334155" d="M296.5,-924C296.5,-924 202.5,-924 202.5,-924 196.5,-924 190.5,-918 190.5,-912 190.5,-912 190.5,-900 190.5,-900 190.5,-894 196.5,-888 202.5,-888 202.5,-888 296.5,-888 296.5,-888 302.5,-888 308.5,-894 308.5,-900 308.5,-900 308.5,-912 308.5,-912 308.5,-918 302.5,-924 296.5,-924"/>
<text text-anchor="middle" x="249.5" y="-903.5" font-family="Arial" font-size="10.00">CheckRole Middleware</text>
</g>
<!-- I&#45;&gt;J -->
<g id="edge9" class="edge">
<title>I&#45;&gt;J</title>
<path fill="none" stroke="#475569" d="M301.16,-971.58C292.22,-960.4 279.94,-945.05 269.6,-932.12"/>
<polygon fill="#475569" stroke="#475569" points="272.11,-929.66 263.13,-924.04 266.65,-934.03 272.11,-929.66"/>
<text text-anchor="middle" x="293.5" y="-944.8" font-family="Arial" font-size="9.00">Yes</text>
</g>
<!-- L -->
<g id="node15" class="node">
<title>L</title>
<path fill="#f8fafc" stroke="#334155" d="M332.6,-840.49C332.6,-840.49 214.86,-825.51 214.86,-825.51 208.9,-824.76 208.9,-823.24 214.86,-822.49 214.86,-822.49 332.6,-807.51 332.6,-807.51 338.55,-806.76 350.45,-806.76 356.4,-807.51 356.4,-807.51 474.14,-822.49 474.14,-822.49 480.1,-823.24 480.1,-824.76 474.14,-825.51 474.14,-825.51 356.4,-840.49 356.4,-840.49 350.45,-841.24 338.55,-841.24 332.6,-840.49"/>
<text text-anchor="middle" x="344.5" y="-821.5" font-family="Arial" font-size="10.00">Route has permission middleware?</text>
</g>
<!-- I&#45;&gt;L -->
<g id="edge12" class="edge">
<title>I&#45;&gt;L</title>
<path fill="none" stroke="#475569" d="M316.7,-970.27C322.06,-942.26 332.9,-885.63 339.34,-851.94"/>
<polygon fill="#475569" stroke="#475569" points="342.83,-852.36 341.27,-841.88 335.95,-851.04 342.83,-852.36"/>
<text text-anchor="middle" x="338" y="-903.8" font-family="Arial" font-size="9.00">No</text>
</g>
<!-- K -->
<g id="node14" class="node">
<title>K</title>
<path fill="#f8fafc" stroke="#334155" d="M231,-678C231,-678 162,-678 162,-678 156,-678 150,-672 150,-666 150,-666 150,-654 150,-654 150,-648 156,-642 162,-642 162,-642 231,-642 231,-642 237,-642 243,-648 243,-654 243,-654 243,-666 243,-666 243,-672 237,-678 231,-678"/>
<text text-anchor="middle" x="196.5" y="-657.5" font-family="Arial" font-size="10.00">403 Unauthorized</text>
</g>
<!-- J&#45;&gt;K -->
<g id="edge10" class="edge">
<title>J&#45;&gt;K</title>
<path fill="none" stroke="#475569" d="M227.93,-887.94C215.26,-876.49 200.42,-860.19 193.5,-842 173.88,-790.4 182.6,-724.39 190,-688.04"/>
<polygon fill="#475569" stroke="#475569" points="193.44,-688.7 192.13,-678.19 186.6,-687.23 193.44,-688.7"/>
<text text-anchor="middle" x="213" y="-780.8" font-family="Arial" font-size="9.00">User lacks role</text>
</g>
<!-- J&#45;&gt;L -->
<g id="edge11" class="edge">
<title>J&#45;&gt;L</title>
<path fill="none" stroke="#475569" d="M256.63,-887.58C261.02,-878.49 267.38,-867.69 275.5,-860 282.89,-853 291.95,-847.08 301.04,-842.22"/>
<polygon fill="#475569" stroke="#475569" points="302.7,-845.3 310.08,-837.7 299.57,-839.04 302.7,-845.3"/>
<text text-anchor="middle" x="303" y="-862.8" font-family="Arial" font-size="9.00">User has role</text>
</g>
<!-- M -->
<g id="node16" class="node">
<title>M</title>
<path fill="#f8fafc" stroke="#334155" d="M354,-760C354,-760 259,-760 259,-760 253,-760 247,-754 247,-748 247,-748 247,-736 247,-736 247,-730 253,-724 259,-724 259,-724 354,-724 354,-724 360,-724 366,-730 366,-736 366,-736 366,-748 366,-748 366,-754 360,-760 354,-760"/>
<text text-anchor="middle" x="306.5" y="-739.5" font-family="Arial" font-size="10.00">Spatie can: middleware</text>
</g>
<!-- L&#45;&gt;M -->
<g id="edge13" class="edge">
<title>L&#45;&gt;M</title>
<path fill="none" stroke="#475569" d="M336.81,-806.81C331.74,-796.15 324.99,-781.93 319.15,-769.63"/>
<polygon fill="#475569" stroke="#475569" points="322.16,-767.8 314.7,-760.27 315.83,-770.81 322.16,-767.8"/>
<text text-anchor="middle" x="335.5" y="-780.8" font-family="Arial" font-size="9.00">Yes</text>
</g>
<!-- N -->
<g id="node17" class="node">
<title>N</title>
<path fill="#f8fafc" stroke="#334155" d="M350,-678C350,-678 285,-678 285,-678 279,-678 273,-672 273,-666 273,-666 273,-654 273,-654 273,-648 279,-642 285,-642 285,-642 350,-642 350,-642 356,-642 362,-648 362,-654 362,-654 362,-666 362,-666 362,-672 356,-678 350,-678"/>
<text text-anchor="middle" x="317.5" y="-657.5" font-family="Arial" font-size="10.00">Controller Action</text>
</g>
<!-- L&#45;&gt;N -->
<g id="edge16" class="edge">
<title>L&#45;&gt;N</title>
<path fill="none" stroke="#475569" d="M358.04,-807.57C378.17,-782.66 411.3,-732.66 388.5,-696 384.21,-689.11 378.13,-683.53 371.3,-679.03"/>
<polygon fill="#475569" stroke="#475569" points="372.74,-675.83 362.33,-673.89 369.26,-681.9 372.74,-675.83"/>
<text text-anchor="middle" x="402" y="-739.8" font-family="Arial" font-size="9.00">No</text>
</g>
<!-- M&#45;&gt;K -->
<g id="edge14" class="edge">
<title>M&#45;&gt;K</title>
<path fill="none" stroke="#475569" d="M254.58,-724C244.28,-719.18 234.03,-713.23 225.5,-706 219.36,-700.79 214.05,-693.96 209.72,-687.19"/>
<polygon fill="#475569" stroke="#475569" points="212.51,-685.03 204.43,-678.17 206.47,-688.57 212.51,-685.03"/>
<text text-anchor="middle" x="264" y="-698.8" font-family="Arial" font-size="9.00">Permission denied</text>
</g>
<!-- M&#45;&gt;N -->
<g id="edge15" class="edge">
<title>M&#45;&gt;N</title>
<path fill="none" stroke="#475569" d="M306.43,-723.83C306.61,-715.4 307.14,-705.13 308.5,-696 308.88,-693.45 309.37,-690.81 309.93,-688.19"/>
<polygon fill="#475569" stroke="#475569" points="313.37,-688.84 312.29,-678.3 306.56,-687.21 313.37,-688.84"/>
<text text-anchor="middle" x="348.5" y="-698.8" font-family="Arial" font-size="9.00">Permission granted</text>
</g>
<!-- O -->
<g id="node18" class="node">
<title>O</title>
<path fill="#f8fafc" stroke="#334155" d="M376.5,-605C376.5,-605 258.5,-605 258.5,-605 252.5,-605 246.5,-599 246.5,-593 246.5,-593 246.5,-581 246.5,-581 246.5,-575 252.5,-569 258.5,-569 258.5,-569 376.5,-569 376.5,-569 382.5,-569 388.5,-575 388.5,-581 388.5,-581 388.5,-593 388.5,-593 388.5,-599 382.5,-605 376.5,-605"/>
<text text-anchor="middle" x="317.5" y="-584.5" font-family="Arial" font-size="10.00">BelongsToUnit Global Scope</text>
</g>
<!-- N&#45;&gt;O -->
<g id="edge17" class="edge">
<title>N&#45;&gt;O</title>
<path fill="none" stroke="#475569" d="M317.5,-641.81C317.5,-633.79 317.5,-624.05 317.5,-615.07"/>
<polygon fill="#475569" stroke="#475569" points="321,-615.03 317.5,-605.03 314,-615.03 321,-615.03"/>
</g>
<!-- P -->
<g id="node19" class="node">
<title>P</title>
<path fill="#f8fafc" stroke="#334155" d="M380.5,-532C380.5,-532 254.5,-532 254.5,-532 248.5,-532 242.5,-526 242.5,-520 242.5,-520 242.5,-508 242.5,-508 242.5,-502 248.5,-496 254.5,-496 254.5,-496 380.5,-496 380.5,-496 386.5,-496 392.5,-502 392.5,-508 392.5,-508 392.5,-520 392.5,-520 392.5,-526 386.5,-532 380.5,-532"/>
<text text-anchor="middle" x="317.5" y="-511.5" font-family="Arial" font-size="10.00">Data filtered by current_unit_id</text>
</g>
<!-- O&#45;&gt;P -->
<g id="edge18" class="edge">
<title>O&#45;&gt;P</title>
<path fill="none" stroke="#475569" d="M317.5,-568.81C317.5,-560.79 317.5,-551.05 317.5,-542.07"/>
<polygon fill="#475569" stroke="#475569" points="321,-542.03 317.5,-532.03 314,-542.03 321,-542.03"/>
</g>
<!-- Q -->
<g id="node20" class="node">
<title>Q</title>
<path fill="#f8fafc" stroke="#334155" d="M305.8,-456.34C305.8,-456.34 250.03,-443.66 250.03,-443.66 244.18,-442.33 244.18,-439.67 250.03,-438.34 250.03,-438.34 305.8,-425.66 305.8,-425.66 311.65,-424.33 323.35,-424.33 329.2,-425.66 329.2,-425.66 384.97,-438.34 384.97,-438.34 390.82,-439.67 390.82,-442.33 384.97,-443.66 384.97,-443.66 329.2,-456.34 329.2,-456.34 323.35,-457.67 311.65,-457.67 305.8,-456.34"/>
<text text-anchor="middle" x="317.5" y="-438.5" font-family="Arial" font-size="10.00">Mutation request?</text>
</g>
<!-- P&#45;&gt;Q -->
<g id="edge19" class="edge">
<title>P&#45;&gt;Q</title>
<path fill="none" stroke="#475569" d="M317.5,-495.81C317.5,-487.79 317.5,-478.05 317.5,-469.07"/>
<polygon fill="#475569" stroke="#475569" points="321,-469.03 317.5,-459.03 314,-469.03 321,-469.03"/>
</g>
<!-- Q&#45;&gt;T -->
<g id="edge22" class="edge">
<title>Q&#45;&gt;T</title>
<path fill="none" stroke="#475569" d="M316.53,-422.94C314.97,-390.74 312.81,-318.85 320.5,-259 322.7,-241.87 327.22,-223.05 331.3,-208.18"/>
<polygon fill="#475569" stroke="#475569" points="334.79,-208.72 334.16,-198.14 328.06,-206.8 334.79,-208.72"/>
<text text-anchor="middle" x="322" y="-315.8" font-family="Arial" font-size="9.00">No</text>
</g>
<!-- R -->
<g id="node21" class="node">
<title>R</title>
<path fill="#f8fafc" stroke="#334155" d="M447,-377C447,-377 364,-377 364,-377 358,-377 352,-371 352,-365 352,-365 352,-353 352,-353 352,-347 358,-341 364,-341 364,-341 447,-341 447,-341 453,-341 459,-347 459,-353 459,-353 459,-365 459,-365 459,-371 453,-377 447,-377"/>
<text text-anchor="middle" x="405.5" y="-356.5" font-family="Arial" font-size="10.00">AuditLog Middleware</text>
</g>
<!-- Q&#45;&gt;R -->
<g id="edge20" class="edge">
<title>Q&#45;&gt;R</title>
<path fill="none" stroke="#475569" d="M332.83,-426.07C345.58,-414.48 364.01,-397.72 379.12,-383.98"/>
<polygon fill="#475569" stroke="#475569" points="381.63,-386.43 386.68,-377.11 376.92,-381.25 381.63,-386.43"/>
<text text-anchor="middle" x="374.5" y="-397.8" font-family="Arial" font-size="9.00">Yes</text>
</g>
<!-- S -->
<g id="node22" class="node">
<title>S</title>
<path fill="#f8fafc" stroke="#334155" d="M515.5,-295C515.5,-295 341.5,-295 341.5,-295 335.5,-295 329.5,-289 329.5,-283 329.5,-283 329.5,-271 329.5,-271 329.5,-265 335.5,-259 341.5,-259 341.5,-259 515.5,-259 515.5,-259 521.5,-259 527.5,-265 527.5,-271 527.5,-271 527.5,-283 527.5,-283 527.5,-289 521.5,-295 515.5,-295"/>
<text text-anchor="middle" x="428.5" y="-274.5" font-family="Arial" font-size="10.00">Log: method, URL, IP, user_agent, status</text>
</g>
<!-- R&#45;&gt;S -->
<g id="edge21" class="edge">
<title>R&#45;&gt;S</title>
<path fill="none" stroke="#475569" d="M410.49,-340.64C413.49,-330.19 417.38,-316.67 420.78,-304.86"/>
<polygon fill="#475569" stroke="#475569" points="424.2,-305.63 423.6,-295.05 417.47,-303.69 424.2,-305.63"/>
</g>
<!-- S&#45;&gt;T -->
<g id="edge23" class="edge">
<title>S&#45;&gt;T</title>
<path fill="none" stroke="#475569" d="M412.18,-258.58C398.38,-243.84 378.43,-222.56 362.93,-206.01"/>
<polygon fill="#475569" stroke="#475569" points="365.11,-203.22 355.72,-198.31 360,-208 365.11,-203.22"/>
</g>
</g>
</svg>
